<?xml version="1.0" encoding="utf-8"?>
<svg xmlns="http://www.w3.org/2000/svg" xmlns:xlink="http://www.w3.org/1999/xlink">
  <defs>
    <svg fill="currentColor" viewBox="0 0 24 24" id="pl-icon-account-owner" xmlns="http://www.w3.org/2000/svg">
      <path fill-rule="evenodd"
            d="M19.078 20.455c.394 0 .72.288.772.667l.007.105a.772.772 0 0 1-.78.773H4.923a.772.772 0 1 1 0-1.545h14.156zM12 5c.868 0 1.571.692 1.571 1.545 0 .691-.46 1.276-1.096 1.474l3.796 5.6c.245.36.646.355.887 0l3.399-5.015c-.422-.277-.7-.75-.7-1.286 0-.853.704-1.545 1.572-1.545.867 0 1.571.692 1.571 1.545 0 .854-.704 1.546-1.571 1.546-.066 0-.131-.004-.195-.012l-1.279 10.056a.915.915 0 0 1-.877.774H4.922a.917.917 0 0 1-.877-.774L2.766 8.852a1.613 1.613 0 0 1-.195.012C1.704 8.864 1 8.172 1 7.318c0-.853.704-1.545 1.571-1.545.868 0 1.572.692 1.572 1.545 0 .536-.278 1.009-.7 1.286l3.4 5.014c.244.362.645.356.886 0l3.796-5.599a1.55 1.55 0 0 1-1.096-1.474C10.429 5.692 11.132 5 12 5zM7.286 16.59a.78.78 0 0 0-.786.774.78.78 0 0 0 .786.772.78.78 0 0 0 .785-.772.78.78 0 0 0-.785-.773zm9.428 0a.78.78 0 0 0-.785.774.78.78 0 0 0 .785.772.78.78 0 0 0 .786-.772.78.78 0 0 0-.786-.773zm-4.714 0a.78.78 0 0 0-.786.774.78.78 0 0 0 .786.772.78.78 0 0 0 .786-.772.78.78 0 0 0-.786-.773z"/>
    </svg>
    <svg fill="currentColor" viewBox="0 0 24 24" id="pl-icon-add" xmlns="http://www.w3.org/2000/svg">
      <path fill-rule="evenodd"
            d="M20.685 13.315h-7.37v7.37a1.317 1.317 0 0 1-2.631 0v-7.37H3.317a1.317 1.317 0 0 1 0-2.631h7.369V3.315a1.316 1.316 0 0 1 2.631 0v7.37h7.368a1.316 1.316 0 0 1 0 2.631z"/>
    </svg>
    <svg fill="currentColor" viewBox="0 0 24 24" id="pl-icon-add-circle" xmlns="http://www.w3.org/2000/svg">
      <path fill-rule="evenodd"
            d="M12 4c-4.416 0-8 3.584-8 8s3.584 8 8 8 8-3.584 8-8-3.584-8-8-8m3.2 8.801h-2.4V15.2a.8.8 0 1 1-1.6 0v-2.399H8.8a.8.8 0 0 1 0-1.601h2.4V8.801a.8.8 0 1 1 1.6 0V11.2h2.4a.8.8 0 0 1 0 1.601"/>
    </svg>
    <svg fill="currentColor" viewBox="0 0 24 24" id="pl-icon-app-switcher" xmlns="http://www.w3.org/2000/svg">
      <path fill-rule="evenodd"
            d="M21.196 17.385c.444 0 .804.362.804.804v3.007a.805.805 0 0 1-.804.804H18.19a.805.805 0 0 1-.804-.804V18.19c0-.444.362-.804.804-.804h3.007zm-7.692 0c.444 0 .804.362.804.804v3.007a.805.805 0 0 1-.804.804h-3.008a.805.805 0 0 1-.804-.804V18.19c0-.444.362-.804.804-.804h3.008zm-7.693 0c.444 0 .804.362.804.804v3.007a.805.805 0 0 1-.804.804H2.804A.805.805 0 0 1 2 21.196V18.19c0-.444.362-.804.804-.804H5.81zm15.385-7.693c.444 0 .804.362.804.804v3.008a.805.805 0 0 1-.804.804H18.19a.805.805 0 0 1-.804-.804v-3.008c0-.444.362-.804.804-.804h3.007zm-7.692 0c.444 0 .804.362.804.804v3.008a.805.805 0 0 1-.804.804h-3.008a.805.805 0 0 1-.804-.804v-3.008c0-.444.362-.804.804-.804h3.008zm-7.693 0c.444 0 .804.362.804.804v3.008a.805.805 0 0 1-.804.804H2.804A.805.805 0 0 1 2 13.504v-3.008c0-.444.362-.804.804-.804H5.81zM21.196 2c.444 0 .804.362.804.804V5.81a.805.805 0 0 1-.804.804H18.19a.805.805 0 0 1-.804-.804V2.804c0-.444.362-.804.804-.804h3.007zm-7.692 0c.444 0 .804.362.804.804V5.81a.805.805 0 0 1-.804.804h-3.008a.805.805 0 0 1-.804-.804V2.804c0-.444.362-.804.804-.804h3.008zM5.81 2c.444 0 .804.362.804.804V5.81a.805.805 0 0 1-.804.804H2.804A.805.805 0 0 1 2 5.811V2.804C2 2.36 2.362 2 2.804 2H5.81z"/>
    </svg>
    <svg fill="currentColor" viewBox="0 0 24 24" id="pl-icon-back" xmlns="http://www.w3.org/2000/svg">
      <path fill-rule="evenodd"
            d="M6.76 11.297l9.449-9.005c.41-.39 1.074-.39 1.484 0a.969.969 0 0 1 0 1.415L8.968 12.02l8.683 8.273a.969.969 0 0 1 0 1.415c-.41.39-1.075.39-1.484 0L6.76 12.743a1 1 0 0 1 0-1.447z"/>
    </svg>
    <svg fill="currentColor" viewBox="0 0 24 24" id="pl-icon-calendar" xmlns="http://www.w3.org/2000/svg">
      <path fill-rule="evenodd"
            d="M7.001 2C7.553 2 8 2.44 8 3.01v1.847h8V3.01c0-.558.443-1.01.999-1.01h1.002c.552 0 .999.44.999 1.01v1.847h2.008a.99.99 0 0 1 .992.996v15.151c0 .55-.455.996-.992.996H2.992A.99.99 0 0 1 2 21.004V5.853c0-.55.455-.996.992-.996H5V3.01C5 2.452 5.443 2 5.999 2h1.002zm12.503 6H4.496A.503.503 0 0 0 4 8.504v11.087c0 .273.222.504.496.504h15.008c.27 0 .496-.226.496-.504V8.504A.504.504 0 0 0 19.504 8zM9.5 14.734v2.98h-3v-2.98h3zm4 0v2.98h-3v-2.98h3zm4 0v2.98h-3v-2.98h3zm-8-3.973v2.98h-3v-2.98h3zm4 0v2.98h-3v-2.98h3zm4 0v2.98h-3v-2.98h3z"/>
    </svg>
    <svg fill="currentColor" viewBox="0 0 24 24" id="pl-icon-caret-down" xmlns="http://www.w3.org/2000/svg">
      <path fill-rule="evenodd"
            d="M6.031 9c-.884 0-1.357.996-.774 1.632L11.999 18l6.744-7.368c.584-.636.109-1.632-.775-1.632H6.031z"/>
    </svg>
    <svg fill="currentColor" viewBox="0 0 24 24" id="pl-icon-caret-right" xmlns="http://www.w3.org/2000/svg">
      <path fill-rule="evenodd"
            d="M7.227 17.368V5.775c0-.858 1.012-1.319 1.658-.752l7.485 6.55-7.485 6.547c-.646.566-1.658.107-1.658-.752z"/>
    </svg>
    <svg fill="currentColor" viewBox="0 0 24 24" id="pl-icon-caret-up" xmlns="http://www.w3.org/2000/svg">
      <path fill-rule="evenodd"
            d="M6.031 18c-.846 0-1.315-.911-.844-1.547l.07-.085L11.999 9l6.744 7.368c.558.608.148 1.546-.662 1.626l-.113.006H6.031z"/>
    </svg>
    <svg fill="currentColor" viewBox="0 0 24 24" id="pl-icon-checkmark" xmlns="http://www.w3.org/2000/svg">
      <path fill-rule="evenodd"
            d="M9.147 16.366L20.105 5.127a1.25 1.25 0 0 1 1.79 1.746L10.063 19.007a1.25 1.25 0 0 1-1.769.021l-6.168-6.03a1.25 1.25 0 0 1 1.748-1.788l5.273 5.156z"/>
    </svg>
    <svg fill="currentColor" viewBox="0 0 24 24" id="pl-icon-chevron-left" xmlns="http://www.w3.org/2000/svg">
      <defs>
        <path id="aka"
              d="M7.14 12.012l5.836-5.837a.6.6 0 0 1 .848.85l-4.987 4.987 4.963 4.963a.601.601 0 0 1-.848.85L7.14 12.012z"/>
      </defs>
      <use fill-rule="evenodd" xlink:href="#aka"/>
    </svg>
    <svg fill="currentColor" viewBox="0 0 24 24" id="pl-icon-chevron-right" xmlns="http://www.w3.org/2000/svg">
      <defs>
        <path id="ala"
              d="M16.86 11.988l-5.836 5.837a.6.6 0 0 1-.848-.85l4.987-4.987L10.2 7.025a.601.601 0 0 1 .848-.85l5.812 5.813z"/>
      </defs>
      <use fill-rule="evenodd" xlink:href="#ala"/>
    </svg>
    <svg fill="currentColor" viewBox="0 0 24 24" id="pl-icon-chevron-up" xmlns="http://www.w3.org/2000/svg">
      <path fill-rule="evenodd"
            d="M12.012 10l-5.837 5.955a.622.622 0 0 0 0 .866.593.593 0 0 0 .85 0l4.987-5.09 4.963 5.065a.593.593 0 0 0 .85 0 .622.622 0 0 0 0-.865L12.012 10z"/>
    </svg>
    <svg fill="currentColor" viewBox="0 0 24 24" id="pl-icon-close" xmlns="http://www.w3.org/2000/svg">
      <path fill-rule="evenodd"
            d="M21.483 5.012L14.495 12l6.988 6.987a1.766 1.766 0 0 1-2.495 2.495L12 14.495l-6.987 6.987a1.766 1.766 0 0 1-2.495-2.495L9.504 12 2.517 5.012a1.765 1.765 0 0 1 2.495-2.495L12 9.504l6.987-6.987a1.765 1.765 0 0 1 2.495 2.495"/>
    </svg>
    <svg fill="currentColor" viewBox="0 0 24 24" id="pl-icon-collapse-horizontal" xmlns="http://www.w3.org/2000/svg">
      <path fill-rule="evenodd"
            d="M19.791 5.205a.692.692 0 0 1 0 .99l-5.927 5.82 5.899 5.79a.692.692 0 0 1 0 .99.723.723 0 0 1-1.008 0l-6.392-6.274a.715.715 0 0 1 0-1.013l6.42-6.303a.723.723 0 0 1 1.008 0zm-8.152 0a.692.692 0 0 1 0 .99l-5.928 5.82 5.9 5.79a.692.692 0 0 1 0 .99.723.723 0 0 1-1.01 0l-6.39-6.274a.715.715 0 0 1 0-1.013l6.42-6.303a.723.723 0 0 1 1.008 0z"/>
    </svg>
    <svg fill="currentColor" viewBox="0 0 24 24" id="pl-icon-collapse-vertical" xmlns="http://www.w3.org/2000/svg">
      <path fill-rule="evenodd"
            d="M12.012 14.14l5.813 5.812a.6.6 0 0 1-.85.848l-4.963-4.963-4.988 4.988a.601.601 0 0 1-.848-.849l5.836-5.836zm0-4.28L6.175 4.024a.6.6 0 0 1 .85-.849l4.987 4.988L16.975 3.2a.601.601 0 0 1 .85.848L12.012 9.86z"/>
    </svg>
    <svg fill="currentColor" viewBox="0 0 24 24" id="pl-icon-community" xmlns="http://www.w3.org/2000/svg">
      <path fill-rule="evenodd"
            d="M12.8 10a4.2 4.2 0 0 1 4.2 4.2V21H7v-6.8a4.2 4.2 0 0 1 4.2-4.2h1.6zm7.2 2a2 2 0 0 1 2 2v4h-4v-3.8a4.15 4.15 0 0 0-.58-2.1A2 2 0 0 1 18 12zM6 12a2 2 0 0 1 .58.1A4.15 4.15 0 0 0 6 14.2V18H2v-4a2 2 0 0 1 2-2zM5 7a2 2 0 1 1 0 4 2 2 0 0 1 0-4zm14 0a2 2 0 1 1 0 4 2 2 0 0 1 0-4zm-7-4a3 3 0 1 1 0 6 3 3 0 0 1 0-6z"/>
    </svg>
    <svg fill="currentColor" viewBox="0 0 24 24" id="pl-icon-contact" xmlns="http://www.w3.org/2000/svg">
      <path fill-rule="evenodd"
            d="M13.62 12.672L21 18.757c-.305.162-.65.245-1 .243H4a2.116 2.116 0 0 1-.9-.205l7.29-6.123 1.28 1.073c.19.16.48.16.67 0l1.28-1.073zM2.31 5.878L9.23 11.7a.445.445 0 0 1 .169.346.445.445 0 0 1-.169.345L2.34 18.18A1.78 1.78 0 0 1 2 17.133V6.867c.002-.35.11-.693.31-.99zm19.38.009c.199.293.306.633.31.98v10.266c-.002.35-.11.694-.31.99l-6.92-5.73a.445.445 0 0 1-.169-.346c0-.133.062-.259.169-.346zM20 5c.35-.002.695.082 1 .243l-8.66 7.224c-.19.16-.48.16-.67 0L3 5.234c.306-.158.65-.239 1-.234z"/>
    </svg>
    <svg fill="currentColor" viewBox="0 0 24 24" id="pl-icon-copy" xmlns="http://www.w3.org/2000/svg">
      <path fill-rule="evenodd"
            d="M15.749 6.086c.691 0 1.251.598 1.251 1.335v13.332c0 .737-.56 1.333-1.251 1.333h-12.5C2.56 22.086 2 21.49 2 20.753V7.421c0-.737.559-1.335 1.25-1.335h12.499zM4 20.086h11v-12H4v12zm16.75-18c.69 0 1.25.597 1.25 1.334v13.332c0 .737-.56 1.334-1.25 1.334h-1.976v-1.974h1.374V4.06H8.85v1.007H7V3.42c0-.737.56-1.334 1.251-1.334h12.5-.001z"/>
    </svg>
    <svg fill="currentColor" viewBox="0 0 24 24" id="pl-icon-credit-card" xmlns="http://www.w3.org/2000/svg">
      <path fill-rule="evenodd"
            d="M22 11.013v6.993A1.997 1.997 0 0 1 20.01 20H3.99C2.892 20 2 19.105 2 18.006v-6.993h20zM10.01 15H5.99A1 1 0 0 0 5 16c0 .556.444 1 .99 1h4.02a1 1 0 0 0 .99-1l-.007-.117A.992.992 0 0 0 10.01 15zm10-11C21.108 4 22 4.895 22 5.994v3.019H2V5.994C2 4.893 2.898 4 3.99 4h16.02z"/>
    </svg>
    <svg fill="currentColor" viewBox="0 0 24 24" id="pl-icon-critical-error" xmlns="http://www.w3.org/2000/svg">
      <path fill-rule="evenodd"
            d="M15.913 2c.147 0 .289.059.393.163l5.531 5.532a.556.556 0 0 1 .163.393v7.824a.556.556 0 0 1-.163.393l-5.532 5.532a.556.556 0 0 1-.393.163H8.088a.556.556 0 0 1-.393-.163l-5.532-5.532A.556.556 0 0 1 2 15.912V8.088c0-.148.059-.29.163-.393l5.531-5.532A.556.556 0 0 1 8.087 2zm-.253 5.556a.783.783 0 0 0-.554.23L12 10.89 8.894 7.785a.784.784 0 0 0-1.11 1.109h.001L10.891 12l-3.106 3.106a.785.785 0 0 0 1.11 1.109L12 13.108l3.106 3.105a.785.785 0 0 0 1.11-1.109h-.001L13.109 12l3.106-3.106a.784.784 0 0 0-.555-1.339z"/>
    </svg>
    <svg fill="currentColor" viewBox="0 0 24 24" id="pl-icon-delete" xmlns="http://www.w3.org/2000/svg">
      <path fill-rule="evenodd"
            d="M17.188 19.158c0 .54-.42.978-.938.978s-.938-.438-.938-.978v-8.8c0-.54.42-.977.938-.977.517 0 .938.438.938.978v8.799zm-3.75 0c0 .54-.42.978-.938.978s-.938-.438-.938-.978v-8.8c0-.54.42-.977.938-.977s.938.438.938.978v8.799zm-3.75 0c0 .54-.42.978-.938.978s-.938-.438-.938-.978v-8.8c0-.54.42-.977.938-.977s.938.438.938.978v8.799zM5.938 7.335v12.743c0 1.08.839 1.922 1.875 1.922h9.375c1.035 0 1.875-.842 1.875-1.922V7.335H5.938zm10.312-3.38h-7.5C8.75 2.875 9.59 2 10.625 2h3.75c1.036 0 1.875.875 1.875 1.955zm2.813 1.956H5.938C5.42 5.91 5 5.473 5 4.933s.42-.978.938-.978h13.125c.517 0 .937.438.937.978s-.42.978-.938.978"/>
    </svg>
    <svg fill="currentColor" viewBox="0 0 24 24" id="pl-icon-document" xmlns="http://www.w3.org/2000/svg">
      <path fill-rule="evenodd"
            d="M14.5 2h-10C3.12 2 2 3.053 2 4.353v15.294C2 20.947 3.12 22 4.5 22h15c1.38 0 2.5-1.053 2.5-2.353V9.06L14.5 2zm-9.375 8.162h5c.345 0 .625.263.625.588 0 .325-.28.588-.625.588h-5c-.345 0-.625-.263-.625-.588 0-.325.28-.588.625-.588zm11.25 8.235H5.125c-.345 0-.625-.263-.625-.588 0-.325.28-.588.625-.588h11.25c.345 0 .625.263.625.588 0 .325-.28.588-.625.588zm0-3.603H5.125c-.345 0-.625-.263-.625-.588 0-.325.28-.588.625-.588h11.25c.345 0 .625.263.625.588 0 .325-.28.588-.625.588zM14.5 9.06V3.176l6.35 5.883H14.5z"/>
    </svg>
    <svg fill="currentColor" viewBox="0 0 24 24" id="pl-icon-documentation" xmlns="http://www.w3.org/2000/svg">
      <path fill-rule="evenodd"
            d="M16 2H8a2 2 0 0 0-2 2v13a2 2 0 0 0 2 2h12a2 2 0 0 0 2-2V8l-6-6zm-7.5 8h4a.5.5 0 1 1 0 1h-4a.5.5 0 1 1 0-1zm9 7h-9a.5.5 0 1 1 0-1h9a.5.5 0 1 1 0 1zm0-2h-9a.5.5 0 1 1 0-1h9a.5.5 0 1 1 0 1zm0-2h-9a.5.5 0 1 1 0-1h9a.5.5 0 1 1 0 1zM5 5v13a2 2 0 0 0 2 2h11l-.005.15A2 2 0 0 1 16 22H4a2 2 0 0 1-2-2V7a2 2 0 0 1 2-2h1zm11-2l5.08 5H16V3z"/>
    </svg>
    <svg fill="currentColor" viewBox="0 0 24 24" id="pl-icon-download" xmlns="http://www.w3.org/2000/svg">
      <path fill-rule="evenodd"
            d="M20.846 22H3.154A1.14 1.14 0 0 1 2 20.872v-5.639a1.14 1.14 0 0 1 1.154-1.127c.637 0 1.154.505 1.154 1.127v4.511h15.384v-4.51a1.14 1.14 0 0 1 1.154-1.128c.637 0 1.154.505 1.154 1.127v5.639c0 .623-.517 1.128-1.154 1.128M16.319 9.897l-3.461 3.76a1.165 1.165 0 0 1-.858.372c-.34 0-.646-.144-.858-.373L7.68 9.896a1.112 1.112 0 0 1-.295-.753c0-.623.516-1.128 1.153-1.128.34 0 .647.143.858.373l1.45 1.575V3.128A1.14 1.14 0 0 1 12 2c.637 0 1.154.505 1.154 1.128v6.835l1.45-1.575c.211-.23.517-.373.857-.373.638 0 1.154.505 1.154 1.128 0 .29-.112.554-.296.754"/>
    </svg>
    <svg fill="currentColor" viewBox="0 0 24 24" id="pl-icon-drag" xmlns="http://www.w3.org/2000/svg">
      <path fill-rule="evenodd"
            d="M11 9a1 1 0 1 1 0-2 1 1 0 0 1 0 2zm0 3a1 1 0 1 1 0-2 1 1 0 0 1 0 2zm0 3a1 1 0 1 1 0-2 1 1 0 0 1 0 2zm0 3a1 1 0 1 1 0-2 1 1 0 0 1 0 2zm3-9a1 1 0 1 1 0-2 1 1 0 0 1 0 2zm0 3a1 1 0 1 1 0-2 1 1 0 0 1 0 2zm0 3a1 1 0 1 1 0-2 1 1 0 0 1 0 2zm0 3a1 1 0 1 1 0-2 1 1 0 0 1 0 2z"/>
    </svg>
    <svg fill="currentColor" viewBox="0 0 24 24" id="pl-icon-edit" xmlns="http://www.w3.org/2000/svg">
      <path fill-rule="evenodd"
            d="M4.056 16.433L14.604 5.88 18.12 9.4 7.572 19.95l-3.516-3.517zM18.12 2.364a1.242 1.242 0 0 1 1.758 0l1.758 1.759a1.243 1.243 0 0 1 0 1.758L18.999 8.52l-3.516-3.517 2.637-2.638zM2 22l1.17-4.689 3.517 3.518L2 22z"/>
    </svg>
    <svg fill="currentColor" viewBox="0 0 24 24" id="pl-icon-email" xmlns="http://www.w3.org/2000/svg">
      <path fill-rule="evenodd"
            d="M13.09 13.616c-.573.785-1.032 1.07-1.514 1.07-.757 0-1.192-.523-1.192-1.593 0-1.427.825-3.377 2.202-3.377.458 0 .825.238 1.054.69l-.55 3.21zm6.106-8.503A9.352 9.352 0 0 0 12.25 2C7.149 2 3 5.828 3 12.062c0 6.172 4.149 10.062 9.25 10.062 2.643 0 4.856-.758 7.174-2.458a1 1 0 1 0-1.182-1.613c-1.98 1.452-3.772 2.071-5.992 2.071-3.998 0-7.25-3.012-7.25-8.062C5 6.922 8.252 4 12.25 4c2.042 0 4.082.915 5.458 2.449 1.155 1.287 1.733 2.876 1.672 4.482-.006.162-.015.32-.031.473l-.077.512c-.353 1.879-1.465 3.032-2.604 3.032-1.033 0-1.376-.666-1.056-2.045l.836-4.144a.908.908 0 0 0-.89-1.088s-.615-.174-.887.104c-.271.279-.457.895-.457.895-.39-.856-.986-1.189-1.743-1.189-2.638 0-4.633 2.925-4.633 5.826 0 2.188 1.216 3.567 3.027 3.567.796 0 1.755-.459 2.448-1.162a.327.327 0 0 1 .526.09c.417.835 1.357 1.31 2.461 1.31 2.409 0 4.714-2.044 5.04-5.509.245-2.599-.505-4.664-2.144-6.49z"/>
    </svg>
    <svg fill="currentColor" viewBox="0 0 24 24" id="pl-icon-expand-vertical" xmlns="http://www.w3.org/2000/svg">
      <path fill-rule="evenodd"
            d="M12.012 22l-5.837-5.836a.6.6 0 0 1 .85-.849l4.987 4.988 4.963-4.964a.601.601 0 0 1 .85.849L12.012 22zm0-20l5.813 5.812a.6.6 0 0 1-.85.849l-4.963-4.964-4.988 4.988a.601.601 0 0 1-.848-.849L12.012 2z"/>
    </svg>
    <svg fill="currentColor" viewBox="0 0 24 24" id="pl-icon-explore" xmlns="http://www.w3.org/2000/svg">
      <path fill-rule="evenodd"
            d="M12 2c5.523 0 10 4.477 10 10s-4.477 10-10 10S2 17.523 2 12 6.477 2 12 2zm4.243 2.652l-6.227 5.46a2 2 0 0 0-.643 1.114l-1.616 8.122 6.227-5.46a2 2 0 0 0 .643-1.114l1.616-8.122zM12 11a1 1 0 1 1 0 2 1 1 0 0 1 0-2z"/>
    </svg>
    <svg fill="currentColor" viewBox="0 0 24 24" id="pl-icon-filter" xmlns="http://www.w3.org/2000/svg">
      <path fill-rule="evenodd"
            d="M3.5 2h16.192a.5.5 0 0 1 .424.766l-6.884 10.979V22L9.96 20.333v-6.588L3.076 2.765A.5.5 0 0 1 3.5 2z"/>
    </svg>
    <svg fill="currentColor" viewBox="0 0 24 24" id="pl-icon-help" xmlns="http://www.w3.org/2000/svg">
      <path fill-rule="evenodd"
            d="M12 22c5.523 0 10-4.477 10-10S17.523 2 12 2 2 6.477 2 12s4.477 10 10 10zm-1.009-9.262c0-.267.036-.494.107-.68a1.41 1.41 0 0 1 .36-.52c.249-.24.478-.45.686-.627.21-.178.39-.344.54-.5.152-.155.27-.302.354-.44a.817.817 0 0 0 .126-.433c0-.294-.09-.522-.273-.687a.986.986 0 0 0-.687-.247c-.417 0-.735.116-.953.347-.218.231-.34.511-.367.84l-2.053-.133c.098-.942.445-1.66 1.04-2.154.596-.493 1.36-.74 2.293-.74.41 0 .794.056 1.154.167.36.111.678.278.953.5.276.222.493.498.653.827.16.329.24.706.24 1.133 0 .258-.026.491-.08.7a2.17 2.17 0 0 1-.273.62 3.616 3.616 0 0 1-.507.62 8.595 8.595 0 0 1-.793.687c-.204.16-.342.315-.413.466a1.057 1.057 0 0 0-.107.454v.386h-2v-.586zm-.227 2.56a1.248 1.248 0 0 1 .354-.874 1.248 1.248 0 0 1 .873-.353 1.248 1.248 0 0 1 .873.353 1.248 1.248 0 0 1 .353.873 1.248 1.248 0 0 1-.353.874 1.248 1.248 0 0 1-.873.353 1.248 1.248 0 0 1-.873-.353 1.248 1.248 0 0 1-.353-.873z"/>
    </svg>
    <svg fill="currentColor" viewBox="0 0 24 24" id="pl-icon-hint" xmlns="http://www.w3.org/2000/svg">
      <path fill-rule="evenodd"
            d="M21.063 18.207H8.325l-2.538 2.52a.938.938 0 0 1-.663.273l-.012-.001a.936.936 0 0 1-.65-.272l-.011-.012a.972.972 0 0 1-.104-.125c-.013-.018-.02-.039-.032-.058-.019-.032-.04-.065-.055-.1-.007-.018-.01-.036-.016-.053-.015-.04-.03-.08-.038-.122a.931.931 0 0 1-.02-.188v-1.862h-1.25A.934.934 0 0 1 2 17.276V3.93C2 3.417 2.42 3 2.938 3h18.125c.517 0 .937.417.937.931v13.345c0 .514-.42.93-.938.93m-.937-13.344v11.483H7.549L6.062 17.82v-1.476H3.876V4.862h16.25zm-6.99 3.769h-1.654v5.541h1.654V8.631zm-.832-2.525c-.552 0-.957.346-.957.849s.405.86.957.86c.562 0 .956-.357.956-.86s-.394-.85-.957-.85z"/>
    </svg>
    <svg fill="currentColor" viewBox="0 0 24 24" id="pl-icon-home" xmlns="http://www.w3.org/2000/svg">
      <path fill-rule="evenodd"
            d="M15 22v-6.023H9V22H2V7.95c0-.179.096-.345.251-.434l9.5-5.45a.503.503 0 0 1 .498 0l9.5 5.45a.5.5 0 0 1 .251.433V22h-7z"/>
    </svg>
    <svg fill="currentColor" viewBox="0 0 24 24" id="pl-icon-image" xmlns="http://www.w3.org/2000/svg">
      <path fill-rule="evenodd"
            d="M7.11 10.667L15.825 22H4.5A2.5 2.5 0 0 1 2 19.5v-2.412l5.11-6.421zM17.788 14L22 18.894v.606a2.5 2.5 0 0 1-2.5 2.5h-2.122a.626.626 0 0 0-.08-.136l-3.386-4.403L17.789 14zM19.5 2A2.5 2.5 0 0 1 22 4.5v12.477l-3.679-4.275a.625.625 0 0 0-.89-.059l-4.283 3.825-5.535-7.196a.625.625 0 0 0-.985-.008L2 15.08V4.5A2.5 2.5 0 0 1 4.5 2h15zm-5.832 3.125a2.5 2.5 0 1 0 0 5 2.5 2.5 0 0 0 0-5zm0 1.25a1.25 1.25 0 1 1 0 2.5 1.25 1.25 0 0 1 0-2.5z"/>
    </svg>
    <svg fill="currentColor" viewBox="0 0 24 24" id="pl-icon-info" xmlns="http://www.w3.org/2000/svg">
      <path fill-rule="evenodd"
            d="M10.695 16.11h-.947a.749.749 0 0 0 0 1.497h4.503a.749.749 0 1 0 0-1.497h-.947V9.911c0-.72-.584-1.304-1.304-1.304H9.747a.748.748 0 0 0 0 1.495h.948v6.008zM2 12C2 6.477 6.477 2 12 2s10 4.477 10 10-4.477 10-10 10S2 17.523 2 12zm10-7a1.304 1.304 0 1 0 0 2.608A1.304 1.304 0 0 0 12 5z"/>
    </svg>
    <svg fill="currentColor" viewBox="0 0 24 24" id="pl-icon-invite" xmlns="http://www.w3.org/2000/svg">
      <path fill-rule="evenodd" d="M7 18v-4l13-9L7 18zm-5-7l4 2v8l5-5 8 4 3-17-20 8z"/>
    </svg>
    <svg fill="currentColor" viewBox="0 0 24 24" id="pl-icon-license-agreements" xmlns="http://www.w3.org/2000/svg">
      <path fill-rule="evenodd"
            d="M4.238 2.5l.171.005h10.477v3.81c0 .525.426.952.952.952h3.81v12.38c0 1.048-1.315 1.905-2.362 1.905H3.952c-1.047 0-1.447-.857-1.447-1.904V4.409a1.781 1.781 0 0 1 1.904-1.904zm14.029.005l3.285 3.543v13.6a1.905 1.905 0 0 1-1.904 1.904V20.6a.952.952 0 0 0 .952-.952V6.418l-3.638-3.913h1.305zm-1.081 11.181a.543.543 0 0 0-.396.171l-3.923 3.971-1.79-1.79a.546.546 0 1 0-.791.752l2.533 2.6 4.762-4.762a.543.543 0 0 0 0-.771.543.543 0 0 0-.395-.17zm-9.443 2.152H4.886a.476.476 0 0 0-.477.476l.008.086c.04.222.235.39.469.39h2.857a.476.476 0 0 0 .476-.476l-.008-.085a.476.476 0 0 0-.468-.391zm5.714-2.857H4.886a.476.476 0 0 0-.477.476l.008.086c.04.222.235.39.469.39h8.571a.476.476 0 0 0 .476-.476l-.007-.086a.476.476 0 0 0-.469-.39zm0-2.857H4.886a.476.476 0 0 0-.477.476l.008.085c.04.223.235.391.469.391h8.571a.476.476 0 0 0 .476-.476l-.007-.086a.476.476 0 0 0-.469-.39zm2.381-7.62l3.81 3.81H16.79a.952.952 0 0 1-.952-.952V2.505z"/>
    </svg>
    <svg fill="currentColor" viewBox="0 0 24 24" id="pl-icon-maintenance" xmlns="http://www.w3.org/2000/svg">
      <path fill-rule="evenodd"
            d="M18.664 2.362L15.256 5.77l.371 2.603 2.603.371 3.408-3.408a5.259 5.259 0 0 1-6.817 6.817L5.59 21.384a2.103 2.103 0 1 1-2.974-2.974l9.231-9.231a5.259 5.259 0 0 1 6.817-6.817z"/>
    </svg>
    <svg fill="currentColor" viewBox="0 0 24 24" id="pl-icon-menu-hamburger" xmlns="http://www.w3.org/2000/svg">
      <path fill-rule="evenodd"
            d="M19.059 17c.52 0 .941.448.941 1s-.421 1-.941 1H4.94C4.421 19 4 18.552 4 18s.421-1 .941-1H19.06zm0-6c.52 0 .941.448.941 1s-.421 1-.941 1H4.94C4.421 13 4 12.552 4 12s.421-1 .941-1H19.06zm0-6c.52 0 .941.448.941 1s-.421 1-.941 1H4.94C4.421 7 4 6.552 4 6s.421-1 .941-1H19.06z"/>
    </svg>
    <svg fill="currentColor" viewBox="0 0 24 24" id="pl-icon-menu-kabob-horizontal" xmlns="http://www.w3.org/2000/svg">
      <path fill-rule="evenodd"
            d="M20 12.009a2 2 0 1 1-4-.018 2 2 0 0 1 4 .018zm-6 0a2 2 0 1 1-4-.018 2 2 0 0 1 4 .018zm-6 0a2 2 0 1 1-4-.018 2 2 0 0 1 4 .018z"/>
    </svg>
    <svg fill="currentColor" viewBox="0 0 24 24" id="pl-icon-menu-kabob-vertical" xmlns="http://www.w3.org/2000/svg">
      <path fill-rule="evenodd"
            d="M12.009 4a2 2 0 1 1-.018 4 2 2 0 0 1 .018-4zm0 6a2 2 0 1 1-.018 4 2 2 0 0 1 .018-4zm0 6a2 2 0 1 1-.018 4 2 2 0 0 1 .018-4z"/>
    </svg>
    <svg fill="currentColor" viewBox="0 0 24 24" id="pl-icon-name" xmlns="http://www.w3.org/2000/svg">
      <path fill-rule="evenodd"
            d="M13.12 10.625c3.247 0 5.88 2.586 5.88 5.775V23H5v-6.6c0-3.19 2.633-5.775 5.88-5.775zM12 1c2.32 0 4.2 1.847 4.2 4.125S14.32 9.25 12 9.25c-2.32 0-4.2-1.847-4.2-4.125S9.68 1 12 1z"/>
    </svg>
    <svg fill="currentColor" viewBox="0 0 24 24" id="pl-icon-new-tab-window" xmlns="http://www.w3.org/2000/svg">
      <path fill-rule="evenodd"
            d="M20.867 22H3.11C2.497 22 2 21.51 2 20.906V3.398c0-.604.497-1.094 1.11-1.094h7.347c.612 0 1.11.49 1.11 1.094 0 .604-.498 1.094-1.11 1.094H4.22v15.32h15.537V13.39c0-.604.497-1.095 1.11-1.095.613 0 1.11.49 1.11 1.095v7.516c0 .604-.497 1.094-1.11 1.094m-6.898-10.296l5.364-5.289-.097 2.34c-.015.343.113.69.38.954.499.492 1.302.502 1.79.02.228-.224.347-.516.36-.813l.233-5.587a1.265 1.265 0 0 0-.38-.953 1.302 1.302 0 0 0-.966-.375l-5.666.23a1.242 1.242 0 0 0-.824.355 1.236 1.236 0 0 0 .02 1.765c.268.265.619.39.965.376l2.374-.098-5.364 5.29a1.236 1.236 0 0 0 .021 1.765c.5.493 1.302.502 1.79.02"/>
    </svg>
    <svg fill="currentColor" viewBox="0 0 24 24" id="pl-icon-notifications" xmlns="http://www.w3.org/2000/svg">
      <path fill-rule="evenodd"
            d="M19.826 18.727H4.174c-.648 0-1.174-.488-1.174-1.09 0-.603.526-1.092 1.174-1.092.648 0 1.174-.488 1.174-1.09V8.182c0-2.811 2.453-5.091 5.478-5.091C10.826 2.488 11.352 2 12 2c.648 0 1.174.488 1.174 1.09 3.025 0 5.478 2.28 5.478 5.092v7.273c0 .602.526 1.09 1.174 1.09.648 0 1.174.489 1.174 1.091 0 .603-.526 1.091-1.174 1.091M12 22c-1.297 0-2.348-.976-2.348-2.182h4.696C14.348 21.024 13.297 22 12 22"/>
    </svg>
    <svg fill="currentColor" viewBox="0 0 24 24" id="pl-icon-organization" xmlns="http://www.w3.org/2000/svg">
      <path fill-rule="evenodd"
            d="M9.075 3c1.118 0 2.025.895 2.025 2v16H3V5c0-1.105.907-2 2.025-2zm9.9 6.3C20.093 9.3 21 10.52 21 11.238V21h-8.1v-9.762c0-.718.907-1.938 2.025-1.938zm.545 8.771h-5v1.953h5V18.07zM9.5 18h-5v1.952h5V18zm10.06-3.5h-1.8v1.952h1.8V14.5zm-3.24 0h-1.8v1.952h1.8V14.5zM6.5 14h-2v2h2v-2zm3 0h-2v2h2v-2zm10.06-2.762h-1.8v1.952h1.8v-1.952zm-3.24 0h-1.8v1.952h1.8v-1.952zM9.5 9.5h-2v2h2v-2zm-3 0h-2v2h2v-2zm3-4.5h-2v2h2V5zm-3 0h-2v2h2V5z"/>
    </svg>
    <svg fill="currentColor" viewBox="0 0 24 24" id="pl-icon-organization-account" xmlns="http://www.w3.org/2000/svg">
      <path fill-rule="evenodd"
            d="M22 6.04a1.999 1.999 0 0 0-2.002-1.995h-4.004a1.999 1.999 0 0 0-2.002 1.995V22H22V6.04zm-3.203 0h1.601v1.995h-1.601V6.04zm0 2.992h1.601v1.995h-1.601V9.032zm0 2.993h1.601v1.995h-1.601v-1.995zm0 2.992h1.601v1.995h-1.601v-1.995zM15.593 6.04h1.602v1.995h-1.602V6.04zm0 2.992h1.602v1.995h-1.602V9.032zm0 2.993h1.602v1.995h-1.602v-1.995zm0 2.992h1.602v1.995h-1.602v-1.995zm4.405 3.99v1.995h-4.004v-1.995h4.004zM8.066 2c.07.34.17.808.17 1.217a4.132 4.132 0 0 1 1.671.688c.35-.26.731-.548 1.002-.738.164.127.322.264.47.41.146.147.283.304.41.468-.19.3-.49.678-.74.997.367.507.613 1.09.72 1.706.4.04.881.11 1.222.17.012.206.012.412 0 .618.012.203.012.406 0 .609v-.031l-.169.035c-.23.046-.494.094-.75.114l-.253.011c-.103.6-.34 1.169-.69 1.666.26.35.55.728.74.998-.127.164-.264.32-.41.468-.14.14-.29.27-.47.42l-1.001-.749a4.122 4.122 0 0 1-1.672.719c-.04.399-.11.877-.17 1.216-.412.052-.83.052-1.242 0-.07-.339-.17-.808-.17-1.216a4.122 4.122 0 0 1-1.672-.689l-1 .748c-.18-.15-.33-.279-.471-.419a6.88 6.88 0 0 1-.42-.468l.75-.998a4.092 4.092 0 0 1-.69-1.666c-.4-.04-.881-.11-1.222-.17a5.03 5.03 0 0 1 0-.608 5.129 5.129 0 0 1 0-.618c.34-.07.811-.17 1.222-.17a4.09 4.09 0 0 1 .61-1.636l-.75-.997c.15-.18.28-.33.42-.47a5.22 5.22 0 0 1 .47-.408c.3.19.681.489 1.001.738a4.132 4.132 0 0 1 1.712-.748c.04-.399.11-.878.17-1.217zm.37 3.302a2.5 2.5 0 0 0-1.892 0 2.458 2.458 0 0 0-1.291 1.277 2.476 2.476 0 0 0 0 1.885A2.458 2.458 0 0 0 6.544 9.74a2.4 2.4 0 0 0 .941.19l.195-.008c.26-.02.515-.081.756-.182a2.458 2.458 0 0 0 1.281-1.277 2.476 2.476 0 0 0 0-1.885 2.458 2.458 0 0 0-1.281-1.277z"/>
    </svg>
    <svg fill="currentColor" viewBox="0 0 24 24" id="pl-icon-pagination-first" xmlns="http://www.w3.org/2000/svg">
      <defs>
        <path id="bva"
              d="M7.03 6.583c0-.322.262-.583.585-.583h.002c.32 0 .58.262.58.583l-.03 10.834a.585.585 0 0 1-.585.583H7.58a.582.582 0 0 1-.58-.583l.03-10.834zm2.168 5.43l5.956-5.837a.622.622 0 0 1 .865 0 .593.593 0 0 1 0 .848l-5.09 4.988 5.066 4.963a.593.593 0 0 1 0 .85.622.622 0 0 1-.866 0L9.2 12.012z"/>
      </defs>
      <use fill-rule="evenodd" xlink:href="#bva"/>
    </svg>
    <svg fill="currentColor" viewBox="0 0 24 24" id="pl-icon-pagination-last" xmlns="http://www.w3.org/2000/svg">
      <defs>
        <path id="bwa"
              d="M16.169 6.583l.03 10.834a.582.582 0 0 1-.582.583.585.585 0 0 1-.586-.583l-.03-10.834A.582.582 0 0 1 15.584 6c.323 0 .585.261.586.583zM14 12.013l-5.93 5.812a.622.622 0 0 1-.866 0 .593.593 0 0 1 0-.85l5.065-4.963-5.09-4.988a.593.593 0 0 1 0-.848.622.622 0 0 1 .866 0L14 12.012z"/>
      </defs>
      <use fill-rule="evenodd" xlink:href="#bwa"/>
    </svg>
    <svg fill="currentColor" viewBox="0 0 24 24" id="pl-icon-password" xmlns="http://www.w3.org/2000/svg">
      <path fill-rule="evenodd"
            d="M19.1 21.754L5.068 22a.923.923 0 0 1-.931-.916L4 13.01a.924.924 0 0 1 .9-.948l1.525-.027-.074-4.348C6.299 4.6 8.715 2.054 11.747 2.001c3.033-.054 5.534 2.406 5.586 5.494l.074 4.347 1.525-.027a.923.923 0 0 1 .931.916L20 20.806a.924.924 0 0 1-.9.948m-8.009-4.468l.03 1.812a.923.923 0 0 0 .931.915.924.924 0 0 0 .9-.947l-.03-1.812c.539-.332.899-.933.887-1.62-.017-1.03-.85-1.85-1.861-1.832-1.012.018-1.817.867-1.8 1.896a1.86 1.86 0 0 0 .943 1.588m4.412-9.76c-.035-2.058-1.702-3.697-3.724-3.662-2.022.036-3.632 1.733-3.598 3.791l.074 4.348 7.321-.129-.073-4.347"/>
    </svg>
    <svg fill="currentColor" viewBox="0 0 24 24" id="pl-icon-payment" xmlns="http://www.w3.org/2000/svg">
      <path fill-rule="evenodd"
            d="M15 14.5v-2a1.5 1.5 0 0 1 1.5-1.5H21V9a2 2 0 0 0-2-2h-1V6a2 2 0 0 0-2-2H4a2 2 0 0 0-2 2v12a2 2 0 0 0 2 2h15a2 2 0 0 0 2-2v-2h-4.5a1.5 1.5 0 0 1-1.5-1.5zm6-2.5a1 1 0 0 1 1 1v1a1 1 0 0 1-1 1h-4a1 1 0 0 1-1-1v-1a1 1 0 0 1 1-1zm-3.5 1a.5.5 0 1 0 0 1 .5.5 0 0 0 0-1zM16 5a1 1 0 0 1 1 1v1H4a1 1 0 1 1 0-2h12z"/>
    </svg>
    <svg fill="currentColor" viewBox="0 0 24 24" id="pl-icon-personal-account" xmlns="http://www.w3.org/2000/svg">
      <path fill-rule="evenodd"
            d="M17.796 13.022A4.197 4.197 0 0 1 22 17.212V22H11.99v-4.788a4.197 4.197 0 0 1 4.204-4.19zM8.066 2c.07.34.17.808.17 1.217a4.132 4.132 0 0 1 1.671.688c.35-.26.731-.548 1.002-.738.164.127.322.263.47.41.146.147.283.304.41.468-.19.3-.49.678-.74.997.355.507.591 1.086.69 1.696.4.04.881.11 1.222.17.012.206.012.412 0 .618.012.203.012.406 0 .609-.34.07-.811.17-1.222.17a4.101 4.101 0 0 1-.61 1.585c.26.35.55.728.74.998-.127.164-.264.32-.41.469-.14.14-.29.269-.47.419l-1.001-.749a4.123 4.123 0 0 1-1.752.689c-.04.399-.11.878-.17 1.217-.413.051-.83.051-1.242 0-.07-.34-.17-.808-.17-1.217a4.122 4.122 0 0 1-1.672-.689l-.92.828c-.18-.15-.33-.279-.471-.419a6.88 6.88 0 0 1-.42-.468l.75-.998a4.092 4.092 0 0 1-.69-1.666c-.4-.04-.881-.11-1.222-.17a5.03 5.03 0 0 1 0-.608 5.129 5.129 0 0 1 0-.618c.34-.07.811-.17 1.222-.17a4.09 4.09 0 0 1 .61-1.636l-.75-.997c.15-.18.28-.33.42-.47a5.21 5.21 0 0 1 .47-.408c.3.19.681.489 1.001.738a4.132 4.132 0 0 1 1.712-.748c.04-.399.11-.878.17-1.217zm8.929 4.04a2.998 2.998 0 0 1 3.003 2.992 2.998 2.998 0 0 1-3.003 2.993 2.998 2.998 0 0 1-3.003-2.993 2.998 2.998 0 0 1 3.003-2.992zm-8.559-.738a2.5 2.5 0 0 0-1.892 0 2.458 2.458 0 0 0-1.291 1.277 2.476 2.476 0 0 0 0 1.885A2.458 2.458 0 0 0 6.544 9.74a2.5 2.5 0 0 0 1.892 0 2.458 2.458 0 0 0 1.301-1.277h-.02a2.476 2.476 0 0 0 0-1.885 2.468 2.468 0 0 0-1.281-1.277z"/>
    </svg>
    <svg fill="currentColor" viewBox="0 0 24 24" id="pl-icon-phone-number" xmlns="http://www.w3.org/2000/svg">
      <path fill-rule="evenodd"
            d="M17.126 1A2.869 2.869 0 0 1 20 3.876v16.248A2.87 2.87 0 0 1 17.126 23H7.874A2.869 2.869 0 0 1 5 20.124V3.876A2.87 2.87 0 0 1 7.874 1h9.252zM12.5 20.462a.84.84 0 0 0-.833.846.84.84 0 0 0 .833.846.84.84 0 0 0 .833-.846.84.84 0 0 0-.833-.846zm5.833-14.385H6.667v13.538h11.666V6.077zm-4.589-2.539h-2.488a.429.429 0 0 0-.423.424c0 .226.19.423.423.423h2.488c.224 0 .423-.19.423-.423l-.007-.075a.428.428 0 0 0-.416-.349z"/>
    </svg>
    <svg fill="currentColor" viewBox="0 0 24 24" id="pl-icon-privacy-policy" xmlns="http://www.w3.org/2000/svg">
      <path fill-rule="evenodd"
            d="M12 2A17.34 17.34 0 0 1 2 5v6.28C2 17 8.92 22 12 22s10-5 10-10.72V5a17.34 17.34 0 0 1-10-3zm0 4.992a3 3 0 0 1 1 5.828V15h1v1h-1v1h1v1h-2a1 1 0 0 1-1-1v-4.18a3 3 0 0 1 1-5.828zM12 9a1 1 0 1 0 0 2 1 1 0 0 0 0-2z"/>
    </svg>
    <svg fill="currentColor" viewBox="0 0 24 24" id="pl-icon-profile" xmlns="http://www.w3.org/2000/svg">
      <defs>
        <path id="cca"
              d="M12 2C6.477 2 2 6.477 2 12c0 5.522 4.477 10 10 10 5.522 0 10-4.478 10-10 0-5.523-4.478-10-10-10m0 1c4.963 0 9 4.038 9 9 0 4.963-4.037 9-9 9-4.962 0-9-4.037-9-9 0-4.962 4.038-9 9-9zm0 2a4 4 0 1 0 0 8 4 4 0 0 0 0-8zm0 9.5c-2.958 0-5.534 1.309-6.917 3.249a8.985 8.985 0 0 0 13.834 0C17.534 15.809 14.959 14.5 12 14.5"/>
      </defs>
      <use fill-rule="evenodd" xlink:href="#cca"/>
    </svg>
    <svg fill="currentColor" viewBox="0 0 24 24" id="pl-icon-refresh" xmlns="http://www.w3.org/2000/svg">
      <path fill-rule="evenodd"
            d="M21.063 9.187H17a.936.936 0 1 1 0-1.874h1.63A8.106 8.106 0 0 0 12 3.875 8.125 8.125 0 0 0 3.875 12a8.125 8.125 0 1 0 16.25 0A.937.937 0 1 1 22 12c0 5.523-4.477 10-10 10S2 17.523 2 12 6.477 2 12 2a9.977 9.977 0 0 1 8.125 4.184V4.5A.937.937 0 1 1 22 4.5v3.75c0 .518-.42.937-.937.937"/>
    </svg>
    <svg fill="currentColor" viewBox="0 0 24 24" id="pl-icon-region" xmlns="http://www.w3.org/2000/svg">
      <path fill-rule="evenodd"
            d="M12 22c-3-2-8-7.5-8-12s3.582-8 8-8 8 3.5 8 8-5.5 10-8 12zm0-9a3 3 0 1 0 0-6 3 3 0 0 0 0 6z"/>
    </svg>
    <svg fill="currentColor" viewBox="0 0 24 24" id="pl-icon-remove" xmlns="http://www.w3.org/2000/svg">
      <path fill-rule="evenodd"
            d="M12 4c4.416 0 8 3.584 8 8s-3.584 8-8 8-8-3.584-8-8 3.584-8 8-8zm3.99 7H8.01A1 1 0 0 0 7 12l.007.117c.058.5.485.883 1.002.883h7.982a1 1 0 1 0 0-2z"/>
    </svg>
    <svg fill="currentColor" viewBox="0 0 24 24" id="pl-icon-restarting" xmlns="http://www.w3.org/2000/svg">
      <path fill-rule="evenodd"
            d="M20.567 14.627c.651 0 1.117.674.862 1.281-1.5 3.58-4.99 6.092-9.067 6.092a9.795 9.795 0 0 1-8.013-4.185V19.5a.932.932 0 0 1-.925.939.932.932 0 0 1-.924-.939v-3.75c0-.518.414-.936.923-.936h4.008c.51 0 .923.417.923.936a.93.93 0 0 1-.923.937H5.823a7.962 7.962 0 0 0 6.539 3.438c3.294 0 6.118-2.019 7.348-4.902.15-.354.477-.596.857-.596zM11.64 2a9.8 9.8 0 0 1 8.012 4.185V4.5a.93.93 0 0 1 .924-.938c.51 0 .924.42.924.938v3.75a.93.93 0 0 1-.923.937H16.57a.93.93 0 0 1-.924-.937.93.93 0 0 1 .924-.936h1.607a7.958 7.958 0 0 0-6.537-3.439c-3.295 0-6.12 2.02-7.349 4.903-.15.353-.477.596-.857.596-.652 0-1.117-.674-.862-1.282C4.071 4.512 7.561 2 11.64 2z"/>
    </svg>
    <svg fill="currentColor" viewBox="0 0 24 24" id="pl-icon-search" xmlns="http://www.w3.org/2000/svg">
      <path fill-rule="evenodd"
            d="M21.451 18.8a1.874 1.874 0 1 1-2.652 2.651l-5.495-5.495A7.455 7.455 0 0 1 9.5 17 7.5 7.5 0 1 1 17 9.5c0 1.39-.385 2.688-1.044 3.804l5.495 5.496zM9.5 3.876a5.625 5.625 0 1 0 0 11.25 5.625 5.625 0 0 0 0-11.25z"/>
    </svg>
    <svg fill="currentColor" viewBox="0 0 24 24" id="pl-icon-send" xmlns="http://www.w3.org/2000/svg">
      <path fill-rule="evenodd"
            d="M12 1c6.075 0 11 4.925 11 11s-4.925 11-11 11S1 18.075 1 12 5.925 1 12 1zM7.77 7.98v3.15l7.542.9-7.543.9v3.15l10.56-4.05L7.77 7.98z"/>
    </svg>
    <svg fill="currentColor" viewBox="0 0 24 24" id="pl-icon-settings" xmlns="http://www.w3.org/2000/svg">
      <path fill-rule="evenodd"
            d="M21.91 13.12a9.346 9.346 0 0 0 0-1.1 9.508 9.508 0 0 0 0-1.12 32.759 32.759 0 0 0-2.213-.307 7.42 7.42 0 0 0-1.306-3.087c.454-.578.998-1.264 1.342-1.805a9.436 9.436 0 0 0-.743-.849 9.453 9.453 0 0 0-.852-.74c-.49.343-1.18.867-1.814 1.336a7.49 7.49 0 0 0-3.028-1.246c0-.74-.181-1.588-.308-2.202h-2.176a32.34 32.34 0 0 0-.309 2.202 7.488 7.488 0 0 0-3.1 1.354c-.58-.45-1.27-.992-1.814-1.336-.298.23-.583.477-.852.74-.254.253-.49.524-.762.85l1.36 1.804a7.4 7.4 0 0 0-1.106 2.961c-.743 0-1.596.18-2.212.307a9.274 9.274 0 0 0 0 1.12 9.094 9.094 0 0 0 0 1.1c.616.109 1.487.235 2.212.307a7.402 7.402 0 0 0 1.251 3.015L4.12 18.23c.272.324.508.595.762.848s.526.487.852.758l1.814-1.354a7.471 7.471 0 0 0 3.028 1.246c0 .74.181 1.589.308 2.202a9.107 9.107 0 0 0 2.249 0c.109-.613.235-1.48.308-2.202a7.47 7.47 0 0 0 3.028-1.3l1.814 1.354c.326-.27.598-.505.852-.758.265-.268.513-.551.743-.849-.344-.487-.87-1.173-1.341-1.805a7.42 7.42 0 0 0 1.25-3.015c.744 0 1.596-.18 2.213-.307m-10.064 3.304a4.35 4.35 0 0 1-1.705-.343 4.451 4.451 0 0 1-2.339-2.31 4.477 4.477 0 0 1 0-3.413 4.451 4.451 0 0 1 2.34-2.31 4.534 4.534 0 0 1 3.427 0 4.451 4.451 0 0 1 2.32 2.31 4.477 4.477 0 0 1 0 3.412 4.451 4.451 0 0 1-2.32 2.311 4.387 4.387 0 0 1-1.723.343"/>
    </svg>
    <svg fill="currentColor" viewBox="0 0 24 24" id="pl-icon-sign-out" xmlns="http://www.w3.org/2000/svg">
      <path fill-rule="evenodd"
            d="M22 12c0 .34-.16.647-.413.858L17.42 16.32a1.309 1.309 0 0 1-.836.297c-.692 0-1.25-.517-1.25-1.154 0-.34.16-.646.413-.858l1.745-1.45H9.916c-.69 0-1.25-.517-1.25-1.153 0-.638.56-1.154 1.25-1.154h7.576l-1.745-1.45a1.114 1.114 0 0 1-.413-.859c0-.636.558-1.153 1.25-1.153.32 0 .614.113.836.296l4.167 3.462c.254.211.413.517.413.858M9.5 4.308h-5v15.385h5c.69 0 1.25.517 1.25 1.153 0 .638-.56 1.154-1.25 1.154H3.25C2.56 22 2 21.484 2 20.846V3.154C2 2.517 2.56 2 3.25 2H9.5c.69 0 1.25.517 1.25 1.154 0 .638-.56 1.154-1.25 1.154"/>
    </svg>
    <svg fill="currentColor" viewBox="0 0 24 24" id="pl-icon-sort" xmlns="http://www.w3.org/2000/svg">
      <path fill-rule="evenodd"
            d="M18.305 17.25l.003.002-2.25 2.5-.003-.002a.746.746 0 0 1-.555.25.746.746 0 0 1-.556-.25l-.002.002-2.25-2.5.002-.002A.75.75 0 0 1 13.25 16c.221 0 .418.098.556.25l.002-.002.942 1.047V4.75a.75.75 0 1 1 1.5 0v12.546l.942-1.048.003.002a.747.747 0 1 1 1.11 1M11.25 8a.746.746 0 0 1-.556-.25l-.002.002-.942-1.047V19.25a.75.75 0 1 1-1.5 0V6.704l-.942 1.048-.002-.002A.746.746 0 0 1 6 7.25c0-.193.075-.367.194-.5l-.002-.002 2.25-2.5.002.002A.746.746 0 0 1 9 4c.221 0 .418.098.556.25l.002-.002 2.25 2.5-.002.002A.745.745 0 0 1 11.25 8"/>
    </svg>
    <svg fill="currentColor" viewBox="0 0 24 24" id="pl-icon-sort-first-to-last" xmlns="http://www.w3.org/2000/svg">
      <path fill-rule="evenodd"
            d="M11.053 6.31a.934.934 0 0 1 1.392.003l2.815 3.123a.936.936 0 1 1-1.392 1.252l-1.18-1.308v7.683a.938.938 0 0 1-1.875 0V9.38l-1.179 1.31A.936.936 0 0 1 8 10.063c0-.243.094-.46.244-.626l2.809-3.126z"/>
    </svg>
    <svg fill="currentColor" viewBox="0 0 24 24" id="pl-icon-sort-last-to-first" xmlns="http://www.w3.org/2000/svg">
      <path fill-rule="evenodd"
            d="M12.447 17.69a.934.934 0 0 1-1.392-.003L8.24 14.564a.936.936 0 1 1 1.392-1.252l1.18 1.308V6.937a.938.938 0 0 1 1.875 0v7.683l1.179-1.31a.936.936 0 0 1 1.634.627c0 .243-.094.46-.244.626l-2.809 3.126z"/>
    </svg>
    <svg fill="currentColor" viewBox="0 0 24 24" id="pl-icon-subscriptions" xmlns="http://www.w3.org/2000/svg">
      <path fill-rule="evenodd"
            d="M16.5 11a5.5 5.5 0 1 1 0 11 5.5 5.5 0 0 1 0-11zm3.25 3.16a4 4 0 1 0 .75 2.33.38.38 0 0 0-.75 0 3.25 3.25 0 1 1-.6-1.87h-.65a.375.375 0 1 0 0 .75h1.63a.37.37 0 0 0 .37-.37v-1.5a.38.38 0 0 0-.75 0zM14 2a2 2 0 0 1 2 2v6a6.5 6.5 0 0 0-3.24 1.1.49.49 0 0 0-.28-.1h-6a.5.5 0 1 0 0 1h5.24A6.51 6.51 0 0 0 10 16H4a2 2 0 0 1-2-2V7a2.07 2.07 0 0 1 2-2V4a2 2 0 0 1 2-2zM4 6h-.19c-.44 0-.8.35-.81.79v7.38a.81.81 0 0 0 .79.83H4V6zm8.48 3h-6a.5.5 0 0 0 0 1h6a.5.5 0 1 0 0-1zM8.5 4h-2a.5.5 0 0 0-.5.5v2a.5.5 0 0 0 .5.5h2a.5.5 0 0 0 .5-.5v-2a.5.5 0 0 0-.5-.5z"/>
    </svg>
    <svg fill="currentColor" viewBox="0 0 24 24" id="pl-icon-success" xmlns="http://www.w3.org/2000/svg">
      <path fill-rule="evenodd"
            d="M12 2c5.523 0 10 4.477 10 10s-4.477 10-10 10S2 17.523 2 12 6.477 2 12 2zm3.75 6.667a.936.936 0 0 0-.663.275l-4.337 4.337-2.15-2.15a.937.937 0 1 0-1.326 1.325l2.813 2.813a.935.935 0 0 0 1.326 0l5-5a.938.938 0 0 0-.662-1.6z"/>
    </svg>
    <svg fill="currentColor" id="pl-icon-success-24" viewBox="0 0 24 24" version="1.1" xmlns="http://www.w3.org/2000/svg" xmlns:xlink="http://www.w3.org/1999/xlink">
        <path fill-rule="evenodd"
          d="M12,0 C18.627417,0 24,5.372583 24,12 C24,18.627417 18.627417,24 12,24 C5.372583,24 0,18.627417 0,12 C0,5.372583 5.372583,0 12,0 Z M16.46482,8 C16.1512493,8 15.8666131,8.12282828 15.6613791,8.32 L15.6613791,8.32 L10.4087324,13.3669495 L7.80528761,10.8657778 C7.59938063,10.6679596 7.31541741,10.5457778 7.00184665,10.5457778 C6.37537803,10.5457778 5.86666667,11.0338586 5.86666667,11.6363636 C5.86666667,11.9376162 5.99317161,12.2104242 6.19907859,12.407596 L6.19907859,12.407596 L9.60529143,15.6806465 C9.81119841,15.8784646 10.0951616,16 10.4087324,16 C10.7223031,16 11.0062664,15.8784646 11.2115004,15.6806465 L11.2115004,15.6806465 L17.2669152,9.86246465 C17.4728222,9.66464646 17.6,9.39248485 17.6,9.09058586 C17.6,8.48872727 17.0912886,8 16.46482,8 Z"></path>
    </svg>
    <svg fill="currentColor" viewBox="0 0 24 24" id="pl-icon-support" xmlns="http://www.w3.org/2000/svg">
      <path fill-rule="evenodd"
            d="M15.674 19.68l-.083-.183-1.626-3.584c-.017-.036-.044-.064-.067-.097l.02-.006a3.83 3.83 0 0 0 2.01-2.164c.033.02.063.045.1.06l3.686 1.384.184.07a8.054 8.054 0 0 1-4.224 4.52zm-6.95-6.193a3.601 3.601 0 0 1 1.79-4.764 3.602 3.602 0 0 1 4.763 1.79 3.6 3.6 0 0 1-1.79 4.764 3.6 3.6 0 0 1-4.764-1.79zm1.553 2.547l-1.376 3.664-.069.184a8.017 8.017 0 0 1-4.495-4.2l.182-.083 3.563-1.618c.037-.015.065-.043.097-.065l.006.02a3.804 3.804 0 0 0 2.152 1.997c-.02.033-.045.063-.06.101zM4.101 8.84a8.062 8.062 0 0 1 4.225-4.52l.083.183 1.626 3.583c.017.037.044.065.066.098-.006.003-.013.003-.019.006a3.82 3.82 0 0 0-2.009 2.164c-.034-.02-.064-.045-.102-.06L4.286 8.91l-.185-.07zm9.622-.874L15.1 4.302l.068-.184a8.012 8.012 0 0 1 4.495 4.201l-.182.082-3.563 1.617c-.037.017-.065.044-.097.066l-.007-.019a3.8 3.8 0 0 0-2.15-1.998c.02-.033.044-.063.06-.1zm7.65.555c-.134-.36-.56-.52-.91-.36l-.093.041A9.165 9.165 0 0 0 15.231 3.4l.04-.1c.133-.36-.053-.772-.42-.882a9.955 9.955 0 0 0-6.33.21c-.36.134-.52.56-.36.91l.041.092A9.167 9.167 0 0 0 3.4 8.77l-.1-.039c-.359-.134-.772.052-.882.42a9.955 9.955 0 0 0 .21 6.33c.134.36.56.52.91.36l.092-.042a9.17 9.17 0 0 0 5.14 4.803l-.038.1c-.135.36.051.773.418.882a9.962 9.962 0 0 0 6.33-.21c.361-.134.52-.56.362-.91l-.043-.093a9.169 9.169 0 0 0 4.803-5.139l.1.04c.36.133.773-.053.882-.42a9.962 9.962 0 0 0-.21-6.33z"/>
    </svg>
    <svg fill="currentColor" viewBox="0 0 24 24" id="pl-icon-trademarks" xmlns="http://www.w3.org/2000/svg">
      <path fill-rule="evenodd"
            d="M20 2H4a2 2 0 0 0-2 2v16a2 2 0 0 0 2 2h16a2 2 0 0 0 2-2V4a2 2 0 0 0-2-2zm-9.88 7H8.47v7a1 1 0 0 1-2 0V9H4.86A.94.94 0 0 1 4 8a.94.94 0 0 1 .88-1h5.24A.94.94 0 0 1 11 8a.94.94 0 0 1-.88 1zM20 16a1 1 0 0 1-2 0v-4.45L17 15v.17l-.16.45a.9.9 0 0 1-.46.48.87.87 0 0 1-.93-.52l-.19-.58L14 11.42V16a1 1 0 0 1-2 0V8a1 1 0 0 1 .46-.85.84.84 0 0 1 .24-.15.83.83 0 0 1 .18 0H13a.83.83 0 0 1 .19 0 .86.86 0 0 1 .15.09.88.88 0 0 1 .14.11 1 1 0 0 1 .12.16.93.93 0 0 1 .08.11l2.43 5.16 2.33-5.15a.94.94 0 0 1 .08-.11 1 1 0 0 1 .12-.17.88.88 0 0 1 .14-.11.86.86 0 0 1 .22-.02.83.83 0 0 1 .19 0 .8.8 0 0 1 .13 0 .84.84 0 0 1 .18 0 .85.85 0 0 1 .18.05h-.08A.93.93 0 0 1 20 8v8z"/>
    </svg>
    <svg fill="currentColor" viewBox="0 0 24 24" id="pl-icon-upload" xmlns="http://www.w3.org/2000/svg">
      <path fill-rule="evenodd"
            d="M17.313 17.6a.932.932 0 0 1-.938-.927c0-.512.42-.927.938-.927 1.553 0 2.813-1.246 2.813-2.783a2.758 2.758 0 0 0-1.15-2.238 2.687 2.687 0 0 0-.453-.27 2.728 2.728 0 0 0-.175-.076l-.079-.029a2.834 2.834 0 0 0-.162-.054l-.11-.028c-.048-.012-.095-.024-.144-.034-.05-.009-.102-.016-.153-.023-.037-.005-.074-.012-.112-.015a2.937 2.937 0 0 0-.275-.014c-.03 0-.058.004-.087.005a5.234 5.234 0 0 0-.107-.468c-.01-.038-.025-.073-.036-.11a5.286 5.286 0 0 0-.113-.344c-.013-.034-.029-.066-.043-.1a4.76 4.76 0 0 0-.148-.337c-.012-.027-.028-.053-.04-.079A5.312 5.312 0 0 0 12 5.854 5.312 5.312 0 0 0 7.26 8.75c-.012.026-.027.052-.04.079-.054.11-.102.222-.148.337-.014.034-.03.066-.043.1a5.282 5.282 0 0 0-.113.344c-.011.037-.025.072-.036.11a5.404 5.404 0 0 0-.107.468c-.029-.001-.057-.005-.086-.005-.094 0-.185.005-.276.014-.038.003-.074.01-.111.015-.052.007-.103.014-.154.023-.048.01-.096.022-.143.034-.037.01-.075.018-.11.028a2.947 2.947 0 0 0-.163.054l-.08.03a2.728 2.728 0 0 0-.44.22c-.065.04-.127.08-.188.125-.004.003-.009.006-.012.01a2.757 2.757 0 0 0-1.136 2.229c0 1.536 1.259 2.782 2.813 2.782.518 0 .937.415.937.927s-.42.927-.937.927C4.098 17.6 2 15.525 2 12.963 2 10.876 3.397 9.11 5.316 8.53A7.172 7.172 0 0 1 12 4c3.048 0 5.64 1.88 6.684 4.53 1.92.58 3.316 2.346 3.316 4.433 0 2.562-2.098 4.637-4.687 4.637m-8.822-2.166l2.812-3.09.003.002a.934.934 0 0 1 1.389 0l.002-.003 2.813 3.091-.003.003c.15.164.243.379.243.617a.936.936 0 0 1-1.632.618l-.002.003-1.178-1.294v4.692c0 .512-.42.927-.938.927a.933.933 0 0 1-.938-.927V15.38l-1.178 1.294-.002-.002a.937.937 0 0 1-1.632-.619c0-.238.094-.453.243-.617l-.002-.003"/>
    </svg>
    <svg fill="currentColor" viewBox="0 0 24 24" id="pl-icon-warning-circle" xmlns="http://www.w3.org/2000/svg">
      <path fill-rule="evenodd"
            d="M12 2c5.523 0 10 4.477 10 10s-4.477 10-10 10S2 17.523 2 12 6.477 2 12 2zm0 13.176c-.828 0-1.5.633-1.5 1.412 0 .78.672 1.412 1.5 1.412s1.5-.632 1.5-1.412c0-.78-.672-1.412-1.5-1.412zM12 6c-.828 0-1.5.632-1.5 1.412v5.294c0 .78.672 1.412 1.5 1.412s1.5-.632 1.5-1.412V7.412C13.5 6.632 12.828 6 12 6z"/>
    </svg>
    <svg fill="currentColor" viewBox="0 0 24 24" id="pl-icon-warning-circle-24" xmlns="http://www.w3.org/2000/svg">
      <path fill-rule="evenodd"
            d="M12,0 C18.627417,0 24,5.372583 24,12 C24,18.627417 18.627417,24 12,24 C5.372583,24 0,18.627417 0,12 C0,5.372583 5.372583,0 12,0 Z M12,15.8117647 C11.00595,15.8117647 10.2,16.5703059 10.2,17.5058824 C10.2,18.4414588 11.00595,19.2 12,19.2 C12.99405,19.2 13.8,18.4414588 13.8,17.5058824 C13.8,16.5703059 12.99405,15.8117647 12,15.8117647 Z M12,4.8 C11.00595,4.8 10.2,5.55854118 10.2,6.49411765 L10.2,12.8470588 C10.2,13.7826353 11.00595,14.5411765 12,14.5411765 C12.99405,14.5411765 13.8,13.7826353 13.8,12.8470588 L13.8,6.49411765 C13.8,5.55854118 12.99405,4.8 12,4.8 Z"></path>
    </svg>
    <svg fill="currentColor" viewBox="0 0 24 24" id="pl-icon-warning-triangle" xmlns="http://www.w3.org/2000/svg">
      <path fill-rule="evenodd"
            d="M12.976 13.866c0 .78-.336 1.435-.976 1.435-.64 0-.976-.624-.976-1.435v-4.43C11.024 8.655 11.36 8 12 8c.64 0 .976.655.976 1.436v4.43zM12 18.953c-.64 0-1.19-.563-1.19-1.218s.52-1.217 1.19-1.217c.672 0 1.19.562 1.19 1.217 0 .686-.55 1.218-1.19 1.218zm10.735.063L13.691 2.998A1.93 1.93 0 0 0 10.309 3L1.265 19.015C.513 20.346 1.452 22 2.955 22h18.09c1.503 0 2.442-1.653 1.69-2.984z"/>
    </svg>
    <svg fill="currentColor" viewBox="0 0 24 24" id="pl-icon-zip-file" xmlns="http://www.w3.org/2000/svg">
      <path fill-rule="evenodd"
            d="M14.5 2h-10C3.12 2 2 3.053 2 4.353v15.294C2 20.947 3.12 22 4.5 22h15c1.38 0 2.5-1.053 2.5-2.353V9.06L14.5 2zM12 13v4h-2v-4h2zm0-2v1h-2v-1h2zm0-2v1h-2V9h2zm2.5-5.824l6.35 5.883H14.5V3.176zM12 7v1h-2V7h2zm0-2v1h-2V5h2zm0-2v1h-2V3h2z"/>
    </svg>
  </defs>
</svg>
