<?xml version="1.0" encoding="UTF-8"?>
<svg width="352px" height="170px" viewBox="0 0 352 170" version="1.1" xmlns="http://www.w3.org/2000/svg" xmlns:xlink="http://www.w3.org/1999/xlink">
    <title>2032269E-C774-4894-8F69-E60A068ED103</title>
    <g id="Templates" stroke="none" stroke-width="1" fill="none" fill-rule="evenodd">
        <g id="for-export" transform="translate(-491.000000, -179.000000)">
            <g id="compliance-illustration" transform="translate(491.000000, 179.000000)">
                <path d="M349,0 C350.656854,0 352,1.34314575 352,3 L352,167 C352,168.656854 350.656854,170 349,170 L3,170 C1.34314575,170 0,168.656854 0,167 L0,3 C0,1.34314575 1.34314575,0 3,0 L349,0 Z M349,2 L3,2 C2.48716416,2 2.06449284,2.38604019 2.00672773,2.88337887 L2,3 L2,167 C2,167.512836 2.38604019,167.935507 2.88337887,167.993272 L3,168 L349,168 C349.512836,168 349.935507,167.61396 349.993272,167.116621 L350,167 L350,3 C350,2.48716416 349.61396,2.06449284 349.116621,2.00672773 L349,2 Z" id="Rectangle" fill="#EDEBEB" fill-rule="nonzero"></path>
                <path d="M349,2 L3,2 C2.48716416,2 2.06449284,2.38604019 2.00672773,2.88337887 L2,3 L2,167 C2,167.512836 2.38604019,167.935507 2.88337887,167.993272 L3,168 L349,168 C349.512836,168 349.935507,167.61396 349.993272,167.116621 L350,167 L350,3 C350,2.48716416 349.61396,2.06449284 349.116621,2.00672773 L349,2 Z" id="Path" fill="#FFFFFF" fill-rule="nonzero"></path>
                <path d="M58,0 C58.5522847,0 59,0.44771525 59,1 L59,169 C59,169.552285 58.5522847,170 58,170 L1,170 C0.44771525,170 0,169.552285 0,169 L0,1 C0,0.44771525 0.44771525,0 1,0 L58,0 Z M37,44 L9,44 C7.34314575,44 6,45.3431458 6,47 C6,48.5976809 7.24891996,49.9036609 8.82372721,49.9949073 L9,50 L37,50 C38.6568542,50 40,48.6568542 40,47 C40,45.4023191 38.75108,44.0963391 37.1762728,44.0050927 L37,44 Z M50,30 L9,30 C7.34314575,30 6,31.3431458 6,33 C6,34.5976809 7.24891996,35.9036609 8.82372721,35.9949073 L9,36 L50,36 C51.6568542,36 53,34.6568542 53,33 C53,31.4023191 51.75108,30.0963391 50.1762728,30.0050927 L50,30 Z M50,16 L9,16 C7.34314575,16 6,17.3431458 6,19 C6,20.5976809 7.24891996,21.9036609 8.82372721,21.9949073 L9,22 L50,22 C51.6568542,22 53,20.6568542 53,19 C53,17.4023191 51.75108,16.0963391 50.1762728,16.0050927 L50,16 Z" id="Shape" fill="#EDEBEB"></path>
                <path d="M236,16 C236.552285,16 237,16.4477153 237,17 L237,153 C237,153.552285 236.552285,154 236,154 L146,154 C145.447715,154 145,153.552285 145,153 L145,17 C145,16.4477153 145.447715,16 146,16 L236,16 Z M338,16 C338.552285,16 339,16.4477153 339,17 L339,153 C339,153.552285 338.552285,154 338,154 L248,154 C247.447715,154 247,153.552285 247,153 L247,17 C247,16.4477153 247.447715,16 248,16 L338,16 Z M134,146 C134.552285,146 135,146.447715 135,147 L135,152 C135,152.552285 134.552285,153 134,153 L70,153 C69.4477153,153 69,152.552285 69,152 L69,147 C69,146.447715 69.4477153,146 70,146 L134,146 Z M134,133 C134.552285,133 135,133.447715 135,134 L135,139 C135,139.552285 134.552285,140 134,140 L70,140 C69.4477153,140 69,139.552285 69,139 L69,134 C69,133.447715 69.4477153,133 70,133 L134,133 Z M134,120 C134.552285,120 135,120.447715 135,121 L135,126 C135,126.552285 134.552285,127 134,127 L70,127 C69.4477153,127 69,126.552285 69,126 L69,121 C69,120.447715 69.4477153,120 70,120 L134,120 Z M134,107 C134.552285,107 135,107.447715 135,108 L135,113 C135,113.552285 134.552285,114 134,114 L70,114 C69.4477153,114 69,113.552285 69,113 L69,108 C69,107.447715 69.4477153,107 70,107 L134,107 Z M134,94 C134.552285,94 135,94.4477153 135,95 L135,100 C135,100.552285 134.552285,101 134,101 L70,101 C69.4477153,101 69,100.552285 69,100 L69,95 C69,94.4477153 69.4477153,94 70,94 L134,94 Z M134,81 C134.552285,81 135,81.4477153 135,82 L135,87 C135,87.5522847 134.552285,88 134,88 L70,88 C69.4477153,88 69,87.5522847 69,87 L69,82 C69,81.4477153 69.4477153,81 70,81 L134,81 Z M134,68 C134.552285,68 135,68.4477153 135,69 L135,74 C135,74.5522847 134.552285,75 134,75 L70,75 C69.4477153,75 69,74.5522847 69,74 L69,69 C69,68.4477153 69.4477153,68 70,68 L134,68 Z M134,55 C134.552285,55 135,55.4477153 135,56 L135,61 C135,61.5522847 134.552285,62 134,62 L70,62 C69.4477153,62 69,61.5522847 69,61 L69,56 C69,55.4477153 69.4477153,55 70,55 L134,55 Z M134,42 C134.552285,42 135,42.4477153 135,43 L135,48 C135,48.5522847 134.552285,49 134,49 L70,49 C69.4477153,49 69,48.5522847 69,48 L69,43 C69,42.4477153 69.4477153,42 70,42 L134,42 Z M134,29 C134.552285,29 135,29.4477153 135,30 L135,35 C135,35.5522847 134.552285,36 134,36 L70,36 C69.4477153,36 69,35.5522847 69,35 L69,30 C69,29.4477153 69.4477153,29 70,29 L134,29 Z M134,16 C134.552285,16 135,16.4477153 135,17 L135,22 C135,22.5522847 134.552285,23 134,23 L70,23 C69.4477153,23 69,22.5522847 69,22 L69,17 C69,16.4477153 69.4477153,16 70,16 L134,16 Z" id="Combined-Shape" fill="#EDF1F5"></path>
                <path d="M292.9756,34 L293.266809,34.0047302 C296.74831,34.1179375 299.747861,36.2516851 300.766057,39.1682598 L300.766057,39.1682598 L306.812381,39.1682598 C310.18437,39.1682598 313.091257,41.1321985 314.021461,43.9230587 L314.021461,43.9230587 L328.207068,43.9230587 C328.258746,43.9230587 328.310065,43.9252919 328.360906,43.929652 L328.207068,43.9230587 C328.264742,43.9230587 328.321969,43.9258402 328.378583,43.9312554 C328.422789,43.9354927 328.466262,43.9412744 328.50929,43.9485668 C328.517899,43.9500283 328.52596,43.951453 328.534006,43.9529304 C328.572551,43.9599974 328.611223,43.9684011 328.649454,43.9779965 C328.669267,43.9829727 328.688663,43.9881836 328.707937,43.993698 C328.736188,44.0017806 328.764175,44.0105151 328.791875,44.0198799 C328.810607,44.026206 328.829765,44.0330291 328.848776,44.0401507 C328.87468,44.0498611 328.899939,44.0599683 328.924913,44.0705959 C328.941932,44.0778363 328.959004,44.0854043 328.975934,44.0932137 C329.003565,44.1059644 329.030541,44.1192148 329.057118,44.1330705 C329.076864,44.1433555 329.096983,44.1543118 329.116855,44.1656119 C329.13456,44.1756881 329.15148,44.1856771 329.16821,44.1959137 C329.190538,44.2095683 329.212899,44.2239138 329.234888,44.2386982 C329.254617,44.2519666 329.273881,44.2654667 329.292837,44.2793016 C329.313602,44.2944549 329.334081,44.3100753 329.354168,44.3260842 C329.3658,44.3353528 329.377426,44.3448561 329.388914,44.3544892 C329.410678,44.372757 329.431321,44.3909125 329.451476,44.4094861 C329.469622,44.4262023 329.487594,44.4434794 329.505142,44.4610885 C329.52257,44.47858 329.539449,44.496255 329.5559,44.5142375 C329.570016,44.5296607 329.584068,44.5456048 329.597782,44.5617737 C329.612103,44.5786675 329.625753,44.5954208 329.639039,44.612398 C329.655497,44.6334189 329.671581,44.6550446 329.68707,44.6770013 C329.697721,44.6920968 329.708181,44.7074869 329.718348,44.7230293 C329.731149,44.7426089 329.743344,44.7621925 329.755067,44.7819989 C329.767133,44.8023765 329.778809,44.8231956 329.78996,44.8442402 C329.799765,44.8627468 329.809125,44.8813459 329.818071,44.9001077 C329.82714,44.9191293 329.835784,44.9383167 329.84399,44.9576608 C329.871724,45.023026 329.894491,45.090283 329.911792,45.1589275 C329.915987,45.1755716 329.919867,45.1923244 329.923417,45.2091533 C329.942182,45.3005932 329.9512,45.3864923 329.9512,45.4735367 L329.9512,45.4735367 L329.9512,128.475788 C329.9512,128.521367 329.948727,128.566631 329.943899,128.611477 L329.9512,128.475788 C329.9512,128.528356 329.947911,128.580507 329.941512,128.63208 C329.937062,128.668031 329.931018,128.704095 329.923492,128.739816 C329.920253,128.7552 329.916704,128.770657 329.912881,128.786045 C329.905758,128.814723 329.89765,128.843258 329.888615,128.871521 C329.885222,128.882119 329.881876,128.892169 329.878413,128.902183 C329.867946,128.932481 329.856256,128.962818 329.843517,128.992778 C329.835047,129.012698 329.826104,129.032471 329.816708,129.052067 C329.8073,129.071683 329.797517,129.090976 329.787301,129.110082 C329.775654,129.13187 329.763313,129.153633 329.750417,129.17513 C329.740694,129.191332 329.730742,129.207251 329.720488,129.223015 C329.705086,129.246694 329.688924,129.270131 329.6721,129.293188 C329.662622,129.30618 329.652886,129.319112 329.642944,129.331918 C329.627841,129.351366 329.612385,129.370378 329.596477,129.389088 C329.579982,129.408495 329.56278,129.427814 329.5451,129.446782 C329.533135,129.45962 329.520908,129.47234 329.508466,129.484892 C329.485756,129.507801 329.462422,129.530071 329.438416,129.551754 C329.430477,129.558925 329.422438,129.566055 329.414326,129.57312 C329.388087,129.595973 329.361015,129.618193 329.333228,129.639679 C329.320692,129.649372 329.307966,129.658949 329.295097,129.668372 C329.275898,129.682424 329.256608,129.695981 329.237021,129.70919 C329.213658,129.724952 329.189579,129.740398 329.165094,129.755314 C329.147807,129.765846 329.130243,129.776155 329.112483,129.786191 C329.093573,129.796876 329.074466,129.807238 329.055149,129.81728 C329.025283,129.832803 328.994983,129.847532 328.96422,129.861466 C328.951382,129.867283 328.938258,129.873049 328.925053,129.878669 C328.894736,129.891571 328.86414,129.903653 328.833162,129.914944 C328.817178,129.920767 328.80134,129.926297 328.785409,129.931618 C328.758443,129.940631 328.730811,129.94916 328.702924,129.957054 C328.686205,129.961786 328.669394,129.966291 328.652496,129.970562 L328.636248,129.974591 C328.613523,129.980117 328.590644,129.985222 328.567626,129.989895 C328.546913,129.994105 328.525747,129.998021 328.504473,130.001568 L328.352874,130.020344 L328.352874,130.020344 L328.207068,130.026266 L257.744132,130.026266 C257.692777,130.026266 257.641777,130.024061 257.591249,130.019755 L257.744132,130.026266 C257.613136,130.026266 257.484446,130.011917 257.36001,129.98495 C257.341343,129.980908 257.322507,129.976515 257.303776,129.971837 C257.277681,129.965313 257.252141,129.958339 257.226818,129.95084 C257.207177,129.945029 257.187232,129.938758 257.167432,129.932165 C257.142968,129.924012 257.119235,129.91556 257.09573,129.906652 C257.073265,129.898143 257.050676,129.889075 257.028316,129.879591 C257.008673,129.871259 256.989212,129.862608 256.969936,129.853643 C256.942615,129.840937 256.915605,129.827569 256.888999,129.813595 C256.876377,129.806964 256.863934,129.800246 256.851584,129.793395 C256.82385,129.778014 256.796476,129.7619 256.769606,129.745144 C256.752982,129.734777 256.736576,129.724181 256.720369,129.713347 C256.696662,129.697498 256.673357,129.681122 256.650506,129.664257 C256.638154,129.655142 256.625834,129.645806 256.613652,129.636328 C256.587003,129.615593 256.561047,129.594206 256.535796,129.57218 C256.525617,129.5633 256.515607,129.554367 256.505714,129.545333 C256.479789,129.521667 256.454522,129.497171 256.43011,129.472023 C256.423897,129.465627 256.417276,129.458698 256.410721,129.45172 C256.386761,129.426224 256.363543,129.399935 256.341253,129.373043 C256.331545,129.361329 256.322092,129.349601 256.312816,129.337763 C256.298884,129.319992 256.285182,129.301738 256.271903,129.283245 C256.256938,129.26239 256.242758,129.241612 256.229117,129.220557 C256.219392,129.205557 256.209683,129.189987 256.20027,129.174274 C256.186578,129.151412 256.173587,129.128387 256.16124,129.105085 C256.151435,129.086578 256.142075,129.067979 256.133129,129.049217 C256.123906,129.029873 256.115124,129.010358 256.106794,128.99068 C256.097191,128.967999 256.088165,128.945038 256.079764,128.921877 C256.04277,128.819966 256.017819,128.713893 256.006662,128.605405 L256,128.475788 L256,45.4735367 L256.002601,45.392539 C256.003994,45.3708485 256.005942,45.3492446 256.00843,45.3277389 C256.010856,45.3068414 256.01372,45.2864726 256.017063,45.2662026 L256.00843,45.3277389 C256.013035,45.2879496 256.019492,45.2484963 256.02772,45.2094519 C256.042999,45.1368946 256.064468,45.0655613 256.091555,44.9961183 C256.097339,44.9812831 256.103467,44.96633 256.109854,44.9514704 C256.117627,44.933378 256.125869,44.9152431 256.134492,44.8972584 C256.1439,44.8776418 256.153683,44.8583489 256.1639,44.8392433 C256.175546,44.8174548 256.187887,44.7956922 256.200783,44.7741954 C256.210506,44.7579926 256.220458,44.7420736 256.230712,44.7263104 C256.244313,44.7053999 256.258523,44.6846548 256.273252,44.6642039 C256.290237,44.6406251 256.307829,44.6175378 256.326076,44.594864 C256.333422,44.585724 256.341533,44.5758681 256.349767,44.5660937 C256.372187,44.5394932 256.395207,44.5138224 256.419069,44.488782 C256.424815,44.4827502 256.430845,44.4765147 256.436927,44.4703194 C256.460719,44.4461001 256.484902,44.4228639 256.509812,44.4002615 C256.521823,44.3893612 256.534147,44.3784845 256.54664,44.367763 C256.564898,44.3521003 256.583201,44.3370177 256.601837,44.3222686 C256.622291,44.3060737 256.643426,44.2900793 256.664952,44.2745154 C256.682006,44.2621798 256.699592,44.2499223 256.717422,44.2379532 C256.739341,44.2232497 256.761086,44.209313 256.783163,44.1958077 C256.805137,44.1823598 256.827755,44.1691642 256.850693,44.1564246 C256.865765,44.148055 256.880843,44.1399511 256.896052,44.1320453 C256.920743,44.1192112 256.94571,44.106931 256.970996,44.0951896 C256.993168,44.0848884 257.015974,44.07484 257.039018,44.0652338 C257.053955,44.0590122 257.068506,44.0531643 257.083148,44.0474939 C257.110898,44.0367432 257.139178,44.0265616 257.16776,44.0170507 C257.194123,44.0082725 257.221079,43.9999699 257.248276,43.9922714 C257.264996,43.9875387 257.281807,43.9830344 257.298704,43.9787628 L257.314952,43.9747338 C257.334573,43.9699627 257.354308,43.9655054 257.374149,43.9613689 C257.447611,43.9460564 257.522443,43.9351482 257.598326,43.9289812 L257.744132,43.9230587 L271.92974,43.9230587 C272.859943,41.1321985 275.76683,39.1682598 279.138819,39.1682598 L279.138819,39.1682598 L285.185143,39.1682598 C286.20334,36.2516851 289.20289,34.1179375 292.684391,34.0047302 L292.9756,34 Z M271.580913,47.0240146 L259.488264,47.0240146 L259.488264,126.92531 L326.346661,126.92531 L326.346661,47.0240146 L314.254011,47.0240146 L314.254011,48.5744925 C314.254011,49.4014141 313.440083,50.1249704 312.509879,50.1249704 L312.509879,50.1249704 L273.325045,50.1249704 C272.394842,50.1249704 271.580913,49.4014141 271.580913,48.5744925 L271.580913,48.5744925 L271.580913,47.0240146 Z M276.438644,102.376077 C277.722987,102.376077 278.764154,103.417335 278.764154,104.701793 L278.764154,104.701793 L278.764154,114.004661 C278.764154,115.289119 277.722987,116.330378 276.438644,116.330378 L276.438644,116.330378 L267.136606,116.330378 C265.852263,116.330378 264.811097,115.289119 264.811097,114.004661 L264.811097,114.004661 L264.811097,104.701793 C264.811097,103.417335 265.852263,102.376077 267.136606,102.376077 L267.136606,102.376077 Z M311.347125,112.764279 C312.277328,112.764279 313.091257,113.487835 313.091257,114.314757 C313.091257,115.141678 312.277328,115.865235 311.347125,115.865235 L311.347125,115.865235 L286.347898,115.865235 C285.417694,115.865235 284.603766,115.141678 284.603766,114.314757 C284.603766,113.487835 285.417694,112.764279 286.347898,112.764279 L286.347898,112.764279 Z M276.180254,104.960206 L267.394996,104.960206 L267.394996,113.746248 L276.180254,113.746248 L276.180254,104.960206 Z M317.974827,103.461411 C318.90503,103.461411 319.718959,104.184967 319.718959,105.011889 C319.718959,105.838811 318.90503,106.562367 317.974827,106.562367 L317.974827,106.562367 L286.347898,106.562367 C285.417694,106.562367 284.603766,105.838811 284.603766,105.011889 C284.603766,104.184967 285.417694,103.461411 286.347898,103.461411 L286.347898,103.461411 Z M282.391292,78.9410715 C282.776429,79.3052746 282.813303,79.8893471 282.506089,80.2855224 L282.422119,80.3804157 L278.764097,84.4026946 L278.764154,92.29797 C278.764154,93.582428 277.722987,94.6236869 276.438644,94.6236869 L276.438644,94.6236869 L267.136606,94.6236869 C265.852263,94.6236869 264.811097,93.582428 264.811097,92.29797 L264.811097,92.29797 L264.811097,82.9951025 C264.811097,81.7106445 265.852263,80.6693856 267.136606,80.6693856 L267.136606,80.6693856 L276.438644,80.6693856 C276.494544,80.6693856 276.549984,80.6713581 276.604897,80.6752374 L276.438644,80.6693856 C276.512706,80.6693856 276.585959,80.672848 276.65825,80.6796199 C276.69912,80.6834433 276.739959,80.6883654 276.780458,80.6943316 C276.788501,80.6955175 276.796205,80.6966934 276.803897,80.697907 C276.847381,80.7047616 276.89075,80.7128835 276.933677,80.7221909 C276.957322,80.7273183 276.980769,80.7327894 277.004077,80.7386121 C277.030609,80.7452406 277.056942,80.7523196 277.083086,80.7598449 C277.107954,80.7670034 277.132622,80.7745559 277.157111,80.7825037 C277.185957,80.7918647 277.214623,80.801799 277.243029,80.8122721 C277.26792,80.8214449 277.292919,80.8311578 277.317705,80.8412861 C277.335223,80.8484485 277.352237,80.8556444 277.369145,80.8630355 C277.401516,80.8771797 277.433829,80.8922 277.465728,80.9079303 C277.485073,80.917471 277.50415,80.927211 277.523071,80.9372044 C277.545675,80.9491404 277.568219,80.9615295 277.590532,80.9742775 C277.619673,80.9909313 277.648189,81.008053 277.676301,81.02576 C277.694149,81.0369962 277.712347,81.048811 277.730366,81.0608709 C277.753785,81.0765548 277.776292,81.0922122 277.798505,81.1082522 C277.817223,81.1217588 277.836337,81.136002 277.855221,81.1505287 C277.978985,81.2457955 278.092407,81.3526918 278.194291,81.4698884 C278.207458,81.4850362 278.220387,81.5002999 278.23312,81.5157306 C278.255968,81.543418 278.278187,81.5716431 278.299756,81.6003843 C278.311062,81.6154495 278.322183,81.6306476 278.333122,81.6459841 C278.349688,81.669212 278.365732,81.6925996 278.381356,81.7162899 C278.388141,81.7265727 278.395164,81.7374121 278.4021,81.7483131 L280.924819,78.9592339 C281.325918,78.5602623 281.980111,78.5522413 282.391292,78.9410715 Z M311.347125,91.0575877 C312.277328,91.0575877 313.091257,91.7811441 313.091257,92.6080656 C313.091257,93.4349872 312.277328,94.1585436 311.347125,94.1585436 L311.347125,94.1585436 L286.347898,94.1585436 C285.417694,94.1585436 284.603766,93.4349872 284.603766,92.6080656 C284.603766,91.7811441 285.417694,91.0575877 286.347898,91.0575877 L286.347898,91.0575877 Z M276.180254,83.2535155 L267.394996,83.2535155 L267.394996,92.0395571 L276.180254,92.0395571 L276.180097,87.2446946 L273.274974,90.4408098 C272.90436,90.8094576 272.317749,90.8442769 271.906404,90.540873 L271.807446,90.4579732 L268.384899,87.2123336 C267.968228,86.8172001 267.960669,86.164594 268.368257,85.7603079 C268.739028,85.392542 269.324976,85.358179 269.735897,85.661343 L269.834755,85.7441682 L272.501449,88.2728088 L276.180097,84.2046946 L276.180254,83.2535155 Z M317.974827,81.7547201 C318.90503,81.7547201 319.718959,82.4782765 319.718959,83.3051981 C319.718959,84.1321196 318.90503,84.855676 317.974827,84.855676 L317.974827,84.855676 L286.347898,84.855676 C285.417694,84.855676 284.603766,84.1321196 284.603766,83.3051981 C284.603766,82.4782765 285.417694,81.7547201 286.347898,81.7547201 L286.347898,81.7547201 Z M276.438644,58.9626946 C277.722987,58.9626946 278.764154,60.0039535 278.764154,61.2884115 L278.764154,61.2884115 L278.764154,70.5912791 C278.764154,71.875737 277.722987,72.916996 276.438644,72.916996 L276.438644,72.916996 L267.136606,72.916996 C265.852263,72.916996 264.811097,71.875737 264.811097,70.5912791 L264.811097,70.5912791 L264.811097,61.2884115 C264.811097,60.0039535 265.852263,58.9626946 267.136606,58.9626946 L267.136606,58.9626946 Z M311.347125,69.3508967 C312.277328,69.3508967 313.091257,70.0744531 313.091257,70.9013747 C313.091257,71.7282962 312.277328,72.4518526 311.347125,72.4518526 L311.347125,72.4518526 L286.347898,72.4518526 C285.417694,72.4518526 284.603766,71.7282962 284.603766,70.9013747 C284.603766,70.0744531 285.417694,69.3508967 286.347898,69.3508967 L286.347898,69.3508967 Z M276.180254,61.5468245 L267.394996,61.5468245 L267.394996,70.3328661 L276.180254,70.3328661 L276.180254,61.5468245 Z M317.974827,60.0480292 C318.90503,60.0480292 319.718959,60.7715855 319.718959,61.5985071 C319.718959,62.4254287 318.90503,63.148985 317.974827,63.148985 L317.974827,63.148985 L286.347898,63.148985 C285.417694,63.148985 284.603766,62.4254287 284.603766,61.5985071 C284.603766,60.7715855 285.417694,60.0480292 286.347898,60.0480292 L286.347898,60.0480292 Z M292.9756,37.1009559 C290.533815,37.1009559 288.557132,38.754799 288.324581,40.8221029 C288.208306,41.6490244 287.510653,42.2692156 286.580449,42.2692156 L286.580449,42.2692156 L279.138819,42.2692156 C277.04586,42.2692156 275.301728,43.7163283 275.185453,45.5769019 L275.185453,45.5769019 L275.185453,47.0240146 L310.765747,47.0240146 L310.765747,45.5769019 L310.765747,45.5769019 L310.748741,45.392261 C310.532809,43.6214621 308.835574,42.2692156 306.812381,42.2692156 L306.812381,42.2692156 L299.370751,42.2692156 C298.440547,42.2692156 297.742894,41.6490244 297.626619,40.8221029 C297.394068,38.754799 295.417385,37.1009559 292.9756,37.1009559 Z" id="clipboard" fill="#98A8CA" fill-rule="nonzero"></path>
                <path d="M216.012522,124.692308 C216.218024,124.692308 216.384615,124.858899 216.384615,125.064401 L216.384615,125.064401 L216.384615,130.474061 C216.384615,130.679562 216.218024,130.846154 216.012522,130.846154 L216.012522,130.846154 L208.29517,130.846154 C208.089669,130.846154 207.923077,130.679562 207.923077,130.474061 L207.923077,130.474061 L207.923077,125.064401 C207.923077,124.858899 208.089669,124.692308 208.29517,124.692308 L208.29517,124.692308 Z M212.448317,119.5719 C212.924867,119.5719 213.311186,119.962914 213.311186,120.445255 L213.311186,120.445255 L213.311186,122.191964 C213.311186,122.674304 212.924867,123.065318 212.448317,123.065318 C211.971768,123.065318 211.585448,122.674304 211.585448,122.191964 L211.585448,122.191964 L211.585448,120.445255 C211.585448,119.962914 211.971768,119.5719 212.448317,119.5719 Z M216.012522,112.384615 C216.218024,112.384615 216.384615,112.551207 216.384615,112.756708 L216.384615,112.756708 L216.384615,118.166369 C216.384615,118.37187 216.218024,118.538462 216.012522,118.538462 L216.012522,118.538462 L208.29517,118.538462 C208.089669,118.538462 207.923077,118.37187 207.923077,118.166369 L207.923077,118.166369 L207.923077,112.756708 C207.923077,112.551207 208.089669,112.384615 208.29517,112.384615 L208.29517,112.384615 Z M212.448317,106.089491 C212.924867,106.089491 213.311186,106.480505 213.311186,106.962846 L213.311186,106.962846 L213.311186,108.709555 C213.311186,109.191895 212.924867,109.582909 212.448317,109.582909 C211.971768,109.582909 211.585448,109.191895 211.585448,108.709555 L211.585448,108.709555 L211.585448,106.962846 C211.585448,106.480505 211.971768,106.089491 212.448317,106.089491 Z M159.843517,98.1127638 L159.843517,103.360535 C159.844296,104.039494 160.361821,104.597751 161.025163,104.665564 L161.159666,104.672478 L186.16649,104.672478 C186.847625,104.671701 187.407672,104.15583 187.475702,103.494608 L187.482638,103.360535 L187.482638,100.126801 L188.068736,100.516284 C188.470619,100.783394 188.983153,100.807676 189.405155,100.589132 L189.528838,100.516284 L190.114935,100.126801 L190.114935,103.360535 C190.11252,105.465307 188.454795,107.183434 186.369578,107.291021 L186.16649,107.296364 L161.159666,107.296364 C159.048146,107.293956 157.324511,105.641528 157.21658,103.562975 L157.21122,103.360535 L157.21122,98.1127638 L159.843517,98.1127638 Z M219.089445,97 C219.294947,97 219.461538,97.1665917 219.461538,97.372093 L219.461538,97.372093 L219.461538,102.781753 C219.461538,102.987254 219.294947,103.153846 219.089445,103.153846 L219.089445,103.153846 L205.987478,103.153846 C205.781976,103.153846 205.615385,102.987254 205.615385,102.781753 L205.615385,102.781753 L205.615385,97.372093 C205.615385,97.1665917 205.781976,97 205.987478,97 L205.987478,97 Z M226.029875,87.7490482 C228.534555,87.7538541 230.563817,89.8077757 230.568566,92.3428925 L230.568566,92.3428925 L230.568566,95.382166 C230.563817,97.9172828 228.534555,99.9712044 226.029875,99.9760103 L226.029875,99.9760103 L224.917,99.975371 L224.916774,100.849365 L221.939876,99.1026558 L224.916774,97.355947 L224.917,98.228371 L226.029875,98.2293014 C227.583426,98.2293014 228.842828,96.9545954 228.842828,95.382166 L228.842828,95.382166 L228.842828,92.3428925 C228.842828,90.770463 227.583426,89.4957571 226.029875,89.4957571 L226.029875,89.4957571 L221.077007,89.4957571 C220.600458,89.4957571 220.214138,89.104743 220.214138,88.6224026 C220.214138,88.1400623 220.600458,87.7490482 221.077007,87.7490482 L221.077007,87.7490482 Z M188.798787,85.2582214 L198.271457,91.5530495 L188.798787,97.8478776 L179.326116,91.5530495 L188.798787,85.2582214 Z M166.054737,87.6172209 L164.080514,95.4888781 L151,95.4888781 L152.974223,87.6172209 L166.054737,87.6172209 Z M176.555005,90.2411066 L176.223398,90.461472 C175.857239,90.7047755 175.637301,91.1143999 175.637301,91.5530495 C175.637301,91.9429602 175.811079,92.3099375 176.106862,92.5575541 L176.223398,92.6446269 L176.555005,92.8649923 L167.451818,92.8649923 L168.109893,90.2411066 L176.555005,90.2411066 Z M215.865278,85.1289846 L215.973515,85.1357893 C216.398976,85.1896811 216.728147,85.5571021 216.728147,86.0023393 L216.728147,86.0023393 L216.728147,91.1725976 L216.721424,91.2821493 C216.691807,91.5216878 216.566344,91.731071 216.385117,91.8697301 L216.384615,92.0125224 C216.384615,92.2180237 216.218024,92.3846154 216.012522,92.3846154 L216.012522,92.3846154 L208.29517,92.3846154 C208.089669,92.3846154 207.923077,92.2180237 207.923077,92.0125224 L207.923077,92.0125224 L207.923077,85.8336315 C207.923077,85.6281302 208.089669,85.4615385 208.29517,85.4615385 L208.29517,85.4615385 L208.355,85.4607893 L208.408681,85.3970095 C208.544389,85.2541585 208.723167,85.1631321 208.91496,85.1368681 L209.031356,85.1289846 L215.865278,85.1289846 Z M178.402024,70.5619637 C178.31383,70.9937407 178.269464,71.4332708 178.269598,71.8739066 C178.269497,72.2043834 178.294428,72.5342383 178.344106,72.8606669 L178.402024,73.1858494 L161.159666,73.1858494 C160.47853,73.1866263 159.918483,73.7024976 159.850453,74.3637195 L159.843517,74.4977923 L159.843517,84.9933352 L157.21122,84.9933352 L157.21122,74.4977923 C157.213635,72.3930203 158.87136,70.6748935 160.956577,70.5673066 L161.159666,70.5619637 L178.402024,70.5619637 Z M192.747233,67.938078 C194.927899,67.938078 196.695679,69.7002085 196.695679,71.8739066 C196.695679,73.9796766 195.036659,75.6992001 192.950419,75.8046139 L192.747233,75.8097352 L184.850341,75.8097352 C182.669674,75.8097352 180.901895,74.0476047 180.901895,71.8739066 C180.901895,69.7681365 182.560915,68.0486131 184.647154,67.9431993 L184.850341,67.938078 L192.747233,67.938078 Z M189.926735,58.3163872 L189.926735,64.6773223 L187.303083,64.6773223 L187.303083,58.3163872 C188.16878,58.4217312 189.061038,58.4217312 189.926735,58.3163872 Z M187.537144,48.1973209 C189.161419,49.0064306 191.008446,49.2456757 192.780642,48.8824942 L193.11198,48.80733 L194.312932,48.5080103 L194.312932,56.0113247 L181.151446,56.0113247 L181.151446,48.950504 L182.66264,48.1973209 C184.197866,47.4366121 186.001917,47.4366121 187.537144,48.1973209 Z M226.55615,47.7850884 C228.736817,47.7850884 230.504596,49.5472189 230.504596,51.720917 C230.504596,53.8946151 228.736817,55.6567456 226.55615,55.6567456 L218.659259,55.6567456 C216.478592,55.6567456 214.710813,53.8946151 214.710813,51.720917 C214.710813,49.5472189 216.478592,47.7850884 218.659259,47.7850884 L226.55615,47.7850884 Z M209.846636,50.4089741 C209.670068,51.2747483 209.670068,52.1670857 209.846636,53.0328598 L199.185021,53.0328598 L199.185021,50.4089741 L209.846636,50.4089741 Z" id="chart" fill="#98A8CA" fill-rule="nonzero"></path>
            </g>
        </g>
    </g>
</svg>
