<?xml version="1.0" encoding="UTF-8"?>
<svg width="352px" height="170px" viewBox="0 0 352 170" version="1.1" xmlns="http://www.w3.org/2000/svg" xmlns:xlink="http://www.w3.org/1999/xlink">
    <title>208EC53C-5F7D-4B9D-A358-259ECBBB2319</title>
    <g id="Templates" stroke="none" stroke-width="1" fill="none" fill-rule="evenodd">
        <g id="for-export" transform="translate(-48.000000, -179.000000)">
            <g id="discovery-illustration" transform="translate(48.000000, 179.000000)">
                <path d="M349,0 C350.656854,0 352,1.34314575 352,3 L352,167 C352,168.656854 350.656854,170 349,170 L3,170 C1.34314575,170 0,168.656854 0,167 L0,3 C0,1.34314575 1.34314575,0 3,0 L349,0 Z M349,2 L3,2 C2.48716416,2 2.06449284,2.38604019 2.00672773,2.88337887 L2,3 L2,167 C2,167.512836 2.38604019,167.935507 2.88337887,167.993272 L3,168 L349,168 C349.512836,168 349.935507,167.61396 349.993272,167.116621 L350,167 L350,3 C350,2.48716416 349.61396,2.06449284 349.116621,2.00672773 L349,2 Z" id="Rectangle" fill="#EDEBEB" fill-rule="nonzero"></path>
                <path d="M349,2 L3,2 C2.48716416,2 2.06449284,2.38604019 2.00672773,2.88337887 L2,3 L2,167 C2,167.512836 2.38604019,167.935507 2.88337887,167.993272 L3,168 L349,168 C349.512836,168 349.935507,167.61396 349.993272,167.116621 L350,167 L350,3 C350,2.48716416 349.61396,2.06449284 349.116621,2.00672773 L349,2 Z" id="Path" fill="#FFFFFF" fill-rule="nonzero"></path>
                <path d="M234,16 C234.552285,16 235,16.4477153 235,17 L235,153 C235,153.552285 234.552285,154 234,154 L77,154 C76.4477153,154 76,153.552285 76,153 L76,17 C76,16.4477153 76.4477153,16 77,16 L234,16 Z M335,77 C335.552285,77 336,77.4477153 336,78 L336,152 C336,152.552285 335.552285,153 335,153 L245,153 C244.447715,153 244,152.552285 244,152 L244,78 C244,77.4477153 244.447715,77 245,77 L335,77 Z M335,16 C335.552285,16 336,16.4477153 336,17 L336,67 C336,67.5522847 335.552285,68 335,68 L245,68 C244.447715,68 244,67.5522847 244,67 L244,17 C244,16.4477153 244.447715,16 245,16 L335,16 Z" id="Combined-Shape" fill="#EDF1F5"></path>
                <path d="M116.704225,64.9577465 C118.337744,64.9577465 119.661972,66.2819747 119.661972,67.915493 C119.661972,69.5490112 118.337744,70.8732394 116.704225,70.8732394 L111.38547,70.8732256 C111.379645,70.9112466 111.37511,70.9496296 111.371907,70.9883324 L111.366197,71.1267606 L111.366,81.859 L116.704225,81.8591549 C118.337744,81.8591549 119.661972,83.1833831 119.661972,84.8169014 C119.661972,86.4504197 118.337744,87.7746479 116.704225,87.7746479 L111.366,87.774 L111.366197,93.4366197 C111.366197,94.3674697 112.13657,95.1477051 113.134244,95.2199025 L113.285531,95.2253521 L123.887,95.225 L123.887324,94.6632522 C123.887324,94.1965327 124.265675,93.8181818 124.732394,93.8181818 L159.380282,93.8181818 C159.847001,93.8181818 160.225352,94.1965327 160.225352,94.6632522 L160.225352,103.882202 C160.225352,104.348922 159.847001,104.727273 159.380282,104.727273 L138.036,104.727 L138.19897,116.833395 L145.077,116.943 L143.635301,115.501063 C143.280279,115.146041 143.280279,114.570436 143.635301,114.215414 C143.960738,113.889977 144.471525,113.862858 144.827854,114.134055 L144.920949,114.215414 L149.314764,118.609228 L144.920949,123.003043 C144.565927,123.358065 143.990323,123.358065 143.635301,123.003043 C143.309864,122.677606 143.282744,122.166818 143.553942,121.81049 L143.635301,121.717394 L145.861,119.491 L136.928584,119.347195 C136.28642,119.336836 135.760898,118.849911 135.689588,118.224675 L135.681554,118.097875 L135.501,104.727 L124.732394,104.727273 C124.265675,104.727273 123.887324,104.348922 123.887324,103.882202 L123.887,97.225 L113.285531,97.2253521 C111.198253,97.2253521 109.476873,95.6432907 109.371325,93.6325109 L109.366197,93.4366197 L109.366,87.774 L103.76,87.774 L103.76,98.76 L116.704225,98.7605634 C118.337744,98.7605634 119.661972,100.084792 119.661972,101.71831 C119.661972,103.351828 118.337744,104.676056 116.704225,104.676056 L115.591,104.676 L115.591549,124.152796 C115.591549,124.685405 116.309799,125.246331 117.328145,125.307012 L117.510883,125.31242 L155.411,125.312 L155.411012,118.299616 C155.411012,117.832896 155.789362,117.454545 156.256082,117.454545 L175.281,117.454 L175.28169,114.380282 L175.287253,114.186672 C175.405426,112.13692 177.39083,110.591549 179.736236,110.591549 L179.736236,110.591549 L192.368042,110.591971 C192.348263,110.453836 192.338028,110.31262 192.338028,110.169014 C192.338028,108.535496 193.662256,107.211268 195.295775,107.211268 L213.042254,107.211268 C214.675772,107.211268 216,108.535496 216,110.169014 C216,111.802532 214.675772,113.126761 213.042254,113.126761 L195.295775,113.126761 C194.664407,113.126761 194.079243,112.928936 193.598887,112.59189 L179.736236,112.591549 L179.555992,112.596327 C178.249196,112.665934 177.28169,113.485855 177.28169,114.380282 L177.28169,114.380282 L177.281,117.454 L190.020487,117.454545 C190.487206,117.454545 190.865557,117.832896 190.865557,118.299616 L190.865557,130.245839 C190.865557,130.712558 190.487206,131.090909 190.020487,131.090909 L156.256082,131.090909 C155.789362,131.090909 155.411012,130.712558 155.411012,130.245839 L155.411,127.312 L117.510883,127.31242 C115.468457,127.31242 113.708562,126.059249 113.597145,124.327534 L113.591549,124.152796 L113.591,104.676 L98.9577465,104.676056 C97.3242282,104.676056 96,103.351828 96,101.71831 C96,100.084792 97.3242282,98.7605634 98.9577465,98.7605634 L101.76,98.76 L101.76,87.774 L98.9577465,87.7746479 C97.3242282,87.7746479 96,86.4504197 96,84.8169014 C96,83.1833831 97.3242282,81.8591549 98.9577465,81.8591549 L101.76,81.859 L101.76,70.873 L98.9577465,70.8732394 C97.3242282,70.8732394 96,69.5490112 96,67.915493 C96,66.2819747 97.3242282,64.9577465 98.9577465,64.9577465 L116.704225,64.9577465 Z M191.893268,58.5115494 C197.06897,63.6872244 197.754861,71.6522997 193.95285,77.5673569 L211.285434,94.8998499 C214.336596,97.9490848 209.724508,102.564969 206.671436,99.5138237 L189.338852,82.1813307 C183.423763,85.9833216 175.458646,85.2974348 170.282944,80.1217598 C164.31627,74.1551178 164.31627,64.4801019 170.282944,58.5115494 C176.251528,52.5449075 185.924684,52.5429969 191.893268,58.5115494 Z M144.288885,79.7427521 L144.288,87.886 L146.040974,86.1355657 C146.395996,85.7805437 146.9716,85.7805437 147.326622,86.1355657 C147.652059,86.4610027 147.679179,86.9717901 147.407981,87.3281188 L147.326622,87.4212144 L142.932808,91.8150286 L138.538994,87.4212144 C138.183972,87.0661924 138.183972,86.4905878 138.538994,86.1355657 C138.864431,85.8101288 139.375218,85.7830091 139.731547,86.0542065 L139.824643,86.1355657 L141.753,88.065 L141.753674,79.7427521 L144.288885,79.7427521 Z M190.367394,60.4624167 C185.360379,55.4552625 177.243323,55.4552625 172.234399,60.4643271 C167.227385,65.4714812 167.227385,73.5906744 172.234399,78.5959181 C177.243323,83.6011619 185.360379,83.6030723 190.367394,78.5959181 C195.374408,73.588764 195.374408,65.4695708 190.367394,60.4624167 Z M109.374781,70.873517 L103.76,70.873 L103.76,81.859 L109.366,81.859 L109.366197,71.1267606 C109.366197,71.0416344 109.369089,70.9571919 109.374781,70.873517 Z M142.537912,58.8686779 C142.767859,58.7591158 143.034958,58.7591158 143.264904,58.8686779 L143.264904,58.8686779 L161.159405,67.3948132 C161.334409,67.4781967 161.475424,67.6192123 161.558808,67.7942161 C161.759561,68.2155535 161.580742,68.7198576 161.159405,68.9206109 L161.159405,68.9206109 L143.264904,77.4467462 C143.034958,77.5563083 142.767859,77.5563083 142.537912,77.4467462 L142.537912,77.4467462 L124.643412,68.9206109 C124.468408,68.8372275 124.327393,68.6962118 124.244009,68.521208 C124.043256,68.0998706 124.222075,67.5955665 124.643412,67.3948132 L124.643412,67.3948132 Z M179.33269,58.3097709 C180.532325,58.3097709 180.532325,60.1353873 179.33269,60.1353873 C177.133035,60.1353873 175.142687,61.0249393 173.702737,62.4648895 C172.262786,63.9048397 171.373234,65.895188 171.373234,68.0948427 C171.373234,69.2944782 169.547618,69.2944782 169.547618,68.0948427 C169.547618,65.3951784 170.6426,62.9493949 172.413952,61.178043 C174.187242,59.4047531 176.633026,58.3097709 179.33269,58.3097709 Z M156.788885,44.0552711 L156.788,52.199 L158.540974,50.4480847 C158.895996,50.0930627 159.4716,50.0930627 159.826622,50.4480847 C160.152059,50.7735217 160.179179,51.2843091 159.907981,51.6406378 L159.826622,51.7337334 L155.432808,56.1275476 L151.038994,51.7337334 C150.683972,51.3787114 150.683972,50.8031068 151.038994,50.4480847 C151.364431,50.1226478 151.875218,50.0955281 152.231547,50.3667255 L152.324643,50.4480847 L154.253,52.377 L154.253674,44.0552711 L156.788885,44.0552711 Z M177.126761,32 C177.59348,32 177.971831,32.3783509 177.971831,32.8450704 L177.971,36.225 L198.559539,36.2253521 C200.646817,36.2253521 202.368197,37.8074135 202.473745,39.8181933 L202.478873,40.0140845 L202.478,43.83 L210.507042,43.8309859 C212.140561,43.8309859 213.464789,45.1552141 213.464789,46.7887324 C213.464789,48.4222507 212.140561,49.7464789 210.507042,49.7464789 L192.760563,49.7464789 C191.127045,49.7464789 189.802817,48.4222507 189.802817,46.7887324 C189.802817,45.1552141 191.127045,43.8309859 192.760563,43.8309859 L200.478,43.83 L200.478873,40.0140845 C200.478873,39.0832345 199.7085,38.3029991 198.710827,38.2308018 L198.559539,38.2253521 L177.971,38.225 L177.971831,41.1549296 C177.971831,41.6216491 177.59348,42 177.126761,42 L132.338028,42 C131.871309,42 131.492958,41.6216491 131.492958,41.1549296 L131.492958,32.8450704 C131.492958,32.3783509 131.871309,32 132.338028,32 L177.126761,32 Z" id="spot-illustration" fill="#98A8CA"></path>
                <path d="M58,0 C58.5522847,0 59,0.44771525 59,1 L59,169 C59,169.552285 58.5522847,170 58,170 L1,170 C0.44771525,170 0,169.552285 0,169 L0,1 C0,0.44771525 0.44771525,0 1,0 L58,0 Z M37,44 L9,44 C7.34314575,44 6,45.3431458 6,47 C6,48.5976809 7.24891996,49.9036609 8.82372721,49.9949073 L9,50 L37,50 C38.6568542,50 40,48.6568542 40,47 C40,45.4023191 38.75108,44.0963391 37.1762728,44.0050927 L37,44 Z M50,30 L9,30 C7.34314575,30 6,31.3431458 6,33 C6,34.5976809 7.24891996,35.9036609 8.82372721,35.9949073 L9,36 L50,36 C51.6568542,36 53,34.6568542 53,33 C53,31.4023191 51.75108,30.0963391 50.1762728,30.0050927 L50,30 Z M50,16 L9,16 C7.34314575,16 6,17.3431458 6,19 C6,20.5976809 7.24891996,21.9036609 8.82372721,21.9949073 L9,22 L50,22 C51.6568542,22 53,20.6568542 53,19 C53,17.4023191 51.75108,16.0963391 50.1762728,16.0050927 L50,16 Z" id="Shape" fill="#EDEBEB"></path>
            </g>
        </g>
    </g>
</svg>
