<?xml version="1.0" encoding="UTF-8"?>
<svg width="210px" height="61px" viewBox="0 0 210 61" version="1.1" xmlns="http://www.w3.org/2000/svg" xmlns:xlink="http://www.w3.org/1999/xlink">
    <title>60A6C618-E529-4502-B30B-6F35C3CE4E3A</title>
    <g id="Investigations" stroke="none" stroke-width="1" fill="none" fill-rule="evenodd">
        <g id="Admin-&gt;-Investigations" transform="translate(-360.000000, -2472.000000)">
            <g id="empty-state-case-fields" transform="translate(361.000000, 2472.000000)">
                <path d="M71.1966681,2.00691151 C85.8165793,-1.30593658 101.961856,-0.517347307 119.632497,4.37267934 C146.138458,11.7077193 145.991682,18.2483638 178.843179,25.3819414 C211.694677,32.5155189 210.276303,49.6404242 170.201638,54.6218131 C130.126973,59.6032024 57.8919661,68.8396736 18.727044,47.8741462 C-7.38290402,33.8971277 10.1069707,18.6080495 71.1966681,2.00691151 Z" id="bg" fill="#F6F7F9" fill-rule="nonzero"></path>
                <g id="Group-34" transform="translate(0.000000, 16.000000)">
                    <g id="Group-2" transform="translate(0.000000, 1.074074)">
                        <path d="M1.37037037,0 L59.0521648,0 C59.8089995,8.30163339e-17 60.4225352,0.613535713 60.4225352,1.37037037 L60.4225352,9.59259259 C60.4225352,10.3494272 59.8089995,10.962963 59.0521648,10.962963 L1.37037037,10.962963 C0.613535713,10.962963 -3.23798356e-15,10.3494272 0,9.59259259 L0,1.37037037 C-9.2685514e-17,0.613535713 0.613535713,3.61072876e-16 1.37037037,0 Z" id="Rectangle" stroke="#DEDEDE" stroke-width="1.02777778" fill="#FFFFFF" stroke-linecap="round" stroke-dasharray="2.055555555555556"></path>
                        <path d="M5.04220943,4.11111111 C4.78940303,4.11111111 4.58446295,3.90659921 4.58446295,3.65432099 C4.58446295,3.40204277 4.78940303,3.19753086 5.04220943,3.19753086 C5.29501583,3.19753086 5.49995591,3.40204277 5.49995591,3.65432099 C5.49995591,3.90659921 5.29501583,4.11111111 5.04220943,4.11111111 Z M5.04220943,5.48148148 C4.78940303,5.48148148 4.58446295,5.27696958 4.58446295,5.02469136 C4.58446295,4.77241314 4.78940303,4.56790123 5.04220943,4.56790123 C5.29501583,4.56790123 5.49995591,4.77241314 5.49995591,5.02469136 C5.49995591,5.27696958 5.29501583,5.48148148 5.04220943,5.48148148 Z M5.04220943,6.85185185 C4.78940303,6.85185185 4.58446295,6.64733995 4.58446295,6.39506173 C4.58446295,6.14278351 4.78940303,5.9382716 5.04220943,5.9382716 C5.29501583,5.9382716 5.49995591,6.14278351 5.49995591,6.39506173 C5.49995591,6.64733995 5.29501583,6.85185185 5.04220943,6.85185185 Z M5.04220943,8.22222222 C4.78940303,8.22222222 4.58446295,8.01771032 4.58446295,7.7654321 C4.58446295,7.51315388 4.78940303,7.30864198 5.04220943,7.30864198 C5.29501583,7.30864198 5.49995591,7.51315388 5.49995591,7.7654321 C5.49995591,8.01771032 5.29501583,8.22222222 5.04220943,8.22222222 Z M6.41544887,4.11111111 C6.16264247,4.11111111 5.95770239,3.90659921 5.95770239,3.65432099 C5.95770239,3.40204277 6.16264247,3.19753086 6.41544887,3.19753086 C6.66825526,3.19753086 6.87319534,3.40204277 6.87319534,3.65432099 C6.87319534,3.90659921 6.66825526,4.11111111 6.41544887,4.11111111 Z M6.41544887,5.48148148 C6.16264247,5.48148148 5.95770239,5.27696958 5.95770239,5.02469136 C5.95770239,4.77241314 6.16264247,4.56790123 6.41544887,4.56790123 C6.66825526,4.56790123 6.87319534,4.77241314 6.87319534,5.02469136 C6.87319534,5.27696958 6.66825526,5.48148148 6.41544887,5.48148148 Z M6.41544887,6.85185185 C6.16264247,6.85185185 5.95770239,6.64733995 5.95770239,6.39506173 C5.95770239,6.14278351 6.16264247,5.9382716 6.41544887,5.9382716 C6.66825526,5.9382716 6.87319534,6.14278351 6.87319534,6.39506173 C6.87319534,6.64733995 6.66825526,6.85185185 6.41544887,6.85185185 Z M6.41544887,8.22222222 C6.16264247,8.22222222 5.95770239,8.01771032 5.95770239,7.7654321 C5.95770239,7.51315388 6.16264247,7.30864198 6.41544887,7.30864198 C6.66825526,7.30864198 6.87319534,7.51315388 6.87319534,7.7654321 C6.87319534,8.01771032 6.66825526,8.22222222 6.41544887,8.22222222 Z" id="🎨-Color" fill="#727272"></path>
                        <rect id="Rectangle" fill="#B7BECA" x="10.2992958" y="4.7962963" width="24.7183099" height="1.71296296" rx="0.856481481"></rect>
                        <rect id="Rectangle-Copy" fill="#B7BECA" x="37.0774648" y="4.7962963" width="4.80633803" height="1.71296296" rx="0.856481481"></rect>
                        <rect id="Rectangle-Copy-2" fill="#B7BECA" x="43.943662" y="4.7962963" width="6.86619718" height="1.71296296" rx="0.856481481"></rect>
                    </g>
                    <g id="Group-2-Copy-3" transform="translate(73.915493, 1.074074)">
                        <path d="M1.37037037,0 L59.0521648,0 C59.8089995,8.30163339e-17 60.4225352,0.613535713 60.4225352,1.37037037 L60.4225352,9.59259259 C60.4225352,10.3494272 59.8089995,10.962963 59.0521648,10.962963 L1.37037037,10.962963 C0.613535713,10.962963 3.14730119e-16,10.3494272 0,9.59259259 L0,1.37037037 C1.29359091e-16,0.613535713 0.613535713,3.61072876e-16 1.37037037,0 Z" id="Rectangle" stroke="#DEDEDE" stroke-width="1.02777778" fill="#FFFFFF" stroke-linecap="round" stroke-dasharray="2.055555555555556"></path>
                        <path d="M5.04220943,4.11111111 C4.78940303,4.11111111 4.58446295,3.90659921 4.58446295,3.65432099 C4.58446295,3.40204277 4.78940303,3.19753086 5.04220943,3.19753086 C5.29501583,3.19753086 5.49995591,3.40204277 5.49995591,3.65432099 C5.49995591,3.90659921 5.29501583,4.11111111 5.04220943,4.11111111 Z M5.04220943,5.48148148 C4.78940303,5.48148148 4.58446295,5.27696958 4.58446295,5.02469136 C4.58446295,4.77241314 4.78940303,4.56790123 5.04220943,4.56790123 C5.29501583,4.56790123 5.49995591,4.77241314 5.49995591,5.02469136 C5.49995591,5.27696958 5.29501583,5.48148148 5.04220943,5.48148148 Z M5.04220943,6.85185185 C4.78940303,6.85185185 4.58446295,6.64733995 4.58446295,6.39506173 C4.58446295,6.14278351 4.78940303,5.9382716 5.04220943,5.9382716 C5.29501583,5.9382716 5.49995591,6.14278351 5.49995591,6.39506173 C5.49995591,6.64733995 5.29501583,6.85185185 5.04220943,6.85185185 Z M5.04220943,8.22222222 C4.78940303,8.22222222 4.58446295,8.01771032 4.58446295,7.7654321 C4.58446295,7.51315388 4.78940303,7.30864198 5.04220943,7.30864198 C5.29501583,7.30864198 5.49995591,7.51315388 5.49995591,7.7654321 C5.49995591,8.01771032 5.29501583,8.22222222 5.04220943,8.22222222 Z M6.41544887,4.11111111 C6.16264247,4.11111111 5.95770239,3.90659921 5.95770239,3.65432099 C5.95770239,3.40204277 6.16264247,3.19753086 6.41544887,3.19753086 C6.66825526,3.19753086 6.87319534,3.40204277 6.87319534,3.65432099 C6.87319534,3.90659921 6.66825526,4.11111111 6.41544887,4.11111111 Z M6.41544887,5.48148148 C6.16264247,5.48148148 5.95770239,5.27696958 5.95770239,5.02469136 C5.95770239,4.77241314 6.16264247,4.56790123 6.41544887,4.56790123 C6.66825526,4.56790123 6.87319534,4.77241314 6.87319534,5.02469136 C6.87319534,5.27696958 6.66825526,5.48148148 6.41544887,5.48148148 Z M6.41544887,6.85185185 C6.16264247,6.85185185 5.95770239,6.64733995 5.95770239,6.39506173 C5.95770239,6.14278351 6.16264247,5.9382716 6.41544887,5.9382716 C6.66825526,5.9382716 6.87319534,6.14278351 6.87319534,6.39506173 C6.87319534,6.64733995 6.66825526,6.85185185 6.41544887,6.85185185 Z M6.41544887,8.22222222 C6.16264247,8.22222222 5.95770239,8.01771032 5.95770239,7.7654321 C5.95770239,7.51315388 6.16264247,7.30864198 6.41544887,7.30864198 C6.66825526,7.30864198 6.87319534,7.51315388 6.87319534,7.7654321 C6.87319534,8.01771032 6.66825526,8.22222222 6.41544887,8.22222222 Z" id="🎨-Color" fill="#727272"></path>
                        <rect id="Rectangle" fill="#B7BECA" x="10.2992958" y="4.7962963" width="24.7183099" height="1.71296296" rx="0.856481481"></rect>
                        <rect id="Rectangle-Copy" fill="#B7BECA" x="37.0774648" y="4.7962963" width="4.80633803" height="1.71296296" rx="0.856481481"></rect>
                        <rect id="Rectangle-Copy-2" fill="#B7BECA" x="43.943662" y="4.7962963" width="6.86619718" height="1.71296296" rx="0.856481481"></rect>
                    </g>
                    <g id="Group-2-Copy" transform="translate(0.000000, 17.518519)">
                        <path d="M1.37037037,0 L59.0521648,0 C59.8089995,-4.17225353e-15 60.4225352,0.613535713 60.4225352,1.37037037 L60.4225352,9.59259259 C60.4225352,10.3494272 59.8089995,10.962963 59.0521648,10.962963 L1.37037037,10.962963 C0.613535713,10.962963 -3.23798356e-15,10.3494272 0,9.59259259 L0,1.37037037 C-9.2685514e-17,0.613535713 0.613535713,3.61072876e-16 1.37037037,0 Z" id="Rectangle" stroke="#DEDEDE" stroke-width="1.02777778" fill="#FFFFFF" stroke-linecap="round" stroke-dasharray="2.055555555555556"></path>
                        <path d="M5.04220943,4.11111111 C4.78940303,4.11111111 4.58446295,3.90659921 4.58446295,3.65432099 C4.58446295,3.40204277 4.78940303,3.19753086 5.04220943,3.19753086 C5.29501583,3.19753086 5.49995591,3.40204277 5.49995591,3.65432099 C5.49995591,3.90659921 5.29501583,4.11111111 5.04220943,4.11111111 Z M5.04220943,5.48148148 C4.78940303,5.48148148 4.58446295,5.27696958 4.58446295,5.02469136 C4.58446295,4.77241314 4.78940303,4.56790123 5.04220943,4.56790123 C5.29501583,4.56790123 5.49995591,4.77241314 5.49995591,5.02469136 C5.49995591,5.27696958 5.29501583,5.48148148 5.04220943,5.48148148 Z M5.04220943,6.85185185 C4.78940303,6.85185185 4.58446295,6.64733995 4.58446295,6.39506173 C4.58446295,6.14278351 4.78940303,5.9382716 5.04220943,5.9382716 C5.29501583,5.9382716 5.49995591,6.14278351 5.49995591,6.39506173 C5.49995591,6.64733995 5.29501583,6.85185185 5.04220943,6.85185185 Z M5.04220943,8.22222222 C4.78940303,8.22222222 4.58446295,8.01771032 4.58446295,7.7654321 C4.58446295,7.51315388 4.78940303,7.30864198 5.04220943,7.30864198 C5.29501583,7.30864198 5.49995591,7.51315388 5.49995591,7.7654321 C5.49995591,8.01771032 5.29501583,8.22222222 5.04220943,8.22222222 Z M6.41544887,4.11111111 C6.16264247,4.11111111 5.95770239,3.90659921 5.95770239,3.65432099 C5.95770239,3.40204277 6.16264247,3.19753086 6.41544887,3.19753086 C6.66825526,3.19753086 6.87319534,3.40204277 6.87319534,3.65432099 C6.87319534,3.90659921 6.66825526,4.11111111 6.41544887,4.11111111 Z M6.41544887,5.48148148 C6.16264247,5.48148148 5.95770239,5.27696958 5.95770239,5.02469136 C5.95770239,4.77241314 6.16264247,4.56790123 6.41544887,4.56790123 C6.66825526,4.56790123 6.87319534,4.77241314 6.87319534,5.02469136 C6.87319534,5.27696958 6.66825526,5.48148148 6.41544887,5.48148148 Z M6.41544887,6.85185185 C6.16264247,6.85185185 5.95770239,6.64733995 5.95770239,6.39506173 C5.95770239,6.14278351 6.16264247,5.9382716 6.41544887,5.9382716 C6.66825526,5.9382716 6.87319534,6.14278351 6.87319534,6.39506173 C6.87319534,6.64733995 6.66825526,6.85185185 6.41544887,6.85185185 Z M6.41544887,8.22222222 C6.16264247,8.22222222 5.95770239,8.01771032 5.95770239,7.7654321 C5.95770239,7.51315388 6.16264247,7.30864198 6.41544887,7.30864198 C6.66825526,7.30864198 6.87319534,7.51315388 6.87319534,7.7654321 C6.87319534,8.01771032 6.66825526,8.22222222 6.41544887,8.22222222 Z" id="🎨-Color" fill="#727272"></path>
                        <rect id="Rectangle" fill="#B7BECA" x="10.2992958" y="4.7962963" width="4.80633803" height="1.71296296" rx="0.856481481"></rect>
                        <rect id="Rectangle-Copy" fill="#B7BECA" x="17.165493" y="4.7962963" width="24.7183099" height="1.71296296" rx="0.856481481"></rect>
                        <rect id="Rectangle-Copy-2" fill="#B7BECA" x="43.943662" y="4.7962963" width="6.86619718" height="1.71296296" rx="0.856481481"></rect>
                    </g>
                    <g id="Group-2-Copy-4" transform="translate(73.915493, 17.518519)">
                        <path d="M1.37037037,0 L59.0521648,0 C59.8089995,7.70537764e-15 60.4225352,0.613535713 60.4225352,1.37037037 L60.4225352,9.59259259 C60.4225352,10.3494272 59.8089995,10.962963 59.0521648,10.962963 L1.37037037,10.962963 C0.613535713,10.962963 9.2685514e-17,10.3494272 0,9.59259259 L0,1.37037037 C-9.2685514e-17,0.613535713 0.613535713,3.61072876e-16 1.37037037,0 Z" id="Rectangle" stroke="#DEDEDE" stroke-width="1.02777778" fill="#FFFFFF" stroke-linecap="round" stroke-dasharray="2.055555555555556"></path>
                        <path d="M5.04220943,4.11111111 C4.78940303,4.11111111 4.58446295,3.90659921 4.58446295,3.65432099 C4.58446295,3.40204277 4.78940303,3.19753086 5.04220943,3.19753086 C5.29501583,3.19753086 5.49995591,3.40204277 5.49995591,3.65432099 C5.49995591,3.90659921 5.29501583,4.11111111 5.04220943,4.11111111 Z M5.04220943,5.48148148 C4.78940303,5.48148148 4.58446295,5.27696958 4.58446295,5.02469136 C4.58446295,4.77241314 4.78940303,4.56790123 5.04220943,4.56790123 C5.29501583,4.56790123 5.49995591,4.77241314 5.49995591,5.02469136 C5.49995591,5.27696958 5.29501583,5.48148148 5.04220943,5.48148148 Z M5.04220943,6.85185185 C4.78940303,6.85185185 4.58446295,6.64733995 4.58446295,6.39506173 C4.58446295,6.14278351 4.78940303,5.9382716 5.04220943,5.9382716 C5.29501583,5.9382716 5.49995591,6.14278351 5.49995591,6.39506173 C5.49995591,6.64733995 5.29501583,6.85185185 5.04220943,6.85185185 Z M5.04220943,8.22222222 C4.78940303,8.22222222 4.58446295,8.01771032 4.58446295,7.7654321 C4.58446295,7.51315388 4.78940303,7.30864198 5.04220943,7.30864198 C5.29501583,7.30864198 5.49995591,7.51315388 5.49995591,7.7654321 C5.49995591,8.01771032 5.29501583,8.22222222 5.04220943,8.22222222 Z M6.41544887,4.11111111 C6.16264247,4.11111111 5.95770239,3.90659921 5.95770239,3.65432099 C5.95770239,3.40204277 6.16264247,3.19753086 6.41544887,3.19753086 C6.66825526,3.19753086 6.87319534,3.40204277 6.87319534,3.65432099 C6.87319534,3.90659921 6.66825526,4.11111111 6.41544887,4.11111111 Z M6.41544887,5.48148148 C6.16264247,5.48148148 5.95770239,5.27696958 5.95770239,5.02469136 C5.95770239,4.77241314 6.16264247,4.56790123 6.41544887,4.56790123 C6.66825526,4.56790123 6.87319534,4.77241314 6.87319534,5.02469136 C6.87319534,5.27696958 6.66825526,5.48148148 6.41544887,5.48148148 Z M6.41544887,6.85185185 C6.16264247,6.85185185 5.95770239,6.64733995 5.95770239,6.39506173 C5.95770239,6.14278351 6.16264247,5.9382716 6.41544887,5.9382716 C6.66825526,5.9382716 6.87319534,6.14278351 6.87319534,6.39506173 C6.87319534,6.64733995 6.66825526,6.85185185 6.41544887,6.85185185 Z M6.41544887,8.22222222 C6.16264247,8.22222222 5.95770239,8.01771032 5.95770239,7.7654321 C5.95770239,7.51315388 6.16264247,7.30864198 6.41544887,7.30864198 C6.66825526,7.30864198 6.87319534,7.51315388 6.87319534,7.7654321 C6.87319534,8.01771032 6.66825526,8.22222222 6.41544887,8.22222222 Z" id="🎨-Color" fill="#727272"></path>
                        <rect id="Rectangle" fill="#B7BECA" x="10.2992958" y="4.7962963" width="4.80633803" height="1.71296296" rx="0.856481481"></rect>
                        <rect id="Rectangle-Copy" fill="#B7BECA" x="17.165493" y="4.7962963" width="24.7183099" height="1.71296296" rx="0.856481481"></rect>
                        <rect id="Rectangle-Copy-2" fill="#B7BECA" x="43.943662" y="4.7962963" width="6.86619718" height="1.71296296" rx="0.856481481"></rect>
                    </g>
                    <g id="Group-2-Copy-8" transform="translate(147.830986, 1.074074)">
                        <path d="M1.37037037,0 L59.0521648,0 C59.8089995,3.89419699e-15 60.4225352,0.613535713 60.4225352,1.37037037 L60.4225352,9.59259259 C60.4225352,10.3494272 59.8089995,10.962963 59.0521648,10.962963 L1.37037037,10.962963 C0.613535713,10.962963 3.14730119e-16,10.3494272 0,9.59259259 L0,1.37037037 C-9.2685514e-17,0.613535713 0.613535713,3.61072876e-16 1.37037037,0 Z" id="Rectangle" stroke="#DEDEDE" stroke-width="1.02777778" fill="#FFFFFF" stroke-linecap="round" stroke-dasharray="2.055555555555556"></path>
                        <path d="M5.04220943,4.11111111 C4.78940303,4.11111111 4.58446295,3.90659921 4.58446295,3.65432099 C4.58446295,3.40204277 4.78940303,3.19753086 5.04220943,3.19753086 C5.29501583,3.19753086 5.49995591,3.40204277 5.49995591,3.65432099 C5.49995591,3.90659921 5.29501583,4.11111111 5.04220943,4.11111111 Z M5.04220943,5.48148148 C4.78940303,5.48148148 4.58446295,5.27696958 4.58446295,5.02469136 C4.58446295,4.77241314 4.78940303,4.56790123 5.04220943,4.56790123 C5.29501583,4.56790123 5.49995591,4.77241314 5.49995591,5.02469136 C5.49995591,5.27696958 5.29501583,5.48148148 5.04220943,5.48148148 Z M5.04220943,6.85185185 C4.78940303,6.85185185 4.58446295,6.64733995 4.58446295,6.39506173 C4.58446295,6.14278351 4.78940303,5.9382716 5.04220943,5.9382716 C5.29501583,5.9382716 5.49995591,6.14278351 5.49995591,6.39506173 C5.49995591,6.64733995 5.29501583,6.85185185 5.04220943,6.85185185 Z M5.04220943,8.22222222 C4.78940303,8.22222222 4.58446295,8.01771032 4.58446295,7.7654321 C4.58446295,7.51315388 4.78940303,7.30864198 5.04220943,7.30864198 C5.29501583,7.30864198 5.49995591,7.51315388 5.49995591,7.7654321 C5.49995591,8.01771032 5.29501583,8.22222222 5.04220943,8.22222222 Z M6.41544887,4.11111111 C6.16264247,4.11111111 5.95770239,3.90659921 5.95770239,3.65432099 C5.95770239,3.40204277 6.16264247,3.19753086 6.41544887,3.19753086 C6.66825526,3.19753086 6.87319534,3.40204277 6.87319534,3.65432099 C6.87319534,3.90659921 6.66825526,4.11111111 6.41544887,4.11111111 Z M6.41544887,5.48148148 C6.16264247,5.48148148 5.95770239,5.27696958 5.95770239,5.02469136 C5.95770239,4.77241314 6.16264247,4.56790123 6.41544887,4.56790123 C6.66825526,4.56790123 6.87319534,4.77241314 6.87319534,5.02469136 C6.87319534,5.27696958 6.66825526,5.48148148 6.41544887,5.48148148 Z M6.41544887,6.85185185 C6.16264247,6.85185185 5.95770239,6.64733995 5.95770239,6.39506173 C5.95770239,6.14278351 6.16264247,5.9382716 6.41544887,5.9382716 C6.66825526,5.9382716 6.87319534,6.14278351 6.87319534,6.39506173 C6.87319534,6.64733995 6.66825526,6.85185185 6.41544887,6.85185185 Z M6.41544887,8.22222222 C6.16264247,8.22222222 5.95770239,8.01771032 5.95770239,7.7654321 C5.95770239,7.51315388 6.16264247,7.30864198 6.41544887,7.30864198 C6.66825526,7.30864198 6.87319534,7.51315388 6.87319534,7.7654321 C6.87319534,8.01771032 6.66825526,8.22222222 6.41544887,8.22222222 Z" id="🎨-Color" fill="#727272"></path>
                        <rect id="Rectangle" fill="#B7BECA" x="10.2992958" y="4.7962963" width="24.7183099" height="1.71296296" rx="0.856481481"></rect>
                        <rect id="Rectangle-Copy" fill="#B7BECA" x="37.0774648" y="4.7962963" width="4.80633803" height="1.71296296" rx="0.856481481"></rect>
                        <rect id="Rectangle-Copy-2" fill="#B7BECA" x="43.943662" y="4.7962963" width="6.86619718" height="1.71296296" rx="0.856481481"></rect>
                    </g>
                    <rect id="Rectangle" fill="#D8D8D8" x="66" y="0" width="1" height="30" rx="0.5"></rect>
                    <rect id="Rectangle-Copy-17" fill="#D8D8D8" x="140" y="0" width="1" height="30" rx="0.5"></rect>
                    <g id="Group-2-Copy-7" transform="translate(147.830986, 17.518519)">
                        <path d="M1.37037037,0 L59.0521648,0 C59.8089995,-1.39028271e-16 60.4225352,0.613535713 60.4225352,1.37037037 L60.4225352,9.59259259 C60.4225352,10.3494272 59.8089995,10.962963 59.0521648,10.962963 L1.37037037,10.962963 C0.613535713,10.962963 3.14730119e-16,10.3494272 0,9.59259259 L0,1.37037037 C-9.2685514e-17,0.613535713 0.613535713,3.61072876e-16 1.37037037,0 Z" id="Rectangle" stroke="#DEDEDE" stroke-width="1.02777778" fill="#FFFFFF" stroke-linecap="round" stroke-dasharray="2.055555555555556"></path>
                        <path d="M5.04220943,4.11111111 C4.78940303,4.11111111 4.58446295,3.90659921 4.58446295,3.65432099 C4.58446295,3.40204277 4.78940303,3.19753086 5.04220943,3.19753086 C5.29501583,3.19753086 5.49995591,3.40204277 5.49995591,3.65432099 C5.49995591,3.90659921 5.29501583,4.11111111 5.04220943,4.11111111 Z M5.04220943,5.48148148 C4.78940303,5.48148148 4.58446295,5.27696958 4.58446295,5.02469136 C4.58446295,4.77241314 4.78940303,4.56790123 5.04220943,4.56790123 C5.29501583,4.56790123 5.49995591,4.77241314 5.49995591,5.02469136 C5.49995591,5.27696958 5.29501583,5.48148148 5.04220943,5.48148148 Z M5.04220943,6.85185185 C4.78940303,6.85185185 4.58446295,6.64733995 4.58446295,6.39506173 C4.58446295,6.14278351 4.78940303,5.9382716 5.04220943,5.9382716 C5.29501583,5.9382716 5.49995591,6.14278351 5.49995591,6.39506173 C5.49995591,6.64733995 5.29501583,6.85185185 5.04220943,6.85185185 Z M5.04220943,8.22222222 C4.78940303,8.22222222 4.58446295,8.01771032 4.58446295,7.7654321 C4.58446295,7.51315388 4.78940303,7.30864198 5.04220943,7.30864198 C5.29501583,7.30864198 5.49995591,7.51315388 5.49995591,7.7654321 C5.49995591,8.01771032 5.29501583,8.22222222 5.04220943,8.22222222 Z M6.41544887,4.11111111 C6.16264247,4.11111111 5.95770239,3.90659921 5.95770239,3.65432099 C5.95770239,3.40204277 6.16264247,3.19753086 6.41544887,3.19753086 C6.66825526,3.19753086 6.87319534,3.40204277 6.87319534,3.65432099 C6.87319534,3.90659921 6.66825526,4.11111111 6.41544887,4.11111111 Z M6.41544887,5.48148148 C6.16264247,5.48148148 5.95770239,5.27696958 5.95770239,5.02469136 C5.95770239,4.77241314 6.16264247,4.56790123 6.41544887,4.56790123 C6.66825526,4.56790123 6.87319534,4.77241314 6.87319534,5.02469136 C6.87319534,5.27696958 6.66825526,5.48148148 6.41544887,5.48148148 Z M6.41544887,6.85185185 C6.16264247,6.85185185 5.95770239,6.64733995 5.95770239,6.39506173 C5.95770239,6.14278351 6.16264247,5.9382716 6.41544887,5.9382716 C6.66825526,5.9382716 6.87319534,6.14278351 6.87319534,6.39506173 C6.87319534,6.64733995 6.66825526,6.85185185 6.41544887,6.85185185 Z M6.41544887,8.22222222 C6.16264247,8.22222222 5.95770239,8.01771032 5.95770239,7.7654321 C5.95770239,7.51315388 6.16264247,7.30864198 6.41544887,7.30864198 C6.66825526,7.30864198 6.87319534,7.51315388 6.87319534,7.7654321 C6.87319534,8.01771032 6.66825526,8.22222222 6.41544887,8.22222222 Z" id="🎨-Color" fill="#727272"></path>
                        <rect id="Rectangle" fill="#B7BECA" x="10.2992958" y="4.7962963" width="4.80633803" height="1.71296296" rx="0.856481481"></rect>
                        <rect id="Rectangle-Copy" fill="#B7BECA" x="17.165493" y="4.7962963" width="24.7183099" height="1.71296296" rx="0.856481481"></rect>
                        <rect id="Rectangle-Copy-2" fill="#B7BECA" x="43.943662" y="4.7962963" width="6.86619718" height="1.71296296" rx="0.856481481"></rect>
                    </g>
                </g>
            </g>
        </g>
    </g>
</svg>