<?xml version="1.0" encoding="UTF-8"?>
<svg width="150px" height="115px" viewBox="0 0 150 115" version="1.1" xmlns="http://www.w3.org/2000/svg" xmlns:xlink="http://www.w3.org/1999/xlink">
    <title>F751B4B0-1AAF-4F7E-B6B5-918D12797B4D</title>
    <g id="Investigations" stroke="none" stroke-width="1" fill="none" fill-rule="evenodd">
        <g id="Admin-&gt;-Investigations" transform="translate(-96.000000, -2472.000000)">
            <g id="empty-state-no-columns" transform="translate(96.000000, 2472.000000)">
                <path d="M49.3820524,3.78352171 C60.6281379,-2.46201159 73.0475813,-0.97532689 86.640382,8.24357581 C107.029583,22.0719299 106.916678,34.4026532 132.187061,47.851201 C157.457444,61.2997488 156.366387,93.5844064 125.539722,102.975549 C94.7130559,112.366693 39.1476662,129.779712 9.02080307,90.254538 C-11.0637723,63.9044211 2.38997744,35.0807491 49.3820524,3.78352171 Z" id="bg" fill="#F6F7F9" fill-rule="nonzero"></path>
                <g id="Group-2" transform="translate(16.000000, 23.000000)">
                    <path d="M86,63 C87.1045695,63 88,63.8954305 88,65 L88,81 C88,82.1045695 87.1045695,83 86,83 L2,83 C0.8954305,83 1.3527075e-16,82.1045695 0,81 L0,65 C-1.3527075e-16,63.8954305 0.8954305,63 2,63 L86,63 Z M117,31 C118.104569,31 119,31.8954305 119,33 L119,49 C119,50.1045695 118.104569,51 117,51 L33,51 C31.8954305,51 31,50.1045695 31,49 L31,33 C31,31.8954305 31.8954305,31 33,31 L117,31 Z M86,0 C87.1045695,-2.02906125e-16 88,0.8954305 88,2 L88,18 C88,19.1045695 87.1045695,20 86,20 L2,20 C0.8954305,20 1.3527075e-16,19.1045695 0,18 L0,2 C-1.3527075e-16,0.8954305 0.8954305,2.02906125e-16 2,0 L86,0 Z" id="Combined-Shape" fill="#FFFFFF"></path>
                    <path d="M7.34352553,75.6666667 C7.71171536,75.6666667 8.01019219,75.9651435 8.01019219,76.3333333 C8.01019219,76.7015232 7.71171536,77 7.34352553,77 C6.97533569,77 6.67685886,76.7015232 6.67685886,76.3333333 C6.67685886,75.9651435 6.97533569,75.6666667 7.34352553,75.6666667 Z M9.34352553,75.6666667 C9.71171536,75.6666667 10.0101922,75.9651435 10.0101922,76.3333333 C10.0101922,76.7015232 9.71171536,77 9.34352553,77 C8.97533569,77 8.67685886,76.7015232 8.67685886,76.3333333 C8.67685886,75.9651435 8.97533569,75.6666667 9.34352553,75.6666667 Z M7.34352553,73.6666667 C7.71171536,73.6666667 8.01019219,73.9651435 8.01019219,74.3333333 C8.01019219,74.7015232 7.71171536,75 7.34352553,75 C6.97533569,75 6.67685886,74.7015232 6.67685886,74.3333333 C6.67685886,73.9651435 6.97533569,73.6666667 7.34352553,73.6666667 Z M9.34352553,73.6666667 C9.71171536,73.6666667 10.0101922,73.9651435 10.0101922,74.3333333 C10.0101922,74.7015232 9.71171536,75 9.34352553,75 C8.97533569,75 8.67685886,74.7015232 8.67685886,74.3333333 C8.67685886,73.9651435 8.97533569,73.6666667 9.34352553,73.6666667 Z M7.34352553,71.6666667 C7.71171536,71.6666667 8.01019219,71.9651435 8.01019219,72.3333333 C8.01019219,72.7015232 7.71171536,73 7.34352553,73 C6.97533569,73 6.67685886,72.7015232 6.67685886,72.3333333 C6.67685886,71.9651435 6.97533569,71.6666667 7.34352553,71.6666667 Z M9.34352553,71.6666667 C9.71171536,71.6666667 10.0101922,71.9651435 10.0101922,72.3333333 C10.0101922,72.7015232 9.71171536,73 9.34352553,73 C8.97533569,73 8.67685886,72.7015232 8.67685886,72.3333333 C8.67685886,71.9651435 8.97533569,71.6666667 9.34352553,71.6666667 Z M7.34352553,69.6666667 C7.71171536,69.6666667 8.01019219,69.9651435 8.01019219,70.3333333 C8.01019219,70.7015232 7.71171536,71 7.34352553,71 C6.97533569,71 6.67685886,70.7015232 6.67685886,70.3333333 C6.67685886,69.9651435 6.97533569,69.6666667 7.34352553,69.6666667 Z M9.34352553,69.6666667 C9.71171536,69.6666667 10.0101922,69.9651435 10.0101922,70.3333333 C10.0101922,70.7015232 9.71171536,71 9.34352553,71 C8.97533569,71 8.67685886,70.7015232 8.67685886,70.3333333 C8.67685886,69.9651435 8.97533569,69.6666667 9.34352553,69.6666667 Z M38.3435255,43.6666667 C38.7117154,43.6666667 39.0101922,43.9651435 39.0101922,44.3333333 C39.0101922,44.7015232 38.7117154,45 38.3435255,45 C37.9753357,45 37.6768589,44.7015232 37.6768589,44.3333333 C37.6768589,43.9651435 37.9753357,43.6666667 38.3435255,43.6666667 Z M40.3435255,43.6666667 C40.7117154,43.6666667 41.0101922,43.9651435 41.0101922,44.3333333 C41.0101922,44.7015232 40.7117154,45 40.3435255,45 C39.9753357,45 39.6768589,44.7015232 39.6768589,44.3333333 C39.6768589,43.9651435 39.9753357,43.6666667 40.3435255,43.6666667 Z M38.3435255,41.6666667 C38.7117154,41.6666667 39.0101922,41.9651435 39.0101922,42.3333333 C39.0101922,42.7015232 38.7117154,43 38.3435255,43 C37.9753357,43 37.6768589,42.7015232 37.6768589,42.3333333 C37.6768589,41.9651435 37.9753357,41.6666667 38.3435255,41.6666667 Z M40.3435255,41.6666667 C40.7117154,41.6666667 41.0101922,41.9651435 41.0101922,42.3333333 C41.0101922,42.7015232 40.7117154,43 40.3435255,43 C39.9753357,43 39.6768589,42.7015232 39.6768589,42.3333333 C39.6768589,41.9651435 39.9753357,41.6666667 40.3435255,41.6666667 Z M38.3435255,39.6666667 C38.7117154,39.6666667 39.0101922,39.9651435 39.0101922,40.3333333 C39.0101922,40.7015232 38.7117154,41 38.3435255,41 C37.9753357,41 37.6768589,40.7015232 37.6768589,40.3333333 C37.6768589,39.9651435 37.9753357,39.6666667 38.3435255,39.6666667 Z M40.3435255,39.6666667 C40.7117154,39.6666667 41.0101922,39.9651435 41.0101922,40.3333333 C41.0101922,40.7015232 40.7117154,41 40.3435255,41 C39.9753357,41 39.6768589,40.7015232 39.6768589,40.3333333 C39.6768589,39.9651435 39.9753357,39.6666667 40.3435255,39.6666667 Z M38.3435255,37.6666667 C38.7117154,37.6666667 39.0101922,37.9651435 39.0101922,38.3333333 C39.0101922,38.7015232 38.7117154,39 38.3435255,39 C37.9753357,39 37.6768589,38.7015232 37.6768589,38.3333333 C37.6768589,37.9651435 37.9753357,37.6666667 38.3435255,37.6666667 Z M40.3435255,37.6666667 C40.7117154,37.6666667 41.0101922,37.9651435 41.0101922,38.3333333 C41.0101922,38.7015232 40.7117154,39 40.3435255,39 C39.9753357,39 39.6768589,38.7015232 39.6768589,38.3333333 C39.6768589,37.9651435 39.9753357,37.6666667 40.3435255,37.6666667 Z M7.34352553,12.6666667 C7.71171536,12.6666667 8.01019219,12.9651435 8.01019219,13.3333333 C8.01019219,13.7015232 7.71171536,14 7.34352553,14 C6.97533569,14 6.67685886,13.7015232 6.67685886,13.3333333 C6.67685886,12.9651435 6.97533569,12.6666667 7.34352553,12.6666667 Z M9.34352553,12.6666667 C9.71171536,12.6666667 10.0101922,12.9651435 10.0101922,13.3333333 C10.0101922,13.7015232 9.71171536,14 9.34352553,14 C8.97533569,14 8.67685886,13.7015232 8.67685886,13.3333333 C8.67685886,12.9651435 8.97533569,12.6666667 9.34352553,12.6666667 Z M7.34352553,10.6666667 C7.71171536,10.6666667 8.01019219,10.9651435 8.01019219,11.3333333 C8.01019219,11.7015232 7.71171536,12 7.34352553,12 C6.97533569,12 6.67685886,11.7015232 6.67685886,11.3333333 C6.67685886,10.9651435 6.97533569,10.6666667 7.34352553,10.6666667 Z M9.34352553,10.6666667 C9.71171536,10.6666667 10.0101922,10.9651435 10.0101922,11.3333333 C10.0101922,11.7015232 9.71171536,12 9.34352553,12 C8.97533569,12 8.67685886,11.7015232 8.67685886,11.3333333 C8.67685886,10.9651435 8.97533569,10.6666667 9.34352553,10.6666667 Z M7.34352553,8.66666667 C7.71171536,8.66666667 8.01019219,8.9651435 8.01019219,9.33333333 C8.01019219,9.70152317 7.71171536,10 7.34352553,10 C6.97533569,10 6.67685886,9.70152317 6.67685886,9.33333333 C6.67685886,8.9651435 6.97533569,8.66666667 7.34352553,8.66666667 Z M9.34352553,8.66666667 C9.71171536,8.66666667 10.0101922,8.9651435 10.0101922,9.33333333 C10.0101922,9.70152317 9.71171536,10 9.34352553,10 C8.97533569,10 8.67685886,9.70152317 8.67685886,9.33333333 C8.67685886,8.9651435 8.97533569,8.66666667 9.34352553,8.66666667 Z M7.34352553,6.66666667 C7.71171536,6.66666667 8.01019219,6.9651435 8.01019219,7.33333333 C8.01019219,7.70152317 7.71171536,8 7.34352553,8 C6.97533569,8 6.67685886,7.70152317 6.67685886,7.33333333 C6.67685886,6.9651435 6.97533569,6.66666667 7.34352553,6.66666667 Z M9.34352553,6.66666667 C9.71171536,6.66666667 10.0101922,6.9651435 10.0101922,7.33333333 C10.0101922,7.70152317 9.71171536,8 9.34352553,8 C8.97533569,8 8.67685886,7.70152317 8.67685886,7.33333333 C8.67685886,6.9651435 8.97533569,6.66666667 9.34352553,6.66666667 Z" id="Combined-Shape" fill="#727272"></path>
                    <path d="M62.75,72 C63.4403559,72 64,72.5596441 64,73.25 C64,73.9403559 63.4403559,74.5 62.75,74.5 L29.25,74.5 C28.5596441,74.5 28,73.9403559 28,73.25 C28,72.5596441 28.5596441,72 29.25,72 L62.75,72 Z M23.75,72 C24.4403559,72 25,72.5596441 25,73.25 C25,73.9403559 24.4403559,74.5 23.75,74.5 L16.25,74.5 C15.5596441,74.5 15,73.9403559 15,73.25 C15,72.5596441 15.5596441,72 16.25,72 L23.75,72 Z M51.75,40 C52.4403559,40 53,40.5596441 53,41.25 C53,41.9403559 52.4403559,42.5 51.75,42.5 L47.25,42.5 C46.5596441,42.5 46,41.9403559 46,41.25 C46,40.5596441 46.5596441,40 47.25,40 L51.75,40 Z M90.75,40 C91.4403559,40 92,40.5596441 92,41.25 C92,41.9403559 91.4403559,42.5 90.75,42.5 L57.25,42.5 C56.5596441,42.5 56,41.9403559 56,41.25 C56,40.5596441 56.5596441,40 57.25,40 L90.75,40 Z M103.75,40 C104.440356,40 105,40.5596441 105,41.25 C105,41.9403559 104.440356,42.5 103.75,42.5 L96.25,42.5 C95.5596441,42.5 95,41.9403559 95,41.25 C95,40.5596441 95.5596441,40 96.25,40 L103.75,40 Z M49.75,9 C50.4403559,9 51,9.55964406 51,10.25 C51,10.9403559 50.4403559,11.5 49.75,11.5 L16.25,11.5 C15.5596441,11.5 15,10.9403559 15,10.25 C15,9.55964406 15.5596441,9 16.25,9 L49.75,9 Z M59.75,9 C60.4403559,9 61,9.55964406 61,10.25 C61,10.9403559 60.4403559,11.5 59.75,11.5 L55.25,11.5 C54.5596441,11.5 54,10.9403559 54,10.25 C54,9.55964406 54.5596441,9 55.25,9 L59.75,9 Z M72.75,9 C73.4403559,9 74,9.55964406 74,10.25 C74,10.9403559 73.4403559,11.5 72.75,11.5 L65.25,11.5 C64.5596441,11.5 64,10.9403559 64,10.25 C64,9.55964406 64.5596441,9 65.25,9 L72.75,9 Z" id="Combined-Shape" fill="#B7BECA"></path>
                </g>
                <g id="Group-2-Copy" transform="translate(47.000000, 54.000000)"></g>
                <g id="Group-2-Copy-2" transform="translate(16.000000, 23.000000)" fill="#DEDEDE" fill-rule="nonzero">
                    <path d="M84.8729349,83 C85.2871485,83 85.6229349,83.3357864 85.6229349,83.75 C85.6229349,84.1642136 85.2871485,84.5 84.8729349,84.5 L81.8729349,84.5 C81.4587214,84.5 81.1229349,84.1642136 81.1229349,83.75 C81.1229349,83.3357864 81.4587214,83 81.8729349,83 L84.8729349,83 Z M78.8729349,83 C79.2871485,83 79.6229349,83.3357864 79.6229349,83.75 C79.6229349,84.1642136 79.2871485,84.5 78.8729349,84.5 L75.8729349,84.5 C75.4587214,84.5 75.1229349,84.1642136 75.1229349,83.75 C75.1229349,83.3357864 75.4587214,83 75.8729349,83 L78.8729349,83 Z M72.8729349,83 C73.2871485,83 73.6229349,83.3357864 73.6229349,83.75 C73.6229349,84.1642136 73.2871485,84.5 72.8729349,84.5 L69.8729349,84.5 C69.4587214,84.5 69.1229349,84.1642136 69.1229349,83.75 C69.1229349,83.3357864 69.4587214,83 69.8729349,83 L72.8729349,83 Z M66.8729349,83 C67.2871485,83 67.6229349,83.3357864 67.6229349,83.75 C67.6229349,84.1642136 67.2871485,84.5 66.8729349,84.5 L63.8729349,84.5 C63.4587214,84.5 63.1229349,84.1642136 63.1229349,83.75 C63.1229349,83.3357864 63.4587214,83 63.8729349,83 L66.8729349,83 Z M60.8729349,83 C61.2871485,83 61.6229349,83.3357864 61.6229349,83.75 C61.6229349,84.1642136 61.2871485,84.5 60.8729349,84.5 L57.8729349,84.5 C57.4587214,84.5 57.1229349,84.1642136 57.1229349,83.75 C57.1229349,83.3357864 57.4587214,83 57.8729349,83 L60.8729349,83 Z M54.8729349,83 C55.2871485,83 55.6229349,83.3357864 55.6229349,83.75 C55.6229349,84.1642136 55.2871485,84.5 54.8729349,84.5 L51.8729349,84.5 C51.4587214,84.5 51.1229349,84.1642136 51.1229349,83.75 C51.1229349,83.3357864 51.4587214,83 51.8729349,83 L54.8729349,83 Z M48.8729349,83 C49.2871485,83 49.6229349,83.3357864 49.6229349,83.75 C49.6229349,84.1642136 49.2871485,84.5 48.8729349,84.5 L45.8729349,84.5 C45.4587214,84.5 45.1229349,84.1642136 45.1229349,83.75 C45.1229349,83.3357864 45.4587214,83 45.8729349,83 L48.8729349,83 Z M42.8729349,83 C43.2871485,83 43.6229349,83.3357864 43.6229349,83.75 C43.6229349,84.1642136 43.2871485,84.5 42.8729349,84.5 L39.8729349,84.5 C39.4587214,84.5 39.1229349,84.1642136 39.1229349,83.75 C39.1229349,83.3357864 39.4587214,83 39.8729349,83 L42.8729349,83 Z M36.8729349,83 C37.2871485,83 37.6229349,83.3357864 37.6229349,83.75 C37.6229349,84.1642136 37.2871485,84.5 36.8729349,84.5 L33.8729349,84.5 C33.4587214,84.5 33.1229349,84.1642136 33.1229349,83.75 C33.1229349,83.3357864 33.4587214,83 33.8729349,83 L36.8729349,83 Z M30.8729349,83 C31.2871485,83 31.6229349,83.3357864 31.6229349,83.75 C31.6229349,84.1642136 31.2871485,84.5 30.8729349,84.5 L27.8729349,84.5 C27.4587214,84.5 27.1229349,84.1642136 27.1229349,83.75 C27.1229349,83.3357864 27.4587214,83 27.8729349,83 L30.8729349,83 Z M24.8729349,83 C25.2871485,83 25.6229349,83.3357864 25.6229349,83.75 C25.6229349,84.1642136 25.2871485,84.5 24.8729349,84.5 L21.8729349,84.5 C21.4587214,84.5 21.1229349,84.1642136 21.1229349,83.75 C21.1229349,83.3357864 21.4587214,83 21.8729349,83 L24.8729349,83 Z M18.8729349,83 C19.2871485,83 19.6229349,83.3357864 19.6229349,83.75 C19.6229349,84.1642136 19.2871485,84.5 18.8729349,84.5 L15.8729349,84.5 C15.4587214,84.5 15.1229349,84.1642136 15.1229349,83.75 C15.1229349,83.3357864 15.4587214,83 15.8729349,83 L18.8729349,83 Z M12.8729349,83 C13.2871485,83 13.6229349,83.3357864 13.6229349,83.75 C13.6229349,84.1642136 13.2871485,84.5 12.8729349,84.5 L9.87293492,84.5 C9.45872136,84.5 9.12293492,84.1642136 9.12293492,83.75 C9.12293492,83.3357864 9.45872136,83 9.87293492,83 L12.8729349,83 Z M6.87293492,83 C7.28714848,83 7.62293492,83.3357864 7.62293492,83.75 C7.62293492,84.1642136 7.28714848,84.5 6.87293492,84.5 L3.87293492,84.5 C3.45872136,84.5 3.12293492,84.1642136 3.12293492,83.75 C3.12293492,83.3357864 3.45872136,83 3.87293492,83 L6.87293492,83 Z M88.75,79.9385325 C89.1642136,79.9385325 89.5,80.274319 89.5,80.6885325 L89.5,81.75 C89.5,82.7080407 89.0054437,83.5821584 88.2090441,84.0813414 C87.8580759,84.3013282 87.3952254,84.1951468 87.1752386,83.8441786 C86.9752506,83.5251165 87.0448232,83.1135898 87.3228131,82.8761244 L87.4124015,82.8103731 C87.7756138,82.5827117 88,82.1861139 88,81.75 L88,80.6885325 C88,80.274319 88.3357864,79.9385325 88.75,79.9385325 Z M0.75,79.1844024 C1.16421356,79.1844024 1.5,79.5201888 1.5,79.9344024 L1.5,81.75 C1.5,81.9529378 1.54794745,82.1474841 1.63809603,82.3220747 L1.71353038,82.4490952 C1.94565151,82.7921588 1.85571483,83.2584382 1.51265119,83.4905593 C1.16958756,83.7226805 0.703308179,83.6327438 0.471187055,83.2896802 C0.165951767,82.8385574 0,82.3056882 0,81.75 L0,79.9344024 C0,79.5201888 0.335786438,79.1844024 0.75,79.1844024 Z M88.75,73.9385325 C89.1642136,73.9385325 89.5,74.274319 89.5,74.6885325 L89.5,77.6885325 C89.5,78.1027461 89.1642136,78.4385325 88.75,78.4385325 C88.3357864,78.4385325 88,78.1027461 88,77.6885325 L88,74.6885325 C88,74.274319 88.3357864,73.9385325 88.75,73.9385325 Z M0.75,73.1844024 C1.16421356,73.1844024 1.5,73.5201888 1.5,73.9344024 L1.5,76.9344024 C1.5,77.3486159 1.16421356,77.6844024 0.75,77.6844024 C0.335786438,77.6844024 0,77.3486159 0,76.9344024 L0,73.9344024 C0,73.5201888 0.335786438,73.1844024 0.75,73.1844024 Z M88.75,67.9385325 C89.1642136,67.9385325 89.5,68.274319 89.5,68.6885325 L89.5,71.6885325 C89.5,72.1027461 89.1642136,72.4385325 88.75,72.4385325 C88.3357864,72.4385325 88,72.1027461 88,71.6885325 L88,68.6885325 C88,68.274319 88.3357864,67.9385325 88.75,67.9385325 Z M0.75,67.1844024 C1.16421356,67.1844024 1.5,67.5201888 1.5,67.9344024 L1.5,70.9344024 C1.5,71.3486159 1.16421356,71.6844024 0.75,71.6844024 C0.335786438,71.6844024 0,71.3486159 0,70.9344024 L0,67.9344024 C0,67.5201888 0.335786438,67.1844024 0.75,67.1844024 Z M86.75,63 C88.2348542,63 89.450238,64.1786458 89.4985206,65.6591712 C89.5120217,66.0731647 89.1873584,66.4197175 88.7733649,66.4332186 C88.3938709,66.4455945 88.0710458,66.1738186 88.0094777,65.8095562 L87.9993176,65.7080629 C87.9787662,65.0778805 87.4918235,64.5675161 86.8749973,64.5061822 L86.75,64.5 L86.8517706,64.4931534 C87.2178461,64.443491 87.5,64.1296958 87.5,63.75 C87.5,63.3357864 87.1642136,63 86.75,63 L86.75,63 Z M3.50413016,63 C3.91834373,63 4.25413016,63.3357864 4.25413016,63.75 C4.25413016,64.1642136 3.91834373,64.5 3.50413016,64.5 L2.75,64.5 C2.29344957,64.5 1.88233086,64.7468236 1.66313059,65.1317127 L1.60327455,65.2512126 C1.43774756,65.6309147 0.995752048,65.8045379 0.61604994,65.6390109 C0.236347831,65.473484 0.0627245917,65.0314884 0.22825158,64.6517863 C0.661902494,63.6570352 1.64580158,63 2.75,63 L3.50413016,63 Z M9.50413016,63 C9.91834373,63 10.2541302,63.3357864 10.2541302,63.75 C10.2541302,64.1642136 9.91834373,64.5 9.50413016,64.5 L6.50413016,64.5 C6.0899166,64.5 5.75413016,64.1642136 5.75413016,63.75 C5.75413016,63.3357864 6.0899166,63 6.50413016,63 L9.50413016,63 Z M15.5041302,63 C15.9183437,63 16.2541302,63.3357864 16.2541302,63.75 C16.2541302,64.1642136 15.9183437,64.5 15.5041302,64.5 L12.5041302,64.5 C12.0899166,64.5 11.7541302,64.1642136 11.7541302,63.75 C11.7541302,63.3357864 12.0899166,63 12.5041302,63 L15.5041302,63 Z M21.5041302,63 C21.9183437,63 22.2541302,63.3357864 22.2541302,63.75 C22.2541302,64.1642136 21.9183437,64.5 21.5041302,64.5 L18.5041302,64.5 C18.0899166,64.5 17.7541302,64.1642136 17.7541302,63.75 C17.7541302,63.3357864 18.0899166,63 18.5041302,63 L21.5041302,63 Z M27.5041302,63 C27.9183437,63 28.2541302,63.3357864 28.2541302,63.75 C28.2541302,64.1642136 27.9183437,64.5 27.5041302,64.5 L24.5041302,64.5 C24.0899166,64.5 23.7541302,64.1642136 23.7541302,63.75 C23.7541302,63.3357864 24.0899166,63 24.5041302,63 L27.5041302,63 Z M33.5041302,63 C33.9183437,63 34.2541302,63.3357864 34.2541302,63.75 C34.2541302,64.1642136 33.9183437,64.5 33.5041302,64.5 L30.5041302,64.5 C30.0899166,64.5 29.7541302,64.1642136 29.7541302,63.75 C29.7541302,63.3357864 30.0899166,63 30.5041302,63 L33.5041302,63 Z M39.5041302,63 C39.9183437,63 40.2541302,63.3357864 40.2541302,63.75 C40.2541302,64.1642136 39.9183437,64.5 39.5041302,64.5 L36.5041302,64.5 C36.0899166,64.5 35.7541302,64.1642136 35.7541302,63.75 C35.7541302,63.3357864 36.0899166,63 36.5041302,63 L39.5041302,63 Z M45.5041302,63 C45.9183437,63 46.2541302,63.3357864 46.2541302,63.75 C46.2541302,64.1642136 45.9183437,64.5 45.5041302,64.5 L42.5041302,64.5 C42.0899166,64.5 41.7541302,64.1642136 41.7541302,63.75 C41.7541302,63.3357864 42.0899166,63 42.5041302,63 L45.5041302,63 Z M51.5041302,63 C51.9183437,63 52.2541302,63.3357864 52.2541302,63.75 C52.2541302,64.1642136 51.9183437,64.5 51.5041302,64.5 L48.5041302,64.5 C48.0899166,64.5 47.7541302,64.1642136 47.7541302,63.75 C47.7541302,63.3357864 48.0899166,63 48.5041302,63 L51.5041302,63 Z M57.5041302,63 C57.9183437,63 58.2541302,63.3357864 58.2541302,63.75 C58.2541302,64.1642136 57.9183437,64.5 57.5041302,64.5 L54.5041302,64.5 C54.0899166,64.5 53.7541302,64.1642136 53.7541302,63.75 C53.7541302,63.3357864 54.0899166,63 54.5041302,63 L57.5041302,63 Z M63.5041302,63 C63.9183437,63 64.2541302,63.3357864 64.2541302,63.75 C64.2541302,64.1642136 63.9183437,64.5 63.5041302,64.5 L60.5041302,64.5 C60.0899166,64.5 59.7541302,64.1642136 59.7541302,63.75 C59.7541302,63.3357864 60.0899166,63 60.5041302,63 L63.5041302,63 Z M69.5041302,63 C69.9183437,63 70.2541302,63.3357864 70.2541302,63.75 C70.2541302,64.1642136 69.9183437,64.5 69.5041302,64.5 L66.5041302,64.5 C66.0899166,64.5 65.7541302,64.1642136 65.7541302,63.75 C65.7541302,63.3357864 66.0899166,63 66.5041302,63 L69.5041302,63 Z M75.5041302,63 C75.9183437,63 76.2541302,63.3357864 76.2541302,63.75 C76.2541302,64.1642136 75.9183437,64.5 75.5041302,64.5 L72.5041302,64.5 C72.0899166,64.5 71.7541302,64.1642136 71.7541302,63.75 C71.7541302,63.3357864 72.0899166,63 72.5041302,63 L75.5041302,63 Z M81.5041302,63 C81.9183437,63 82.2541302,63.3357864 82.2541302,63.75 C82.2541302,64.1642136 81.9183437,64.5 81.5041302,64.5 L78.5041302,64.5 C78.0899166,64.5 77.7541302,64.1642136 77.7541302,63.75 C77.7541302,63.3357864 78.0899166,63 78.5041302,63 L81.5041302,63 Z M86.75,63 C86.3357864,63 86,63.3357864 86,63.75 C86,64.1642136 86.3357864,64.5 86.75,64.5 L86.75,64.5 L84.5041302,64.5 C84.0899166,64.5 83.7541302,64.1642136 83.7541302,63.75 C83.7541302,63.3357864 84.0899166,63 84.5041302,63 Z M115.872935,51 C116.287148,51 116.622935,51.3357864 116.622935,51.75 C116.622935,52.1642136 116.287148,52.5 115.872935,52.5 L112.872935,52.5 C112.458721,52.5 112.122935,52.1642136 112.122935,51.75 C112.122935,51.3357864 112.458721,51 112.872935,51 L115.872935,51 Z M37.8729349,51 C38.2871485,51 38.6229349,51.3357864 38.6229349,51.75 C38.6229349,52.1642136 38.2871485,52.5 37.8729349,52.5 L34.8729349,52.5 C34.4587214,52.5 34.1229349,52.1642136 34.1229349,51.75 C34.1229349,51.3357864 34.4587214,51 34.8729349,51 L37.8729349,51 Z M43.8729349,51 C44.2871485,51 44.6229349,51.3357864 44.6229349,51.75 C44.6229349,52.1642136 44.2871485,52.5 43.8729349,52.5 L40.8729349,52.5 C40.4587214,52.5 40.1229349,52.1642136 40.1229349,51.75 C40.1229349,51.3357864 40.4587214,51 40.8729349,51 L43.8729349,51 Z M49.8729349,51 C50.2871485,51 50.6229349,51.3357864 50.6229349,51.75 C50.6229349,52.1642136 50.2871485,52.5 49.8729349,52.5 L46.8729349,52.5 C46.4587214,52.5 46.1229349,52.1642136 46.1229349,51.75 C46.1229349,51.3357864 46.4587214,51 46.8729349,51 L49.8729349,51 Z M55.8729349,51 C56.2871485,51 56.6229349,51.3357864 56.6229349,51.75 C56.6229349,52.1642136 56.2871485,52.5 55.8729349,52.5 L52.8729349,52.5 C52.4587214,52.5 52.1229349,52.1642136 52.1229349,51.75 C52.1229349,51.3357864 52.4587214,51 52.8729349,51 L55.8729349,51 Z M61.8729349,51 C62.2871485,51 62.6229349,51.3357864 62.6229349,51.75 C62.6229349,52.1642136 62.2871485,52.5 61.8729349,52.5 L58.8729349,52.5 C58.4587214,52.5 58.1229349,52.1642136 58.1229349,51.75 C58.1229349,51.3357864 58.4587214,51 58.8729349,51 L61.8729349,51 Z M67.8729349,51 C68.2871485,51 68.6229349,51.3357864 68.6229349,51.75 C68.6229349,52.1642136 68.2871485,52.5 67.8729349,52.5 L64.8729349,52.5 C64.4587214,52.5 64.1229349,52.1642136 64.1229349,51.75 C64.1229349,51.3357864 64.4587214,51 64.8729349,51 L67.8729349,51 Z M73.8729349,51 C74.2871485,51 74.6229349,51.3357864 74.6229349,51.75 C74.6229349,52.1642136 74.2871485,52.5 73.8729349,52.5 L70.8729349,52.5 C70.4587214,52.5 70.1229349,52.1642136 70.1229349,51.75 C70.1229349,51.3357864 70.4587214,51 70.8729349,51 L73.8729349,51 Z M79.8729349,51 C80.2871485,51 80.6229349,51.3357864 80.6229349,51.75 C80.6229349,52.1642136 80.2871485,52.5 79.8729349,52.5 L76.8729349,52.5 C76.4587214,52.5 76.1229349,52.1642136 76.1229349,51.75 C76.1229349,51.3357864 76.4587214,51 76.8729349,51 L79.8729349,51 Z M85.8729349,51 C86.2871485,51 86.6229349,51.3357864 86.6229349,51.75 C86.6229349,52.1642136 86.2871485,52.5 85.8729349,52.5 L82.8729349,52.5 C82.4587214,52.5 82.1229349,52.1642136 82.1229349,51.75 C82.1229349,51.3357864 82.4587214,51 82.8729349,51 L85.8729349,51 Z M91.8729349,51 C92.2871485,51 92.6229349,51.3357864 92.6229349,51.75 C92.6229349,52.1642136 92.2871485,52.5 91.8729349,52.5 L88.8729349,52.5 C88.4587214,52.5 88.1229349,52.1642136 88.1229349,51.75 C88.1229349,51.3357864 88.4587214,51 88.8729349,51 L91.8729349,51 Z M97.8729349,51 C98.2871485,51 98.6229349,51.3357864 98.6229349,51.75 C98.6229349,52.1642136 98.2871485,52.5 97.8729349,52.5 L94.8729349,52.5 C94.4587214,52.5 94.1229349,52.1642136 94.1229349,51.75 C94.1229349,51.3357864 94.4587214,51 94.8729349,51 L97.8729349,51 Z M103.872935,51 C104.287148,51 104.622935,51.3357864 104.622935,51.75 C104.622935,52.1642136 104.287148,52.5 103.872935,52.5 L100.872935,52.5 C100.458721,52.5 100.122935,52.1642136 100.122935,51.75 C100.122935,51.3357864 100.458721,51 100.872935,51 L103.872935,51 Z M109.872935,51 C110.287148,51 110.622935,51.3357864 110.622935,51.75 C110.622935,52.1642136 110.287148,52.5 109.872935,52.5 L106.872935,52.5 C106.458721,52.5 106.122935,52.1642136 106.122935,51.75 C106.122935,51.3357864 106.458721,51 106.872935,51 L109.872935,51 Z M119.75,47.9385325 C120.164214,47.9385325 120.5,48.274319 120.5,48.6885325 L120.5,49.75 C120.5,50.7080407 120.005444,51.5821584 119.209044,52.0813414 C118.858076,52.3013282 118.395225,52.1951468 118.175239,51.8441786 C117.975251,51.5251165 118.044823,51.1135898 118.322813,50.8761244 L118.412402,50.8103731 C118.775614,50.5827117 119,50.1861139 119,49.75 L119,48.6885325 C119,48.274319 119.335786,47.9385325 119.75,47.9385325 Z M31.75,47.1844024 C32.1642136,47.1844024 32.5,47.5201888 32.5,47.9344024 L32.5,49.75 C32.5,49.9529378 32.5479475,50.1474841 32.638096,50.3220747 L32.7135304,50.4490952 C32.9456515,50.7921588 32.8557148,51.2584382 32.5126512,51.4905593 C32.1695876,51.7226805 31.7033082,51.6327438 31.4711871,51.2896802 C31.1659518,50.8385574 31,50.3056882 31,49.75 L31,47.9344024 C31,47.5201888 31.3357864,47.1844024 31.75,47.1844024 Z M119.75,41.9385325 C120.164214,41.9385325 120.5,42.274319 120.5,42.6885325 L120.5,45.6885325 C120.5,46.1027461 120.164214,46.4385325 119.75,46.4385325 C119.335786,46.4385325 119,46.1027461 119,45.6885325 L119,42.6885325 C119,42.274319 119.335786,41.9385325 119.75,41.9385325 Z M31.75,41.1844024 C32.1642136,41.1844024 32.5,41.5201888 32.5,41.9344024 L32.5,44.9344024 C32.5,45.3486159 32.1642136,45.6844024 31.75,45.6844024 C31.3357864,45.6844024 31,45.3486159 31,44.9344024 L31,41.9344024 C31,41.5201888 31.3357864,41.1844024 31.75,41.1844024 Z M119.75,35.9385325 C120.164214,35.9385325 120.5,36.274319 120.5,36.6885325 L120.5,39.6885325 C120.5,40.1027461 120.164214,40.4385325 119.75,40.4385325 C119.335786,40.4385325 119,40.1027461 119,39.6885325 L119,36.6885325 C119,36.274319 119.335786,35.9385325 119.75,35.9385325 Z M31.75,35.1844024 C32.1642136,35.1844024 32.5,35.5201888 32.5,35.9344024 L32.5,38.9344024 C32.5,39.3486159 32.1642136,39.6844024 31.75,39.6844024 C31.3357864,39.6844024 31,39.3486159 31,38.9344024 L31,35.9344024 C31,35.5201888 31.3357864,35.1844024 31.75,35.1844024 Z M117.75,31 C119.234854,31 120.450238,32.1786458 120.498521,33.6591712 C120.512022,34.0731647 120.187358,34.4197175 119.773365,34.4332186 C119.393871,34.4455945 119.071046,34.1738186 119.009478,33.8095562 L118.999318,33.7080629 C118.978766,33.0778805 118.491824,32.5675161 117.874997,32.5061822 L117.75,32.5 L117.851771,32.4931534 C118.217846,32.443491 118.5,32.1296958 118.5,31.75 C118.5,31.3357864 118.164214,31 117.75,31 L117.75,31 Z M34.5041302,31 C34.9183437,31 35.2541302,31.3357864 35.2541302,31.75 C35.2541302,32.1642136 34.9183437,32.5 34.5041302,32.5 L33.75,32.5 C33.2934496,32.5 32.8823309,32.7468236 32.6631306,33.1317127 L32.6032746,33.2512126 C32.4377476,33.6309147 31.995752,33.8045379 31.6160499,33.6390109 C31.2363478,33.473484 31.0627246,33.0314884 31.2282516,32.6517863 C31.6619025,31.6570352 32.6458016,31 33.75,31 L34.5041302,31 Z M40.5041302,31 C40.9183437,31 41.2541302,31.3357864 41.2541302,31.75 C41.2541302,32.1642136 40.9183437,32.5 40.5041302,32.5 L37.5041302,32.5 C37.0899166,32.5 36.7541302,32.1642136 36.7541302,31.75 C36.7541302,31.3357864 37.0899166,31 37.5041302,31 L40.5041302,31 Z M117.75,31 C117.335786,31 117,31.3357864 117,31.75 C117,32.1642136 117.335786,32.5 117.75,32.5 L117.75,32.5 L115.50413,32.5 C115.089917,32.5 114.75413,32.1642136 114.75413,31.75 C114.75413,31.3357864 115.089917,31 115.50413,31 Z M112.50413,31 C112.918344,31 113.25413,31.3357864 113.25413,31.75 C113.25413,32.1642136 112.918344,32.5 112.50413,32.5 L109.50413,32.5 C109.089917,32.5 108.75413,32.1642136 108.75413,31.75 C108.75413,31.3357864 109.089917,31 109.50413,31 L112.50413,31 Z M106.50413,31 C106.918344,31 107.25413,31.3357864 107.25413,31.75 C107.25413,32.1642136 106.918344,32.5 106.50413,32.5 L103.50413,32.5 C103.089917,32.5 102.75413,32.1642136 102.75413,31.75 C102.75413,31.3357864 103.089917,31 103.50413,31 L106.50413,31 Z M100.50413,31 C100.918344,31 101.25413,31.3357864 101.25413,31.75 C101.25413,32.1642136 100.918344,32.5 100.50413,32.5 L97.5041302,32.5 C97.0899166,32.5 96.7541302,32.1642136 96.7541302,31.75 C96.7541302,31.3357864 97.0899166,31 97.5041302,31 L100.50413,31 Z M94.5041302,31 C94.9183437,31 95.2541302,31.3357864 95.2541302,31.75 C95.2541302,32.1642136 94.9183437,32.5 94.5041302,32.5 L91.5041302,32.5 C91.0899166,32.5 90.7541302,32.1642136 90.7541302,31.75 C90.7541302,31.3357864 91.0899166,31 91.5041302,31 L94.5041302,31 Z M88.5041302,31 C88.9183437,31 89.2541302,31.3357864 89.2541302,31.75 C89.2541302,32.1642136 88.9183437,32.5 88.5041302,32.5 L85.5041302,32.5 C85.0899166,32.5 84.7541302,32.1642136 84.7541302,31.75 C84.7541302,31.3357864 85.0899166,31 85.5041302,31 L88.5041302,31 Z M82.5041302,31 C82.9183437,31 83.2541302,31.3357864 83.2541302,31.75 C83.2541302,32.1642136 82.9183437,32.5 82.5041302,32.5 L79.5041302,32.5 C79.0899166,32.5 78.7541302,32.1642136 78.7541302,31.75 C78.7541302,31.3357864 79.0899166,31 79.5041302,31 L82.5041302,31 Z M76.5041302,31 C76.9183437,31 77.2541302,31.3357864 77.2541302,31.75 C77.2541302,32.1642136 76.9183437,32.5 76.5041302,32.5 L73.5041302,32.5 C73.0899166,32.5 72.7541302,32.1642136 72.7541302,31.75 C72.7541302,31.3357864 73.0899166,31 73.5041302,31 L76.5041302,31 Z M70.5041302,31 C70.9183437,31 71.2541302,31.3357864 71.2541302,31.75 C71.2541302,32.1642136 70.9183437,32.5 70.5041302,32.5 L67.5041302,32.5 C67.0899166,32.5 66.7541302,32.1642136 66.7541302,31.75 C66.7541302,31.3357864 67.0899166,31 67.5041302,31 L70.5041302,31 Z M64.5041302,31 C64.9183437,31 65.2541302,31.3357864 65.2541302,31.75 C65.2541302,32.1642136 64.9183437,32.5 64.5041302,32.5 L61.5041302,32.5 C61.0899166,32.5 60.7541302,32.1642136 60.7541302,31.75 C60.7541302,31.3357864 61.0899166,31 61.5041302,31 L64.5041302,31 Z M58.5041302,31 C58.9183437,31 59.2541302,31.3357864 59.2541302,31.75 C59.2541302,32.1642136 58.9183437,32.5 58.5041302,32.5 L55.5041302,32.5 C55.0899166,32.5 54.7541302,32.1642136 54.7541302,31.75 C54.7541302,31.3357864 55.0899166,31 55.5041302,31 L58.5041302,31 Z M52.5041302,31 C52.9183437,31 53.2541302,31.3357864 53.2541302,31.75 C53.2541302,32.1642136 52.9183437,32.5 52.5041302,32.5 L49.5041302,32.5 C49.0899166,32.5 48.7541302,32.1642136 48.7541302,31.75 C48.7541302,31.3357864 49.0899166,31 49.5041302,31 L52.5041302,31 Z M46.5041302,31 C46.9183437,31 47.2541302,31.3357864 47.2541302,31.75 C47.2541302,32.1642136 46.9183437,32.5 46.5041302,32.5 L43.5041302,32.5 C43.0899166,32.5 42.7541302,32.1642136 42.7541302,31.75 C42.7541302,31.3357864 43.0899166,31 43.5041302,31 L46.5041302,31 Z M60.8729349,20 C61.2871485,20 61.6229349,20.3357864 61.6229349,20.75 C61.6229349,21.1642136 61.2871485,21.5 60.8729349,21.5 L57.8729349,21.5 C57.4587214,21.5 57.1229349,21.1642136 57.1229349,20.75 C57.1229349,20.3357864 57.4587214,20 57.8729349,20 L60.8729349,20 Z M84.8729349,20 C85.2871485,20 85.6229349,20.3357864 85.6229349,20.75 C85.6229349,21.1642136 85.2871485,21.5 84.8729349,21.5 L81.8729349,21.5 C81.4587214,21.5 81.1229349,21.1642136 81.1229349,20.75 C81.1229349,20.3357864 81.4587214,20 81.8729349,20 L84.8729349,20 Z M6.87293492,20 C7.28714848,20 7.62293492,20.3357864 7.62293492,20.75 C7.62293492,21.1642136 7.28714848,21.5 6.87293492,21.5 L3.87293492,21.5 C3.45872136,21.5 3.12293492,21.1642136 3.12293492,20.75 C3.12293492,20.3357864 3.45872136,20 3.87293492,20 L6.87293492,20 Z M12.8729349,20 C13.2871485,20 13.6229349,20.3357864 13.6229349,20.75 C13.6229349,21.1642136 13.2871485,21.5 12.8729349,21.5 L9.87293492,21.5 C9.45872136,21.5 9.12293492,21.1642136 9.12293492,20.75 C9.12293492,20.3357864 9.45872136,20 9.87293492,20 L12.8729349,20 Z M18.8729349,20 C19.2871485,20 19.6229349,20.3357864 19.6229349,20.75 C19.6229349,21.1642136 19.2871485,21.5 18.8729349,21.5 L15.8729349,21.5 C15.4587214,21.5 15.1229349,21.1642136 15.1229349,20.75 C15.1229349,20.3357864 15.4587214,20 15.8729349,20 L18.8729349,20 Z M24.8729349,20 C25.2871485,20 25.6229349,20.3357864 25.6229349,20.75 C25.6229349,21.1642136 25.2871485,21.5 24.8729349,21.5 L21.8729349,21.5 C21.4587214,21.5 21.1229349,21.1642136 21.1229349,20.75 C21.1229349,20.3357864 21.4587214,20 21.8729349,20 L24.8729349,20 Z M30.8729349,20 C31.2871485,20 31.6229349,20.3357864 31.6229349,20.75 C31.6229349,21.1642136 31.2871485,21.5 30.8729349,21.5 L27.8729349,21.5 C27.4587214,21.5 27.1229349,21.1642136 27.1229349,20.75 C27.1229349,20.3357864 27.4587214,20 27.8729349,20 L30.8729349,20 Z M36.8729349,20 C37.2871485,20 37.6229349,20.3357864 37.6229349,20.75 C37.6229349,21.1642136 37.2871485,21.5 36.8729349,21.5 L33.8729349,21.5 C33.4587214,21.5 33.1229349,21.1642136 33.1229349,20.75 C33.1229349,20.3357864 33.4587214,20 33.8729349,20 L36.8729349,20 Z M42.8729349,20 C43.2871485,20 43.6229349,20.3357864 43.6229349,20.75 C43.6229349,21.1642136 43.2871485,21.5 42.8729349,21.5 L39.8729349,21.5 C39.4587214,21.5 39.1229349,21.1642136 39.1229349,20.75 C39.1229349,20.3357864 39.4587214,20 39.8729349,20 L42.8729349,20 Z M48.8729349,20 C49.2871485,20 49.6229349,20.3357864 49.6229349,20.75 C49.6229349,21.1642136 49.2871485,21.5 48.8729349,21.5 L45.8729349,21.5 C45.4587214,21.5 45.1229349,21.1642136 45.1229349,20.75 C45.1229349,20.3357864 45.4587214,20 45.8729349,20 L48.8729349,20 Z M54.8729349,20 C55.2871485,20 55.6229349,20.3357864 55.6229349,20.75 C55.6229349,21.1642136 55.2871485,21.5 54.8729349,21.5 L51.8729349,21.5 C51.4587214,21.5 51.1229349,21.1642136 51.1229349,20.75 C51.1229349,20.3357864 51.4587214,20 51.8729349,20 L54.8729349,20 Z M78.8729349,20 C79.2871485,20 79.6229349,20.3357864 79.6229349,20.75 C79.6229349,21.1642136 79.2871485,21.5 78.8729349,21.5 L75.8729349,21.5 C75.4587214,21.5 75.1229349,21.1642136 75.1229349,20.75 C75.1229349,20.3357864 75.4587214,20 75.8729349,20 L78.8729349,20 Z M66.8729349,20 C67.2871485,20 67.6229349,20.3357864 67.6229349,20.75 C67.6229349,21.1642136 67.2871485,21.5 66.8729349,21.5 L63.8729349,21.5 C63.4587214,21.5 63.1229349,21.1642136 63.1229349,20.75 C63.1229349,20.3357864 63.4587214,20 63.8729349,20 L66.8729349,20 Z M72.8729349,20 C73.2871485,20 73.6229349,20.3357864 73.6229349,20.75 C73.6229349,21.1642136 73.2871485,21.5 72.8729349,21.5 L69.8729349,21.5 C69.4587214,21.5 69.1229349,21.1642136 69.1229349,20.75 C69.1229349,20.3357864 69.4587214,20 69.8729349,20 L72.8729349,20 Z M88.75,16.9385325 C89.1642136,16.9385325 89.5,17.274319 89.5,17.6885325 L89.5,18.75 C89.5,19.7080407 89.0054437,20.5821584 88.2090441,21.0813414 C87.8580759,21.3013282 87.3952254,21.1951468 87.1752386,20.8441786 C86.9752506,20.5251165 87.0448232,20.1135898 87.3228131,19.8761244 L87.4124015,19.8103731 C87.7756138,19.5827117 88,19.1861139 88,18.75 L88,17.6885325 C88,17.274319 88.3357864,16.9385325 88.75,16.9385325 Z M0.75,16.1844024 C1.16421356,16.1844024 1.5,16.5201888 1.5,16.9344024 L1.5,18.75 C1.5,18.9529378 1.54794745,19.1474841 1.63809603,19.3220747 L1.71353038,19.4490952 C1.94565151,19.7921588 1.85571483,20.2584382 1.51265119,20.4905593 C1.16958756,20.7226805 0.703308179,20.6327438 0.471187055,20.2896802 C0.165951767,19.8385574 0,19.3056882 0,18.75 L0,16.9344024 C0,16.5201888 0.335786438,16.1844024 0.75,16.1844024 Z M88.75,10.9385325 C89.1642136,10.9385325 89.5,11.274319 89.5,11.6885325 L89.5,14.6885325 C89.5,15.1027461 89.1642136,15.4385325 88.75,15.4385325 C88.3357864,15.4385325 88,15.1027461 88,14.6885325 L88,11.6885325 C88,11.274319 88.3357864,10.9385325 88.75,10.9385325 Z M0.75,10.1844024 C1.16421356,10.1844024 1.5,10.5201888 1.5,10.9344024 L1.5,13.9344024 C1.5,14.3486159 1.16421356,14.6844024 0.75,14.6844024 C0.335786438,14.6844024 0,14.3486159 0,13.9344024 L0,10.9344024 C0,10.5201888 0.335786438,10.1844024 0.75,10.1844024 Z M88.75,4.93853254 C89.1642136,4.93853254 89.5,5.27431898 89.5,5.68853254 L89.5,8.68853254 C89.5,9.1027461 89.1642136,9.43853254 88.75,9.43853254 C88.3357864,9.43853254 88,9.1027461 88,8.68853254 L88,5.68853254 C88,5.27431898 88.3357864,4.93853254 88.75,4.93853254 Z M0.75,4.18440238 C1.16421356,4.18440238 1.5,4.52018881 1.5,4.93440238 L1.5,7.93440238 C1.5,8.34861594 1.16421356,8.68440238 0.75,8.68440238 C0.335786438,8.68440238 0,8.34861594 0,7.93440238 L0,4.93440238 C0,4.52018881 0.335786438,4.18440238 0.75,4.18440238 Z M86.75,0 C88.2348542,0 89.450238,1.17864578 89.4985206,2.65917124 C89.5120217,3.07316472 89.1873584,3.41971751 88.7733649,3.43321857 C88.3938709,3.44559454 88.0710458,3.17381856 88.0094777,2.80955623 L87.9993176,2.70806291 C87.9787662,2.07788045 87.4918235,1.56751606 86.8749973,1.50618216 L86.75,1.5 L86.8517706,1.49315338 C87.2178461,1.44349096 87.5,1.12969577 87.5,0.75 C87.5,0.335786438 87.1642136,0 86.75,0 L86.75,0 Z M3.50413016,0 C3.91834373,0 4.25413016,0.335786438 4.25413016,0.75 C4.25413016,1.16421356 3.91834373,1.5 3.50413016,1.5 L2.75,1.5 C2.29344957,1.5 1.88233086,1.74682356 1.66313059,2.13171265 L1.60327455,2.25121259 C1.43774756,2.6309147 0.995752048,2.80453794 0.61604994,2.63901095 C0.236347831,2.47348396 0.0627245917,2.03148845 0.22825158,1.65178634 C0.661902494,0.657035164 1.64580158,0 2.75,0 L3.50413016,0 Z M86.75,0 C86.3357864,0 86,0.335786438 86,0.75 C86,1.16421356 86.3357864,1.5 86.75,1.5 L86.75,1.5 L84.5041302,1.5 C84.0899166,1.5 83.7541302,1.16421356 83.7541302,0.75 C83.7541302,0.335786438 84.0899166,0 84.5041302,0 Z M81.5041302,0 C81.9183437,0 82.2541302,0.335786438 82.2541302,0.75 C82.2541302,1.16421356 81.9183437,1.5 81.5041302,1.5 L78.5041302,1.5 C78.0899166,1.5 77.7541302,1.16421356 77.7541302,0.75 C77.7541302,0.335786438 78.0899166,0 78.5041302,0 L81.5041302,0 Z M75.5041302,0 C75.9183437,0 76.2541302,0.335786438 76.2541302,0.75 C76.2541302,1.16421356 75.9183437,1.5 75.5041302,1.5 L72.5041302,1.5 C72.0899166,1.5 71.7541302,1.16421356 71.7541302,0.75 C71.7541302,0.335786438 72.0899166,0 72.5041302,0 L75.5041302,0 Z M69.5041302,0 C69.9183437,0 70.2541302,0.335786438 70.2541302,0.75 C70.2541302,1.16421356 69.9183437,1.5 69.5041302,1.5 L66.5041302,1.5 C66.0899166,1.5 65.7541302,1.16421356 65.7541302,0.75 C65.7541302,0.335786438 66.0899166,0 66.5041302,0 L69.5041302,0 Z M63.5041302,0 C63.9183437,0 64.2541302,0.335786438 64.2541302,0.75 C64.2541302,1.16421356 63.9183437,1.5 63.5041302,1.5 L60.5041302,1.5 C60.0899166,1.5 59.7541302,1.16421356 59.7541302,0.75 C59.7541302,0.335786438 60.0899166,0 60.5041302,0 L63.5041302,0 Z M57.5041302,0 C57.9183437,0 58.2541302,0.335786438 58.2541302,0.75 C58.2541302,1.16421356 57.9183437,1.5 57.5041302,1.5 L54.5041302,1.5 C54.0899166,1.5 53.7541302,1.16421356 53.7541302,0.75 C53.7541302,0.335786438 54.0899166,0 54.5041302,0 L57.5041302,0 Z M51.5041302,0 C51.9183437,0 52.2541302,0.335786438 52.2541302,0.75 C52.2541302,1.16421356 51.9183437,1.5 51.5041302,1.5 L48.5041302,1.5 C48.0899166,1.5 47.7541302,1.16421356 47.7541302,0.75 C47.7541302,0.335786438 48.0899166,0 48.5041302,0 L51.5041302,0 Z M45.5041302,0 C45.9183437,0 46.2541302,0.335786438 46.2541302,0.75 C46.2541302,1.16421356 45.9183437,1.5 45.5041302,1.5 L42.5041302,1.5 C42.0899166,1.5 41.7541302,1.16421356 41.7541302,0.75 C41.7541302,0.335786438 42.0899166,0 42.5041302,0 L45.5041302,0 Z M39.5041302,0 C39.9183437,0 40.2541302,0.335786438 40.2541302,0.75 C40.2541302,1.16421356 39.9183437,1.5 39.5041302,1.5 L36.5041302,1.5 C36.0899166,1.5 35.7541302,1.16421356 35.7541302,0.75 C35.7541302,0.335786438 36.0899166,0 36.5041302,0 L39.5041302,0 Z M33.5041302,0 C33.9183437,0 34.2541302,0.335786438 34.2541302,0.75 C34.2541302,1.16421356 33.9183437,1.5 33.5041302,1.5 L30.5041302,1.5 C30.0899166,1.5 29.7541302,1.16421356 29.7541302,0.75 C29.7541302,0.335786438 30.0899166,0 30.5041302,0 L33.5041302,0 Z M27.5041302,0 C27.9183437,0 28.2541302,0.335786438 28.2541302,0.75 C28.2541302,1.16421356 27.9183437,1.5 27.5041302,1.5 L24.5041302,1.5 C24.0899166,1.5 23.7541302,1.16421356 23.7541302,0.75 C23.7541302,0.335786438 24.0899166,0 24.5041302,0 L27.5041302,0 Z M21.5041302,0 C21.9183437,0 22.2541302,0.335786438 22.2541302,0.75 C22.2541302,1.16421356 21.9183437,1.5 21.5041302,1.5 L18.5041302,1.5 C18.0899166,1.5 17.7541302,1.16421356 17.7541302,0.75 C17.7541302,0.335786438 18.0899166,0 18.5041302,0 L21.5041302,0 Z M9.50413016,0 C9.91834373,0 10.2541302,0.335786438 10.2541302,0.75 C10.2541302,1.16421356 9.91834373,1.5 9.50413016,1.5 L6.50413016,1.5 C6.0899166,1.5 5.75413016,1.16421356 5.75413016,0.75 C5.75413016,0.335786438 6.0899166,0 6.50413016,0 L9.50413016,0 Z M15.5041302,0 C15.9183437,0 16.2541302,0.335786438 16.2541302,0.75 C16.2541302,1.16421356 15.9183437,1.5 15.5041302,1.5 L12.5041302,1.5 C12.0899166,1.5 11.7541302,1.16421356 11.7541302,0.75 C11.7541302,0.335786438 12.0899166,0 12.5041302,0 L15.5041302,0 Z" id="Combined-Shape"></path>
                </g>
            </g>
        </g>
    </g>
</svg>