<?xml version="1.0" encoding="UTF-8"?>
<svg width="245px" height="159px" viewBox="0 0 245 159" version="1.1" xmlns="http://www.w3.org/2000/svg" xmlns:xlink="http://www.w3.org/1999/xlink">
    <title>C5E30293-C2A1-44E7-B875-E8269E1C5A92</title>
    <g id="âš ï¸--Nimbus-integration" stroke="none" stroke-width="1" fill="none" fill-rule="evenodd">
        <g id="Export-modal---Flows" transform="translate(-1110.000000, -390.000000)">
            <g id="error-process-document" transform="translate(1110.000000, 390.000000)">
                <path d="M92.5591238,5.23113001 C108.11768,-3.40399864 125.299534,-1.34849544 144.104686,11.3976396 C172.312414,30.5168422 172.156214,47.5654074 207.116882,66.1594866 C242.07755,84.7535657 240.568112,129.390614 197.920527,142.37489 C155.272941,155.359167 78.4002178,179.434559 36.7207836,124.786709 C8.93449424,88.3548083 27.5472743,48.5029487 92.5591238,5.23113001 Z" id="bg" fill="#FEF7EA" fill-rule="nonzero"></path>
                <g id="table" transform="translate(44.291031, 37.000000)">
                    <g id="spreadsheet">
                        <path d="M2.24841931,0 L159.038192,0 C160.27996,0 161.286612,0.990949671 161.286612,2.21334802 L161.286612,101.076226 C161.286612,102.298625 160.27996,103.289574 159.038192,103.289574 L2.24841931,103.289574 C1.00665161,103.289574 0,102.298625 0,101.076226 L0,2.21334802 C0,0.990949671 1.00665161,0 2.24841931,0 Z" id="Rectangle" fill="#FFFFFF"></path>
                        <g id="diagram" transform="translate(29.455952, 21.000000)" fill="#EC8383" fill-rule="nonzero">
                            <path d="M62.0652029,0 C62.6174877,-9.89631482e-16 63.0652029,0.44771525 63.0652029,1 L63.0652029,1 L63.0652029,16.0201613 C63.0652029,16.572446 62.6174877,17.0201613 62.0652029,17.0201613 L62.0652029,17.0201613 L53.3499255,17.0201613 L53.3499255,21.7234238 L59.6363836,21.7234238 C60.1886683,21.7234238 60.6363836,22.171139 60.6363836,22.7234238 L60.6363836,22.7234238 L60.6363836,30.4492302 C60.6363836,31.001515 60.1886683,31.4492302 59.6363836,31.4492302 L59.6363836,31.4492302 L53.3499255,31.4492302 L53.3499255,34.7176169 L62.7873513,40.6220018 C62.9158223,40.7023778 63.0243455,40.810901 63.1047215,40.939372 C63.3976456,41.4075748 63.2555541,42.0245902 62.7873513,42.3175143 L62.7873513,42.3175143 L53.3499255,48.2218992 L53.3499255,54.8427419 L60.6363836,54.8427419 C62.6450172,54.8427419 64.2796126,56.4791089 64.2796126,58.4899194 L64.2796126,58.4899194 L64.2796126,63.3528226 C64.2796126,65.3636331 62.6450172,67 60.6363836,67 L60.6363836,67 L43.6346481,67 C41.6260145,67 39.9914191,65.3636331 39.9914191,63.3528226 L39.9914191,63.3528226 L39.9914191,58.4899194 C39.9914191,56.4791089 41.6260145,54.8427419 43.6346481,54.8427419 L43.6346481,54.8427419 L50.9211062,54.8427419 L50.9211062,48.2218992 L41.4836804,42.3175143 C41.3552094,42.2371383 41.2466862,42.1286151 41.1663102,42.0001441 C40.8733861,41.5319413 41.0154776,40.914926 41.4836804,40.6220018 L41.4836804,40.6220018 L50.9211062,34.7176169 L50.9211062,31.4492302 L44.6346481,31.4492302 C44.0823634,31.4492302 43.6346481,31.001515 43.6346481,30.4492302 L43.6346481,30.4492302 L43.6346481,27.8020528 L22.4953384,27.8020528 C21.8239116,27.8020528 21.2796126,27.2577538 21.2796126,26.586327 C21.2796126,25.9149002 21.8239116,25.3706012 22.4953384,25.3706012 L22.4953384,25.3706012 L43.6346481,25.3706012 L43.6346481,22.7234238 C43.6346481,22.171139 44.0823634,21.7234238 44.6346481,21.7234238 L44.6346481,21.7234238 L50.9211062,21.7234238 L50.9211062,17.0201613 L42.2058288,17.0201613 C41.653544,17.0201613 41.2058288,16.572446 41.2058288,16.0201613 L41.2058288,16.0201613 L41.2058288,1 C41.2058288,0.44771525 41.653544,1.01453063e-16 42.2058288,0 L42.2058288,0 Z M9.92538899,36 C10.5965579,36 11.1406478,36.5440899 11.1406478,37.2152588 L11.1406478,37.2152588 L11.1406478,57.881457 C12.169972,58.2475078 12.9805496,59.0559709 13.3475577,60.08261 L13.3475577,60.08261 L31.627602,60.08261 L29.550895,58.0113204 C29.5502786,58.0107055 29.5496629,58.0100899 29.5490481,58.0094734 C29.1590341,57.6184394 29.159861,56.985275 29.550895,56.5952611 L29.550895,56.5952611 L29.8532068,56.2937379 C30.2435188,55.9044441 30.8752602,55.9044441 31.2655722,56.2937379 L31.2655722,56.2937379 L36.2796126,61.2946987 L31.2655722,66.2956595 C30.8752602,66.6849532 30.2435188,66.6849532 29.8532068,66.2956595 L29.8532068,66.2956595 L29.550895,65.9941363 C29.5502786,65.9935214 29.5496629,65.9929058 29.5490481,65.9922893 C29.1590341,65.6012553 29.159861,64.9680909 29.550895,64.578077 L29.550895,64.578077 L31.627602,62.5067873 L13.3475577,62.5067873 C12.8444406,63.9140223 11.5076559,64.9309647 9.92538899,64.9309647 C7.91535095,64.9309647 6.27961262,63.2994933 6.27961262,61.2946987 C6.27961262,59.7165592 7.29921474,58.3832617 8.7101302,57.881457 L8.7101302,57.881457 L8.7101302,37.2152588 C8.7101302,36.5440899 9.25422009,36 9.92538899,36 Z M95.7062072,5 C97.6763447,5 99.2796126,6.62363776 99.2796126,8.6188063 C99.2796126,10.1893682 98.2802502,11.5162639 96.8973423,12.0156592 L96.8973423,12.0156592 L96.8973423,37.9252401 C98.2802502,38.4246353 99.2796126,39.751531 99.2796126,41.3220929 C99.2796126,43.3172615 97.6763447,44.9408992 95.7062072,44.9408992 C94.1553492,44.9408992 92.8451005,43.9288397 92.3519706,42.5283617 L92.3519706,42.5283617 L72.3345155,42.5283617 L74.3719743,44.5917068 C74.756566,44.9811848 74.756566,45.6074871 74.3719743,45.9969651 L74.3719743,45.9969651 L74.0930796,46.2794033 C74.0901227,46.2823978 74.0871469,46.2853735 74.0841525,46.2883304 C73.6911709,46.6763817 73.0580185,46.672385 72.6699671,46.2794033 L72.6699671,46.2794033 L67.7748502,41.3220929 L72.6699662,36.3658366 C72.6728985,36.3628677 72.6758493,36.3599172 72.6788186,36.3569852 C73.0718002,35.9689338 73.7049526,35.9729306 74.093004,36.3659122 L74.093004,36.3659122 L74.3719743,36.648427 C74.756566,37.037905 74.756566,37.6642073 74.3719743,38.0536853 L74.3719743,38.0536853 L72.3345155,40.1170304 L92.3519706,40.1170304 C92.7116934,39.0953208 93.5061805,38.2907395 94.515072,37.9264463 L94.515072,37.9264463 L94.515072,12.0156592 C93.5061805,11.651366 92.7116934,10.8467847 92.3519706,9.82507507 L92.3519706,9.82507507 L66.4858814,9.82507507 C65.8196775,9.82507507 65.2796126,9.28501015 65.2796126,8.6188063 C65.2796126,7.95260246 65.8196775,7.41253754 66.4858814,7.41253754 L66.4858814,7.41253754 L92.3519706,7.41253754 C92.8451005,6.0120595 94.1553492,5 95.7062072,5 Z M9.19837443,19.4151701 C9.54607195,19.1668148 10.0131533,19.1668148 10.3608508,19.4151701 L10.3608508,19.4151701 L19.1403858,25.6862665 C19.2301813,25.7504062 19.3087414,25.8289663 19.372881,25.9187618 C19.69389,26.3681744 19.5897983,26.9927245 19.1403858,27.3137335 L19.1403858,27.3137335 L10.3608508,33.5848299 C10.0131533,33.8331852 9.54607195,33.8331852 9.19837443,33.5848299 L9.19837443,33.5848299 L0.418839479,27.3137335 C0.329043957,27.2495938 0.250483859,27.1710337 0.186344201,27.0812382 C-0.134664789,26.6318256 -0.030573108,26.0072755 0.418839479,25.6862665 L0.418839479,25.6862665 Z" id="Combined-Shape"></path>
                        </g>
                        <path d="M2.95284832,0 L159.453809,0 C161.084622,0 162.406657,1.32126622 162.406657,2.9511307 L162.406657,11.8045228 L162.406657,11.8045228 L0,11.8045228 L0,2.9511307 C0,1.32126622 1.32203522,0 2.95284832,0 Z" id="Rectangle" fill="#9B9FA9" fill-rule="nonzero"></path>
                    </g>
                    <path d="M2.24841931,0 L159.038192,0 C160.27996,0 161.286612,0.990949671 161.286612,2.21334802 L161.286612,101.076226 C161.286612,102.298625 160.27996,103.289574 159.038192,103.289574 L2.24841931,103.289574 C1.00665161,103.289574 0,102.298625 0,101.076226 L0,2.21334802 C0,0.990949671 1.00665161,0 2.24841931,0 Z" id="Rectangle-Copy" stroke="#9B9FA9" stroke-width="3" stroke-linecap="round"></path>
                </g>
                <path d="M200.526987,101.000002 C201.583347,100.999067 202.639393,101.275195 203.574802,101.82726 C204.367196,102.29492 205.07436,102.960413 205.619184,103.826823 L205.777684,104.092777 L229.211787,145.596427 C230.37103,147.649283 230.225804,149.949724 229.212796,151.737405 C228.687046,152.66521 227.927027,153.454199 226.995395,154.001391 C226.199156,154.46906 225.277384,154.761456 224.266595,154.810753 L223.960725,154.818182 L177.092467,154.818182 C175.961423,154.818182 174.933658,154.515679 174.057776,154.000999 C173.126189,153.453585 172.366183,152.664293 171.840432,151.736175 C170.86789,150.01933 170.695202,147.829901 171.708556,145.841277 L171.841431,145.593793 L195.275376,104.100771 C195.838323,103.103122 196.607027,102.348249 197.478921,101.832425 C198.414475,101.278939 199.470649,101.000938 200.526987,101.000002 Z M200.526596,140.615396 C199.949844,140.615396 199.438397,140.855996 199.067917,141.234969 C198.679799,141.631986 198.44369,142.179432 198.44369,142.768984 C198.44369,143.350963 198.692662,143.888892 199.078073,144.283139 C199.455231,144.668943 199.968556,144.922571 200.526596,144.922571 C201.091843,144.922571 201.614617,144.682153 201.994533,144.293527 C202.373062,143.906319 202.609501,143.37067 202.609501,142.768984 C202.609501,142.179196 202.373827,141.631449 201.985625,141.234347 C201.615353,140.855586 201.103949,140.615396 200.526596,140.615396 Z M200.526596,118.545457 C200.087129,118.545457 199.759177,118.775554 199.527471,119.116387 C199.159084,119.658273 198.997551,120.432721 198.997551,121.265604 L198.997551,121.265604 L198.997551,132.744249 L199.002258,132.998511 C199.030654,133.752404 199.188934,134.422293 199.514861,134.90139 C199.748141,135.244298 200.083042,135.461808 200.526596,135.461808 C200.966024,135.461808 201.293988,135.231792 201.525713,134.891169 C201.894081,134.349688 202.05564,133.575912 202.05564,132.744249 L202.05564,132.744249 L202.05564,121.265604 L202.050749,121.017666 C202.021265,120.280157 201.857269,119.604084 201.52572,119.116387 C201.294014,118.775554 200.966062,118.545457 200.526596,118.545457 Z" id="ðŸŽ¨-Color" stroke="#FFFFFF" stroke-width="2" fill="#F0675C"></path>
                <g id="Group-6" transform="translate(122.112116, 102.693393) scale(1, -1) translate(-122.112116, -102.693393) translate(-0.000000, 51.386786)">
                    <ellipse id="Oval" fill="#F29B98" fill-rule="nonzero" transform="translate(30.255888, 47.000000) scale(1, -1) translate(-30.255888, -47.000000) " cx="30.2558876" cy="47" rx="6.01506139" ry="6"></ellipse>
                    <g id="Group-3" transform="translate(0.000000, 47.070059)" fill="#FF9451">
                        <polygon id="Path-7" transform="translate(16.529899, 15.297234) scale(-1, -1) rotate(-29.000000) translate(-16.529899, -15.297234) " points="3.24272577 5.19108011 18.2506362 5.17227969 13.8628784 18.0746095 29.8170725 11.606207 29.8065738 20.0001628 28.1856285 15.274603 10.8511162 25.4221891 15.5114655 6.9312352"></polygon>
                        <polygon id="Path-8" transform="translate(24.384111, 40.166513) scale(-1, -1) rotate(-29.000000) translate(-24.384111, -40.166513) " points="8.31538735 47.4481453 16.0714503 40.1656852 22.0934749 46.0212236 26.0799415 35.4815412 40.452834 31.4926053 29.1692169 36.7735299 23.403271 48.8404205 16.1910375 42.8475385"></polygon>
                    </g>
                    <g id="Group-3" transform="translate(214.543990, 38.425645)" fill="#FF9451">
                        <polygon id="Path-7" transform="translate(15.396957, 11.458377) scale(-1, 1) rotate(6.000000) translate(-15.396957, -11.458377) " points="2.10978374 1.35222267 17.1176942 1.33342225 12.7299364 14.2357521 28.6841305 7.76734961 28.6736318 16.1613054 27.0526865 11.4357455 9.71817415 21.5833317 14.3785235 3.09237777"></polygon>
                        <polygon id="Path-8" transform="translate(14.840121, 32.810927) scale(-1, -1) rotate(64.000000) translate(-14.840121, -32.810927) " points="-1.22860217 40.0925597 6.52746081 32.8100996 12.5494854 38.665638 16.5359519 28.1259556 30.9088445 24.1370197 19.6252274 29.4179443 13.8592815 41.4848349 6.64704798 35.4919529"></polygon>
                    </g>
                    <ellipse id="Oval" fill="#FAE64C" fill-rule="nonzero" transform="translate(42.286010, 3.000000) scale(1, -1) translate(-42.286010, -3.000000) " cx="42.2860104" cy="3" rx="3.00753069" ry="3"></ellipse>
                    <ellipse id="Oval" fill="#CD5E8C" fill-rule="nonzero" transform="translate(69.855042, 22.500000) scale(1, -1) translate(-69.855042, -22.500000) " cx="69.8550418" cy="22.5" rx="4.51129604" ry="4.5"></ellipse>
                </g>
                <g id="Group-8" transform="translate(207.188903, 62.000000) scale(1, -1) translate(-207.188903, -62.000000) translate(185.644974, 48.000000)" fill-rule="nonzero">
                    <ellipse id="Oval" fill="#FAE64C" cx="39.0778172" cy="24" rx="4.01004093" ry="4"></ellipse>
                    <ellipse id="Oval" fill="#F29B98" cx="29.1029195" cy="6" rx="6.01506139" ry="6"></ellipse>
                    <ellipse id="Oval" fill="#CD5E8C" cx="2.50627558" cy="17.5" rx="2.50627558" ry="2.5"></ellipse>
                </g>
            </g>
        </g>
    </g>
</svg>