<?xml version="1.0" encoding="UTF-8"?>
<svg width="4px" height="16px" viewBox="0 0 4 16" version="1.1" xmlns="http://www.w3.org/2000/svg" xmlns:xlink="http://www.w3.org/1999/xlink">
  <title>Foundations/system icon/pl-icon-menu-kabob-vertical</title>
  <g id="Page-1" stroke="none" stroke-width="1" fill="none" fill-rule="evenodd">
    <g id="🎨-Color" transform="translate(-10.000000, -4.000000)" fill="#1774e5">
      <path d="M12.0089617,4 C13.1123544,4.00494988 14.0032874,4.90257129 14,6.0059803 C13.9966919,7.10938931 13.1004104,8.00167232 11.9970101,8.00002381 C10.8936072,7.99837328 10,7.10341599 10,6 C10.0024863,4.89295352 10.9019271,3.99752894 12.0089617,4 Z M12.0089617,9.99999032 C13.1123518,10.0049427 14.0032823,10.9025641 14,12.0059706 C13.9966868,13.1093771 13.1004078,14.0016576 11.9970075,14.0000116 C10.8936098,13.9983585 10,13.1034063 10,11.9999903 C10.0024863,10.8929464 10.9019271,9.99751926 12.0089617,9.99999032 Z M12.0089617,15.9999806 C13.1123518,16.0049305 14.0032823,16.9025519 14,18.0059581 C13.9966868,19.1093664 13.1004078,20.0016457 11.9970101,20 C10.8936098,19.9983498 10,19.1033956 10,17.9999806 C10.0024863,16.8929367 10.9019271,15.9975096 12.0089617,15.9999806 Z"></path>
    </g>
  </g>
</svg>
