<?xml version="1.0" encoding="UTF-8"?>
<svg width="24px" height="24px" viewBox="0 0 24 24" version="1.1" xmlns="http://www.w3.org/2000/svg" xmlns:xlink="http://www.w3.org/1999/xlink">
    <title>01F513D0-8664-43FC-9EB4-EB15794AEE27</title>
    <g id="--------↳--Filters-panel" stroke="none" stroke-width="1" fill="none" fill-rule="evenodd">
        <g id="Filter-panel---Expand-to-full" transform="translate(-1547.000000, -277.000000)" fill="#727272">
            <g id="Optional-icon" transform="translate(1547.000000, 277.000000)">
                <path d="M19.1047307,3.31442255 C19.5309165,2.88835177 20.2302486,2.89609845 20.6670891,3.33282098 C21.0748069,3.7395249 21.1087382,4.37651362 20.7649454,4.8060492 L20.6854926,4.89475775 L16.8769829,8.69076463 L18.9488272,8.60458217 C19.2510317,8.59199364 19.5571107,8.70238479 19.7915128,8.93672359 C20.2283533,9.37344621 20.2351335,10.0725895 19.8089477,10.4986604 C19.6395803,10.667982 19.4253804,10.7697173 19.2017261,10.8020368 L19.0892748,10.8124033 L14.1445507,11.0167236 C13.8423462,11.0283438 13.5333615,10.9179527 13.3008966,10.6845822 C13.0966421,10.4803828 12.9873109,10.2190968 12.9709563,9.95456719 L12.9696339,9.84115571 L13.1730408,4.89679816 C13.184664,4.6343773 13.2883047,4.37582981 13.4868685,4.17828791 C13.9130544,3.75124879 14.6143237,3.7599639 15.049227,4.19571807 C15.2534814,4.39991734 15.3642958,4.66046203 15.3803723,4.92545498 L15.3814582,5.03914456 L15.296221,7.11042937 L19.1047307,3.31442255 Z M9.85544928,12.9832763 C10.1576537,12.9716562 10.4666385,13.0820473 10.6991034,13.3154179 C10.9033579,13.5196171 11.0126891,13.7809032 11.0290438,14.0454329 L11.0303661,14.1588443 L10.8269592,19.1032019 C10.815336,19.3656227 10.7116953,19.6241702 10.5131315,19.8217121 C10.0869457,20.2487512 9.38567631,20.2400361 8.95077297,19.8042819 C8.74651865,19.6000827 8.63570423,19.339538 8.6196277,19.074545 L8.61854178,18.9608555 L8.70377892,16.8895706 L4.89526933,20.6855774 C4.46908349,21.1116482 3.76975135,21.1039015 3.33291085,20.667179 C2.92519312,20.2604751 2.89126184,19.6234864 3.23505463,19.1939508 L3.31450744,19.1052423 L7.12301711,15.3092354 L5.05117281,15.3954179 C4.74896834,15.4080063 4.44288935,15.2976153 4.20848723,15.0632763 C3.77164671,14.6265538 3.76486646,13.9274104 4.1910523,13.5013397 C4.3604197,13.332018 4.57461959,13.2302828 4.79827394,13.1979633 L4.91072519,13.1875966 L9.85544928,12.9832763 Z" id="Combined-Shape"></path>
            </g>
        </g>
    </g>
</svg>