<?xml version="1.0" encoding="UTF-8"?>
<svg width="24px" height="24px" viewBox="0 0 24 24" version="1.1" xmlns="http://www.w3.org/2000/svg" xmlns:xlink="http://www.w3.org/1999/xlink">
    <title>A395E457-43C9-4CD5-9FC2-5AEADA1DA81E</title>
    <g id="--------↳--Filters-panel" stroke="none" stroke-width="1" fill="none" fill-rule="evenodd">
        <g id="Filter-panel---Expand-to-full" transform="translate(-1508.000000, -277.000000)" fill="#727272">
            <g id="Optional-icon" transform="translate(1508.000000, 277.000000)">
                <path d="M9.32723016,13.1667402 C9.7667629,12.7333874 10.4879961,12.7412665 10.9385172,13.185453 C11.3590034,13.5991079 11.3939973,14.2469834 11.039438,14.6838602 L10.9574969,14.7740848 L7.02971585,18.6349692 L9.16644424,18.5473138 C9.47811289,18.5345101 9.79377737,18.6467879 10.0355203,18.8851318 C10.4860414,19.3293184 10.493034,20.0404108 10.0535012,20.4737636 C9.87882974,20.6459791 9.65792173,20.7494531 9.42726317,20.782325 L9.31129026,20.7928687 L4.21171179,21.000681 C3.90004315,21.0124998 3.58138192,20.9002221 3.34163683,20.662863 C3.13098575,20.4551737 3.01823061,20.189422 3.00136378,19.9203713 L3,19.8050215 L3.20977698,14.7761601 C3.22176424,14.5092542 3.32865066,14.2462879 3.53343289,14.0453698 C3.97296563,13.6110322 4.69619674,13.6198962 5.14471989,14.0630979 C5.35537097,14.2707871 5.4696557,14.5357848 5.48623574,14.8053067 L5.48735564,14.9209394 L5.39944908,17.0276244 L9.32723016,13.1667402 Z M19.7882882,3.00084409 C20.0999568,2.98902538 20.4186181,3.10130313 20.6583631,3.33866225 C20.8690142,3.54635147 20.9817693,3.81210318 20.9986362,4.08115389 L21,4.19650366 L20.790223,9.22536509 C20.7782357,9.49227097 20.6713493,9.75523728 20.4665671,9.95615537 C20.0270344,10.390493 19.3038033,10.3816289 18.85528,9.93842731 C18.644629,9.73073807 18.5303442,9.46574042 18.5137642,9.19621842 L18.5126443,9.08058588 L18.6005508,6.97390069 L14.6727698,10.834785 C14.233237,11.2681378 13.5120039,11.2602587 13.0614828,10.8160721 C12.6409965,10.4024172 12.6060026,9.75454179 12.960562,9.31766502 L13.042503,9.2274404 L16.9702841,5.36655603 L14.8335557,5.45421146 C14.5218871,5.46701506 14.2062226,5.35473732 13.9644797,5.11639331 C13.5139586,4.67220677 13.506966,3.96111434 13.9464987,3.52776162 C14.1211702,3.35554612 14.3420782,3.25207209 14.5727368,3.21920022 L14.6887097,3.20865642 L19.7882882,3.00084409 Z" id="Combined-Shape"></path>
            </g>
        </g>
    </g>
</svg>