<?xml version="1.0" encoding="UTF-8"?>
<svg width="55px" height="64px" viewBox="0 0 55 64" version="1.1" xmlns="http://www.w3.org/2000/svg" xmlns:xlink="http://www.w3.org/1999/xlink">
    <title>0F1E701F-2FB1-4D56-8E94-0013283B5515</title>
    <g id="New-process-flow-(Nov/Dec-Updates)" stroke="none" stroke-width="1" fill="none" fill-rule="evenodd">
        <g id="Data-set-wizard---draft" transform="translate(-136.000000, -1385.000000)" fill="#E0E0E0">
            <g id="upload-empty" transform="translate(120.000000, 1369.000000)">
                <g id="icon-document-empty" transform="translate(16.000000, 16.000000)">
                    <path d="M37.8810239,-4.54747351e-13 C38.2606546,-4.54747351e-13 38.6254561,0.156678122 38.8894182,0.434882225 L54.3662934,16.7344287 C54.6154261,16.9955589 54.7558104,17.3440673 54.7577876,17.7086452 L54.9940683,62.4372362 C54.9980228,62.4834361 55,62.5296361 55,62.5778447 C55,63.363244 54.3732137,64 53.6001114,64 L1.39988856,64 C0.627774882,64 2.73558953e-12,63.363244 2.73558953e-12,62.5778447 L2.73558953e-12,1.42215527 C2.73558953e-12,0.636755959 0.627774882,-4.54747351e-13 1.39988856,-4.54747351e-13 L37.8810239,-4.54747351e-13 Z M35.799,2.844 L2.79977711,2.84431053 L2.79977711,61.1556895 L52.1824277,61.1556895 L51.967,19.023 L37.1945353,19.0238441 C36.4229339,19.0238441 35.7991489,18.3910799 35.7991489,17.6096062 L35.799,2.844 Z M44.8088313,45.5594824 C45.7691192,45.5594824 46.5475864,46.3379496 46.5475864,47.2982375 C46.5475864,48.2585254 45.7691192,49.0369926 44.8088313,49.0369926 L10.2319224,49.0369926 C9.27163453,49.0369926 8.49316737,48.2585254 8.49316737,47.2982375 C8.49316737,46.3379496 9.27163453,45.5594824 10.2319224,45.5594824 L44.8088313,45.5594824 Z M44.8088313,35.126952 C45.7691192,35.126952 46.5475864,35.9054192 46.5475864,36.8657071 C46.5475864,37.825995 45.7691192,38.6044621 44.8088313,38.6044621 L10.2319224,38.6044621 C9.27163453,38.6044621 8.49316737,37.825995 8.49316737,36.8657071 C8.49316737,35.9054192 9.27163453,35.126952 10.2319224,35.126952 L44.8088313,35.126952 Z M28.9884549,24.6944216 C29.9487428,24.6944216 30.7272099,25.4728887 30.7272099,26.4331766 C30.7272099,27.3934646 29.9487428,28.1719317 28.9884549,28.1719317 L10.2319224,28.1719317 C9.27163453,28.1719317 8.49316737,27.3934646 8.49316737,26.4331766 C8.49316737,25.4728887 9.27163453,24.6944216 10.2319224,24.6944216 L28.9884549,24.6944216 Z M38.5899216,4.824577 L38.5899216,16.1963665 L49.8180515,16.1963665 L38.5899216,4.824577 Z" id="Combined-Shape"></path>
                </g>
            </g>
        </g>
    </g>
</svg>