<?xml version="1.0" encoding="UTF-8"?>
<svg width="352px" height="170px" viewBox="0 0 352 170" version="1.1" xmlns="http://www.w3.org/2000/svg" xmlns:xlink="http://www.w3.org/1999/xlink">
    <title>46DC9688-E867-46B1-B943-3EFFA354E01C</title>
    <g id="Templates" stroke="none" stroke-width="1" fill="none" fill-rule="evenodd">
        <g id="for-export" transform="translate(-951.000000, -179.000000)">
            <g id="journey-illustration" transform="translate(951.000000, 179.000000)">
                <path d="M349,0 C350.656854,0 352,1.34314575 352,3 L352,167 C352,168.656854 350.656854,170 349,170 L3,170 C1.34314575,170 0,168.656854 0,167 L0,3 C0,1.34314575 1.34314575,0 3,0 L349,0 Z M349,2 L3,2 C2.48716416,2 2.06449284,2.38604019 2.00672773,2.88337887 L2,3 L2,167 C2,167.512836 2.38604019,167.935507 2.88337887,167.993272 L3,168 L349,168 C349.512836,168 349.935507,167.61396 349.993272,167.116621 L350,167 L350,3 C350,2.48716416 349.61396,2.06449284 349.116621,2.00672773 L349,2 Z" id="Rectangle" fill="#EDEBEB" fill-rule="nonzero"></path>
                <path d="M349,2 L3,2 C2.48716416,2 2.06449284,2.38604019 2.00672773,2.88337887 L2,3 L2,167 C2,167.512836 2.38604019,167.935507 2.88337887,167.993272 L3,168 L349,168 C349.512836,168 349.935507,167.61396 349.993272,167.116621 L350,167 L350,3 C350,2.48716416 349.61396,2.06449284 349.116621,2.00672773 L349,2 Z" id="Path" fill="#FFFFFF" fill-rule="nonzero"></path>
                <path d="M58,0 C58.5522847,0 59,0.44771525 59,1 L59,169 C59,169.552285 58.5522847,170 58,170 L1,170 C0.44771525,170 0,169.552285 0,169 L0,1 C0,0.44771525 0.44771525,0 1,0 L58,0 Z M37,44 L9,44 C7.34314575,44 6,45.3431458 6,47 C6,48.5976809 7.24891996,49.9036609 8.82372721,49.9949073 L9,50 L37,50 C38.6568542,50 40,48.6568542 40,47 C40,45.4023191 38.75108,44.0963391 37.1762728,44.0050927 L37,44 Z M50,30 L9,30 C7.34314575,30 6,31.3431458 6,33 C6,34.5976809 7.24891996,35.9036609 8.82372721,35.9949073 L9,36 L50,36 C51.6568542,36 53,34.6568542 53,33 C53,31.4023191 51.75108,30.0963391 50.1762728,30.0050927 L50,30 Z M50,16 L9,16 C7.34314575,16 6,17.3431458 6,19 C6,20.5976809 7.24891996,21.9036609 8.82372721,21.9949073 L9,22 L50,22 C51.6568542,22 53,20.6568542 53,19 C53,17.4023191 51.75108,16.0963391 50.1762728,16.0050927 L50,16 Z" id="Shape" fill="#EDEBEB"></path>
                <path d="M337,16 C337.552285,16 338,16.4477153 338,17 L338,153 C338,153.552285 337.552285,154 337,154 L303,154 C302.447715,154 302,153.552285 302,153 L302,17 C302,16.4477153 302.447715,16 303,16 L337,16 Z M108,116 C108.552285,116 109,116.447715 109,117 L109,153 C109,153.552285 108.552285,154 108,154 L75,154 C74.4477153,154 74,153.552285 74,153 L74,117 C74,116.447715 74.4477153,116 75,116 L108,116 Z M292,16 C292.552285,16 293,16.4477153 293,17 L293,153 C293,153.552285 292.552285,154 292,154 L120,154 C119.447715,154 119,153.552285 119,153 L119,17 C119,16.4477153 119.447715,16 120,16 L292,16 Z M108,66 C108.552285,66 109,66.4477153 109,67 L109,103 C109,103.552285 108.552285,104 108,104 L75,104 C74.4477153,104 74,103.552285 74,103 L74,67 C74,66.4477153 74.4477153,66 75,66 L108,66 Z M108,16 C108.552285,16 109,16.4477153 109,17 L109,53 C109,53.5522847 108.552285,54 108,54 L75,54 C74.4477153,54 74,53.5522847 74,53 L74,17 C74,16.4477153 74.4477153,16 75,16 L108,16 Z" id="Combined-Shape" fill="#EDF1F5"></path>
                <path d="M272,105 C278.075132,105 282,109.9 282,116.2 C282,119.14 280.570833,122.820444 278.697037,126.194548 L278.289062,126.9125 C277.94401,127.50625 277.587023,128.087847 277.223705,128.651331 L276.785045,129.318436 C276.491058,129.756867 276.194455,130.18218 275.898106,130.591323 L275.454133,131.192527 L275.454133,131.192527 L275.012695,131.767188 C274.866211,131.954063 274.720508,132.136132 274.575945,132.313014 L274.146034,132.827719 C273.365451,133.741417 272.630208,134.486667 272,135 C267.875,132.2 262,122.5 262,116.2 C262,109.9 265.924868,105 272,105 Z M175.792715,130.166701 C177.641506,131.03525 179.659027,131.493834 181.743136,131.499938 L183.038189,131.5 C183.866616,131.5 184.538189,132.171573 184.538189,133 C184.538189,133.828427 183.866616,134.5 183.038189,134.5 L181.738524,134.499932 C179.209712,134.492531 176.760076,133.935727 174.517092,132.881988 C173.767286,132.529734 173.445006,131.636338 173.79726,130.886533 C174.149514,130.136727 175.042909,129.814447 175.792715,130.166701 Z M199.038622,131.5 C199.867049,131.5 200.538622,132.171573 200.538622,133 C200.538622,133.828427 199.867049,134.5 199.038622,134.5 L191.038611,134.5 C190.210184,134.5 189.538611,133.828427 189.538611,133 C189.538611,132.171573 190.210184,131.5 191.038611,131.5 L199.038622,131.5 Z M215.039176,131.5 C215.867604,131.5 216.539176,132.171573 216.539176,133 C216.539176,133.828427 215.867604,134.5 215.039176,134.5 L207.038416,134.5 C206.209989,134.5 205.538416,133.828427 205.538416,133 C205.538416,132.171573 206.209989,131.5 207.038416,131.5 L215.039176,131.5 Z M231.036931,131.5 C231.865359,131.5 232.536931,132.171573 232.536931,133 C232.536931,133.828427 231.865359,134.5 231.036931,134.5 L223.037945,134.5 C222.209518,134.5 221.537945,133.828427 221.537945,133 C221.537945,132.171573 222.209518,131.5 223.037945,131.5 L231.036931,131.5 Z M247.04043,131.5 C247.868857,131.5 248.54043,132.171573 248.54043,133 C248.54043,133.828427 247.868857,134.5 247.04043,134.5 L239.040269,134.5 C238.211842,134.5 237.540269,133.828427 237.540269,133 C237.540269,132.171573 238.211842,131.5 239.040269,131.5 L247.04043,131.5 Z M261.554369,131.5 C262.382796,131.5 263.054369,132.171573 263.054369,133 C263.054369,133.828427 262.382796,134.5 261.554369,134.5 L255.038535,134.5 C254.210108,134.5 253.538535,133.828427 253.538535,133 C253.538535,132.171573 254.210108,131.5 255.038535,131.5 L261.554369,131.5 Z M168.511136,122.369785 C168.95605,123.502005 169.541614,124.574061 170.255346,125.5624 C170.740351,126.23401 170.589078,127.171633 169.917468,127.656639 C169.245857,128.141645 168.308234,127.990372 167.823228,127.318761 C166.944162,126.101476 166.226183,124.77865 165.685454,123.381029 C165.174437,122.060209 168.072414,121.253322 168.511136,122.369785 Z M272,112 C269.790861,112 268,113.790861 268,116 C268,118.209139 269.790861,120 272,120 C274.209139,120 276,118.209139 276,116 C276,113.790861 274.209139,112 272,112 Z M172.880775,103.700955 C173.41299,104.335809 173.329784,105.281905 172.69493,105.814119 C170.836449,107.372133 169.388577,109.383769 168.499989,111.658766 C168.19859,112.43042 167.328708,112.811637 166.557054,112.510238 C165.7854,112.208838 165.404183,111.338957 165.705582,110.567303 C166.777732,107.822344 168.524245,105.395783 170.767611,103.515111 C171.402465,102.982896 172.348561,103.066102 172.880775,103.700955 Z M207,93 C210.698085,93 213.726386,95.867685 213.982461,99.5006133 L218.057783,99.5 C218.886211,99.5 219.557783,100.171573 219.557783,101 C219.557783,101.779696 218.962895,102.420449 218.202243,102.493133 L218.057783,102.5 L213.540102,102.500704 C212.533494,105.131703 209.984929,107 207,107 C204.015071,107 201.466506,105.131703 200.459898,102.500704 L194.917797,102.5 C194.08937,102.5 193.417797,101.828427 193.417797,101 C193.417797,100.171573 194.08937,99.5 194.917797,99.5 L200.017539,99.5006133 C200.273614,95.867685 203.301915,93 207,93 Z M207,96 C204.790861,96 203,97.790861 203,100 C203,102.209139 204.790861,104 207,104 C209.209139,104 211,102.209139 211,100 C211,97.790861 209.209139,96 207,96 Z M186.918066,99.5 C187.746493,99.5 188.418066,100.171573 188.418066,101 C188.418066,101.828427 187.746493,102.5 186.918066,102.5 L181.785834,102.5 C180.911549,102.5 180.04844,102.579449 179.202793,102.736072 C178.38822,102.886941 177.605574,102.348901 177.454706,101.534328 C177.303838,100.719754 177.841877,99.9371087 178.656451,99.7862403 C179.682077,99.5962826 180.72806,99.5 181.785834,99.5 L186.918066,99.5 Z M234.057983,99.5 C234.886411,99.5 235.557983,100.171573 235.557983,101 C235.557983,101.779696 234.963095,102.420449 234.202443,102.493133 L234.057983,102.5 L226.057778,102.5 C225.229351,102.5 224.557778,101.828427 224.557778,101 C224.557778,100.220304 225.152666,99.5795513 225.913318,99.5068666 L226.057778,99.5 L234.057983,99.5 Z M248.153101,79.9813596 L248.583778,80.351495 L248.583778,80.351495 L248.918702,80.6292118 L248.918702,80.6292118 L249.172234,80.8283356 L249.172234,80.8283356 L249.358735,80.9626921 L249.358735,80.9626921 L249.452921,81.0231087 L249.452921,81.0231087 C249.632604,81.0071404 249.815468,81 250,81 C253.865993,81 257,84.1340068 257,88 C257,91.8559673 253.882227,94.9837399 250.030063,94.9999368 C250.173036,95.468177 250.083441,95.9968811 249.745618,96.400164 C247.966665,98.5238223 245.455007,100.210755 242.515947,101.266809 C241.73632,101.546942 240.877216,101.142023 240.597083,100.362397 C240.31695,99.5827708 240.721869,98.7236662 241.501495,98.4435333 C243.81996,97.6104694 245.790281,96.3273493 247.202502,94.7542893 L247.415,94.508 L247.176635,94.407279 C244.716854,93.3217975 243,90.8613952 243,88 C243,85.5718221 244.236342,83.4324075 246.113865,82.1769176 C245.553939,81.6264355 245.513869,80.727805 246.036811,80.1273613 C246.580891,79.5026467 247.528386,79.4372795 248.153101,79.9813596 Z M250,84 C247.790861,84 246,85.790861 246,88 C246,90.209139 247.790861,92 250,92 C252.209139,92 254,90.209139 254,88 C254,85.790861 252.209139,84 250,84 Z M145.571536,36 C147.766346,36 149.545591,37.8006329 149.545591,40.0218261 L149.545591,42.7030435 L180.013348,42.7030435 C182.208158,42.7030435 183.987403,44.5036764 183.987403,46.7248696 L183.987,75.503 L184.056586,75.5 L192.056586,75.5 C192.885013,75.5 193.556586,76.1715729 193.556586,77 C193.556586,77.7796961 192.961698,78.4204487 192.201046,78.4931334 L192.056586,78.5 L184.056586,78.5 L183.987,78.497 L183.987403,78.8994784 C183.987403,81.1206716 182.208158,82.9213045 180.013348,82.9213045 L134.974055,82.9213045 C132.779245,82.9213045 131,81.1206716 131,78.8994784 L131,37.3406087 C131,36.600211 131.593082,36 132.324685,36 L145.571536,36 Z M145.571536,38.6812174 L133.649364,38.6812174 L133.649364,77.5588697 C133.648288,78.2960302 133.947149,79.0011244 134.475687,79.5083704 C134.942612,79.956486 135.552395,80.2152661 136.189682,80.2418092 L136.443131,80.2400871 C137.834387,80.0883442 138.891876,78.9267881 138.94711,77.5317603 L138.94811,54.7685218 C138.94811,52.5473286 140.727356,50.7466957 142.922166,50.7466957 L178.688663,50.7466957 L178.688663,53.4279131 L142.922166,53.4279131 C142.190562,53.4279131 141.597481,54.0281241 141.597481,54.7685218 L141.597481,77.3309662 C141.621069,78.389798 141.345675,79.3880555 140.84774,80.2405345 L180.013348,80.2400871 C180.744951,80.2400871 181.338033,79.6398762 181.338033,78.8994784 L181.338033,46.7248696 C181.338033,45.9844719 180.744951,45.3842609 180.013348,45.3842609 L140.272796,45.3842609 L140.272796,42.7030435 L146.896221,42.7030435 L146.896221,40.0218261 C146.896221,39.2814284 146.303139,38.6812174 145.571536,38.6812174 Z M162.51161,68.7413941 C165.875024,68.7413941 168.622838,71.2794752 168.802288,74.4751997 L168.81161,74.8080607 L168.81161,81.2 L153.81161,81.2 L153.81161,74.8080607 C153.81161,71.5692175 156.44731,68.9231749 159.765947,68.7503707 L160.11161,68.7413941 L162.51161,68.7413941 Z M235.271246,75.5 C237.019621,75.5 238.734491,75.7018484 240.373595,76.094774 C241.179199,76.287893 241.675715,77.0975173 241.482596,77.9031205 C241.289477,78.7087237 240.479853,79.2052403 239.67425,79.0121214 C238.440871,78.7164561 237.153475,78.5461121 235.837105,78.5081459 L235.271246,78.5 L232.056586,78.5 C231.228159,78.5 230.556586,77.8284271 230.556586,77 C230.556586,76.2203039 231.151474,75.5795513 231.912126,75.5068666 L232.056586,75.5 L235.271246,75.5 Z M208.056586,75.5 C208.885013,75.5 209.556586,76.1715729 209.556586,77 C209.556586,77.7796961 208.961698,78.4204487 208.201046,78.4931334 L208.056586,78.5 L200.056586,78.5 C199.228159,78.5 198.556586,77.8284271 198.556586,77 C198.556586,76.2203039 199.151474,75.5795513 199.912126,75.5068666 L200.056586,75.5 L208.056586,75.5 Z M224.056586,75.5 C224.885013,75.5 225.556586,76.1715729 225.556586,77 C225.556586,77.7796961 224.961698,78.4204487 224.201046,78.4931334 L224.056586,78.5 L216.056586,78.5 C215.228159,78.5 214.556586,77.8284271 214.556586,77 C214.556586,76.2203039 215.151474,75.5795513 215.912126,75.5068666 L216.056586,75.5 L224.056586,75.5 Z M161.31161,58.7413941 C163.796892,58.7413941 165.81161,60.7561127 165.81161,63.2413941 C165.81161,65.7266754 163.796892,67.7413941 161.31161,67.7413941 C158.826329,67.7413941 156.81161,65.7266754 156.81161,63.2413941 C156.81161,60.7561127 158.826329,58.7413941 161.31161,58.7413941 Z M166,110 C169.865993,110 173,113.134007 173,117 C173,120.865993 169.865993,124 166,124 C162.134007,124 159,120.865993 159,117 C159,113.134007 162.134007,110 166,110 Z M166,113 C163.790861,113 162,114.790861 162,117 C162,119.209139 163.790861,121 166,121 C168.209139,121 170,119.209139 170,117 C170,114.790861 168.209139,113 166,113 Z" id="spot-illustration" fill="#98A8CA" fill-rule="nonzero"></path>
            </g>
        </g>
    </g>
</svg>
