<?xml version="1.0" encoding="UTF-8"?>
<svg width="226px" height="159px" viewBox="0 0 226 159" version="1.1" xmlns="http://www.w3.org/2000/svg" xmlns:xlink="http://www.w3.org/1999/xlink">
    <title>259F7D15-BF34-4B7B-A86C-2D16503F808D</title>
    <g id="âš ï¸-Nimbus-integration" stroke="none" stroke-width="1" fill="none" fill-rule="evenodd">
        <g id="Export-modal-options-and-styling" transform="translate(-844.000000, -194.000000)">
            <g id="missing-subscription" transform="translate(844.000000, 194.000000)">
                <path d="M77.5325282,5.23113001 C93.0910839,-3.40399864 110.272938,-1.34849544 129.07809,11.3976396 C157.285818,30.5168422 157.129619,47.5654074 192.090286,66.1594866 C227.050954,84.7535657 225.541516,129.390614 182.893931,142.37489 C140.246345,155.359167 63.3736221,179.434559 21.694188,124.786709 C-6.09210138,88.3548083 12.5206786,48.5029487 77.5325282,5.23113001 Z" id="bg" fill="#FEF7EA" fill-rule="nonzero"></path>
                <path d="M1.89718607,82.5853902 L2.19093421,82.747634 L2.5341445,82.9234205 L2.92687192,83.1127759 L3.36917147,83.3157263 L3.86109813,83.5322981 L4.59429311,83.8422945 L5.41594216,84.1766153 L6.56759057,84.6288172 L7.85790668,85.1192444 L9.28714508,85.6480184 L10.5307309,86.0987288 L12.563407,86.8210921 L14.7972309,87.5991991 L17.2326425,88.4332593 L19.8700817,89.3234827 C20.0222261,89.3745035 20.1753079,89.4257853 20.3293274,89.4773283 C21.143323,89.7497337 21.6967376,88.6584859 20.9944656,88.1657787 L19.150753,86.8768445 L17.749727,85.9042388 L16.0904666,84.7614576 L13.9384056,83.2973558 L12.2515685,82.1680552 L10.9564893,81.3152498 L9.99248076,80.6906153 L8.87713048,79.9816329 L7.86094934,79.3522166 L7.29863968,79.0126588 L6.60397465,78.6042483 L6.28017837,78.4190085 L5.8238168,78.1648125 L5.53908563,78.0111018 L5.26992606,77.8699761 L4.89531547,77.6818503 L4.55556607,77.5219542 L4.25057291,77.3902358 L4.06650132,77.3180523 L3.8977992,77.2583539 C3.87096124,77.2494437 3.84476238,77.2410532 3.81920197,77.2331818 L3.67349574,77.1921823 C0.155958302,76.306179 -1.58732922,80.5716155 1.89718607,82.5853902 Z" id="Path-2-Copy-5" fill="#FF9451" fill-rule="nonzero"></path>
                <g id="Group-5-Copy" transform="translate(210.093191, 118.871887) scale(-1, 1) rotate(-60.000000) translate(-210.093191, -118.871887) translate(198.254479, 107.367697)" fill="#FF9451" fill-rule="nonzero">
                    <path d="M2.70900752,10.8065002 L2.85511933,10.9439691 L3.01950552,11.0916862 L3.20217888,11.249662 L3.51050542,11.505884 L3.73895279,11.6895529 L4.11600038,11.9843638 L4.39030182,12.1937916 L4.83619056,12.5272905 L5.32344164,12.8840496 L6.22756051,13.5304341 L7.03380127,14.0942441 L8.14545243,14.8575232 L9.11797844,15.5150626 L10.4378104,16.3957704 L11.5771405,17.1474664 L13.7498182,18.5640106 L16.5122144,20.3409406 L17.6250888,21.050876 C18.2909391,21.4747606 19.0284434,20.6234982 18.5114811,20.0277602 L16.3736144,17.5776822 L14.6569268,15.6337604 L13.5180818,14.3589564 L12.4516062,13.1785472 L11.2668276,11.8862042 L10.5342421,11.0996259 L9.84724273,10.3728424 L9.05230264,9.54819818 L8.32790656,8.81640388 L7.79892583,8.29760407 L7.43154192,7.94726685 L7.20055065,7.73212848 L6.98067604,7.53170189 L6.67165466,7.25860155 L6.38750888,7.01848686 L6.21185758,6.87670143 L6.04720126,6.74952478 L5.89351558,6.63693633 L5.7507762,6.53891547 C5.72789714,6.52379148 5.70547317,6.50927362 5.68350377,6.49536145 L5.55713821,6.41915335 C5.53698508,6.40766224 5.51728551,6.39677598 5.49803899,6.38649412 C2.55572269,4.81465225 0.0478052377,8.23525953 2.70900752,10.8065002 Z" id="Path-2-Copy-3" transform="translate(10.133513, 13.576780) rotate(-14.000000) translate(-10.133513, -13.576780) "></path>
                    <path d="M11.2223324,4.86455758 L11.4196182,5.04657953 L11.659106,5.25218042 L11.8422489,5.40237889 L12.0442061,5.56310457 L12.3824695,5.82397335 L12.8995541,6.20882166 L13.4923131,6.63612216 L14.3399612,7.23017864 L15.1036651,7.75355447 L16.1655806,8.46818792 L17.1011673,9.08841158 L18.1134474,9.75192667 L19.7760731,10.8287045 L21.612301,12.0037464 C22.2781512,12.427631 23.0156556,11.5763686 22.4986932,10.9806306 L21.5292221,9.8672707 L20.3934938,8.57421321 L19.3415906,7.39013029 L18.1888365,6.11212977 L17.4860794,5.34619651 L16.8354438,4.64871497 L16.2365228,4.01934061 L15.6889091,3.45772888 L15.1921958,2.96353525 L14.8528192,2.63692589 L14.5416734,2.34790005 L14.2585865,2.09631238 L14.0033868,1.88201754 L13.8486619,1.75980076 L13.706204,1.6540509 L13.5759623,1.56472489 L13.457886,1.49177967 C13.4392176,1.4809848 13.4210539,1.47087067 13.403394,1.46143639 C11.1464669,0.255742615 9.19999337,2.91058345 11.2223324,4.86455758 Z" id="Path-2-Copy-4" transform="translate(16.523665, 6.638231) rotate(12.000000) translate(-16.523665, -6.638231) "></path>
                </g>
                <path d="M12.1691417,72.9369393 L12.2770974,73.0917674 L12.4026107,73.2619529 L12.6238456,73.5460818 L12.7933418,73.7547721 L13.0806462,74.0967778 L13.5255374,74.6069972 L14.1812314,75.3321843 L14.4745546,75.649536 L15.1145335,76.3311402 L16.0147152,77.2713472 L17.0265352,78.3099281 L18.6312394,79.9299679 L19.9122855,81.2062715 L21.5983547,82.8695125 C22.2102548,83.4702876 23.1872328,82.7314741 22.7725658,81.9815468 L21.8751818,80.3664728 L21.2298743,79.2159029 L20.6005203,78.1040634 L19.8132381,76.7302915 L19.2616373,75.7814279 L18.5779375,74.6248304 L18.1039572,73.8387524 L17.6632023,73.1223814 L17.2556484,72.4756824 L16.9218678,71.9602761 L16.6550803,71.5598022 L16.4064797,71.1981317 L16.175392,70.8746829 L15.9611434,70.5888737 L15.7630598,70.3401221 C15.5728341,70.1097054 15.4058452,69.9340021 15.2590601,69.8103935 C13.1326463,68.0197272 10.4616719,70.4035804 12.1691417,72.9369393 Z" id="Path-2-Copy-6" fill="#FF9451" fill-rule="nonzero"></path>
                <g id="table" transform="translate(29.264435, 37.000000)">
                    <g id="spreadsheet">
                        <path d="M2.24841931,0 L159.038192,0 C160.27996,0 161.286612,0.990949671 161.286612,2.21334802 L161.286612,101.076226 C161.286612,102.298625 160.27996,103.289574 159.038192,103.289574 L2.24841931,103.289574 C1.00665161,103.289574 0,102.298625 0,101.076226 L0,2.21334802 C0,0.990949671 1.00665161,0 2.24841931,0 Z" id="Rectangle" fill="#FFFFFF"></path>
                        <g id="diagram" transform="translate(29.455952, 21.000000)" fill="#EC8383" fill-rule="nonzero">
                            <path d="M62.0652029,0 C62.6174877,-9.89631482e-16 63.0652029,0.44771525 63.0652029,1 L63.0652029,1 L63.0652029,16.0201613 C63.0652029,16.572446 62.6174877,17.0201613 62.0652029,17.0201613 L62.0652029,17.0201613 L53.3499255,17.0201613 L53.3499255,21.7234238 L59.6363836,21.7234238 C60.1886683,21.7234238 60.6363836,22.171139 60.6363836,22.7234238 L60.6363836,22.7234238 L60.6363836,30.4492302 C60.6363836,31.001515 60.1886683,31.4492302 59.6363836,31.4492302 L59.6363836,31.4492302 L53.3499255,31.4492302 L53.3499255,34.7176169 L62.7873513,40.6220018 C62.9158223,40.7023778 63.0243455,40.810901 63.1047215,40.939372 C63.3976456,41.4075748 63.2555541,42.0245902 62.7873513,42.3175143 L62.7873513,42.3175143 L53.3499255,48.2218992 L53.3499255,54.8427419 L60.6363836,54.8427419 C62.6450172,54.8427419 64.2796126,56.4791089 64.2796126,58.4899194 L64.2796126,58.4899194 L64.2796126,63.3528226 C64.2796126,65.3636331 62.6450172,67 60.6363836,67 L60.6363836,67 L43.6346481,67 C41.6260145,67 39.9914191,65.3636331 39.9914191,63.3528226 L39.9914191,63.3528226 L39.9914191,58.4899194 C39.9914191,56.4791089 41.6260145,54.8427419 43.6346481,54.8427419 L43.6346481,54.8427419 L50.9211062,54.8427419 L50.9211062,48.2218992 L41.4836804,42.3175143 C41.3552094,42.2371383 41.2466862,42.1286151 41.1663102,42.0001441 C40.8733861,41.5319413 41.0154776,40.914926 41.4836804,40.6220018 L41.4836804,40.6220018 L50.9211062,34.7176169 L50.9211062,31.4492302 L44.6346481,31.4492302 C44.0823634,31.4492302 43.6346481,31.001515 43.6346481,30.4492302 L43.6346481,30.4492302 L43.6346481,27.8020528 L22.4953384,27.8020528 C21.8239116,27.8020528 21.2796126,27.2577538 21.2796126,26.586327 C21.2796126,25.9149002 21.8239116,25.3706012 22.4953384,25.3706012 L22.4953384,25.3706012 L43.6346481,25.3706012 L43.6346481,22.7234238 C43.6346481,22.171139 44.0823634,21.7234238 44.6346481,21.7234238 L44.6346481,21.7234238 L50.9211062,21.7234238 L50.9211062,17.0201613 L42.2058288,17.0201613 C41.653544,17.0201613 41.2058288,16.572446 41.2058288,16.0201613 L41.2058288,16.0201613 L41.2058288,1 C41.2058288,0.44771525 41.653544,1.01453063e-16 42.2058288,0 L42.2058288,0 Z M9.92538899,36 C10.5965579,36 11.1406478,36.5440899 11.1406478,37.2152588 L11.1406478,37.2152588 L11.1406478,57.881457 C12.169972,58.2475078 12.9805496,59.0559709 13.3475577,60.08261 L13.3475577,60.08261 L31.627602,60.08261 L29.550895,58.0113204 C29.5502786,58.0107055 29.5496629,58.0100899 29.5490481,58.0094734 C29.1590341,57.6184394 29.159861,56.985275 29.550895,56.5952611 L29.550895,56.5952611 L29.8532068,56.2937379 C30.2435188,55.9044441 30.8752602,55.9044441 31.2655722,56.2937379 L31.2655722,56.2937379 L36.2796126,61.2946987 L31.2655722,66.2956595 C30.8752602,66.6849532 30.2435188,66.6849532 29.8532068,66.2956595 L29.8532068,66.2956595 L29.550895,65.9941363 C29.5502786,65.9935214 29.5496629,65.9929058 29.5490481,65.9922893 C29.1590341,65.6012553 29.159861,64.9680909 29.550895,64.578077 L29.550895,64.578077 L31.627602,62.5067873 L13.3475577,62.5067873 C12.8444406,63.9140223 11.5076559,64.9309647 9.92538899,64.9309647 C7.91535095,64.9309647 6.27961262,63.2994933 6.27961262,61.2946987 C6.27961262,59.7165592 7.29921474,58.3832617 8.7101302,57.881457 L8.7101302,57.881457 L8.7101302,37.2152588 C8.7101302,36.5440899 9.25422009,36 9.92538899,36 Z M95.7062072,5 C97.6763447,5 99.2796126,6.62363776 99.2796126,8.6188063 C99.2796126,10.1893682 98.2802502,11.5162639 96.8973423,12.0156592 L96.8973423,12.0156592 L96.8973423,37.9252401 C98.2802502,38.4246353 99.2796126,39.751531 99.2796126,41.3220929 C99.2796126,43.3172615 97.6763447,44.9408992 95.7062072,44.9408992 C94.1553492,44.9408992 92.8451005,43.9288397 92.3519706,42.5283617 L92.3519706,42.5283617 L72.3345155,42.5283617 L74.3719743,44.5917068 C74.756566,44.9811848 74.756566,45.6074871 74.3719743,45.9969651 L74.3719743,45.9969651 L74.0930796,46.2794033 C74.0901227,46.2823978 74.0871469,46.2853735 74.0841525,46.2883304 C73.6911709,46.6763817 73.0580185,46.672385 72.6699671,46.2794033 L72.6699671,46.2794033 L67.7748502,41.3220929 L72.6699662,36.3658366 C72.6728985,36.3628677 72.6758493,36.3599172 72.6788186,36.3569852 C73.0718002,35.9689338 73.7049526,35.9729306 74.093004,36.3659122 L74.093004,36.3659122 L74.3719743,36.648427 C74.756566,37.037905 74.756566,37.6642073 74.3719743,38.0536853 L74.3719743,38.0536853 L72.3345155,40.1170304 L92.3519706,40.1170304 C92.7116934,39.0953208 93.5061805,38.2907395 94.515072,37.9264463 L94.515072,37.9264463 L94.515072,12.0156592 C93.5061805,11.651366 92.7116934,10.8467847 92.3519706,9.82507507 L92.3519706,9.82507507 L66.4858814,9.82507507 C65.8196775,9.82507507 65.2796126,9.28501015 65.2796126,8.6188063 C65.2796126,7.95260246 65.8196775,7.41253754 66.4858814,7.41253754 L66.4858814,7.41253754 L92.3519706,7.41253754 C92.8451005,6.0120595 94.1553492,5 95.7062072,5 Z M9.19837443,19.4151701 C9.54607195,19.1668148 10.0131533,19.1668148 10.3608508,19.4151701 L10.3608508,19.4151701 L19.1403858,25.6862665 C19.2301813,25.7504062 19.3087414,25.8289663 19.372881,25.9187618 C19.69389,26.3681744 19.5897983,26.9927245 19.1403858,27.3137335 L19.1403858,27.3137335 L10.3608508,33.5848299 C10.0131533,33.8331852 9.54607195,33.8331852 9.19837443,33.5848299 L9.19837443,33.5848299 L0.418839479,27.3137335 C0.329043957,27.2495938 0.250483859,27.1710337 0.186344201,27.0812382 C-0.134664789,26.6318256 -0.030573108,26.0072755 0.418839479,25.6862665 L0.418839479,25.6862665 Z" id="Combined-Shape"></path>
                        </g>
                        <path d="M2.95284832,0 L159.453809,0 C161.084622,0 162.406657,1.32126622 162.406657,2.9511307 L162.406657,11.8045228 L162.406657,11.8045228 L0,11.8045228 L0,2.9511307 C0,1.32126622 1.32203522,0 2.95284832,0 Z" id="Rectangle" fill="#9B9FA9" fill-rule="nonzero"></path>
                    </g>
                    <path d="M2.24841931,0 L159.038192,0 C160.27996,0 161.286612,0.990949671 161.286612,2.21334802 L161.286612,101.076226 C161.286612,102.298625 160.27996,103.289574 159.038192,103.289574 L2.24841931,103.289574 C1.00665161,103.289574 0,102.298625 0,101.076226 L0,2.21334802 C0,0.990949671 1.00665161,0 2.24841931,0 Z" id="Rectangle-Copy" stroke="#9B9FA9" stroke-width="3" stroke-linecap="round"></path>
                </g>
                <g id="Group" transform="translate(11.000000, 16.000000)">
                    <circle id="Oval" stroke="#FFFFFF" stroke-width="2.09999169" fill="#FF9451" cx="20" cy="20" r="18.9500042"></circle>
                    <g id="Foundations/system-icon/pl-icon-password" transform="translate(12.000000, 10.000000)" fill="#FFFFFF">
                        <path d="M15.100407,19.7535532 L1.06770605,19.9998641 C0.562146826,20.008561 0.145678303,19.5988713 0.136830254,19.0841966 L0.000143149278,11.0096743 C-0.00870489993,10.4949996 0.393728786,10.0707113 0.899288012,10.0620144 L2.42481374,10.0349916 L2.35097829,5.68712413 C2.29880531,2.60031837 4.71462785,0.0539676338 7.74737299,0.000853950431 C10.7801181,-0.0525703392 13.2807599,2.40743184 13.333238,5.4945482 L13.4067683,9.84241568 L14.9322941,9.81539293 C15.4375482,9.80669595 15.8543218,10.2163857 15.8631699,10.7310604 L15.999857,18.8055827 C16.008705,19.3202574 15.6059662,19.7445457 15.100407,19.7535532 M7.09109183,15.2864129 L7.12160234,17.0975585 C7.13045039,17.6122332 7.54691891,18.0222335 8.05247814,18.0132259 C8.55803736,18.004529 8.96077615,17.5802407 8.95192811,17.065566 L8.92141759,15.2544205 C9.46053838,14.9217611 9.82086756,14.321359 9.80927356,13.633366 C9.79188257,12.6043272 8.95833531,11.7843265 7.94752197,11.8020311 C6.93640352,11.8197356 6.13123104,12.6686227 6.14862203,13.6976615 C6.16021603,14.3856545 6.54068214,14.9730111 7.09109183,15.2864129 M11.5029122,5.52654065 C11.4678251,3.46846308 9.80073062,1.82877223 7.77910393,1.86418136 C5.75747724,1.89959048 4.14652207,3.5970541 4.18130406,5.65513168 L4.2551395,10.0029992 L11.5764426,9.87440814 L11.5029122,5.52654065" id="ðŸŽ¨-Color"></path>
                    </g>
                </g>
                <g id="subscriptions" transform="translate(153.000000, 103.000000)">
                    <ellipse id="Oval-path" fill="#4A8DDF" cx="31.9119016" cy="32.0563275" rx="11.9669631" ry="12.0211228"></ellipse>
                    <path d="M40.0569753,29.5279711 L36.3998384,29.5279711 C35.9351648,29.5279711 35.5584725,29.1495805 35.5584725,28.6828121 C35.5584725,28.2160437 35.9351648,27.8376532 36.3998384,27.8376532 L37.8582059,27.8376532 C35.7759281,24.8916959 31.8662183,23.9109496 28.649642,25.5276953 C25.4330658,27.1444409 23.8705352,30.875696 24.9694039,34.3159435 C26.0682727,37.756191 29.5002675,39.8776999 33.0528026,39.3127467 C36.6053378,38.7477934 39.2171377,35.6651508 39.2043913,32.0521792 C39.2719219,31.6381537 39.6280942,31.3342246 40.0457571,31.3342246 C40.46342,31.3342246 40.8195924,31.6381537 40.887123,32.0521792 C40.8891621,36.4920778 37.6727097,40.2724338 33.3063677,40.961981 C28.9400258,41.6515282 24.7239593,39.0449402 23.3696536,34.8185961 C22.015348,30.5922519 23.9260745,26.0046293 27.8729847,24.0061732 C31.8198949,22.0077171 36.627718,23.1935073 39.2043913,26.8009249 L39.2043913,25.3134451 C39.2719219,24.8994196 39.6280942,24.5954905 40.0457571,24.5954905 C40.46342,24.5954905 40.8195924,24.8994196 40.887123,25.3134451 L40.887123,28.6940809 C40.887123,29.1546257 40.5154532,29.5279711 40.0569753,29.5279711" id="refresh" fill="#FFFFFF"></path>
                    <path d="M21.4636031,22.1818338 L9.8926895,22.1818338 C9.28291478,22.1818338 8.78859469,21.6852765 8.78859469,21.0727421 C8.78859469,20.4602077 9.28291478,19.9636504 9.8926895,19.9636504 L23.1418272,19.9636504 C23.365821,19.9714785 23.5818672,20.0489871 23.7601203,20.1854688 C25.8852346,18.7448766 28.3556769,17.9023503 30.9146547,17.745467 L30.9146547,4.43636676 C30.9146547,1.98622905 28.9373744,1.50027665e-16 26.4982755,0 L8.83275849,0 C6.39365958,-1.50027665e-16 4.41637924,1.98622905 4.41637924,4.43636676 L4.41637924,6.65455014 C2.01121711,6.73495975 0.0800473397,8.67486955 0,11.0909169 L0,26.6182006 C2.98703467e-16,29.0683383 1.97728034,31.0545673 4.41637924,31.0545673 L17.665517,31.0545673 C17.8802231,27.7467493 19.2213042,24.613841 21.4636031,22.1818338 Z" id="paper" fill="#6C7891"></path>
                    <path d="M8.83275849,5.54545845 C8.83275849,4.93292402 9.32707857,4.43636676 9.9368533,4.43636676 L14.3532325,4.43636676 C14.9630073,4.43636676 15.4573273,4.93292402 15.4573273,5.54545845 L15.4573273,9.98182521 C15.4573273,10.5943596 14.9630073,11.0909169 14.3532325,11.0909169 L9.9368533,11.0909169 C9.32707857,11.0909169 8.83275849,10.5943596 8.83275849,9.98182521 L8.83275849,5.54545845 Z" id="paper" fill="#FFFFFF"></path>
                    <path d="M9.8926895,15.5272837 L23.1418272,15.5272837 C23.751602,15.5272837 24.245922,16.0238409 24.245922,16.6363753 C24.245922,17.2489098 23.751602,17.745467 23.1418272,17.745467 L9.8926895,17.745467 C9.28291478,17.745467 8.78859469,17.2489098 8.78859469,16.6363753 C8.78859469,16.0238409 9.28291478,15.5272837 9.8926895,15.5272837 Z" id="paper" fill="#FFFFFF"></path>
                    <path d="M4.41637924,28.8363839 L3.95265942,28.8363839 C3.47823641,28.8247621 3.02785824,28.624225 2.70067611,28.2789209 C2.37349398,27.9336169 2.19633094,27.4718547 2.20818962,26.9952917 L2.20818962,10.6250984 C2.23216098,9.65015994 3.02598129,8.87243619 3.99682321,8.87273352 L4.41637924,8.87273352 L4.41637924,28.8363839 Z" id="paper" fill="#FFFFFF"></path>
                </g>
                <g id="Group-6" transform="translate(34.276986, 127.500000) scale(1, -1) translate(-34.276986, -127.500000) translate(9.214231, 101.000000)" fill-rule="nonzero">
                    <ellipse id="Oval" fill="#F29B98" transform="translate(6.015061, 47.000000) scale(1, -1) translate(-6.015061, -47.000000) " cx="6.01506139" cy="47" rx="6.01506139" ry="6"></ellipse>
                    <ellipse id="Oval" fill="#FAE64C" transform="translate(18.045184, 3.000000) scale(1, -1) translate(-18.045184, -3.000000) " cx="18.0451842" cy="3" rx="3.00753069" ry="3"></ellipse>
                    <ellipse id="Oval" fill="#CD5E8C" transform="translate(45.614216, 22.500000) scale(1, -1) translate(-45.614216, -22.500000) " cx="45.6142155" cy="22.5" rx="4.51129604" ry="4.5"></ellipse>
                </g>
                <g id="Group-8" transform="translate(192.162307, 73.000000) scale(1, -1) translate(-192.162307, -73.000000) translate(170.618378, 56.000000)" fill-rule="nonzero">
                    <ellipse id="Oval" fill="#FAE64C" cx="39.0778172" cy="30" rx="4.01004093" ry="4"></ellipse>
                    <ellipse id="Oval" fill="#F29B98" cx="31.1029195" cy="6" rx="6.01506139" ry="6"></ellipse>
                    <ellipse id="Oval" fill="#CD5E8C" cx="2.50627558" cy="31.5" rx="2.50627558" ry="2.5"></ellipse>
                </g>
            </g>
        </g>
    </g>
</svg>