<?xml version="1.0" encoding="UTF-8"?>
<svg width="226px" height="159px" viewBox="0 0 226 159" version="1.1" xmlns="http://www.w3.org/2000/svg" xmlns:xlink="http://www.w3.org/1999/xlink">
    <title>1C0FE984-176B-4C3F-ABB1-D398173C999E</title>
    <g id="âš ï¸--Nimbus-integration" stroke="none" stroke-width="1" fill="none" fill-rule="evenodd">
        <g id="Export-modal---Flows" transform="translate(-1119.000000, -194.000000)">
            <g id="success-process-document" transform="translate(1119.000000, 194.000000)">
                <path d="M77.5325282,5.23113001 C93.0910839,-3.40399864 110.272938,-1.34849544 129.07809,11.3976396 C157.285818,30.5168422 157.129619,47.5654074 192.090286,66.1594866 C227.050954,84.7535657 225.541516,129.390614 182.893931,142.37489 C140.246345,155.359167 63.3736221,179.434559 21.694188,124.786709 C-6.09210138,88.3548083 12.5206786,48.5029487 77.5325282,5.23113001 Z" id="bg" fill="#EEF4FF" fill-rule="nonzero"></path>
                <path d="M1.89718607,82.5853902 L2.19093421,82.747634 L2.5341445,82.9234205 L2.92687192,83.1127759 L3.36917147,83.3157263 L3.86109813,83.5322981 L4.59429311,83.8422945 L5.41594216,84.1766153 L6.56759057,84.6288172 L7.85790668,85.1192444 L9.28714508,85.6480184 L10.5307309,86.0987288 L12.563407,86.8210921 L14.7972309,87.5991991 L17.2326425,88.4332593 L19.8700817,89.3234827 C20.0222261,89.3745035 20.1753079,89.4257853 20.3293274,89.4773283 C21.143323,89.7497337 21.6967376,88.6584859 20.9944656,88.1657787 L19.150753,86.8768445 L17.749727,85.9042388 L16.0904666,84.7614576 L13.9384056,83.2973558 L12.2515685,82.1680552 L10.9564893,81.3152498 L9.99248076,80.6906153 L8.87713048,79.9816329 L7.86094934,79.3522166 L7.29863968,79.0126588 L6.60397465,78.6042483 L6.28017837,78.4190085 L5.8238168,78.1648125 L5.53908563,78.0111018 L5.26992606,77.8699761 L4.89531547,77.6818503 L4.55556607,77.5219542 L4.25057291,77.3902358 L4.06650132,77.3180523 L3.8977992,77.2583539 C3.87096124,77.2494437 3.84476238,77.2410532 3.81920197,77.2331818 L3.67349574,77.1921823 C0.155958302,76.306179 -1.58732922,80.5716155 1.89718607,82.5853902 Z" id="Path-2-Copy-5" fill="#6CBA90" fill-rule="nonzero"></path>
                <g id="Group-5-Copy" transform="translate(210.093191, 118.871887) scale(-1, 1) rotate(-60.000000) translate(-210.093191, -118.871887) translate(198.254479, 107.367697)" fill="#6CBA90" fill-rule="nonzero">
                    <path d="M2.70900752,10.8065002 L2.85511933,10.9439691 L3.01950552,11.0916862 L3.20217888,11.249662 L3.51050542,11.505884 L3.73895279,11.6895529 L4.11600038,11.9843638 L4.39030182,12.1937916 L4.83619056,12.5272905 L5.32344164,12.8840496 L6.22756051,13.5304341 L7.03380127,14.0942441 L8.14545243,14.8575232 L9.11797844,15.5150626 L10.4378104,16.3957704 L11.5771405,17.1474664 L13.7498182,18.5640106 L16.5122144,20.3409406 L17.6250888,21.050876 C18.2909391,21.4747606 19.0284434,20.6234982 18.5114811,20.0277602 L16.3736144,17.5776822 L14.6569268,15.6337604 L13.5180818,14.3589564 L12.4516062,13.1785472 L11.2668276,11.8862042 L10.5342421,11.0996259 L9.84724273,10.3728424 L9.05230264,9.54819818 L8.32790656,8.81640388 L7.79892583,8.29760407 L7.43154192,7.94726685 L7.20055065,7.73212848 L6.98067604,7.53170189 L6.67165466,7.25860155 L6.38750888,7.01848686 L6.21185758,6.87670143 L6.04720126,6.74952478 L5.89351558,6.63693633 L5.7507762,6.53891547 C5.72789714,6.52379148 5.70547317,6.50927362 5.68350377,6.49536145 L5.55713821,6.41915335 C5.53698508,6.40766224 5.51728551,6.39677598 5.49803899,6.38649412 C2.55572269,4.81465225 0.0478052377,8.23525953 2.70900752,10.8065002 Z" id="Path-2-Copy-3" transform="translate(10.133513, 13.576780) rotate(-14.000000) translate(-10.133513, -13.576780) "></path>
                    <path d="M11.2223324,4.86455758 L11.4196182,5.04657953 L11.659106,5.25218042 L11.8422489,5.40237889 L12.0442061,5.56310457 L12.3824695,5.82397335 L12.8995541,6.20882166 L13.4923131,6.63612216 L14.3399612,7.23017864 L15.1036651,7.75355447 L16.1655806,8.46818792 L17.1011673,9.08841158 L18.1134474,9.75192667 L19.7760731,10.8287045 L21.612301,12.0037464 C22.2781512,12.427631 23.0156556,11.5763686 22.4986932,10.9806306 L21.5292221,9.8672707 L20.3934938,8.57421321 L19.3415906,7.39013029 L18.1888365,6.11212977 L17.4860794,5.34619651 L16.8354438,4.64871497 L16.2365228,4.01934061 L15.6889091,3.45772888 L15.1921958,2.96353525 L14.8528192,2.63692589 L14.5416734,2.34790005 L14.2585865,2.09631238 L14.0033868,1.88201754 L13.8486619,1.75980076 L13.706204,1.6540509 L13.5759623,1.56472489 L13.457886,1.49177967 C13.4392176,1.4809848 13.4210539,1.47087067 13.403394,1.46143639 C11.1464669,0.255742615 9.19999337,2.91058345 11.2223324,4.86455758 Z" id="Path-2-Copy-4" transform="translate(16.523665, 6.638231) rotate(12.000000) translate(-16.523665, -6.638231) "></path>
                </g>
                <path d="M12.1691417,72.9369393 L12.2770974,73.0917674 L12.4026107,73.2619529 L12.6238456,73.5460818 L12.7933418,73.7547721 L13.0806462,74.0967778 L13.5255374,74.6069972 L14.1812314,75.3321843 L14.4745546,75.649536 L15.1145335,76.3311402 L16.0147152,77.2713472 L17.0265352,78.3099281 L18.6312394,79.9299679 L19.9122855,81.2062715 L21.5983547,82.8695125 C22.2102548,83.4702876 23.1872328,82.7314741 22.7725658,81.9815468 L21.8751818,80.3664728 L21.2298743,79.2159029 L20.6005203,78.1040634 L19.8132381,76.7302915 L19.2616373,75.7814279 L18.5779375,74.6248304 L18.1039572,73.8387524 L17.6632023,73.1223814 L17.2556484,72.4756824 L16.9218678,71.9602761 L16.6550803,71.5598022 L16.4064797,71.1981317 L16.175392,70.8746829 L15.9611434,70.5888737 L15.7630598,70.3401221 C15.5728341,70.1097054 15.4058452,69.9340021 15.2590601,69.8103935 C13.1326463,68.0197272 10.4616719,70.4035804 12.1691417,72.9369393 Z" id="Path-2-Copy-6" fill="#6CBA90" fill-rule="nonzero"></path>
                <g id="table" transform="translate(29.264435, 37.000000)">
                    <g id="spreadsheet">
                        <path d="M2.24841931,0 L159.038192,0 C160.27996,0 161.286612,0.990949671 161.286612,2.21334802 L161.286612,101.076226 C161.286612,102.298625 160.27996,103.289574 159.038192,103.289574 L2.24841931,103.289574 C1.00665161,103.289574 5.68434189e-14,102.298625 5.68434189e-14,101.076226 L5.68434189e-14,2.21334802 C5.68434189e-14,0.990949671 1.00665161,0 2.24841931,0 Z" id="Rectangle" fill="#FFFFFF"></path>
                        <g id="diagram" transform="translate(29.455952, 21.000000)" fill="#9EDCC5" fill-rule="nonzero">
                            <path d="M62.0652029,0 C62.6174877,-9.89631482e-16 63.0652029,0.44771525 63.0652029,1 L63.0652029,1 L63.0652029,16.0201613 C63.0652029,16.572446 62.6174877,17.0201613 62.0652029,17.0201613 L62.0652029,17.0201613 L53.3499255,17.0201613 L53.3499255,21.7234238 L59.6363836,21.7234238 C60.1886683,21.7234238 60.6363836,22.171139 60.6363836,22.7234238 L60.6363836,22.7234238 L60.6363836,30.4492302 C60.6363836,31.001515 60.1886683,31.4492302 59.6363836,31.4492302 L59.6363836,31.4492302 L53.3499255,31.4492302 L53.3499255,34.7176169 L62.7873513,40.6220018 C62.9158223,40.7023778 63.0243455,40.810901 63.1047215,40.939372 C63.3976456,41.4075748 63.2555541,42.0245902 62.7873513,42.3175143 L62.7873513,42.3175143 L53.3499255,48.2218992 L53.3499255,54.8427419 L60.6363836,54.8427419 C62.6450172,54.8427419 64.2796126,56.4791089 64.2796126,58.4899194 L64.2796126,58.4899194 L64.2796126,63.3528226 C64.2796126,65.3636331 62.6450172,67 60.6363836,67 L60.6363836,67 L43.6346481,67 C41.6260145,67 39.9914191,65.3636331 39.9914191,63.3528226 L39.9914191,63.3528226 L39.9914191,58.4899194 C39.9914191,56.4791089 41.6260145,54.8427419 43.6346481,54.8427419 L43.6346481,54.8427419 L50.9211062,54.8427419 L50.9211062,48.2218992 L41.4836804,42.3175143 C41.3552094,42.2371383 41.2466862,42.1286151 41.1663102,42.0001441 C40.8733861,41.5319413 41.0154776,40.914926 41.4836804,40.6220018 L41.4836804,40.6220018 L50.9211062,34.7176169 L50.9211062,31.4492302 L44.6346481,31.4492302 C44.0823634,31.4492302 43.6346481,31.001515 43.6346481,30.4492302 L43.6346481,30.4492302 L43.6346481,27.8020528 L22.4953384,27.8020528 C21.8239116,27.8020528 21.2796126,27.2577538 21.2796126,26.586327 C21.2796126,25.9149002 21.8239116,25.3706012 22.4953384,25.3706012 L22.4953384,25.3706012 L43.6346481,25.3706012 L43.6346481,22.7234238 C43.6346481,22.171139 44.0823634,21.7234238 44.6346481,21.7234238 L44.6346481,21.7234238 L50.9211062,21.7234238 L50.9211062,17.0201613 L42.2058288,17.0201613 C41.653544,17.0201613 41.2058288,16.572446 41.2058288,16.0201613 L41.2058288,16.0201613 L41.2058288,1 C41.2058288,0.44771525 41.653544,1.01453063e-16 42.2058288,0 L42.2058288,0 Z M9.92538899,36 C10.5965579,36 11.1406478,36.5440899 11.1406478,37.2152588 L11.1406478,37.2152588 L11.1406478,57.881457 C12.169972,58.2475078 12.9805496,59.0559709 13.3475577,60.08261 L13.3475577,60.08261 L31.627602,60.08261 L29.550895,58.0113204 C29.5502786,58.0107055 29.5496629,58.0100899 29.5490481,58.0094734 C29.1590341,57.6184394 29.159861,56.985275 29.550895,56.5952611 L29.550895,56.5952611 L29.8532068,56.2937379 C30.2435188,55.9044441 30.8752602,55.9044441 31.2655722,56.2937379 L31.2655722,56.2937379 L36.2796126,61.2946987 L31.2655722,66.2956595 C30.8752602,66.6849532 30.2435188,66.6849532 29.8532068,66.2956595 L29.8532068,66.2956595 L29.550895,65.9941363 C29.5502786,65.9935214 29.5496629,65.9929058 29.5490481,65.9922893 C29.1590341,65.6012553 29.159861,64.9680909 29.550895,64.578077 L29.550895,64.578077 L31.627602,62.5067873 L13.3475577,62.5067873 C12.8444406,63.9140223 11.5076559,64.9309647 9.92538899,64.9309647 C7.91535095,64.9309647 6.27961262,63.2994933 6.27961262,61.2946987 C6.27961262,59.7165592 7.29921474,58.3832617 8.7101302,57.881457 L8.7101302,57.881457 L8.7101302,37.2152588 C8.7101302,36.5440899 9.25422009,36 9.92538899,36 Z M95.7062072,5 C97.6763447,5 99.2796126,6.62363776 99.2796126,8.6188063 C99.2796126,10.1893682 98.2802502,11.5162639 96.8973423,12.0156592 L96.8973423,12.0156592 L96.8973423,37.9252401 C98.2802502,38.4246353 99.2796126,39.751531 99.2796126,41.3220929 C99.2796126,43.3172615 97.6763447,44.9408992 95.7062072,44.9408992 C94.1553492,44.9408992 92.8451005,43.9288397 92.3519706,42.5283617 L92.3519706,42.5283617 L72.3345155,42.5283617 L74.3719743,44.5917068 C74.756566,44.9811848 74.756566,45.6074871 74.3719743,45.9969651 L74.3719743,45.9969651 L74.0930796,46.2794033 C74.0901227,46.2823978 74.0871469,46.2853735 74.0841525,46.2883304 C73.6911709,46.6763817 73.0580185,46.672385 72.6699671,46.2794033 L72.6699671,46.2794033 L67.7748502,41.3220929 L72.6699662,36.3658366 C72.6728985,36.3628677 72.6758493,36.3599172 72.6788186,36.3569852 C73.0718002,35.9689338 73.7049526,35.9729306 74.093004,36.3659122 L74.093004,36.3659122 L74.3719743,36.648427 C74.756566,37.037905 74.756566,37.6642073 74.3719743,38.0536853 L74.3719743,38.0536853 L72.3345155,40.1170304 L92.3519706,40.1170304 C92.7116934,39.0953208 93.5061805,38.2907395 94.515072,37.9264463 L94.515072,37.9264463 L94.515072,12.0156592 C93.5061805,11.651366 92.7116934,10.8467847 92.3519706,9.82507507 L92.3519706,9.82507507 L66.4858814,9.82507507 C65.8196775,9.82507507 65.2796126,9.28501015 65.2796126,8.6188063 C65.2796126,7.95260246 65.8196775,7.41253754 66.4858814,7.41253754 L66.4858814,7.41253754 L92.3519706,7.41253754 C92.8451005,6.0120595 94.1553492,5 95.7062072,5 Z M9.19837443,19.4151701 C9.54607195,19.1668148 10.0131533,19.1668148 10.3608508,19.4151701 L10.3608508,19.4151701 L19.1403858,25.6862665 C19.2301813,25.7504062 19.3087414,25.8289663 19.372881,25.9187618 C19.69389,26.3681744 19.5897983,26.9927245 19.1403858,27.3137335 L19.1403858,27.3137335 L10.3608508,33.5848299 C10.0131533,33.8331852 9.54607195,33.8331852 9.19837443,33.5848299 L9.19837443,33.5848299 L0.418839479,27.3137335 C0.329043957,27.2495938 0.250483859,27.1710337 0.186344201,27.0812382 C-0.134664789,26.6318256 -0.030573108,26.0072755 0.418839479,25.6862665 L0.418839479,25.6862665 Z" id="Combined-Shape"></path>
                        </g>
                        <path d="M2.95284832,0 L159.453809,0 C161.084622,0 162.406657,1.32126622 162.406657,2.9511307 L162.406657,11.8045228 L162.406657,11.8045228 L5.68434189e-14,11.8045228 L5.68434189e-14,2.9511307 C5.68434189e-14,1.32126622 1.32203522,0 2.95284832,0 Z" id="Rectangle" fill="#9B9FA9" fill-rule="nonzero"></path>
                    </g>
                    <path d="M2.24841931,0 L159.038192,0 C160.27996,0 161.286612,0.990949671 161.286612,2.21334802 L161.286612,101.076226 C161.286612,102.298625 160.27996,103.289574 159.038192,103.289574 L2.24841931,103.289574 C1.00665161,103.289574 5.68434189e-14,102.298625 5.68434189e-14,101.076226 L5.68434189e-14,2.21334802 C5.68434189e-14,0.990949671 1.00665161,0 2.24841931,0 Z" id="Rectangle-Copy" stroke="#9B9FA9" stroke-width="3" stroke-linecap="round"></path>
                </g>
                <g id="Group" transform="translate(152.000000, 100.000000)" stroke="#FFFFFF">
                    <ellipse id="Oval" stroke-width="3" fill="#039145" cx="28.5715416" cy="28.5" rx="27.0715416" ry="27"></ellipse>
                    <path d="M25.0949942,33.0999931 L37.3727132,20.5394033 C37.9127105,19.9869648 38.7994288,19.9757831 39.3532541,20.5144282 C39.9070793,21.0530734 39.9182891,21.9375714 39.3782918,22.4900099 L26.1214437,36.0522874 C25.5809087,36.6052759 24.6931071,36.6158478 24.139492,36.0758883 L17.2281931,29.3350655 C16.6751287,28.7956431 16.6651673,27.9111302 17.2059438,27.3594506 C17.7467202,26.807771 18.6334535,26.7978346 19.1865179,27.337257 L25.0949942,33.0999931 Z" id="ðŸŽ¨-Color" stroke-width="1.5" fill="#FFFFFF"></path>
                </g>
                <g id="Group-6" transform="translate(34.276986, 127.500000) scale(1, -1) translate(-34.276986, -127.500000) translate(9.214231, 101.000000)" fill-rule="nonzero">
                    <ellipse id="Oval" fill="#96B3E2" transform="translate(6.015061, 47.000000) scale(1, -1) translate(-6.015061, -47.000000) " cx="6.01506139" cy="47" rx="6.01506139" ry="6"></ellipse>
                    <ellipse id="Oval" fill="#70E7B0" transform="translate(18.045184, 3.000000) scale(1, -1) translate(-18.045184, -3.000000) " cx="18.0451842" cy="3" rx="3.00753069" ry="3"></ellipse>
                    <ellipse id="Oval" fill="#60CD4C" transform="translate(45.614216, 22.500000) scale(1, -1) translate(-45.614216, -22.500000) " cx="45.6142155" cy="22.5" rx="4.51129604" ry="4.5"></ellipse>
                </g>
                <g id="Group-8" transform="translate(192.162307, 73.000000) scale(1, -1) translate(-192.162307, -73.000000) translate(170.618378, 56.000000)" fill-rule="nonzero">
                    <ellipse id="Oval" fill="#70E7B0" cx="39.0778172" cy="30" rx="4.01004093" ry="4"></ellipse>
                    <ellipse id="Oval" fill="#96B3E2" cx="31.1029195" cy="6" rx="6.01506139" ry="6"></ellipse>
                    <ellipse id="Oval" fill="#60CD4C" cx="2.50627558" cy="31.5" rx="2.50627558" ry="2.5"></ellipse>
                </g>
            </g>
        </g>
    </g>
</svg>