<?xml version="1.0" encoding="UTF-8"?>
<svg width="226px" height="159px" viewBox="0 0 226 159" version="1.1" xmlns="http://www.w3.org/2000/svg" xmlns:xlink="http://www.w3.org/1999/xlink">
    <title>14D6FE12-6747-4E69-9F33-31FBF28E767A</title>
    <g id="âš ï¸-Wizards" stroke="none" stroke-width="1" fill="none" fill-rule="evenodd">
        <g id="Dataset-confirmation-and-loading" transform="translate(-1208.000000, -2281.000000)">
            <g id="success-image" transform="translate(1208.000000, 2281.000000)">
                <path d="M77.5325282,5.23113001 C93.0910839,-3.40399864 110.272938,-1.34849544 129.07809,11.3976396 C157.285818,30.5168422 157.129619,47.5654074 192.090286,66.1594866 C227.050954,84.7535657 225.541516,129.390614 182.893931,142.37489 C140.246345,155.359167 63.3736221,179.434559 21.694188,124.786709 C-6.09210138,88.3548083 12.5206786,48.5029487 77.5325282,5.23113001 Z" id="bg" fill="#EEF4FF" fill-rule="nonzero"></path>
                <path d="M1.89718607,82.5853902 L2.19093421,82.747634 L2.5341445,82.9234205 L2.92687192,83.1127759 L3.36917147,83.3157263 L3.86109813,83.5322981 L4.59429311,83.8422945 L5.41594216,84.1766153 L6.56759057,84.6288172 L7.85790668,85.1192444 L9.28714508,85.6480184 L10.5307309,86.0987288 L12.563407,86.8210921 L14.7972309,87.5991991 L17.2326425,88.4332593 L19.8700817,89.3234827 C20.0222261,89.3745035 20.1753079,89.4257853 20.3293274,89.4773283 C21.143323,89.7497337 21.6967376,88.6584859 20.9944656,88.1657787 L19.150753,86.8768445 L17.749727,85.9042388 L16.0904666,84.7614576 L13.9384056,83.2973558 L12.2515685,82.1680552 L10.9564893,81.3152498 L9.99248076,80.6906153 L8.87713048,79.9816329 L7.86094934,79.3522166 L7.29863968,79.0126588 L6.60397465,78.6042483 L6.28017837,78.4190085 L5.8238168,78.1648125 L5.53908563,78.0111018 L5.26992606,77.8699761 L4.89531547,77.6818503 L4.55556607,77.5219542 L4.25057291,77.3902358 L4.06650132,77.3180523 L3.8977992,77.2583539 C3.87096124,77.2494437 3.84476238,77.2410532 3.81920197,77.2331818 L3.67349574,77.1921823 C0.155958302,76.306179 -1.58732922,80.5716155 1.89718607,82.5853902 Z" id="Path-2-Copy-5" fill="#6CBA90" fill-rule="nonzero"></path>
                <g id="Group-5-Copy" transform="translate(210.094485, 118.872150) scale(-1, 1) rotate(-60.000000) translate(-210.094485, -118.872150) translate(198.252039, 107.372150)" fill="#6CBA90" fill-rule="nonzero">
                    <path d="M2.71361564,10.8032991 L2.85972745,10.940768 L3.02411364,11.0884851 L3.206787,11.2464609 L3.51511354,11.5026829 L3.74356091,11.6863518 L4.1206085,11.9811627 L4.39490994,12.1905906 L4.84079868,12.5240894 L5.32804976,12.8808485 L6.23216863,13.527233 L7.03840939,14.091043 L8.15006055,14.8543221 L9.12258656,15.5118615 L10.4424185,16.3925693 L11.5817486,17.1442653 L13.7544263,18.5608095 L16.5168225,20.3377395 L17.629697,21.0476749 C18.2955472,21.4715595 19.0330516,20.6202971 18.5160892,20.0245591 L16.3782225,17.5744811 L14.6615349,15.6305593 L13.5226899,14.3557553 L12.4562143,13.1753461 L11.2714358,11.8830031 L10.5388502,11.0964248 L9.85185085,10.3696413 L9.05691076,9.54499708 L8.33251468,8.81320279 L7.80353395,8.29440298 L7.43615004,7.94406576 L7.20515877,7.72892738 L6.98528416,7.5285008 L6.67626278,7.25540046 L6.392117,7.01528576 L6.2164657,6.87350033 L6.05180938,6.74632369 L5.8981237,6.63373523 L5.75538432,6.53571437 C5.73250526,6.52059038 5.71008129,6.50607252 5.68811189,6.49216035 L5.56174633,6.41595225 C5.5415932,6.40446115 5.52189363,6.39357488 5.50264711,6.38329302 C2.56033081,4.81145115 0.0524133585,8.23205843 2.71361564,10.8032991 Z" id="Path-2-Copy-3" transform="translate(10.138121, 13.573579) rotate(-14.000000) translate(-10.138121, -13.573579) "></path>
                    <path d="M11.2269406,4.86135649 L11.4242263,5.04337843 L11.6637142,5.24897933 L11.846857,5.39917779 L12.0488142,5.55990347 L12.3870777,5.82077225 L12.9041622,6.20562056 L13.4969212,6.63292106 L14.3445693,7.22697754 L15.1082732,7.75035338 L16.1701887,8.46498683 L17.1057754,9.08521048 L18.1180556,9.74872557 L19.7806812,10.8255034 L21.6169091,12.0005453 C22.2827593,12.4244299 23.0202637,11.5731675 22.5033014,10.9774295 L21.5338303,9.86406961 L20.3981019,8.57101211 L19.3461987,7.3869292 L18.1934446,6.10892867 L17.4906875,5.34299542 L16.840052,4.64551388 L16.2411309,4.01613951 L15.6935172,3.45452778 L15.1968039,2.96033415 L14.8574273,2.63372479 L14.5462815,2.34469895 L14.2631946,2.09311129 L14.007995,1.87881644 L13.85327,1.75659967 L13.7108121,1.65084981 L13.5805705,1.5615238 L13.4624942,1.48857857 C13.4438257,1.47778371 13.4256621,1.46766958 13.4080021,1.45823529 C11.1510751,0.252541519 9.20460149,2.90738235 11.2269406,4.86135649 Z" id="Path-2-Copy-4" transform="translate(16.528273, 6.635030) rotate(12.000000) translate(-16.528273, -6.635030) "></path>
                </g>
                <path d="M12.1691417,72.9369393 L12.2770974,73.0917674 L12.4026107,73.2619529 L12.6238456,73.5460818 L12.7933418,73.7547721 L13.0806462,74.0967778 L13.5255374,74.6069972 L14.1812314,75.3321843 L14.4745546,75.649536 L15.1145335,76.3311402 L16.0147152,77.2713472 L17.0265352,78.3099281 L18.6312394,79.9299679 L19.9122855,81.2062715 L21.5983547,82.8695125 C22.2102548,83.4702876 23.1872328,82.7314741 22.7725658,81.9815468 L21.8751818,80.3664728 L21.2298743,79.2159029 L20.6005203,78.1040634 L19.8132381,76.7302915 L19.2616373,75.7814279 L18.5779375,74.6248304 L18.1039572,73.8387524 L17.6632023,73.1223814 L17.2556484,72.4756824 L16.9218678,71.9602761 L16.6550803,71.5598022 L16.4064797,71.1981317 L16.175392,70.8746829 L15.9611434,70.5888737 L15.7630598,70.3401221 C15.5728341,70.1097054 15.4058452,69.9340021 15.2590601,69.8103935 C13.1326463,68.0197272 10.4616719,70.4035804 12.1691417,72.9369393 Z" id="Path-2-Copy-6" fill="#6CBA90" fill-rule="nonzero"></path>
                <g id="table" transform="translate(29.264435, 37.000000)">
                    <g id="Group-3-Copy" transform="translate(-0.000000, -0.000000)">
                        <g id="image-generic-error@1.5x-(1)" transform="translate(-0.000000, -0.000000)">
                            <g id="computer" transform="translate(-0.000000, -0.000000)">
                                <g id="spreadsheet" transform="translate(-0.000000, -0.000000)">
                                    <path d="M2.24841931,-4.7763502e-14 L159.038192,-4.7763502e-14 C160.27996,-4.7763502e-14 161.286612,0.990949671 161.286612,2.21334802 L161.286612,101.076226 C161.286612,102.298625 160.27996,103.289574 159.038192,103.289574 L2.24841931,103.289574 C1.00665161,103.289574 0,102.298625 0,101.076226 L0,2.21334802 C0,0.990949671 1.00665161,-4.7763502e-14 2.24841931,-4.7763502e-14 Z" id="Rectangle" fill="#FFFFFF"></path>
                                    <path d="M5.09337912e-12,9.56381769 L32.4813315,9.56381769 L32.4813315,104 L5.90569664,104 C2.64407045,104 5.09337912e-12,101.357468 5.09337912e-12,98.0977386 L5.09337912e-12,9.56381769 L5.09337912e-12,9.56381769 Z" id="Rectangle" fill="#E7E7E7" fill-rule="nonzero"></path>
                                    <path d="M85.6386129,-46.5454532 L106.296528,-46.5454532 L106.296528,83.3798728 L91.5408743,83.3798728 C88.2811453,83.3798728 85.6386129,80.7358023 85.6386129,77.4741761 L85.6386129,-46.5454532 L85.6386129,-46.5454532 Z" id="Rectangle-Copy-7" fill="#E7E7E7" fill-rule="nonzero" transform="translate(95.967570, 18.417210) rotate(90.000000) translate(-95.967570, -18.417210) "></path>
                                    <rect id="Rectangle-Copy-8" fill="#DADCDB" fill-rule="nonzero" x="32.4813315" y="9.56381769" width="2.95284832" height="94.4361823"></rect>
                                    <rect id="Rectangle-Copy-9" fill="#DADCDB" fill-rule="nonzero" x="5.09337912e-12" y="27.2706019" width="162.406657" height="2.9511307"></rect>
                                    <rect id="Rectangle-Copy-10" fill="#DADCDB" fill-rule="nonzero" x="5.09337912e-12" y="44.9773861" width="162.406657" height="2.9511307"></rect>
                                    <rect id="Rectangle-Copy-11" fill="#DADCDB" fill-rule="nonzero" x="5.09337912e-12" y="65.6353009" width="162.406657" height="2.9511307"></rect>
                                    <rect id="Rectangle-Copy-12" fill="#DADCDB" fill-rule="nonzero" x="5.09337912e-12" y="83.3420851" width="162.406657" height="2.9511307"></rect>
                                    <rect id="Rectangle-Copy-13" fill="#DADCDB" fill-rule="nonzero" x="64.962663" y="9.56381769" width="2.95284832" height="94.4361823"></rect>
                                    <rect id="Rectangle-Copy-14" fill="#DADCDB" fill-rule="nonzero" x="94.4911462" y="9.56381769" width="2.95284832" height="94.4361823"></rect>
                                    <rect id="Rectangle-Copy-15" fill="#DADCDB" fill-rule="nonzero" x="126.972478" y="9.56381769" width="2.95284832" height="94.4361823"></rect>
                                    <path d="M2.95284832,-5.32907052e-14 L159.453809,-5.32907052e-14 C161.084622,-5.32907052e-14 162.406657,1.32126622 162.406657,2.9511307 L162.406657,11.8045228 L162.406657,11.8045228 L-1.85204854e-13,11.8045228 L-1.85204854e-13,2.9511307 C-1.85204854e-13,1.32126622 1.32203522,-5.32907052e-14 2.95284832,-5.32907052e-14 Z" id="Rectangle" fill="#9B9FA9" fill-rule="nonzero"></path>
                                </g>
                            </g>
                        </g>
                        <g id="Group" transform="translate(52.130532, 28.000000)" stroke="#FFFFFF">
                            <ellipse id="Oval" stroke-width="3" fill="#039145" cx="28.5715416" cy="28.5" rx="27.0715416" ry="27"></ellipse>
                            <path d="M25.0949942,33.0999931 L37.3727132,20.5394033 C37.9127105,19.9869648 38.7994288,19.9757831 39.3532541,20.5144282 C39.9070793,21.0530734 39.9182891,21.9375714 39.3782918,22.4900099 L26.1214437,36.0522874 C25.5809087,36.6052759 24.6931071,36.6158478 24.139492,36.0758883 L17.2281931,29.3350655 C16.6751287,28.7956431 16.6651673,27.9111302 17.2059438,27.3594506 C17.7467202,26.807771 18.6334535,26.7978346 19.1865179,27.337257 L25.0949942,33.0999931 Z" id="ðŸŽ¨-Color" stroke-width="1.5" fill="#FFFFFF"></path>
                        </g>
                    </g>
                    <path d="M2.24841931,-9.9475983e-14 L159.038192,-9.9475983e-14 C160.27996,-9.9475983e-14 161.286612,0.990949671 161.286612,2.21334802 L161.286612,101.076226 C161.286612,102.298625 160.27996,103.289574 159.038192,103.289574 L2.24841931,103.289574 C1.00665161,103.289574 -2.84930545e-14,102.298625 -2.84930545e-14,101.076226 L-2.84930545e-14,2.21334802 C-2.84930545e-14,0.990949671 1.00665161,-9.9475983e-14 2.24841931,-9.9475983e-14 Z" id="Rectangle-Copy" stroke="#9B9FA9" stroke-width="3" stroke-linecap="round"></path>
                </g>
                <g id="Group-6" transform="translate(34.276986, 127.500000) scale(1, -1) translate(-34.276986, -127.500000) translate(9.214231, 101.000000)" fill-rule="nonzero">
                    <ellipse id="Oval" fill="#96B3E2" transform="translate(6.015061, 47.000000) scale(1, -1) translate(-6.015061, -47.000000) " cx="6.01506139" cy="47" rx="6.01506139" ry="6"></ellipse>
                    <ellipse id="Oval" fill="#70E7B0" transform="translate(18.045184, 3.000000) scale(1, -1) translate(-18.045184, -3.000000) " cx="18.0451842" cy="3" rx="3.00753069" ry="3"></ellipse>
                    <ellipse id="Oval" fill="#60CD4C" transform="translate(45.614216, 22.500000) scale(1, -1) translate(-45.614216, -22.500000) " cx="45.6142155" cy="22.5" rx="4.51129604" ry="4.5"></ellipse>
                </g>
                <g id="Group-8" transform="translate(194.177368, 63.000000) scale(1, -1) translate(-194.177368, -63.000000) translate(170.618378, 40.000000)" fill-rule="nonzero">
                    <ellipse id="Oval" fill="#70E7B0" cx="31.0778172" cy="42" rx="4.01004093" ry="4"></ellipse>
                    <ellipse id="Oval" fill="#96B3E2" cx="41.1029195" cy="6" rx="6.01506139" ry="6"></ellipse>
                    <ellipse id="Oval" fill="#4FA546" cx="2.50627558" cy="27.5" rx="2.50627558" ry="2.5"></ellipse>
                </g>
            </g>
        </g>
    </g>
</svg>