<svg width="220px" height="40px" viewBox="0 0 220 40" version="1.1" xmlns="http://www.w3.org/2000/svg" xmlns:xlink="http://www.w3.org/1999/xlink">
  <g id="Symbols" stroke="none" stroke-width="1" fill="none" fill-rule="evenodd">
    <g id="Group" fill="#FFFFFF">
      <path d="M29.8769822,9.47420378 L29.0204136,11.7783982 L28.6369768,11.7783982 L27.7754054,9.46955823 L27.7439585,11.8209229 L27.3701702,11.8209229 L27.4641533,9 L27.9733774,9 L28.8395944,11.3188458 L29.7008085,9 L30.2014562,9 L30.2918658,11.8209229 L29.9059275,11.8209229 L29.8769822,9.47420378 Z M26.0115245,9.36092375 L26.0115245,11.8209229 L25.6352347,11.8209229 L25.6352347,9.36092375 L24.6482333,9.36092375 L24.6482333,9 L26.9985259,9 L26.9985259,9.36092375 L26.0115245,9.36092375 Z M8.68039487,26.605932 L17.6870505,26.605932 L22.1864475,18.809979 L17.6870505,11.0065216 L8.68039487,11.0065216 L4.18064055,18.809979 L8.68039487,26.605932 Z M23.225622,30.0143387 L28.8127931,30.0143387 L31.6044133,25.1779604 L28.8127931,20.3369366 L23.225622,20.3369366 L20.4343592,25.1779604 L23.225622,30.0143387 Z M1.32898557,27.7819717 L3.98981552,27.7819717 L5.31915844,25.4788493 L3.98981552,23.1735829 L1.32898557,23.1735829 L1.77635684e-14,25.4788493 L1.32898557,27.7819717 Z M199.601197,14.8337428 L199.601197,26.393666 L202.952785,26.393666 C206.523071,26.393666 208.854782,23.9897708 208.854782,20.6621253 L208.854782,20.6138831 C208.854782,17.2865949 206.523071,14.8337428 202.952785,14.8337428 L199.601197,14.8337428 Z M196.614106,12.1132354 L202.952785,12.1132354 C208.295886,12.1132354 211.987314,15.780721 211.987314,20.5652834 L211.987314,20.6138831 C211.987314,25.3980882 208.295886,29.1141734 202.952785,29.1141734 L196.614106,29.1141734 L196.614106,12.1132354 Z M177.961853,21.9010587 L177.961853,12.1132354 L180.948944,12.1132354 L180.948944,21.7795596 C180.948944,24.936749 182.576317,26.6127217 185.24751,26.6127217 C187.89476,26.6127217 189.522133,25.0339483 189.522133,21.9010587 L189.522133,12.1132354 L192.509581,12.1132354 L192.509581,21.7552597 C192.509581,26.8310627 189.643632,29.3814714 185.199267,29.3814714 C180.778845,29.3814714 177.961853,26.8310627 177.961853,21.9010587 L177.961853,21.9010587 Z M171.476661,20.6621253 L171.476661,20.6138831 C171.476661,17.3105374 169.072408,14.5664448 165.69652,14.5664448 C162.320633,14.5664448 159.96498,17.2622951 159.96498,20.5652834 L159.96498,20.6138831 C159.96498,23.9168714 162.369232,26.6366641 165.74512,26.6366641 C169.12065,26.6366641 171.476661,23.965471 171.476661,20.6621253 L171.476661,20.6621253 Z M156.83209,20.6621253 L156.83209,20.6138831 C156.83209,15.8293206 160.523518,11.8219949 165.74512,11.8219949 C170.966722,11.8219949 174.609908,15.780721 174.609908,20.5652834 L174.609908,20.6138831 C174.609908,25.3980882 170.918122,29.4054139 165.69652,29.4054139 C160.474918,29.4054139 156.83209,25.4466878 156.83209,20.6621253 L156.83209,20.6621253 Z M143.522937,12.1132354 L146.510028,12.1132354 L146.510028,26.393666 L155.447715,26.393666 L155.447715,29.1141734 L143.522937,29.1141734 L143.522937,12.1132354 Z M124.846384,20.6621253 L124.846384,20.6138831 C124.846384,15.780721 128.464913,11.8219949 133.613615,11.8219949 C136.746862,11.8219949 138.640818,12.9151293 140.268191,14.4692455 L138.349578,16.6794568 C136.989503,15.4165811 135.532229,14.5664448 133.589673,14.5664448 C130.359584,14.5664448 127.979274,17.2379953 127.979274,20.5652834 L127.979274,20.6138831 C127.979274,23.9411712 130.334927,26.6366641 133.589673,26.6366641 C135.678027,26.6366641 137.01416,25.8111851 138.471077,24.45111 L140.38969,26.393666 C138.616876,28.2397373 136.673963,29.4054139 133.492116,29.4054139 C128.537812,29.4054139 124.846384,25.5438871 124.846384,20.6621253 L124.846384,20.6621253 Z M111.561174,20.6621253 L111.561174,20.6138831 C111.561174,17.3105374 109.156921,14.5664448 105.781034,14.5664448 C102.405146,14.5664448 100.049493,17.2622951 100.049493,20.5652834 L100.049493,20.6138831 C100.049493,23.9168714 102.453745,26.6366641 105.829633,26.6366641 C109.205164,26.6366641 111.561174,23.965471 111.561174,20.6621253 L111.561174,20.6621253 Z M96.9166034,20.6621253 L96.9166034,20.6138831 C96.9166034,15.8293206 100.608031,11.8219949 105.829633,11.8219949 C111.051235,11.8219949 114.694421,15.780721 114.694421,20.5652834 L114.694421,20.6138831 C114.694421,25.3980882 111.002635,29.4054139 105.781034,29.4054139 C100.559432,29.4054139 96.9166034,25.4466878 96.9166034,20.6621253 L96.9166034,20.6621253 Z M79.4782686,20.6621253 L79.4782686,20.6138831 C79.4782686,15.780721 83.0967972,11.8219949 88.2454996,11.8219949 C91.3787466,11.8219949 93.2727029,12.9151293 94.9000759,14.4692455 L92.9814625,16.6794568 C91.6213874,15.4165811 90.1641131,14.5664448 88.2215572,14.5664448 C84.9914683,14.5664448 82.6111583,17.2379953 82.6111583,20.5652834 L82.6111583,20.6138831 C82.6111583,23.9411712 84.9668111,26.6366641 88.2215572,26.6366641 C90.309912,26.6366641 91.6460446,25.8111851 93.1029615,24.45111 L95.021575,26.393666 C93.2487604,28.2397373 91.3058471,29.4054139 88.1240005,29.4054139 C83.1696967,29.4054139 79.4782686,25.5438871 79.4782686,20.6621253 L79.4782686,20.6621253 Z M70.3708402,21.8038594 L65.6348774,21.8038594 L65.6348774,26.4669228 L70.5891812,26.4669228 C72.6292938,26.4669228 73.8682271,25.6653862 73.8682271,24.1352124 L73.8682271,24.0866128 C73.8682271,22.6539956 72.7264931,21.8038594 70.3708402,21.8038594 L70.3708402,21.8038594 Z M72.9205342,16.922455 C72.9205342,15.5863224 71.852057,14.7608433 69.9334435,14.7608433 L65.6348774,14.7608433 L65.6348774,19.2781078 L69.7151025,19.2781078 C71.633716,19.2781078 72.9205342,18.5251709 72.9205342,16.9706973 L72.9205342,16.922455 Z M62.6960289,12.1132354 L70.3222406,12.1132354 C72.2647965,12.1132354 73.7953276,12.6478313 74.7666056,13.6191093 C75.5195426,14.3724036 75.9079823,15.295082 75.9079823,16.4364587 L75.9079823,16.4850583 C75.9079823,18.5251709 74.7423058,19.6179479 73.47943,20.2736856 C75.470943,20.9540805 76.8553178,22.0950998 76.8553178,24.4025104 L76.8553178,24.45111 C76.8553178,27.4868004 74.3535087,29.1141734 70.5648814,29.1141734 L62.6960289,29.1141734 L62.6960289,12.1132354 Z M55.1677313,29.1138161 L58.154822,29.1138161 L58.154822,12.1132354 L55.1677313,12.1132354 L55.1677313,29.1138161 Z M43.4366373,14.8823424 L38.0452941,14.8823424 L38.0452941,12.1132354 L51.8397284,12.1132354 L51.8397284,14.8823424 L46.4480279,14.8823424 L46.4480279,29.1141734 L43.4366373,29.1141734 L43.4366373,14.8823424 Z M217.830348,9.47420378 L216.973779,11.7783982 L216.590343,11.7783982 L215.728771,9.46955823 L215.697324,11.8209229 L215.323536,11.8209229 L215.417519,9 L215.926743,9 L216.79296,11.3188458 L217.654174,9 L218.154822,9 L218.245232,11.8209229 L217.859293,11.8209229 L217.830348,9.47420378 Z M213.96489,9.36092375 L213.96489,11.8209229 L213.588601,11.8209229 L213.588601,9.36092375 L212.601599,9.36092375 L212.601599,9 L214.951892,9 L214.951892,9.36092375 L213.96489,9.36092375 Z" id="Foundations/branding-asset/gnh-white/cloud"></path>
    </g>
  </g>
</svg>
