<svg xmlns="http://www.w3.org/2000/svg" width="24" height="24" viewBox="0 0 24 24"><defs><style>.a{fill:#fff;}.b{fill:#6186fe;}.c{fill:#f37961;}.d{fill:#f6a35e;}</style></defs><g transform="translate(-1074 14)"><g transform="translate(-91 -37)"><rect class="a" width="24" height="24" transform="translate(1165 23)"/><g transform="translate(1163.5 21.2)"><g transform="translate(4.5 4.8)"><g transform="translate(8.274 8.561)"><rect class="b" width="0.32" height="7.1" transform="translate(0 0.32) rotate(-87.678)"/></g><g transform="translate(8.121 2.225)"><rect class="b" width="6.607" height="0.318" transform="translate(0 6.456) rotate(-77.702)"/></g><g transform="translate(10.145 3.387)"><rect class="b" width="0.316" height="10.85" transform="matrix(0.93, -0.367, 0.367, 0.93, 0, 0.118)"/></g><g transform="translate(8.256 8.603)"><path class="b" d="M0,0H.32l0,7.2H0Z" transform="translate(0 0.231) rotate(-46.021)"/></g><g transform="translate(3.825 8.463)"><rect class="b" width="5.121" height="0.318" transform="matrix(0.873, -0.487, 0.487, 0.873, 0, 2.498)"/></g><g transform="translate(5.288 5.991)"><path class="b" d="M0,0H.32l0,3.882H0Z" transform="translate(0 0.238) rotate(-47.934)"/></g><ellipse class="c" cx="1.62" cy="1.622" rx="1.62" ry="1.622" transform="translate(6.66 7.088)"/><ellipse class="b" cx="1.26" cy="1.261" rx="1.26" ry="1.261" transform="translate(3.618 4.525)"/><ellipse class="d" cx="1" cy="1.001" rx="1" ry="1.001" transform="translate(6.12 13.838)"/><ellipse class="d" cx="2" cy="2.002" rx="2" ry="2.002" transform="translate(13.783 1.261)"/><ellipse class="c" cx="2.26" cy="2.263" rx="2.26" ry="2.263" transform="translate(7.64)"/><ellipse class="b" cx="2.56" cy="2.563" rx="2.56" ry="2.563" transform="translate(0 8.389)"/><ellipse class="d" cx="3.2" cy="3.204" rx="3.2" ry="3.204" transform="translate(11.6 11.593)"/><ellipse class="b" cx="1.597" cy="1.599" rx="1.597" ry="1.599" transform="translate(13.783 7.411)"/></g></g></g></g></svg>