<?xml version="1.0" encoding="UTF-8"?>
<svg width="24px" height="24px" viewBox="0 0 24 24" version="1.1" xmlns="http://www.w3.org/2000/svg" xmlns:xlink="http://www.w3.org/1999/xlink">
    <title>72D69664-819D-4070-9E12-0E8FCAD49DA4</title>
    <g id="Components/navigation" stroke="none" stroke-width="1" fill="none" fill-rule="evenodd">
        <g id="-left-rail" transform="translate(-551.000000, -317.000000)">
            <g id="icon/Activities" transform="translate(551.000000, 317.000000)">
                <rect id="bg" fill="#D8D8D8" opacity="0" x="0" y="0" width="24" height="24"></rect>
                <g id="icon/ic-activities" fill="#C2D2E6">
                    <path d="M17,2 C19.209139,2 21,3.790861 21,6 C21,8.03954853 19.4735454,9.7225745 17.5007553,9.96895886 L17.5007553,12.0310411 C19.4735454,12.2774255 21,13.9604515 21,16 C21,18.209139 19.209139,20 17,20 C14.9604515,20 13.2774255,18.4735454 13.0310411,16.5007553 L10.9689589,16.5007553 C10.743065,18.3094784 9.30954977,19.7430178 7.5008382,19.9689485 L7.5,23 L6.5,23 L6.50024088,19.9690832 C4.52696848,19.7231411 3,18.0398918 3,16 C3,13.790861 4.790861,12 7,12 C9.03989183,12 10.7231411,13.5269685 10.9690832,15.5002409 L13.0309168,15.5002409 C13.2564466,13.6907434 14.6906009,12.2565408 16.5000755,12.0309375 L16.5001582,9.96907285 C14.6909767,9.74354427 13.2569764,8.3098105 13.0310411,6.50075535 L10.9689589,6.50075535 C10.7225745,8.47354544 9.03954853,10 7,10 C4.790861,10 3,8.209139 3,6 C3,3.790861 4.790861,2 7,2 C9.03989183,2 10.7231411,3.52696848 10.9690832,5.50024088 L13.0309168,5.50024088 C13.2768589,3.52696848 14.9601082,2 17,2 Z M17,14 C15.8954305,14 15,14.8954305 15,16 C15,17.1045695 15.8954305,18 17,18 C18.1045695,18 19,17.1045695 19,16 C19,14.8954305 18.1045695,14 17,14 Z M7,14 C5.8954305,14 5,14.8954305 5,16 C5,17.1045695 5.8954305,18 7,18 C8.1045695,18 9,17.1045695 9,16 C9,14.8954305 8.1045695,14 7,14 Z M7,4 C5.8954305,4 5,4.8954305 5,6 C5,7.1045695 5.8954305,8 7,8 C8.1045695,8 9,7.1045695 9,6 C9,4.8954305 8.1045695,4 7,4 Z M17,4 C15.8954305,4 15,4.8954305 15,6 C15,7.1045695 15.8954305,8 17,8 C18.1045695,8 19,7.1045695 19,6 C19,4.8954305 18.1045695,4 17,4 Z M7,5 C7.55228475,5 8,5.44771525 8,6 C8,6.55228475 7.55228475,7 7,7 C6.44771525,7 6,6.55228475 6,6 C6,5.44771525 6.44771525,5 7,5 Z M17,5 C17.5522847,5 18,5.44771525 18,6 C18,6.55228475 17.5522847,7 17,7 C16.4477153,7 16,6.55228475 16,6 C16,5.44771525 16.4477153,5 17,5 Z" id="ic-activities"></path>
                </g>
            </g>
        </g>
    </g>
</svg>