<?xml version="1.0" encoding="UTF-8"?>
<svg width="24px" height="24px" viewBox="0 0 24 24" version="1.1" xmlns="http://www.w3.org/2000/svg" xmlns:xlink="http://www.w3.org/1999/xlink">
    <title>69BEB560-74B8-4516-92A1-04AD77419D04</title>
    <g id="Components/navigation" stroke="none" stroke-width="1" fill="none" fill-rule="evenodd">
        <g id="-left-rail" transform="translate(-173.000000, -569.000000)">
            <g id="Menu" transform="translate(153.000000, 193.000000)">
                <rect id="🎨-Background" fill="#F4F4F4" x="0" y="0" width="228" height="786"></rect>
                <g id="menu-item" transform="translate(0.000000, 368.000000)">
                    <rect id="Rectangle-2" x="0" y="0" width="228" height="40"></rect>
                    <g id="Optional-icon" transform="translate(20.000000, 8.000000)" fill="#C2D2E6">
                        <path d="M16,11.5 C18.4852814,11.5 20.5,13.5147186 20.5,16 C20.5,16.8831359 20.2455993,17.7068534 19.806084,18.4018661 L19.8947594,18.4805458 L23.2071068,21.7928932 C23.5976311,22.1834175 23.5976311,22.8165825 23.2071068,23.2071068 C22.8466228,23.5675907 22.2793918,23.5953203 21.8871006,23.2902954 L21.7928932,23.2071068 L18.4805458,19.8947594 L18.4018661,19.806084 C17.7068534,20.2455993 16.8831359,20.5 16,20.5 C13.5147186,20.5 11.5,18.4852814 11.5,16 C11.5,13.5147186 13.5147186,11.5 16,11.5 Z M16,12.5 C14.0670034,12.5 12.5,14.0670034 12.5,16 C12.5,17.9329966 14.0670034,19.5 16,19.5 C17.9329966,19.5 19.5,17.9329966 19.5,16 C19.5,14.0670034 17.9329966,12.5 16,12.5 Z M12.2118542,1.85 C12.9466875,1.85 13.5525797,2.43048008 13.6213184,3.17045289 L13.6278125,3.31096407 L13.6278125,5.05091871 L15.875,5.05091871 C16.9958143,5.05091871 17.9166965,5.92722827 17.9946545,7.03378949 L18,7.1860507 L18.0006688,11.2046169 C17.5546959,11.0313419 17.0791776,10.9172518 16.583758,10.8719908 L16.5833333,10.3097488 L16.2483854,10.4995061 L16.2483854,10.4995061 L16.0433555,10.6051356 L16.0433555,10.6051356 L15.673655,10.7783924 L15.673655,10.7783924 L15.387574,10.8991463 L15.387574,10.8991463 C14.9718992,11.066656 14.5278895,11.2139802 14.0574694,11.3406754 L13.6676941,11.4394925 C13.3732099,11.5096352 13.0691887,11.5721087 12.756633,11.6265833 L12.1401875,11.722037 L12.1401875,11.722037 L11.580468,11.7892217 L11.580468,11.7892217 L11.1748542,11.826938 L11.1748542,12.3594755 C11.1748542,12.4342416 11.1664185,12.5067636 11.1505719,12.5758744 L11.1207746,12.6785291 L11.1207746,12.6785291 L11.0900047,12.7544698 L11.0900047,12.7544698 L11.0411265,12.8463792 L11.0411265,12.8463792 L10.9712735,12.9445159 L10.9712735,12.9445159 L10.9044829,13.0161132 L10.9044829,13.0161132 L10.8231321,13.0833123 L10.8231321,13.0833123 L10.7482602,13.1302867 L10.7482602,13.1302867 L10.657348,13.1717154 L10.657348,13.1717154 L10.6117629,13.186808 L10.6117629,13.186808 C10.5814371,13.1956572 10.5505132,13.2023803 10.5189807,13.2068741 L10.4249063,13.2135283 L8.73747917,13.2135283 C8.69064243,13.2135283 8.64481019,13.2086433 8.60035374,13.1992964 L8.51519158,13.1754189 L8.51519158,13.1754189 L8.42197035,13.1345563 L8.42197035,13.1345563 L8.33579287,13.0809171 L8.33579287,13.0809171 L8.25377013,13.0123074 L8.25377013,13.0123074 L8.20669827,12.9630075 L8.20669827,12.9630075 L8.13069166,12.8617409 L8.13069166,12.8617409 L8.06947792,12.7484653 L8.06947792,12.7484653 L8.04115232,12.677726 L8.04115232,12.677726 C8.01760515,12.6109329 8.00128712,12.5402265 7.99319719,12.4666073 L7.98735417,12.3594755 L7.98735417,11.8240912 C7.7124135,11.8009743 7.43567328,11.7717083 7.15871372,11.7358852 L6.65308962,11.6630909 L6.65308962,11.6630909 L6.24532508,11.593189 L6.24532508,11.593189 L5.76117092,11.4963017 L5.76117092,11.4963017 L5.37584653,11.407609 L5.37584653,11.407609 L4.86349867,11.2722758 L4.86349867,11.2722758 L4.54799386,11.1781272 L4.54799386,11.1781272 L4.19087395,11.0605928 L4.19087395,11.0605928 L3.81303024,10.922256 L3.81303024,10.922256 L3.50363849,10.7970634 L3.50363849,10.7970634 L3.44608329,10.7724893 C3.20220719,10.6674782 2.9651147,10.5539483 2.73665546,10.4316182 L2.41666667,10.2510327 L2.41666667,15.014868 C2.41666667,15.3746674 2.68361241,15.6728692 3.02900013,15.7200709 L3.125,15.7265787 L10.8630993,15.7262383 C10.8544153,15.8496965 10.85,15.9743326 10.85,16.1 C10.85,16.4596354 10.8861611,16.810825 10.9550456,17.150131 L3.125,17.150131 C2.00418569,17.150131 1.08330348,16.2736904 1.00534551,15.1671292 L1,15.014868 L1,7.1860507 C1,6.05989235 1.87215115,5.13461938 2.97346132,5.05628971 L3.125,5.05091871 L5.48197917,5.05091871 L5.48197917,3.31096407 C5.48197917,2.55269915 6.04464583,1.92761525 6.76176694,1.85669972 L6.8979375,1.85 L12.2118542,1.85 Z M15.875,6.47434004 L3.125,6.47434004 C2.76690799,6.47434004 2.47012124,6.74255858 2.42314353,7.08959311 L2.41666667,7.1860507 L2.41666667,8.43172229 L2.61229357,8.5902807 C2.83893066,8.76427361 3.09233075,8.92761929 3.36934604,9.07948699 C3.47217199,9.13586578 3.57857694,9.19082091 3.68809314,9.24414212 L3.94637143,9.3643154 L3.94637143,9.3643154 C4.16273612,9.46052885 4.39014819,9.55087554 4.62719968,9.63492991 C4.87417389,9.72249343 5.1312561,9.80312953 5.39752317,9.87662416 C5.63441822,9.94200693 5.87835501,10.001688 6.12867087,10.055495 L6.36181101,10.1035453 L6.36181101,10.1035453 L6.74716178,10.1742444 L6.74716178,10.1742444 L7.25494081,10.2517769 C7.37499674,10.2680957 7.49608545,10.2831587 7.61812713,10.2969448 L7.98735417,10.3344808 L7.98894576,9.74122466 L7.98894576,9.74122466 L8.0068217,9.60314941 L8.0068217,9.60314941 L8.02279955,9.53709991 L8.02279955,9.53709991 L8.05385988,9.44519537 L8.05385988,9.44519537 L8.1016704,9.34387495 L8.1016704,9.34387495 L8.14776953,9.26937689 L8.14776953,9.26937689 L8.20859776,9.19162522 L8.20859776,9.19162522 L8.27825944,9.12192299 L8.27825944,9.12192299 L8.35374499,9.06328947 L8.35374499,9.06328947 L8.45698524,9.00495727 L8.45698524,9.00495727 L8.55055195,8.96998468 L8.55055195,8.96998468 L8.64336691,8.94991852 L8.64336691,8.94991852 L8.73747917,8.94326433 L10.4249063,8.94326433 L10.5243496,8.95070607 L10.5243496,8.95070607 L10.6334894,8.97672975 L10.6334894,8.97672975 L10.7092291,9.0067765 L10.7092291,9.0067765 L10.8264626,9.07587558 L10.8264626,9.07587558 L10.903389,9.13964409 L10.903389,9.13964409 L10.9572636,9.19575882 L10.9572636,9.19575882 L11.0162273,9.27195684 L11.0162273,9.27195684 L11.0686565,9.35893013 L11.0686565,9.35893013 L11.1068884,9.44152683 L11.1068884,9.44152683 L11.1346924,9.52085312 L11.1346924,9.52085312 C11.1509558,9.57500804 11.1625819,9.63167678 11.1690112,9.6901854 L11.1748542,9.79731713 L11.1748542,10.3351925 L11.5877704,10.29339 L11.5877704,10.29339 L11.9077467,10.2538478 L11.9077467,10.2538478 L12.285134,10.1987735 L12.7151639,10.1241973 L13.2015794,10.0233749 L13.4741612,9.95853159 L13.7463056,9.88726325 L14.0610583,9.79597992 L14.3732719,9.69505218 L14.7394482,9.56169876 L15.0114471,9.45057093 L15.2443745,9.34589455 L15.2443745,9.34589455 L15.0994888,9.41210903 C15.2746565,9.33428964 15.4409917,9.25252681 15.5977928,9.16704769 L15.8888611,8.99722727 C16.0210384,8.91458367 16.1448277,8.82894154 16.2596889,8.74047574 C16.3205301,8.69362142 16.3790348,8.6458292 16.434939,8.59726626 L16.5833333,8.46054658 L16.5833333,7.1860507 C16.5833333,6.79354227 16.2656458,6.47434004 15.875,6.47434004 Z M12.1968021,3.26932899 L6.9043125,3.27342133 L6.89864583,3.31096407 L6.89864583,5.05091871 L12.2111458,5.05091871 L12.2111458,3.31096407 L12.2074271,3.28692406 L12.2074271,3.28692406 L12.1968021,3.26932899 L12.1968021,3.26932899 Z" id="ic-cases"></path>
                    </g>
                </g>
            </g>
        </g>
    </g>
</svg>