<?xml version="1.0" encoding="UTF-8"?>
<svg width="24px" height="24px" viewBox="0 0 24 24" version="1.1" xmlns="http://www.w3.org/2000/svg" xmlns:xlink="http://www.w3.org/1999/xlink">
    <title>C448B702-0171-4F1D-93C8-F2F102CDB32C</title>
    <g id="Components/navigation" stroke="none" stroke-width="1" fill="none" fill-rule="evenodd">
        <g id="-left-rail" transform="translate(-679.000000, -317.000000)">
            <g id="icon/Compliance" transform="translate(679.000000, 317.000000)">
                <rect id="bg" fill="#D8D8D8" opacity="0" x="0" y="0" width="24" height="24"></rect>
                <g id="icon/ic-compliance" fill="#C2D2E6">
                    <path d="M4,1 L4,4 L3,4 L3,17 L12.0223577,17.0002506 C12.0532514,16.6569542 12.1156939,16.32274 12.2067654,16.0005324 L11,16 L11,9 L4,9 L4,7 L13,7 L13.0001767,14.3362468 C13.9954879,12.9229774 15.6397612,11.9995 17.5,11.9995 C20.538,11.9995 23,14.4625 23,17.4995 C23,20.5375 20.538,22.9995 17.5,22.9995 C14.6310244,22.9995 12.2757382,20.8038343 12.0225382,18.0008994 L2,18 L2,4 L1,4 L1,1 L4,1 Z M21.53,14.4695 C21.2636364,14.2031364 20.847686,14.1789215 20.5541247,14.3968554 L20.47,14.4695 L16,18.9395 L14.53,17.4695 C14.237,17.1765 13.763,17.1765 13.47,17.4695 C13.2036364,17.7358636 13.1794215,18.1526405 13.3973554,18.446352 L13.47,18.5305 L16,21.0605 L21.53,15.5305 C21.823,15.2375 21.823,14.7625 21.53,14.4695 Z M10,10 L10,16 L4,16 L4,10 L10,10 Z M15,11 L15,12 L14,12 L14,11 L15,11 Z M15,9 L15,10 L14,10 L14,9 L15,9 Z M15,7 L15,8 L14,8 L14,7 L15,7 Z M5.001,5 L5.001,6 L4,6 L4,5 L5.001,5 Z M7,5 L7,6 L6,6 L6,5 L7,5 Z M9,5 L9,6 L8,6 L8,5 L9,5 Z M11,5 L11,6 L10,6 L10,5 L11,5 Z M13,5 L13,6 L12,6 L12,5 L13,5 Z M15,5 L15,6 L14,6 L14,5 L15,5 Z M19,1 L19,5 L18,5 L18,3 L17,3 L17,4 L16,4 L16,3 L17,3 L17,2 L15,2 L15,1 L19,1 Z M16,4 L16,5 L15,5 L15,4 L16,4 Z" id="ic-compliance"></path>
                </g>
            </g>
        </g>
    </g>
</svg>