<?xml version="1.0" encoding="UTF-8"?>
<svg width="24px" height="24px" viewBox="0 0 24 24" version="1.1" xmlns="http://www.w3.org/2000/svg" xmlns:xlink="http://www.w3.org/1999/xlink">
    <title>D8C26FC8-98FA-4EDD-854E-0FBA72FA9DA5</title>
    <g id="Components/navigation" stroke="none" stroke-width="1" fill="none" fill-rule="evenodd">
        <g id="-left-rail" transform="translate(-173.000000, -473.000000)">
            <g id="Menu" transform="translate(153.000000, 193.000000)">
                <rect id="🎨-Background" fill="#F4F4F4" x="0" y="0" width="228" height="786"></rect>
                <g id="menu-item" transform="translate(0.000000, 272.000000)">
                    <rect id="Rectangle-2" x="0" y="0" width="228" height="40"></rect>
                    <g id="Optional-icon" transform="translate(20.000000, 8.000000)" fill="#C2D2E6">
                        <path d="M4,1 L4,4 L3,4 L3,21 L20,21 L20,20 L23,20 L23,23 L20,23 L20,22 L2,22 L2,4 L1,4 L1,1 L4,1 Z M19,18.999 L19,20 L18,20 L18,18.999 L19,18.999 Z M11,13 L11,20 L4,20 L4,13 L11,13 Z M15,9 L15,20 L13,20 L13,11 L4,11 L4,9 L15,9 Z M19,17 L19,18 L18,18 L18,17 L19,17 Z M19,15 L19,16 L18,16 L18,15 L19,15 Z M19,13 L19,14 L18,14 L18,13 L19,13 Z M19,11 L19,12 L18,12 L18,11 L19,11 Z M19,9 L19,10 L18,10 L18,9 L19,9 Z M19,7 L19,8 L18,8 L18,7 L19,7 Z M17,7 L17,8 L16,8 L16,7 L17,7 Z M5.001,5 L5.001,6 L4,6 L4,5 L5.001,5 Z M7,5 L7,6 L6,6 L6,5 L7,5 Z M9,5 L9,6 L8,6 L8,5 L9,5 Z M11,5 L11,6 L10,6 L10,5 L11,5 Z M13,5 L13,6 L12,6 L12,5 L13,5 Z M15,5 L15,6 L14,6 L14,5 L15,5 Z M17,5 L17,6 L16,6 L16,5 L17,5 Z M19,5 L19,6 L18,6 L18,5 L19,5 Z M23,1 L23,5 L22,5 L22,3 L21,3 L21,2 L19,2 L19,1 L23,1 Z M20,4 L20,5 L19,5 L19,4 L20,4 Z M21,3 L21,4 L20,4 L20,3 L21,3 Z" id="ic-model"></path>
                    </g>
                </g>
            </g>
        </g>
    </g>
</svg>