<?xml version="1.0" encoding="UTF-8"?>
<svg width="24px" height="24px" viewBox="0 0 24 24" version="1.1" xmlns="http://www.w3.org/2000/svg" xmlns:xlink="http://www.w3.org/1999/xlink">
    <title>2CED5A1B-F1B8-439D-8C5B-95D219FA1B3E</title>
    <g id="Components/navigation" stroke="none" stroke-width="1" fill="none" fill-rule="evenodd">
        <g id="-left-rail" transform="translate(-173.000000, -329.000000)">
            <g id="Menu" transform="translate(153.000000, 193.000000)">
                <rect id="🎨-Background" fill="#F4F4F4" x="0" y="0" width="228" height="786"></rect>
                <g id="menu-item" transform="translate(0.000000, 128.000000)">
                    <rect id="Rectangle-2" x="0" y="0" width="228" height="40"></rect>
                    <g id="Optional-icon" transform="translate(20.000000, 8.000000)" fill="#C2D2E6">
                        <path d="M18.5,16.5 L11.5,16.5 L11.5,18 L13,18 C13.5522847,18 14,18.4477153 14,19 L14,21 C14,21.5522847 13.5522847,22 13,22 L9,22 C8.44771525,22 8,21.5522847 8,21 L8,19 C8,18.4477153 8.44771525,18 9,18 L10.5,18 L10.5,15.5 L18.5,15.5 L18.5,14.5 L15,11 L18.5,7.5 L18.5,5.5 L17,5.5 L17,7 C17,7.55228475 16.5522847,8 16,8 L10,8 C9.44771525,8 9,7.55228475 9,7 L9,5.5 L6.94990271,5.50043449 C6.71809967,6.64133817 5.70932545,7.5 4.5,7.5 C3.11928813,7.5 2,6.38071187 2,5 C2,3.61928813 3.11928813,2.5 4.5,2.5 C5.70968176,2.5 6.7186941,3.35916789 6.9501074,4.50057405 L9,4.5 L9,3 C9,2.44771525 9.44771525,2 10,2 L16,2 C16.5522847,2 17,2.44771525 17,3 L17,4.5 L19.5,4.5 L19.5,7.5 L23,11 L19.5,14.5 L19.5,18 L21,18 C21.5522847,18 22,18.4477153 22,19 L22,21 C22,21.5522847 21.5522847,22 21,22 L17,22 C16.4477153,22 16,21.5522847 16,21 L16,19 C16,18.4477153 16.4477153,18 17,18 L18.5,18 L18.5,16.5 Z" id="ic-process_map"></path>
                    </g>
                </g>
            </g>
        </g>
    </g>
</svg>