<?xml version="1.0" encoding="UTF-8"?>
<svg width="24px" height="24px" viewBox="0 0 24 24" version="1.1" xmlns="http://www.w3.org/2000/svg" xmlns:xlink="http://www.w3.org/1999/xlink">
    <title>Foundations/system icon/ic_explore</title>
    <g id="Foundations/system-icon/ic_explore" stroke="none" stroke-width="1" fill="none" fill-rule="evenodd">
        <path d="M12,2 C17.5228475,2 22,6.4771525 22,12 C22,17.5228475 17.5228475,22 12,22 C6.4771525,22 2,17.5228475 2,12 C2,6.4771525 6.4771525,2 12,2 Z M16.2426407,4.65153077 L10.0157602,10.1119935 C9.68470509,10.4023016 9.45870515,10.793745 9.37281849,11.2256011 L9.37281849,11.2256011 L7.75735931,19.3484692 L13.9842398,13.8880065 C14.3152949,13.5976984 14.5412948,13.206255 14.6271815,12.7743989 L14.6271815,12.7743989 L16.2426407,4.65153077 Z M12,11 C12.5522847,11 13,11.4477153 13,12 C13,12.5522847 12.5522847,13 12,13 C11.4477153,13 11,12.5522847 11,12 C11,11.4477153 11.4477153,11 12,11 Z" id="🎨-Color" fill="#C8D4E8"></path>
    </g>
</svg>