<?xml version="1.0" encoding="UTF-8"?>
<svg width="40px" height="40px" viewBox="0 0 40 40" version="1.1" xmlns="http://www.w3.org/2000/svg" xmlns:xlink="http://www.w3.org/1999/xlink">
    <title>6FCD44C6-2C63-4A2F-AB2C-905D5086D9E3</title>
    <defs>
        <filter id="filter-1">
            <feColorMatrix in="SourceGraphic" type="matrix" values="0 0 0 0 0.447059 0 0 0 0 0.447059 0 0 0 0 0.447059 0 0 0 1.000000 0"></feColorMatrix>
        </filter>
    </defs>
    <g id="--------↳-⚠️-Template-custom-icons" stroke="none" stroke-width="1" fill="none" fill-rule="evenodd">
        <g id="Template-icons---line-style" transform="translate(-48.000000, -185.000000)">
            <g id="Foundations/system-icon/pl-icon-documentation" transform="translate(48.000000, 185.000000)" filter="url(#filter-1)">
                <g>
                    <path d="M19.9088302,2.89341739 C20.1496484,2.78629942 20.4244338,2.78550019 20.6658711,2.89121549 L20.6658711,2.89121549 L38.7380948,10.8042865 C39.6666675,11.2108696 39.3788961,12.5971619 38.365217,12.6005657 L38.365217,12.6005657 L37.7462476,12.6025 L37.7463743,14.7716644 C37.7463743,15.252448 37.3844616,15.6487024 36.9182066,15.7028572 L36.8088743,15.7091644 L35.3452476,15.7085 L35.3461571,17.5977612 C35.3461571,18.0785448 34.9842444,18.4747992 34.5179894,18.528954 L34.4086571,18.5352612 L33.7922476,18.5345 L33.7922476,28.8115 L34.4086571,28.8124774 C34.8894407,28.8124774 35.285695,29.1743901 35.3398498,29.6406451 L35.3461571,29.7499774 L35.3452476,31.6385 L36.8088743,31.6385742 C37.2896579,31.6385742 37.6859123,32.0004869 37.740067,32.4667419 L37.7463743,32.5760742 L37.7463743,36.25 C37.7463743,36.767767 37.3266412,37.1875 36.8088743,37.1875 L36.8088743,37.1875 L4.05296878,37.1875 C3.53520182,37.1875 3.11546878,36.767767 3.11546878,36.25 L3.11546878,36.25 L3.11546878,32.5760742 C3.11546878,32.0583072 3.53520182,31.6385742 4.05296878,31.6385742 L4.05296878,31.6385742 L5.51524759,31.6385 L5.51568599,29.7499774 C5.51568599,29.2691938 5.87759867,28.8729394 6.34385368,28.8187846 L6.45318599,28.8124774 L7.06824759,28.8115 L7.06824759,18.5345 L6.45318599,18.5352612 C5.97240239,18.5352612 5.57614803,18.1733485 5.52199324,17.7070935 L5.51568599,17.5977612 L5.51524759,15.7085 L4.05296878,15.7091644 C3.57218518,15.7091644 3.17593081,15.3472517 3.12177602,14.8809967 L3.11546878,14.7716644 L3.11524759,12.6005 L2.5,12.600571 C1.57387347,12.600571 1.24922836,11.44358 1.90871843,10.9313968 L2.00035143,10.8683952 L2.11898494,10.8064884 Z M6.43693244,33.5134361 L4.99,33.5125 L4.99,35.3125 L35.87125,35.3125 L35.87125,33.5125 L34.4242476,33.5125 L34.4086571,33.5135742 L6.45318599,33.5135742 C6.44775724,33.5135742 6.44233927,33.513528 6.43693244,33.5134361 Z M7.98815294,30.6873059 L7.39,30.68625 L7.39,31.6375 L33.47,31.6375 L33.47,30.68625 L32.8732476,30.6855 L32.8555753,30.6874774 L8.00626772,30.6874774 C8.0002159,30.6874774 7.99417747,30.68742 7.98815294,30.6873059 Z M12.1512476,18.5345 L8.94375,18.535 L8.94375,28.81125 L12.1512476,28.8105 L12.1512476,18.5345 Z M17.0462476,18.5345 L14.0262476,18.5345 L14.0262476,28.8105 L17.0462476,28.8105 L17.0462476,18.5345 Z M21.9402476,18.5345 L18.9212476,18.5345 L18.9212476,28.8105 L21.9402476,28.8105 L21.9402476,18.5345 Z M26.8352476,18.5345 L23.8152476,18.5345 L23.8152476,28.8105 L26.8352476,28.8105 L26.8352476,18.5345 Z M31.9175,18.535 L28.7102476,18.5345 L28.7102476,28.8105 L31.9175,28.81125 L31.9175,18.535 Z M33.47,15.70875 L7.39,15.70875 L7.39,16.66 L33.47,16.66 L33.47,15.70875 Z M35.8712476,12.6075 L31.4695091,12.6213452 L9.44565236,12.6501009 L4.98924759,12.6235 L4.99,13.83375 L35.87125,13.83375 L35.8712476,12.6075 Z M20.2925,4.77375 L6.91024759,10.7245 L33.8812476,10.7245 L20.2925,4.77375 Z M20.4310345,6.01087743 C21.4447733,6.01087743 22.2664947,6.83327159 22.2664947,7.84784034 C22.2664947,8.86240909 21.4447733,9.68480325 20.4310345,9.68480325 C19.4172957,9.68480325 18.5955743,8.86240909 18.5955743,7.84784034 C18.5955743,6.83327159 19.4172957,6.01087743 20.4310345,6.01087743 Z" id="banking" fill="#FFFFFF"></path>
                </g>
            </g>
        </g>
    </g>
</svg>