<?xml version="1.0" encoding="UTF-8"?>
<svg width="40px" height="40px" viewBox="0 0 40 40" version="1.1" xmlns="http://www.w3.org/2000/svg" xmlns:xlink="http://www.w3.org/1999/xlink">
    <title>6AC67FE5-C994-4856-994C-6BF3C85A3934</title>
    <defs>
        <filter id="filter-1">
            <feColorMatrix in="SourceGraphic" type="matrix" values="0 0 0 0 0.447059 0 0 0 0 0.447059 0 0 0 0 0.447059 0 0 0 1.000000 0"></feColorMatrix>
        </filter>
    </defs>
    <g id="--------↳-⚠️-Template-custom-icons" stroke="none" stroke-width="1" fill="none" fill-rule="evenodd">
        <g id="Template-icons---line-style" transform="translate(-108.000000, -185.000000)">
            <g id="Foundations/system-icon/pl-icon-documentation" transform="translate(108.000000, 185.000000)" filter="url(#filter-1)">
                <g>
                    <path d="M21.095267,2.5 L21.0945,2.7 L25.5217184,2.70059756 C26.002502,2.70059756 26.3987564,3.06251024 26.4529112,3.52876526 L26.4592184,3.63809756 L26.4592184,6.48362602 C26.4592184,6.96440962 26.0973058,7.36066398 25.6310508,7.41481877 L25.5217184,7.42112602 L21.0945,7.421 L21.0945,8.813 L28.5369965,13.5362199 C29.5227846,14.1627512 29.0725146,15.5681038 28.011263,15.667687 L27.8908738,15.6732724 L27.405,15.6725 L27.405,20.0575 L28.6771845,20.058435 C29.1122525,20.058435 29.4781021,20.3547945 29.5838716,20.756652 L29.6061262,20.8687218 L29.6146845,20.995935 L29.61375,22.90375 L36.25,22.9039634 C36.6850681,22.9039634 37.0509176,23.200323 37.1566872,23.6021805 L37.1789417,23.7142502 L37.1875,23.8414634 L37.1875,37.5 C37.1875,37.9807836 36.8255873,38.377038 36.3593323,38.4311928 L36.25,38.4375 L23.9441748,38.4375 C23.4633912,38.4375 23.0671368,38.0755873 23.012982,37.6093323 L23.0066748,37.5 L23.0066748,30.8130081 C23.0066748,29.3893516 21.6807311,28.1935976 20,28.1935976 C18.3815182,28.1935976 17.09203,29.3024175 16.9987325,30.6558111 L16.9933252,30.8130081 L16.9933252,37.5 C16.9933252,37.9807836 16.6314126,38.377038 16.1651575,38.4311928 L16.0558252,38.4375 L3.75,38.4375 C3.2692164,38.4375 2.87296204,38.0755873 2.81880725,37.6093323 L2.8125,37.5 L2.8125,23.8414634 C2.8125,23.3606798 3.17441268,22.9644255 3.64066769,22.9102707 L3.75,22.9039634 L10.385,22.90375 L10.3853155,20.995935 C10.3853155,20.5608669 10.6816751,20.1950173 11.0835326,20.0892478 L11.1956023,20.0669932 L11.3228155,20.058435 L12.59375,20.0575 L12.59375,15.6725 L12.1331068,15.6732724 C11.0637484,15.6732724 10.5427888,14.3833308 11.2939217,13.684316 L11.3862774,13.6063899 L11.5039812,13.5257918 L19.2195,8.803 L19.220267,2.5 L21.095267,2.5 Z M20.14875,10.43375 L14.19625,14.07625 L14.2737135,14.1628941 C14.3471952,14.2579494 14.4028213,14.3675095 14.435565,14.4865477 L14.4604951,14.6085592 L14.4690534,14.7357724 L14.4690534,20.995935 C14.4690534,21.4767186 14.1071407,21.8729729 13.6408857,21.9271277 L13.5315534,21.933435 L12.26,21.9325 L12.2603155,23.8414634 C12.2603155,24.2765315 11.963956,24.6423811 11.5620985,24.7481506 L11.4500287,24.7704051 L11.3228155,24.7789634 L4.68625,24.77875 L4.68625,36.56125 L15.1175,36.56125 L15.1183252,30.8130081 C15.1183252,28.4602271 17.0646844,26.5621105 19.5181975,26.340274 L19.7426013,26.3247589 L20,26.3185976 C22.6012107,26.3185976 24.758749,28.1991337 24.8766052,30.6054927 L24.8816748,30.8130081 L24.88125,36.56125 L35.3125,36.56125 L35.3125,24.77875 L28.6771845,24.7789634 C28.2421164,24.7789634 27.8762668,24.4826039 27.7704973,24.0807464 L27.7482427,23.9686766 L27.7396845,23.8414634 L27.73875,21.9325 L26.4684466,21.933435 C26.0333785,21.933435 25.667529,21.6370754 25.5617594,21.2352179 L25.5395049,21.1231482 L25.5309466,20.995935 L25.5309466,14.7357724 C25.5309466,14.5200361 25.6038169,14.3213197 25.7262865,14.1628941 L25.805534,14.0728598 L25.8375,14.04375 L20.14875,10.43375 Z M8.34158738,31.8089431 C8.59401456,31.8089431 8.79848058,31.9933333 8.79848058,32.2209756 L8.79848058,33.6733333 C8.79848058,33.9009756 8.59401456,34.0853659 8.34158738,34.0853659 L6.73110194,34.0853659 C6.47899029,34.0853659 6.27420874,33.9009756 6.27420874,33.6733333 L6.27420874,32.2209756 C6.27420874,31.9933333 6.47899029,31.8089431 6.73110194,31.8089431 L8.34158738,31.8089431 Z M13.0745971,31.8089431 C13.3270243,31.8089431 13.5314903,31.9933333 13.5314903,32.2209756 L13.5314903,33.6733333 C13.5314903,33.9009756 13.3270243,34.0853659 13.0745971,34.0853659 L11.4641117,34.0853659 C11.212,34.0853659 11.0072184,33.9009756 11.0072184,33.6733333 L11.0072184,32.2209756 C11.0072184,31.9933333 11.212,31.8089431 11.4641117,31.8089431 L13.0745971,31.8089431 Z M28.5357621,31.8089431 C28.7881893,31.8089431 28.9926553,31.9933333 28.9926553,32.2209756 L28.9926553,33.6733333 C28.9926553,33.9009756 28.7881893,34.0853659 28.5357621,34.0853659 L26.9252767,34.0853659 C26.673165,34.0853659 26.4683835,33.9009756 26.4683835,33.6733333 L26.4683835,32.2209756 C26.4683835,31.9933333 26.673165,31.8089431 26.9252767,31.8089431 L28.5357621,31.8089431 Z M33.2687718,31.8089431 C33.521199,31.8089431 33.725665,31.9933333 33.725665,32.2209756 L33.725665,33.6733333 C33.725665,33.9009756 33.521199,34.0853659 33.2687718,34.0853659 L31.6582864,34.0853659 C31.4061748,34.0853659 31.2013932,33.9009756 31.2013932,33.6733333 L31.2013932,32.2209756 C31.2013932,31.9933333 31.4061748,31.8089431 31.6582864,31.8089431 L33.2687718,31.8089431 Z M8.34158738,27.2560976 C8.59401456,27.2560976 8.79848058,27.4404878 8.79848058,27.6681301 L8.79848058,29.1204878 C8.79848058,29.3481301 8.59401456,29.5325203 8.34158738,29.5325203 L6.73110194,29.5325203 C6.47899029,29.5325203 6.27420874,29.3481301 6.27420874,29.1204878 L6.27420874,27.6681301 C6.27420874,27.4404878 6.47899029,27.2560976 6.73110194,27.2560976 L8.34158738,27.2560976 Z M13.0745971,27.2560976 C13.3270243,27.2560976 13.5314903,27.4404878 13.5314903,27.6681301 L13.5314903,29.1204878 C13.5314903,29.3481301 13.3270243,29.5325203 13.0745971,29.5325203 L11.4641117,29.5325203 C11.212,29.5325203 11.0072184,29.3481301 11.0072184,29.1204878 L11.0072184,27.6681301 C11.0072184,27.4404878 11.212,27.2560976 11.4641117,27.2560976 L13.0745971,27.2560976 Z M28.5357621,27.2560976 C28.7881893,27.2560976 28.9926553,27.4404878 28.9926553,27.6681301 L28.9926553,29.1204878 C28.9926553,29.3481301 28.7881893,29.5325203 28.5357621,29.5325203 L26.9252767,29.5325203 C26.673165,29.5325203 26.4683835,29.3481301 26.4683835,29.1204878 L26.4683835,27.6681301 C26.4683835,27.4404878 26.673165,27.2560976 26.9252767,27.2560976 L28.5357621,27.2560976 Z M33.2687718,27.2560976 C33.521199,27.2560976 33.725665,27.4404878 33.725665,27.6681301 L33.725665,29.1204878 C33.725665,29.3481301 33.521199,29.5325203 33.2687718,29.5325203 L31.6582864,29.5325203 C31.4061748,29.5325203 31.2013932,29.3481301 31.2013932,29.1204878 L31.2013932,27.6681301 C31.2013932,27.4404878 31.4061748,27.2560976 31.6582864,27.2560976 L33.2687718,27.2560976 Z M20,13.7982724 C22.3475101,13.7982724 24.2506068,15.7010205 24.2506068,18.0482724 C24.2506068,20.3955242 22.3475101,22.2982724 20,22.2982724 C17.6524899,22.2982724 15.7493932,20.3955242 15.7493932,18.0482724 C15.7493932,15.7010205 17.6524899,13.7982724 20,13.7982724 Z M20,15.6732724 C18.687947,15.6732724 17.6243932,16.7366313 17.6243932,18.0482724 C17.6243932,19.3599134 18.687947,20.4232724 20,20.4232724 C21.312053,20.4232724 22.3756068,19.3599134 22.3756068,18.0482724 C22.3756068,16.7366313 21.312053,15.6732724 20,15.6732724 Z M24.58375,4.575 L21.095,4.575 L21.095,5.545 L24.58375,5.545 L24.58375,4.575 Z" id="building" fill="#FFFFFF"></path>
                </g>
            </g>
        </g>
    </g>
</svg>