<?xml version="1.0" encoding="UTF-8"?>
<svg width="40px" height="40px" viewBox="0 0 40 40" version="1.1" xmlns="http://www.w3.org/2000/svg" xmlns:xlink="http://www.w3.org/1999/xlink">
    <title>4B20776B-E739-4E92-9BF4-37354BB4C552</title>
    <defs>
        <filter id="filter-1">
            <feColorMatrix in="SourceGraphic" type="matrix" values="0 0 0 0 0.447059 0 0 0 0 0.447059 0 0 0 0 0.447059 0 0 0 1.000000 0"></feColorMatrix>
        </filter>
    </defs>
    <g id="--------↳-⚠️-Template-custom-icons" stroke="none" stroke-width="1" fill="none" fill-rule="evenodd">
        <g id="Template-icons---line-style" transform="translate(-168.000000, -185.000000)">
            <g id="Foundations/system-icon/pl-icon-documentation" transform="translate(168.000000, 185.000000)" filter="url(#filter-1)">
                <g>
                    <path d="M29.100572,6.99333313 C29.8695974,6.34751705 31.0203116,6.43767146 31.6770201,7.19703218 L31.6770201,7.19703218 L37.9946965,14.5006918 C38.6586261,15.2683036 38.5650588,16.4256355 37.7878101,17.0777887 L37.7878101,17.0777887 L36.3732581,18.2658894 C35.7885131,18.7573143 34.9827619,18.8226123 34.3415471,18.4916663 L32.0524358,22.3264898 L33.8322679,23.8973147 C34.9536217,24.8881942 35.0476692,26.59404 34.0407428,27.6999544 C33.5909312,28.1939856 32.9978979,28.4841798 32.3801826,28.5643059 L32.24625,28.57625 C32.2581384,29.1715231 32.0731181,29.7673481 31.6865456,30.2645831 L31.5502153,30.4265348 C30.9004825,31.1401409 29.9519319,31.4285635 29.0617791,31.2728594 L28.9925,31.2575 L28.9697863,31.434118 C28.8965969,31.852674 28.7244804,32.2553439 28.4573386,32.6027497 L28.3158671,32.771665 C27.6803058,33.4702183 26.7036832,33.776356 25.7988517,33.6053134 L25.7275,33.58875 L25.7126795,33.6718634 L25.650011,33.8987 C25.5874266,34.0905088 25.5030093,34.2751305 25.3962881,34.4523989 C25.3585397,34.5143917 25.3105861,34.5766672 25.2663676,34.629029 L25.20375,34.69875 L25.1687805,34.7620184 L25.0830177,34.8715366 C24.1334156,35.9144914 22.5455043,36.0489872 21.4345847,35.2163874 L21.2633029,35.0768789 L20.1114358,34.0594898 L18.9361311,35.09943 C17.8692822,36.0421464 16.2568997,35.9976146 15.2449858,35.0260015 L15.1164965,34.8940168 C14.7769287,34.5210671 14.5625697,34.0798899 14.4705909,33.6209168 C13.5530958,33.8173767 12.5573801,33.5347067 11.8832168,32.7942683 C11.4858002,32.3574091 11.2600256,31.8270089 11.2013832,31.2840738 C10.2942557,31.4651126 9.31479568,31.1803239 8.64935495,30.4491529 C8.16907713,29.9216603 7.93927945,29.2577548 7.95196246,28.6000148 C7.28820414,28.547594 6.64105915,28.2521374 6.15879947,27.7222415 C5.15187338,26.6163274 5.24592015,24.9107574 6.36717522,23.9199652 L6.36717522,23.9199652 L7.73843583,22.7064898 L5.68918287,18.4755419 C5.08961284,18.7994955 4.33838867,18.7716128 3.75873543,18.3669661 L3.62725342,18.2661235 L2.21250486,17.0780926 C1.43474624,16.4255115 1.34133954,15.267944 2.00556182,14.5006623 L2.00556182,14.5006623 L8.32321279,7.19703218 C8.97992124,6.43767146 10.1306355,6.34751705 10.8997026,6.99336819 L10.8997026,6.99336819 L12.3141416,8.1813333 C12.8038441,8.59257815 13.0221936,9.20409017 12.9506786,9.79221134 C12.967402,9.8009983 12.9872674,9.8102015 13.0075473,9.81942442 C13.4630135,10.0265615 13.9395788,10.1490626 14.4039877,10.1490626 L14.8597506,10.1389406 L15.4662281,10.10381 L17.3802479,9.96342249 L18.0817036,9.92565295 L18.4658636,9.91572464 L18.7966347,9.91853046 C18.8901052,9.92136132 18.9777825,9.92601562 19.0611116,9.93255087 L18.8854091,10.0568597 C20.9692584,8.51685706 23.8894798,8.45525695 26.2169209,9.27937304 L26.5046603,9.38695778 C26.6916223,9.46064756 26.8698263,9.52134062 27.0385092,9.57057619 C27.0371433,9.05306602 27.2578546,8.54072492 27.6858395,8.1813096 L27.6858395,8.1813096 Z M19.2917781,31.0230463 C18.9765249,30.7736543 18.5109342,30.7779272 18.1997184,31.0529317 L18.1997184,31.0529317 L16.5665329,32.4964215 C16.2288193,32.7948407 16.2009655,33.3000567 16.5030512,33.6318396 C16.8120274,33.9713356 17.3486882,34.0000221 17.6944893,33.6944565 L17.6944893,33.6944565 L19.327541,32.251085 C19.6651439,31.9526491 19.6929636,31.4473331 19.3910109,31.1156963 L19.3910109,31.1156963 Z M11.9662584,11.3984852 L7.08043583,17.0474898 L9.1986743,21.4227116 C10.2635208,20.5807547 11.7978454,20.6555577 12.7742302,21.5927456 L12.9027791,21.7247417 C13.1684922,22.0167011 13.3575119,22.3504424 13.4711938,22.7017899 C14.5310447,22.1841461 15.8501537,22.4015459 16.6805821,23.3140016 C17.1344303,23.8124663 17.3645868,24.4328923 17.3777821,25.054807 C18.1877156,24.9913676 19.0179808,25.2890452 19.604697,25.9334398 C20.4469419,26.8584833 20.5188896,28.2032692 19.8636991,29.1982468 C20.2019012,29.3448409 20.5142926,29.5642408 20.7775656,29.8535191 L20.7775656,29.8535191 L20.9139019,30.015413 C21.5023138,30.7719815 21.6239043,31.7572413 21.2990674,32.6062538 L22.5049447,33.6719054 C22.8162542,33.9469927 23.2819417,33.951271 23.5974194,33.7017588 L23.63625,33.665 L23.6848977,33.596083 L23.8125,33.44 L23.8346288,33.4012345 L23.8671551,33.3181411 C23.9027186,33.2087092 23.9135677,33.0881739 23.8982451,32.9612108 C23.8798662,32.8086418 23.7536093,32.5988706 23.4906075,32.3034011 L23.2448445,32.0364369 L22.7965918,31.5276525 L22.6468337,31.3658012 L22.515373,31.2358479 C21.6057483,30.3784781 22.8920464,29.0139989 23.8015355,29.8715125 C24.0414723,30.0977374 24.278404,30.3153981 24.5132523,30.525085 L25.1854367,31.1151595 C25.5150124,31.402755 25.7261196,31.5662739 25.931167,31.684263 C26.2321984,31.8574721 26.683015,31.7801963 26.9293917,31.5094008 C27.164318,31.2515234 27.2023535,30.8531027 27.0210395,30.5584583 C26.9268452,30.4051777 26.8204375,30.2588576 26.672901,30.0778859 L26.1426313,29.458972 L25.4132677,28.6680099 L25.177391,28.3991553 C25.141322,28.3566468 25.1065589,28.3148968 25.0726277,28.2733171 C24.3810444,27.425844 25.4537735,26.2819253 26.343876,26.9177048 C26.4693889,27.0073557 26.5825326,27.0960522 26.7080837,27.2032727 L26.9830703,27.448184 L27.5178073,27.9416906 L28.9721423,29.2271794 C29.3179382,29.5327405 29.8544382,29.5039788 30.1636606,29.1643577 C30.4353258,28.8658582 30.4399027,28.4269191 30.1642141,28.0986952 L30.0619196,27.9937324 L27.8362049,25.7956424 C27.0019969,24.9717883 28.119322,23.7146583 29.0170753,24.3478837 L29.1158118,24.4261393 L31.4626697,26.5003232 C31.8085692,26.8059758 32.3450587,26.7772962 32.6543225,26.4376296 C32.9260787,26.1391579 32.9306927,25.7000858 32.6830418,25.3980061 L32.5911688,25.3027675 L21.7854358,15.7664898 L21.4946108,15.9848525 C20.920323,16.4094137 20.3294452,16.8340928 19.7534903,17.2314717 L19.2529026,17.5721983 L18.6566948,17.963927 L18.1107344,18.3048444 C17.7640289,18.5145815 17.4523781,18.6886319 17.1788951,18.8233712 C15.9754385,19.4162888 14.8941624,19.3275018 14.0636194,18.7819139 C13.8527743,18.6434087 13.6920381,18.4988766 13.5769968,18.3688518 L13.54625,18.3325 L13.4119671,18.1922062 C12.3569769,17.0332037 12.3371859,15.7764249 12.9953675,14.7177954 L13.104873,14.5523332 C13.2506221,14.3448893 13.3979638,14.1797003 13.5419482,14.0454091 L13.7698285,13.857454 L16.3814358,11.9164898 L15.5634201,11.9766186 L14.9151464,12.0134647 L14.6530525,12.021571 L14.4039877,12.0240626 C13.6437075,12.0240626 12.9130794,11.8362547 12.2313344,11.5262104 C12.1376743,11.4836156 12.0492309,11.4408271 11.9662584,11.3984852 Z M18.1190713,27.1031799 C17.8035351,26.8535587 17.3379923,26.8577615 17.0267337,27.1326983 L17.0267337,27.1326983 L13.3338019,30.3969684 C12.9961855,30.6953017 12.9683204,31.2007217 13.2699059,31.5322389 C13.5791646,31.8718999 14.1159335,31.90059 14.4617583,31.5950033 L14.4617583,31.5950033 L18.1546607,28.3310351 C18.4923743,28.0326159 18.5202281,27.5273999 18.2182768,27.1957646 L18.2182768,27.1957646 Z M15.1947692,24.4834987 C14.8794474,24.2340179 14.4138582,24.2382155 14.1027415,24.5131325 L14.1027415,24.5131325 L10.0995404,28.0514258 C9.76165458,28.350125 9.73380778,28.8551751 10.0359096,29.1869757 C10.344976,29.5265708 10.8815421,29.555293 11.2273683,29.2495744 L11.2273683,29.2495744 L15.2305575,25.7115674 C15.5681604,25.4131315 15.5959801,24.9078155 15.2940274,24.5761787 L15.2940274,24.5761787 Z M11.5163588,22.9870664 C11.2070048,22.6473007 10.6706101,22.6185855 10.3248051,22.9242853 L10.3248051,22.9242853 L7.60883582,25.3249221 C7.2711165,25.6233463 7.24327358,26.1282871 7.54535413,26.4600643 C7.85442841,26.7996681 8.39082039,26.8284262 8.73652942,26.5229419 L8.73652942,26.5229419 L11.452609,24.1224551 C11.790216,23.8240156 11.8180812,23.3185921 11.5163588,22.9870664 Z M19.9997829,11.5647708 L14.8401446,15.3969729 L14.7594301,15.4779994 C14.7239488,15.5177302 14.6818583,15.5693311 14.6390599,15.6302458 C14.3487819,16.0433967 14.3264529,16.4081769 14.7798343,16.9102876 L14.9032106,17.0387838 L14.9911954,17.1387605 L15.0471565,17.1827923 C15.0603235,17.1925292 15.0756721,17.2033679 15.0930676,17.2147951 C15.3799268,17.4032344 15.7561318,17.4341257 16.3502352,17.1414236 C16.5781301,17.0291446 16.8517081,16.8756431 17.1638009,16.6861636 L17.6599302,16.3756165 C17.7471341,16.3195799 17.8365212,16.2614586 17.9279794,16.2013345 L18.445634,15.8547475 L18.6886848,15.688159 C19.0603064,15.4317594 19.4396662,15.1626685 19.8169165,14.8893123 L21.1116098,13.9284404 C21.3224232,13.7668109 21.5799817,13.7085627 21.8233731,13.7456517 C22.0436384,13.7121853 22.2753437,13.7579328 22.4717028,13.8854613 L22.5823025,13.9695058 L30.6214358,21.0644898 L32.9774358,17.1154898 L28.2273765,11.6234888 C27.6456987,11.6333254 26.9350274,11.5282156 26.130587,11.2477902 L25.8171193,11.1313523 C23.9885624,10.4106393 21.561492,10.4106393 19.9997829,11.5647708 Z M30.28125,8.44875 L28.93625,9.5775 L35.1925,16.80875 L36.53625,15.68 L30.28125,8.44875 Z M9.71875,8.44875 L3.4625,15.68 L4.8075,16.80875 L5.09474158,16.4755764 C5.16793432,16.3137647 5.28721751,16.1718663 5.44503981,16.071618 L11.0625,9.5775 L9.71875,8.44875 Z" id="business" fill="#FFFFFF"></path>
                </g>
            </g>
        </g>
    </g>
</svg>