<?xml version="1.0" encoding="UTF-8"?>
<svg width="40px" height="40px" viewBox="0 0 40 40" version="1.1" xmlns="http://www.w3.org/2000/svg" xmlns:xlink="http://www.w3.org/1999/xlink">
    <title>5219E70F-4E07-48DD-A0C1-9B7D3EB052BB</title>
    <defs>
        <filter id="filter-1">
            <feColorMatrix in="SourceGraphic" type="matrix" values="0 0 0 0 0.447059 0 0 0 0 0.447059 0 0 0 0 0.447059 0 0 0 1.000000 0"></feColorMatrix>
        </filter>
    </defs>
    <g id="--------↳-⚠️-Template-custom-icons" stroke="none" stroke-width="1" fill="none" fill-rule="evenodd">
        <g id="Template-icons---line-style" transform="translate(-228.000000, -185.000000)">
            <g id="Foundations/system-icon/pl-icon-documentation" transform="translate(228.000000, 185.000000)" filter="url(#filter-1)">
                <g>
                    <path d="M11.0396817,2.8125 L11.039,6.1985 L29.527027,6.19935885 L29.527027,8.07435885 L28.336,8.0735 L28.336979,11.9820485 L23.9601021,11.9820485 L23.96,8.0735 L11.039,8.0735 L11.039,35.3775 L20.312,35.3775 L20.3125,29.0625 L27.1875,29.0625 L27.187,35.3775 L29.062,35.3775 L29.0625,29.0625 L35.9375,29.0625 L35.937,35.3775 L37.2297297,35.3775527 L37.2297297,37.2525527 L2.5,37.2525527 L2.5,35.3775527 L4.5,35.3775 L4.5,8.0735 L2.5,8.07435885 L2.5,6.19935885 L4.5,6.1985 L4.50064264,2.8125 L11.0396817,2.8125 Z M9.094,34.1495 L7.822,35.3755 L9.09425926,35.37625 L9.094,34.1495 Z M25.3125,30.9375 L22.1875,30.9375 L22.1875,34.0625 L25.3125,34.0625 L25.3125,30.9375 Z M34.0625,30.9375 L30.9375,30.9375 L30.9375,34.0625 L34.0625,34.0625 L34.0625,30.9375 Z M6.444,30.7615 L6.444,34.0515 L8.15055556,32.40625 L6.444,30.7615 Z M9.094,27.3755 L7.38833333,29.02 L9.094,30.6635 L9.094,27.3755 Z M6.444,23.7275 L6.444,27.2785 L8.28537037,25.5025 L6.444,23.7275 Z M35.9375,20.3125 L35.9375,27.1875 L29.0625,27.1875 L29.0625,20.3125 L35.9375,20.3125 Z M34.0625,22.1875 L30.9375,22.1875 L30.9375,25.3125 L34.0625,25.3125 L34.0625,22.1875 Z M9.094,20.3415 L7.38833333,21.98625 L9.094,23.6295 L9.094,20.3415 Z M6.444,16.9535 L6.444,20.2435 L8.15055556,18.59875 L6.444,16.9535 Z M9.094,13.5685 L7.38833333,15.2125 L9.094,16.8565 L9.094,13.5685 Z M6.444,9.9195 L6.444,13.4705 L8.28537037,11.695 L6.444,9.9195 Z M26.392037,8.07375 L25.9033333,8.07375 L25.9033333,10.10625 L26.392037,10.10625 L26.392037,8.07375 Z M9.094,8.0735 L7.279,8.0735 L9.094,9.8225 L9.094,8.0735 Z M9.09425926,4.68625 L6.44462963,4.68625 L6.444,6.1985 L9.094,6.1985 L9.09425926,4.68625 Z" id="Combined-Shape" fill="#FFFFFF"></path>
                </g>
            </g>
        </g>
    </g>
</svg>