<?xml version="1.0" encoding="UTF-8"?>
<svg width="40px" height="40px" viewBox="0 0 40 40" version="1.1" xmlns="http://www.w3.org/2000/svg" xmlns:xlink="http://www.w3.org/1999/xlink">
    <title>5977456B-2FEE-41F4-8EA6-69C1FD135C77</title>
    <defs>
        <filter id="filter-1">
            <feColorMatrix in="SourceGraphic" type="matrix" values="0 0 0 0 0.447059 0 0 0 0 0.447059 0 0 0 0 0.447059 0 0 0 1.000000 0"></feColorMatrix>
        </filter>
    </defs>
    <g id="--------↳-⚠️-Template-custom-icons" stroke="none" stroke-width="1" fill="none" fill-rule="evenodd">
        <g id="Template-icons---line-style" transform="translate(-288.000000, -185.000000)">
            <g id="Foundations/system-icon/pl-icon-documentation" transform="translate(288.000000, 185.000000)" filter="url(#filter-1)">
                <g>
                    <path d="M19.8363886,23.5162815 C21.7850998,23.5162815 23.3953712,24.9970864 23.3953712,26.8644958 C23.3953712,28.2456464 22.5145209,29.4153168 21.2673781,29.9308151 C23.6375529,30.5165309 25.4000343,32.5283776 25.4000343,34.947479 L25.4000343,34.947479 L25.4000343,38.4375 L14.2727429,38.4375 L14.2727429,34.947479 C14.2727429,32.5283776 16.0352243,30.5165309 18.4056012,29.9292845 C17.1582563,29.4153168 16.277406,28.2456464 16.277406,26.8644958 C16.277406,24.9970864 17.8876774,23.5162815 19.8363886,23.5162815 Z M19.8363886,31.6307773 C17.7825585,31.6307773 16.1477429,33.1341531 16.1477429,34.947479 L16.1477429,34.947479 L16.1475,36.56125 L23.5250343,36.56125 L23.5250343,34.947479 C23.5250343,33.2013133 22.0090736,31.7425637 20.0628058,31.6369034 L20.0628058,31.6369034 Z M9.62614572,20.9637605 C11.5748569,20.9637605 13.1851283,22.4445654 13.1851283,24.3119748 C13.1851283,25.6931254 12.304278,26.8627958 11.0571353,27.3782941 C12.4184734,27.7143003 13.6025724,28.5251331 14.3574439,29.6612508 C14.6439814,30.0925034 14.5266666,30.6743874 14.095414,30.9609249 C13.6641613,31.2474624 13.0822774,31.1301476 12.7957399,30.6988949 C12.1359233,29.7058395 10.9457041,29.0782563 9.62614572,29.0782563 C7.64838343,29.0782563 6.05917224,30.4723332 5.94416587,32.1948135 L5.9375,32.394958 L5.9375,34.00875 L10.5945775,34.009979 C11.0691972,34.009979 11.4614412,34.3626713 11.5235192,34.8202658 L11.5320775,34.947479 C11.5320775,35.4220987 11.1793851,35.8143427 10.7217907,35.8764207 L10.5945775,35.884979 L4.0625,35.884979 L4.0625,32.394958 C4.0625,29.9761966 5.82448601,27.9645754 8.19435886,27.3770112 C6.94801341,26.8627958 6.06716315,25.6931254 6.06716315,24.3119748 C6.06716315,22.4445654 7.67743452,20.9637605 9.62614572,20.9637605 Z M30.2957294,20.9637605 C32.2444406,20.9637605 33.8547119,22.4445654 33.8547119,24.3119748 C33.8547119,25.6931254 32.9738617,26.8627958 31.7267189,27.3782941 C34.0969946,27.9640099 35.859476,29.9758566 35.859476,32.394958 L35.859476,32.394958 L35.859476,35.884979 L29.3273985,35.884979 L29.2001853,35.8764207 C28.7425909,35.8143427 28.3898985,35.4220987 28.3898985,34.947479 L28.3898985,34.947479 L28.3984568,34.8202658 C28.4605348,34.3626713 28.8527788,34.009979 29.3273985,34.009979 L29.3273985,34.009979 L33.9847591,34.00875 L33.984476,32.394958 L33.9778101,32.1948135 C33.8628037,30.4723332 32.2735925,29.0782563 30.2958302,29.0782563 C28.9762719,29.0782563 27.7860527,29.7058395 27.1262361,30.6988949 C26.8396986,31.1301476 26.2578147,31.2474624 25.826562,30.9609249 C25.3953093,30.6743874 25.2779945,30.0925034 25.5645321,29.6612508 C26.3194036,28.5251331 27.5035026,27.7143003 28.8645568,27.3771084 C27.6175971,26.8627958 26.7367468,25.6931254 26.7367468,24.3119748 C26.7367468,22.4445654 28.3470182,20.9637605 30.2957294,20.9637605 Z M19.8363886,25.3912815 C18.8897494,25.3912815 18.152406,26.0693422 18.152406,26.8644958 C18.152406,27.6596494 18.8897494,28.3377101 19.8363886,28.3377101 C20.7830278,28.3377101 21.5203712,27.6596494 21.5203712,26.8644958 C21.5203712,26.0693422 20.7830278,25.3912815 19.8363886,25.3912815 Z M9.62614572,22.8387605 C8.67950652,22.8387605 7.94216315,23.5168212 7.94216315,24.3119748 C7.94216315,25.1071284 8.67950652,25.7851891 9.62614572,25.7851891 C10.5727849,25.7851891 11.3101283,25.1071284 11.3101283,24.3119748 C11.3101283,23.5168212 10.5727849,22.8387605 9.62614572,22.8387605 Z M30.2957294,22.8387605 C29.3490902,22.8387605 28.6117468,23.5168212 28.6117468,24.3119748 C28.6117468,25.1071284 29.3490902,25.7851891 30.2957294,25.7851891 C31.2423686,25.7851891 31.9797119,25.1071284 31.9797119,24.3119748 C31.9797119,23.5168212 31.2423686,22.8387605 30.2957294,22.8387605 Z M19.913491,2.8125 C25.0984471,2.8125 29.3322582,6.70581308 29.3322582,11.5493697 C29.3322582,15.5027789 26.4881374,18.8948339 22.5085852,19.9488218 L22.5085852,19.9488218 L22.325,19.99375 L21.0513892,22.338586 C20.6658585,23.0476537 19.6884529,23.1203152 19.1891177,22.5300748 L19.1891177,22.5300748 L19.095942,22.4031802 L17.58,20.01375 L17.3604581,19.9606344 C13.4628167,18.9464321 10.6424198,15.6908495 10.5003466,11.853497 L10.5003466,11.853497 L10.4947239,11.5493697 C10.4947239,6.70572085 14.7283283,2.8125 19.913491,2.8125 Z M19.913491,4.6875 C15.7304003,4.6875 12.3697239,7.77797663 12.3697239,11.5493697 C12.3697239,14.7908358 14.8707873,17.5909937 18.3400874,18.2609119 L18.3400874,18.2609119 L18.7372821,18.3376097 L20.005,20.33625 L21.092162,18.338324 L21.523701,18.2529432 C24.9752801,17.5700417 27.4572582,14.7781916 27.4572582,11.5493697 C27.4572582,7.7780803 24.0963846,4.6875 19.913491,4.6875 Z M15.7499599,10.2731092 C16.4312369,10.2731092 16.9835987,10.7810609 16.9835987,11.407563 C16.9835987,12.0340651 16.4312369,12.5420168 15.7499599,12.5420168 C15.0686828,12.5420168 14.516321,12.0340651 14.516321,11.407563 C14.516321,10.7810609 15.0686828,10.2731092 15.7499599,10.2731092 Z M19.913491,10.2731092 C20.5947681,10.2731092 21.1471299,10.7810609 21.1471299,11.407563 C21.1471299,12.0340651 20.5947681,12.5420168 19.913491,12.5420168 C19.232214,12.5420168 18.6798522,12.0340651 18.6798522,11.407563 C18.6798522,10.7810609 19.232214,10.2731092 19.913491,10.2731092 Z M24.0770222,10.2731092 C24.7582992,10.2731092 25.310661,10.7810609 25.310661,11.407563 C25.310661,12.0340651 24.7582992,12.5420168 24.0770222,12.5420168 C23.3957451,12.5420168 22.8433833,12.0340651 22.8433833,11.407563 C22.8433833,10.7810609 23.3957451,10.2731092 24.0770222,10.2731092 Z" id="customers" fill="#FFFFFF"></path>
                </g>
            </g>
        </g>
    </g>
</svg>