<?xml version="1.0" encoding="UTF-8"?>
<svg width="40px" height="40px" viewBox="0 0 40 40" version="1.1" xmlns="http://www.w3.org/2000/svg" xmlns:xlink="http://www.w3.org/1999/xlink">
    <title>467A62F5-B81C-4219-A7AF-AE1106CB40DD</title>
    <defs>
        <filter id="filter-1">
            <feColorMatrix in="SourceGraphic" type="matrix" values="0 0 0 0 0.447059 0 0 0 0 0.447059 0 0 0 0 0.447059 0 0 0 1.000000 0"></feColorMatrix>
        </filter>
    </defs>
    <g id="--------↳-⚠️-Template-custom-icons" stroke="none" stroke-width="1" fill="none" fill-rule="evenodd">
        <g id="Template-icons---line-style" transform="translate(-408.000000, -245.000000)">
            <g id="Foundations/system-icon/pl-icon-documentation" transform="translate(408.000000, 245.000000)" filter="url(#filter-1)">
                <g>
                    <path d="M30.0017962,9.39163464 C31.1419154,9.39163464 32.0722482,10.3072684 32.0722482,11.4443761 L32.0722482,11.4443761 L32.0722482,35.3416224 C32.0722482,36.4787302 31.1419154,37.3943639 30.0017962,37.3943639 L30.0017962,37.3943639 L4.88658412,37.3943639 C3.74644802,37.3943639 2.81641155,36.4787099 2.81641155,35.3416224 L2.81641155,35.3416224 L2.81641155,11.4443761 C2.81641155,10.3072886 3.74644802,9.39163464 4.88658412,9.39163464 L4.88658412,9.39163464 Z M11.2784115,15.8175 L4.69041155,15.8175 L4.69141155,35.3416224 C4.69141155,35.4175874 4.74522638,35.485763 4.8236288,35.5099946 L4.88658412,35.5193639 L11.2784115,35.5185 L11.2784115,15.8175 Z M30.1964115,15.8175 L13.1534115,15.8175 L13.1534115,35.5185 L30.0017962,35.5193639 C30.0907646,35.5193639 30.1624728,35.4663012 30.1875974,35.3965226 L30.1972482,35.3416224 L30.1964115,15.8175 Z M35.117048,4.0625 C36.1971609,4.0625 37.0889891,4.8842876 37.1798738,5.93763987 L37.1875,6.1152415 L37.1875,31.1126027 C37.1875,32.1898627 36.3525199,33.0683482 35.2952184,33.1578363 L35.117048,33.1653442 L34.4673727,33.1653442 C33.9496058,33.1653442 33.5298727,32.7456112 33.5298727,32.2278442 C33.5298727,31.7532245 33.8825651,31.3609805 34.3401595,31.2989025 L34.4673727,31.2903442 L35.117048,31.2903442 C35.2060164,31.2903442 35.2777246,31.2372815 35.3028492,31.1675029 L35.3125,31.1126027 L35.3125,6.1152415 C35.3125,6.03937672 35.2585854,5.97114103 35.1800798,5.94688134 L35.117048,5.9375 L9.16364704,5.9375 C9.07477753,5.9375 9.00318879,5.99048262 8.97810807,6.06029322 L8.96847447,6.1152415 L8.96847447,7.23883307 C8.96847447,7.75660002 8.54874142,8.17633307 8.03097447,8.17633307 C7.55635476,8.17633307 7.16411077,7.82364072 7.10203274,7.36604627 L7.09347447,7.23883307 L7.09347447,6.1152415 C7.09347447,5.03800071 7.92818864,4.15949802 8.98547649,4.0700081 L9.16364704,4.0625 L35.117048,4.0625 Z M10.1798028,28.6979167 L10.1798028,29.7980316 L5.43006579,29.7980316 L5.43006579,28.6979167 L10.1798028,28.6979167 Z M10.1798028,24.7858796 L10.1798028,25.8859945 L5.43006579,25.8859945 L5.43006579,24.7858796 L10.1798028,24.7858796 Z M27.7817692,17.0923291 C28.2995361,17.0923291 28.7192692,17.5120621 28.7192692,18.0298291 L28.7192692,18.0298291 L28.7192692,23.2553749 C28.7192692,23.7731419 28.2995361,24.1928749 27.7817692,24.1928749 L27.7817692,24.1928749 L15.208936,24.1928749 C14.6911691,24.1928749 14.271436,23.7731419 14.271436,23.2553749 L14.271436,23.2553749 L14.271436,18.0298291 C14.271436,17.5120621 14.6911691,17.0923291 15.208936,17.0923291 L15.208936,17.0923291 Z M26.84375,18.96625 L16.14625,18.96625 L16.14625,22.3175 L26.84375,22.3175 L26.84375,18.96625 Z M10.1798028,20.8738426 L10.1798028,21.9739575 L5.43006579,21.9739575 L5.43006579,20.8738426 L10.1798028,20.8738426 Z M10.1798028,17.4797716 L10.1798028,18.5798865 L5.43006579,18.5798865 L5.43006579,17.4797716 L10.1798028,17.4797716 Z M30.0017962,11.2666346 L4.88658412,11.2666346 C4.77549723,11.2666346 4.69141155,11.34942 4.69141155,11.4443761 L4.69141155,11.4443761 L4.69041155,13.9425 L30.1964115,13.9425 L30.1972482,11.4443761 C30.1972482,11.3685114 30.1433336,11.3002757 30.064828,11.276016 L30.0017962,11.2666346 Z M7.1065553,11.979307 C7.41500881,11.979307 7.66534788,12.2257328 7.66534788,12.5293645 C7.66534788,12.8329962 7.41500881,13.0794219 7.1065553,13.0794219 L6.26836642,13.0794219 C5.95991291,13.0794219 5.70957384,12.8329962 5.70957384,12.5293645 C5.70957384,12.2257328 5.95991291,11.979307 6.26836642,11.979307 L7.1065553,11.979307 Z M10.1799145,11.979307 C10.488368,11.979307 10.7387071,12.2257328 10.7387071,12.5293645 C10.7387071,12.8329962 10.488368,13.0794219 10.1799145,13.0794219 L9.34172564,13.0794219 C9.03327213,13.0794219 8.78293305,12.8329962 8.78293305,12.5293645 C8.78293305,12.2257328 9.03327213,11.979307 9.34172564,11.979307 L10.1799145,11.979307 Z M13.2532737,11.979307 C13.5617272,11.979307 13.8120663,12.2257328 13.8120663,12.5293645 C13.8120663,12.8329962 13.5617272,13.0794219 13.2532737,13.0794219 L12.4150849,13.0794219 C12.1066313,13.0794219 11.8562923,12.8329962 11.8562923,12.5293645 C11.8562923,12.2257328 12.1066313,11.979307 12.4150849,11.979307 L13.2532737,11.979307 Z" id="web" fill="#FFFFFF"></path>
                </g>
            </g>
        </g>
    </g>
</svg>