<?xml version="1.0" encoding="UTF-8"?>
<svg width="211px" height="203px" viewBox="0 0 211 203" version="1.1" xmlns="http://www.w3.org/2000/svg" xmlns:xlink="http://www.w3.org/1999/xlink">
    <title>25B73D60-A248-4525-8FA9-87CA071C1A5E</title>
    <defs>
        <path d="M142.150213,8.3879637 L117.821148,15.8178131 C117.735022,15.8445927 117.648896,15.8564947 117.5598,15.8564947 L78.4378803,15.8564947 C78.2596889,15.8564947 78.0844674,15.8029355 77.9359746,15.7017682 L67.8414322,8.87297189 C67.2118226,8.44747391 67.3632853,7.47745753 68.09387,7.2661963 L92.8921721,0.0357061243 C92.9723582,0.0119020414 93.058484,0 93.14164,0 L131.054829,0 C131.221141,0 131.381513,0.0446326554 131.521096,0.130922456 L142.352163,6.75738403 C143.014441,7.16800446 142.889707,8.16182492 142.150213,8.3879637 Z M182.727363,7.67979224 L144.211293,7.67979224 C144.122197,7.67979224 144.036072,7.69169428 143.949946,7.71847387 L119.573363,15.1632008 C118.842779,15.3863641 118.706165,16.365307 119.350624,16.7789029 L130.437098,23.8992992 C130.582621,23.99154 130.748933,24.0421237 130.921185,24.0421237 L170.681624,24.0421237 C170.77369,24.0421237 170.865755,24.0272462 170.954851,24.0004666 L194.832498,16.3474539 C195.571992,16.1094131 195.681877,15.1066661 195.010689,14.7168742 L183.178781,7.80773918 C183.042167,7.72144938 182.884765,7.67979224 182.727363,7.67979224 Z M116.915342,15.7047437 L77.7934214,15.7047437 C77.7072956,15.7047437 77.6211698,15.7166457 77.5380138,15.7434253 L51.5458293,23.4916543 C50.8300939,23.705891 50.6726915,24.6491278 51.2815121,25.0835523 L61.5780047,32.4360384 C61.7294674,32.5431568 61.9106287,32.602667 62.0977296,32.602667 L102.502628,32.602667 C102.591724,32.602667 102.683789,32.5877895 102.769915,32.5610099 L128.272073,24.5866421 C128.999688,24.3605033 129.130362,23.3845359 128.488873,22.9739155 L117.396458,15.8445927 C117.253905,15.7523518 117.087593,15.7047437 116.915342,15.7047437 Z M65.7892613,7.65598816 L27.2999206,7.65598816 C27.2167646,7.65598816 27.1336086,7.6678902 27.0534225,7.69169428 L0.65139785,15.222711 C-0.0613677191,15.4250457 -0.233619398,16.3563804 0.357382053,16.802707 L9.6678823,23.8576421 C9.82231484,23.9766625 10.0123857,24.0391482 10.2083962,24.0391482 L49.939137,24.0391482 C50.0252628,24.0391482 50.1113886,24.0272462 50.1945446,24.0004666 L76.1392113,16.2552131 C76.8638563,16.0380008 77.0123492,15.0739355 76.3857094,14.651413 L66.2911671,7.80773918 C66.1426742,7.70954734 65.9674527,7.65598816 65.7892613,7.65598816 Z" id="path-1"></path>
        <radialGradient cx="46.4848226%" cy="51.7029967%" fx="46.4848226%" fy="51.7029967%" r="79.8696083%" gradientTransform="translate(0.464848,0.517030),scale(0.608800,1.000000),translate(-0.464848,-0.517030)" id="radialGradient-3">
            <stop stop-color="#FF4535" offset="6.23%"></stop>
            <stop stop-color="#EEF1F5" stop-opacity="0" offset="81.56%"></stop>
        </radialGradient>
        <linearGradient x1="50.0004871%" y1="103.196495%" x2="50.0004871%" y2="-3.18152779%" id="linearGradient-4">
            <stop stop-color="#9CA8C9" offset="41.79%"></stop>
            <stop stop-color="#AB99B3" offset="52.46%"></stop>
            <stop stop-color="#D0747B" offset="74.71%"></stop>
            <stop stop-color="#FF4535" offset="99.44%"></stop>
        </linearGradient>
    </defs>
    <g id="â—-Wizards" stroke="none" stroke-width="1" fill="none" fill-rule="evenodd">
        <g id="Create-new-analysis-&gt;-Loading-feedback" transform="translate(-1509.000000, -3432.000000)">
            <g id="error-image-2" transform="translate(1511.000000, 3434.000000)">
                <g id="Rectangle" transform="translate(0.078216, 167.397333)">
                    <mask id="mask-2" fill="white">
                        <use xlink:href="#path-1"></use>
                    </mask>
                    <use id="Mask" fill="#EEF1F5" fill-rule="nonzero" xlink:href="#path-1"></use>
                    <rect fill="url(#radialGradient-3)" fill-rule="nonzero" opacity="0.591532389" mask="url(#mask-2)" x="34.0949523" y="-48.111027" width="182.767941" height="111.26921"></rect>
                </g>
                <path d="M142.150213,175.734713 L117.821148,183.164562 C117.735022,183.191342 117.648896,183.203244 117.5598,183.203244 L78.4378803,183.203244 C78.2596889,183.203244 78.0844674,183.149685 77.9359746,183.048517 L67.8414322,176.219721 C67.2118226,175.794223 67.3632853,174.824207 68.09387,174.612946 L92.8921721,167.382455 C92.9723582,167.358651 93.058484,167.346749 93.14164,167.346749 L131.054829,167.346749 C131.221141,167.346749 131.381513,167.391382 131.521096,167.477672 L142.352163,174.104133 C143.014441,174.514754 142.889707,175.508574 142.150213,175.734713 Z M182.727363,175.026542 L144.211293,175.026542 C144.122197,175.026542 144.036072,175.038444 143.949946,175.065223 L119.573363,182.50995 C118.842779,182.733113 118.706165,183.712056 119.350624,184.125652 L130.437098,191.246049 C130.582621,191.338289 130.748933,191.388873 130.921185,191.388873 L170.681624,191.388873 C170.77369,191.388873 170.865755,191.373995 170.954851,191.347216 L194.832498,183.694203 C195.571992,183.456162 195.681877,182.453415 195.010689,182.063624 L183.178781,175.154488 C183.042167,175.068199 182.884765,175.026542 182.727363,175.026542 Z M116.915342,183.051493 L77.7934214,183.051493 C77.7072956,183.051493 77.6211698,183.063395 77.5380138,183.090175 L51.5458293,190.838404 C50.8300939,191.05264 50.6726915,191.995877 51.2815121,192.430302 L61.5780047,199.782788 C61.7294674,199.889906 61.9106287,199.949416 62.0977296,199.949416 L102.502628,199.949416 C102.591724,199.949416 102.683789,199.934539 102.769915,199.907759 L128.272073,191.933391 C128.999688,191.707253 129.130362,190.731285 128.488873,190.320665 L117.396458,183.191342 C117.253905,183.099101 117.087593,183.051493 116.915342,183.051493 Z M65.7892613,175.002737 L27.2999206,175.002737 C27.2167646,175.002737 27.1336086,175.01464 27.0534225,175.038444 L0.65139785,182.56946 C-0.0613677191,182.771795 -0.233619398,183.70313 0.357382053,184.149456 L9.6678823,191.204391 C9.82231484,191.323412 10.0123857,191.385898 10.2083962,191.385898 L49.939137,191.385898 C50.0252628,191.385898 50.1113886,191.373995 50.1945446,191.347216 L76.1392113,183.601962 C76.8638563,183.38475 77.0123492,182.420685 76.3857094,181.998162 L66.2911671,175.154488 C66.1426742,175.056297 65.9674527,175.002737 65.7892613,175.002737 Z" id="Shape" stroke="url(#linearGradient-4)" stroke-width="2.08285725" fill-rule="nonzero"></path>
                <path d="M71.8269797,71.9894976 C81.3750684,76.0332162 69.1867772,138.173775 58.8071286,138.284015 C53.7524328,138.337428 49.8322221,123.683039 48.7660436,117.30652 C48.2522584,114.226867 46.2268163,100.042609 55.3116074,86.3403841 C58.0290262,82.2431063 67.1583652,70.0107832 71.8269797,71.9894976 Z" id="left_ear_3_" stroke="#9BAACC" stroke-width="2.08285725" fill="#EEF1F5" fill-rule="nonzero"></path>
                <path d="M73.166385,73.1172161 C82.7144737,77.1609346 70.5172729,139.822207 60.1465339,139.411587 C58.6319071,139.352077 63.1312397,128.794966 66.3060163,116.416843 C67.7998542,110.590794 69.4570341,103.955405 70.3836294,98.9089399 C73.47525,82.0407716 70.8291079,72.1263711 73.166385,73.1172161 Z" id="right_ear_10_" fill="#9BAACC" fill-rule="nonzero"></path>
                <ellipse id="body_5_" stroke="#9BAACC" stroke-width="2.08285725" fill="#EEF2F5" fill-rule="nonzero" cx="98.0567526" cy="103.104409" rx="40.1376111" ry="40.2140225"></ellipse>
                <path d="M99.4288263,143.348187 C121.595836,143.348187 139.566437,125.343374 139.566437,103.134165 C139.566437,92.0295599 136.513425,115.369463 123.710373,128.199864 C110.901382,141.030265 88.3453217,143.348187 99.4288263,143.348187 Z" id="body_2_" fill="#9BAACC" fill-rule="nonzero"></path>
                <path d="M99.5654397,88.2893434 C101.573063,85.9982004 103.185695,82.2431063 103.185695,82.2431063" id="Path" stroke="#9BAACC" stroke-width="5.35591865" fill="#9BAACC" fill-rule="nonzero" stroke-linecap="round"></path>
                <ellipse id="face_plate_6_" fill="#000000" fill-rule="nonzero" cx="88.7017045" cy="104.01194" rx="21.7274704" ry="21.7688338"></ellipse>
                <ellipse id="Oval" stroke="#FFFFFF" stroke-width="2.08285725" fill="#FFFFFF" fill-rule="nonzero" cx="97.1509464" cy="101.59285" rx="1.20576175" ry="1.20805721"></ellipse>
                <ellipse id="Oval" stroke="#FFFFFF" stroke-width="2.08285725" fill="#FFFFFF" fill-rule="nonzero" cx="75.4234759" cy="101.59285" rx="1.20576175" ry="1.20805721"></ellipse>
                <path d="M94.6857449,111.187359 C88.2809013,105.318982 82.9030924,105.318982 78.5523182,111.187359" id="Path" stroke="#FFFFFF" stroke-width="2.08285725" stroke-linecap="round"></path>
                <ellipse id="face_plate_1_" stroke="#9BAACC" stroke-width="2.08285725" cx="88.7017045" cy="104.01194" rx="21.7274704" ry="21.7688338"></ellipse>
                <path d="M81.383978,76.3188652 C76.332252,78.7379551 82.6224082,91.5653803 85.9278585,92.1485803 C89.2362787,92.7317804 105.938752,83.2339513 103.758877,79.4014939 C101.579002,75.5660611 85.6516618,74.2746896 81.383978,76.3188652 Z" id="head_thing_3_" stroke="#9BAACC" stroke-width="2.08285725" fill="#EEF1F5" fill-rule="nonzero"></path>
                <path d="M129.323402,76.6729509 C119.421901,79.7496287 125.409131,142.794742 135.726413,143.934363 C140.74844,144.490783 146.100122,130.294623 147.78997,124.057953 C148.606681,121.046737 152.022016,107.130275 144.338997,92.5949069 C142.040328,88.2447107 134.164268,75.1703182 129.323402,76.6729509 Z" id="right_ear_3_" stroke="#9BAACC" stroke-width="2.08285725" fill="#EEF1F5" fill-rule="nonzero"></path>
                <path d="M128.661124,76.7413877 C118.759623,79.8180654 124.702305,143.380918 135.064135,144.003341 C136.578762,144.092065 133.142638,133.139211 131.206291,120.511145 C130.294545,114.566075 129.302613,107.796789 128.880894,102.681887 C127.470212,85.5905555 131.081557,75.9885836 128.661124,76.7413877 Z" id="right_ear_2_" fill="#9BAACC" fill-rule="nonzero"></path>
                <ellipse id="Oval" stroke="#000000" stroke-width="2.08285725" cx="179.840662" cy="26.6070136" rx="27.159338" ry="26.6070136"></ellipse>
                <polygon id="Path" stroke="#000000" stroke-width="2.08285725" fill="#000000" fill-rule="nonzero" points="159.719884 53.2140273 164.14794 48.9828515 162.737258 48.2865821"></polygon>
                <path d="M82.8243584,83.0494696 C82.0967436,81.6152737 82.3907594,80.3209266 83.7064058,79.6960695" id="Path" stroke="#FFFFFF" stroke-width="2.97551036" fill="#EEF1F5" fill-rule="nonzero" stroke-linecap="round" stroke-linejoin="round"></path>
                <ellipse id="Oval" fill="#FFFFFF" fill-rule="nonzero" cx="83.8727178" cy="85.8702535" rx="1.20576175" ry="1.20805721"></ellipse>
                <path d="M87.510792,68.9187709 C79.6466119,70.7516853 73.392094,76.7711428 68.0701111,84.0432901" id="Path" stroke="#FFFFFF" stroke-width="3.57061243" stroke-linecap="round"></path>
                <g id="Group-5" transform="translate(164.000000, 11.000000)" fill-rule="nonzero">
                    <path d="M14.3292907,0.960390528 L0.262450014,25.1224254 C-0.482236635,26.4029461 0.446203862,28 1.93557716,28 L30.0644228,28 C31.5537961,28 32.4822366,26.4029461 31.73755,25.1224254 L17.6707093,0.960390528 C16.9308583,-0.320130176 15.0739773,-0.320130176 14.3292907,0.960390528 Z" id="Warning" fill="#F0675C"></path>
                    <path d="M16.2441992,21.1417805 C17.3124565,21.1417805 18.1784502,22.0006699 18.1784502,23.0601636 C18.1784502,24.1196573 17.3124565,24.9785467 16.2441992,24.9785467 C15.1759418,24.9785467 14.3099482,24.1196573 14.3099482,23.0601636 C14.3099482,22.0006699 15.1759418,21.1417805 16.2441992,21.1417805 Z M17.5111336,5.79471588 L17.1049409,18.7438017 L15.1803611,18.7438017 L14.3099482,5.79471588 L17.5111336,5.79471588 Z" id="Combined-Shape" fill="#FFFFFF"></path>
                </g>
            </g>
        </g>
    </g>
</svg>