<?xml version="1.0" encoding="UTF-8"?>
<svg width="40px" height="40px" viewBox="0 0 40 40" version="1.1" xmlns="http://www.w3.org/2000/svg" xmlns:xlink="http://www.w3.org/1999/xlink">
    <title>353F01CD-C312-4737-B49A-5E6DAA54D6AE</title>
    <defs>
        <filter id="filter-1">
            <feColorMatrix in="SourceGraphic" type="matrix" values="0 0 0 0 0.447059 0 0 0 0 0.447059 0 0 0 0 0.447059 0 0 0 1.000000 0"></feColorMatrix>
        </filter>
    </defs>
    <g id="--------↳-⚠️-Template-custom-icons" stroke="none" stroke-width="1" fill="none" fill-rule="evenodd">
        <g id="Template-icons---line-style" transform="translate(-348.000000, -185.000000)">
            <g id="Foundations/system-icon/pl-icon-documentation" transform="translate(348.000000, 185.000000)" filter="url(#filter-1)">
                <g>
                    <path d="M29.2082547,5 C30.5518522,5 31.6527759,6.0398511 31.7500838,7.35861127 L31.7570755,7.54882075 L31.757,10 L37.3360518,10 C38.7506391,10 39.9078361,11.1174244 39.9947586,12.5289396 L40,12.6996804 L40,34.8003196 C40,36.2340447 38.8972102,37.4066124 37.5045148,37.4946891 L37.3360518,37.5 L35.625,37.499 L35.625,37.5 L33.75,37.5 L33.75,37.499 L6.25,37.499 L6.25,37.5 L4.375,37.5 L4.375,37.499 L2.66394818,37.5 C1.24910689,37.5 0.0921443934,36.3826658 0.00524023901,34.9710708 L0,34.8003196 L0,12.6996804 C0,11.2658615 1.10254552,10.0933803 2.49545703,10.0053105 L2.66394818,10 L8.75,10 L8.75,7.54882075 C8.75,6.20522331 9.7898511,5.1042996 11.1086113,5.00699165 L11.2988208,5 L29.2082547,5 Z M4.375,11.815 L2.66394818,11.8150685 C2.21877751,11.8150685 1.8516847,12.152382 1.79784303,12.5886813 L1.79104478,12.6996804 L1.79104478,34.8003196 C1.79104478,35.2514615 2.12389368,35.6234782 2.55441823,35.6780421 L2.66394818,35.6849315 L4.375,35.684 L4.375,11.815 Z M33.75,11.815 L6.25,11.815 L6.25,35.684 L33.75,35.684 L33.75,11.815 Z M37.3360518,11.8150685 L35.625,11.815 L35.625,35.684 L37.3360518,35.6849315 C37.7810307,35.6849315 38.1482858,35.3474862 38.2021536,34.9112883 L38.2089552,34.8003196 L38.2089552,12.6996804 C38.2089552,12.2110981 37.8181123,11.8150685 37.3360518,11.8150685 Z M22.2465372,17.9009434 L22.245,22.6225 L26.9693396,22.6238957 L26.9693396,26.3738957 L22.245,26.3725 L22.2465372,31.0966981 L18.4965372,31.0966981 L18.495,26.3725 L13.7735849,26.3738957 L13.7735849,22.6238957 L18.495,22.6225 L18.4965372,17.9009434 L22.2465372,17.9009434 Z M29.2082547,6.875 L11.2988208,6.875 C10.9639808,6.875 10.686058,7.11943887 10.6338218,7.43954699 L10.625,7.54882075 L10.625,10 L29.882,10 L29.8820755,7.54882075 C29.8820755,7.21398082 29.6376366,6.93605796 29.3175285,6.88382178 L29.2082547,6.875 Z" id="Combined-Shape" fill="#FFFFFF"></path>
                </g>
            </g>
        </g>
    </g>
</svg>