<?xml version="1.0" encoding="UTF-8"?>
<svg width="24px" height="24px" viewBox="0 0 24 24" version="1.1" xmlns="http://www.w3.org/2000/svg" xmlns:xlink="http://www.w3.org/1999/xlink">
    <title>9FA8C12D-8621-4A09-8DF0-999E769DAB6E</title>
    <g id="â—-Wizards" stroke="none" stroke-width="1" fill="none" fill-rule="evenodd">
        <g id="Create-new-analysis-&gt;-Mapping" transform="translate(-81.000000, -1164.000000)" fill="#B6B6B6">
            <g id="Foundations/system-icon/pl-icon-hint-Copy-3" transform="translate(81.000000, 1164.000000)">
                <path d="M14.7598715,22.7439254 C14.7549425,23.4126328 14.0968775,23.9628604 13.2576227,24 L13.2576227,24 L10.7538748,23.9882829 C9.97727701,23.8969234 9.40059944,23.3684714 9.39595979,22.7439254 L9.39595979,22.7439254 Z M12.0561974,4.44670964 C15.5863604,4.47740004 18.4996017,6.99401253 18.602422,10.1551233 C18.6709689,11.5361912 18.1568675,12.8251878 17.3000318,13.8686613 C16.2032821,15.1684898 15.5619302,16.7401779 15.490272,18.3534445 L15.4835401,18.6563631 L15.4835401,18.9018862 C15.9633681,18.9018862 16.271829,19.3622422 16.0661884,19.7305269 C15.965172,19.9227457 15.7850703,20.2565994 15.5978682,20.6016348 L15.4373492,20.8970752 C15.1725159,21.3838976 14.9351653,21.8174739 14.9351653,21.8174739 C14.8529091,21.9402355 14.7487179,22.0433552 14.6225916,22.0954061 L14.5238842,22.1243778 L9.7598778,22.1243778 C9.51996381,22.1243778 9.28004982,22.0016162 9.17722954,21.8174739 C9.17722954,21.8174739 8.32039386,20.2522637 8.04620644,19.7305269 C7.85427525,19.3581501 8.11018351,18.9590386 8.53527555,18.9074787 L8.6288547,18.9018862 L8.6288547,18.6563631 C8.6288547,16.9683913 8.04620644,15.2804195 6.88090992,13.9607325 C5.98980081,12.9786398 5.4756994,11.7203335 5.4756994,10.3392657 C5.4756994,7.08608371 8.42321414,4.44670964 12.0561974,4.44670964 Z M14.2150388,9.24730371 C13.6390498,9.24730371 13.2218303,9.41022789 12.8879715,9.77612519 L12.7796692,9.90566342 L12.7039976,10.0221897 C12.6088964,10.1961104 12.5541883,10.4219705 12.5240467,10.7199194 L12.5087831,10.9075007 L12.5055,10.9635 L11.577,10.9755 L11.5775149,10.5540985 L11.5276597,10.3458688 C11.3184073,9.61530523 10.8209527,9.24730371 10.1260234,9.24730371 C9.18442947,9.24730371 8.51840533,9.94237953 8.51840533,10.6768601 C8.51840533,11.2236984 8.86567731,11.7810438 9.39319293,11.991426 L9.51805087,12.0336539 L9.67401298,12.0617492 L9.96657051,12.0856192 L10.4625,12.1005 L10.4525149,18.9018862 L11.5775149,18.9018862 L11.577,12.102 L12.4995,12.09 L12.516267,18.9033146 L13.6412633,18.9004579 L13.623,12.0645 L14.0925523,12.0542297 C14.908455,11.970858 15.4394475,11.6396185 15.5827118,11.0224572 C15.7801928,10.1717391 15.0705759,9.24730371 14.2150388,9.24730371 Z M10.0683386,10.0323617 C10.4796198,10.0323617 10.7880806,10.3392657 10.7538072,10.6768601 L10.7538072,10.6768601 L10.7538072,11.3213584 L10.0340652,11.3213584 C9.65705752,11.3213584 9.31432325,11.0451448 9.31432325,10.6768601 C9.31432325,10.3392657 9.65705752,10.0323617 10.0683386,10.0323617 Z M14.0783296,10.0323617 C14.4553373,10.0323617 14.7980716,10.3392657 14.7980716,10.6768601 C14.7980716,11.0144544 14.4896108,11.3213584 14.0783296,11.3213584 L14.0783296,11.3213584 L13.3585877,11.3213584 L13.3585877,10.6768601 C13.3585877,10.3392657 13.6670485,10.0323617 14.0783296,10.0323617 Z M3.18938903,5.13980486 L4.85877771,5.98122945 C5.16723856,6.13468143 5.27005884,6.47227579 5.09869171,6.74848936 C4.92732457,7.02470292 4.55031687,7.11677411 4.24185603,6.96332213 L2.57246734,6.12189754 C2.26400649,5.96844556 2.16118621,5.6308512 2.33255335,5.35463763 C2.50392048,5.07842407 2.88092818,4.98635288 3.18938903,5.13980486 Z M20.810611,5.13980486 C21.1190718,4.98635288 21.4960795,5.07842407 21.6674467,5.35463763 C21.8388138,5.6308512 21.7359935,5.96844556 21.4275327,6.12189754 L21.4275327,6.12189754 L19.758144,6.96332213 C19.4496831,7.11677411 19.0726754,7.02470292 18.9013083,6.74848936 C18.7299412,6.47227579 18.8327614,6.13468143 19.1412223,5.98122945 L19.1412223,5.98122945 Z M7.00614853,1.80742783 L8.28612043,3.34185538 C8.45748757,3.61806895 8.35466729,3.95566331 8.04620644,4.10911529 C7.7377456,4.26256727 7.3607379,4.17049608 7.18937076,3.89428251 L5.90939886,2.35985497 C5.73803173,2.0836414 5.84085201,1.74604704 6.14931285,1.59259506 C6.4577737,1.43914308 6.83478139,1.53121427 7.00614853,1.80742783 Z M17.2922697,1.80742783 C17.4636369,1.53121427 17.8406446,1.43914308 18.1491054,1.59259506 C18.4575663,1.74604704 18.5603866,2.0836414 18.3890194,2.35985497 L18.3890194,2.35985497 L17.1090475,3.89428251 C16.9376804,4.17049608 16.5606727,4.26256727 16.2522118,4.10911529 C15.943751,3.95566331 15.8409307,3.61806895 16.0122978,3.34185538 L16.0122978,3.34185538 Z M12.0561974,0 C12.3989317,0 12.6731191,0.185305044 12.6731191,0.416936348 L12.6731191,2.71008626 C12.6731191,2.91598075 12.4564772,3.08527178 12.1676213,3.1203501 L12.0561974,3.12702261 C11.7134631,3.12702261 11.4392757,2.94171757 11.4392757,2.71008626 L11.4392757,0.416936348 C11.4392757,0.211041855 11.6559176,0.0417508277 11.9447735,0.00667250671 L12.0561974,0 Z" id="Combined-Shape"></path>
            </g>
        </g>
    </g>
</svg>