<?xml version="1.0" encoding="UTF-8"?>
<svg width="24px" height="24px" viewBox="0 0 24 24" version="1.1" xmlns="http://www.w3.org/2000/svg" xmlns:xlink="http://www.w3.org/1999/xlink">
    <title>86248B93-2AE3-4F87-9C99-27E36760414B</title>
    <g id="⚠️-Wizards" stroke="none" stroke-width="1" fill="none" fill-rule="evenodd">
        <g id="Options---Switching-between-Addtl-prep-and-Mappings" transform="translate(-48.000000, -2476.000000)">
            <g id="icon-switch-mappings" transform="translate(48.000000, 2476.000000)">
                <rect id="Rectangle" x="0" y="0" width="24" height="24"></rect>
                <path d="M11.75,16.3334334 C11.8880712,16.3334334 12,16.4453622 12,16.5834334 L12,17.4999997 L18.6340694,17.5001001 L18.666,17.5029997 L18.6666667,16.5834334 C18.6666667,16.4453622 18.7785955,16.3334334 18.9166667,16.3334334 L21.75,16.3334334 C21.8880712,16.3334334 22,16.4453622 22,16.5834334 L22,19.4167667 C22,19.5548379 21.8880712,19.6667667 21.75,19.6667667 L18.9166667,19.6667667 C18.7785955,19.6667667 18.6666667,19.5548379 18.6666667,19.4167667 L18.666,18.4969997 L18.6340694,18.5001001 L12,18.4999997 L12,19.4167667 C12,19.5548379 11.8880712,19.6667667 11.75,19.6667667 L8.91666667,19.6667667 C8.77859548,19.6667667 8.66666667,19.5548379 8.66666667,19.4167667 L8.66666667,16.5834334 C8.66666667,16.4453622 8.77859548,16.3334334 8.91666667,16.3334334 L11.75,16.3334334 Z M20.9996667,17.3331001 L19.6666667,17.3331001 L19.6666667,18.6661001 L20.9996667,18.6661001 L20.9996667,17.3331001 Z M10.3333333,3 C13.0208333,2.99926714 15.5433333,4.29843377 17.1041667,6.48676705 L17.1041667,5.08343375 C17.1041667,4.65176709 17.4533333,4.3017671 17.885,4.3017671 C18.3166667,4.3017671 18.6666667,4.65176709 18.6666667,5.08343375 L18.6666667,8.20843367 C18.6666667,8.64010033 18.3166667,8.98926699 17.8858333,8.98926699 L14.5,8.98926699 C14.0683333,8.98926699 13.7191667,8.64010033 13.7191667,8.20843367 C13.7191667,7.77676702 14.0683333,7.42760036 14.5,7.42760036 L15.8583333,7.42760036 C14.5925,5.6301004 12.5308333,4.56176709 10.3333333,4.56260043 C6.59333333,4.56260043 3.5625,7.59426702 3.5625,11.3334337 C3.5625,12.1281258 3.69940235,12.890861 3.95091893,13.5993263 C4.43845094,14.9725936 3.78768022,15.063775 3.75462655,15.0834334 L3.73637855,15.0951322 C3.61637138,15.1700349 2.9648699,15.5171053 2.46356439,14.0810712 C2.16324449,13.2207782 2,12.2961759 2,11.3334337 C2,6.73093371 5.73083333,3 10.3333333,3 Z M11.75,10.5001001 C11.8880712,10.5001001 12,10.6120289 12,10.7501001 L12,11.6699997 L18.666,11.6859997 L18.6666667,10.7501001 C18.6666667,10.6120289 18.7785955,10.5001001 18.9166667,10.5001001 L21.75,10.5001001 C21.8880712,10.5001001 22,10.6120289 22,10.7501001 L22,13.5834334 C22,13.7215046 21.8880712,13.8334334 21.75,13.8334334 L18.9166667,13.8334334 C18.7785955,13.8334334 18.6666667,13.7215046 18.6666667,13.5834334 L18.666,12.6859997 L18.665464,12.6868095 L12,12.6699997 L12,13.5834334 C12,13.7215046 11.8880712,13.8334334 11.75,13.8334334 L8.91666667,13.8334334 C8.77859548,13.8334334 8.66666667,13.7215046 8.66666667,13.5834334 L8.66666667,10.7501001 C8.66666667,10.6120289 8.77859548,10.5001001 8.91666667,10.5001001 L11.75,10.5001001 Z M20.9996667,11.5001001 L19.6666667,11.5001001 L19.6666667,12.8331001 L20.9996667,12.8331001 L20.9996667,11.5001001 Z" id="Combined-Shape" fill="#1774E5"></path>
            </g>
        </g>
    </g>
</svg>