<?xml version="1.0" encoding="UTF-8"?>
<svg width="24px" height="24px" viewBox="0 0 24 24" version="1.1" xmlns="http://www.w3.org/2000/svg" xmlns:xlink="http://www.w3.org/1999/xlink">
    <title>81D2B3BA-7D91-4E7B-BFFE-AFEE1F5445F9</title>
    <g id="⚠️-Wizards" stroke="none" stroke-width="1" fill="none" fill-rule="evenodd">
        <g id="Options---Switching-between-Addtl-prep-and-Mappings" transform="translate(-80.000000, -2476.000000)">
            <g id="icon-switch-options" transform="translate(80.000000, 2476.000000)">
                <rect id="Rectangle" x="0" y="0" width="24" height="24"></rect>
                <path d="M10.5,8 L10.5,20 L7,20 L7,8 L10.5,8 Z M16,12 L16,20 L12.5,20 L12.5,12 L16,12 Z M21.5,14 L21.5,20 L18,20 L18,14 L21.5,14 Z M10.3333333,3 C13.0208333,2.99926714 15.5433333,4.29843377 17.1041667,6.48676705 L17.1041667,5.08343375 C17.1041667,4.65176709 17.4533333,4.3017671 17.885,4.3017671 C18.3166667,4.3017671 18.6666667,4.65176709 18.6666667,5.08343375 L18.6666667,8.20843367 C18.6666667,8.64010033 18.3166667,8.98926699 17.8858333,8.98926699 L14.5,8.98926699 C14.0683333,8.98926699 13.7191667,8.64010033 13.7191667,8.20843367 C13.7191667,7.77676702 14.0683333,7.42760036 14.5,7.42760036 L15.8583333,7.42760036 C14.5925,5.6301004 12.5308333,4.56176709 10.3333333,4.56260043 C6.59333333,4.56260043 3.5625,7.59426702 3.5625,11.3334337 C3.5625,12.1281258 3.69940235,12.890861 3.95091893,13.5993263 C4.43845094,14.9725936 3.78768022,15.063775 3.75462655,15.0834334 L3.73637855,15.0951322 C3.61637138,15.1700349 2.9648699,15.5171053 2.46356439,14.0810712 C2.16324449,13.2207782 2,12.2961759 2,11.3334337 C2,6.73093371 5.73083333,3 10.3333333,3 Z" id="Combined-Shape" fill="#1774E5"></path>
            </g>
        </g>
    </g>
</svg>