<?xml version="1.0" encoding="UTF-8"?>
<svg width="40px" height="40px" viewBox="0 0 40 40" version="1.1" xmlns="http://www.w3.org/2000/svg" xmlns:xlink="http://www.w3.org/1999/xlink">
    <title>B3EE7AE1-0143-4721-A404-5B1E066D9A8A</title>
    <defs>
        <filter id="filter-1">
            <feColorMatrix in="SourceGraphic" type="matrix" values="0 0 0 0 0.447059 0 0 0 0 0.447059 0 0 0 0 0.447059 0 0 0 1.000000 0"></feColorMatrix>
        </filter>
    </defs>
    <g id="--------↳-⚠️-Template-custom-icons" stroke="none" stroke-width="1" fill="none" fill-rule="evenodd">
        <g id="Template-icons---line-style" transform="translate(-408.000000, -185.000000)">
            <g id="Foundations/system-icon/pl-icon-documentation" transform="translate(408.000000, 185.000000)" filter="url(#filter-1)">
                <g>
                    <path d="M8.29701835,5.15625 C9.15996327,5.15625 9.85951835,5.85580508 9.85951835,6.71875 L9.85951835,6.71875 L9.8595,21.80425 L18.2081422,17.1214984 L18.2075,22.2875 L18.9815,22.28725 L20.2806281,10.0643061 L26.4558147,10.0643061 L27.8505,22.28725 L27.9715,22.28725 L29.2714217,10.0643061 L35.4466083,10.0643061 L36.8405,22.28825 L38.4375,22.2886029 L38.4375,37.03125 L1.5625,37.03125 L1.5625,6.44669118 C1.5625,5.73400019 2.14025019,5.15625 2.85294118,5.15625 L2.85294118,5.15625 Z M7.98375,7.03125 L3.43625,7.03125 L3.43625,35.15625 L7.98375,35.15625 L7.98375,7.03125 Z M16.3325,20.32375 L10.18,23.77375 L10.18,35.15625 L36.56125,35.15625 L36.5605,24.20925 L32.6285,24.16225 L28.0645,24.16225 L28.0705545,24.2160966 L23.6915,24.16325 L16.3331422,24.1636029 L16.3325,20.32375 Z M16.4255688,27.4080882 C16.8924495,27.4080882 17.2707064,27.7870404 17.2707064,28.2547794 L17.2707064,31.0650735 C17.2707064,31.5328125 16.8924495,31.9117647 16.4255688,31.9117647 L13.6204312,31.9117647 C13.1535505,31.9117647 12.7752936,31.5328125 12.7752936,31.0650735 L12.7752936,28.2547794 C12.7752936,27.7870404 13.1535505,27.4080882 13.6204312,27.4080882 L16.4255688,27.4080882 Z M25.0952936,27.4080882 C25.5621743,27.4080882 25.9404312,27.7870404 25.9404312,28.2547794 L25.9404312,31.0650735 C25.9404312,31.5328125 25.5621743,31.9117647 25.0952936,31.9117647 L22.290156,31.9117647 C21.8232752,31.9117647 21.4450183,31.5328125 21.4450183,31.0650735 L21.4450183,28.2547794 C21.4450183,27.7870404 21.8232752,27.4080882 22.290156,27.4080882 L25.0952936,27.4080882 Z M33.7650183,27.4080882 C34.2318991,27.4080882 34.610156,27.7870404 34.610156,28.2547794 L34.610156,31.0650735 C34.610156,31.5328125 34.2318991,31.9117647 33.7650183,31.9117647 L30.9598807,31.9117647 C30.493,31.9117647 30.1147431,31.5328125 30.1147431,31.0650735 L30.1147431,28.2547794 C30.1147431,27.7870404 30.493,27.4080882 30.9598807,27.4080882 L33.7650183,27.4080882 Z M34.7065,20.12625 L30.0865,20.12625 L29.86125,22.255 L32.7025,22.28725 L34.9535,22.28825 L34.7065,20.12625 Z M25.7155,20.12625 L21.0955,20.12625 L20.87,22.255 L23.6955,22.28725 L25.9625,22.28725 L25.7155,20.12625 Z M34.2285,15.94425 L30.5305,15.94425 L30.2855,18.25125 L34.4925,18.25125 L34.2285,15.94425 Z M25.2385,15.94425 L21.5395,15.94425 L21.2945,18.25125 L25.5015,18.25125 L25.2385,15.94425 Z M33.7725,11.93875 L30.9575,11.93875 L30.7305,14.06925 L34.0145,14.06925 L33.7725,11.93875 Z M24.7825,11.93875 L21.96625,11.93875 L21.7395,14.06925 L25.0245,14.06925 L24.7825,11.93875 Z" id="manufacturing" fill="#FFFFFF"></path>
                </g>
            </g>
        </g>
    </g>
</svg>