<?xml version="1.0" encoding="UTF-8"?>
<svg width="40px" height="40px" viewBox="0 0 40 40" version="1.1" xmlns="http://www.w3.org/2000/svg" xmlns:xlink="http://www.w3.org/1999/xlink">
    <title>FFEA72E6-167F-496E-A29E-B55BCD661CE1</title>
    <defs>
        <filter id="filter-1">
            <feColorMatrix in="SourceGraphic" type="matrix" values="0 0 0 0 0.447059 0 0 0 0 0.447059 0 0 0 0 0.447059 0 0 0 1.000000 0"></feColorMatrix>
        </filter>
    </defs>
    <g id="--------↳-⚠️-Template-custom-icons" stroke="none" stroke-width="1" fill="none" fill-rule="evenodd">
        <g id="Template-icons---line-style" transform="translate(-468.000000, -185.000000)">
            <g id="Foundations/system-icon/pl-icon-documentation" transform="translate(468.000000, 185.000000)" filter="url(#filter-1)">
                <g>
                    <path d="M16.1437133,20.8881997 C16.4748921,20.8881997 16.7776464,21.0624491 16.9456688,21.3400715 L17.0091196,21.4651749 L21.5175,32.2875 L28.9525,32.2875 L29.4735,30.9235 L27.3565883,30.9241991 C26.8388213,30.9241991 26.4190883,30.504466 26.4190883,29.9866991 C26.4190883,29.5120793 26.7717806,29.1198354 27.2293751,29.0577573 L27.3565883,29.0491991 L30.1895,29.0485 L30.3645,28.5915 L26.3012589,28.592485 C25.7834919,28.592485 25.3637589,28.1727519 25.3637589,27.654985 C25.3637589,27.1803653 25.7164512,26.7881213 26.1740457,26.7260432 L26.3012589,26.717485 L31.0805,26.7165 L31.40375,25.87125 L21.6841927,25.8721519 C21.209573,25.8721519 20.817329,25.5194595 20.7552509,25.0618651 L20.7466927,24.9346519 C20.7466927,24.4600322 21.099385,24.0677882 21.5569795,24.0057101 L21.6841927,23.9971519 L32.7651515,23.9971519 C33.3783202,23.9971519 33.8140024,24.5705322 33.6788135,25.1459742 L33.6409633,25.2691066 L30.4749751,33.5596456 C30.3517044,33.8824453 30.0627256,34.1078591 29.7270135,34.1539658 L29.5991633,34.1626908 C30.383868,34.5081143 30.9376885,35.2905653 30.9376885,36.2046033 C30.9376885,37.4415415 29.9234583,38.4375 28.6810267,38.4375 C27.4385951,38.4375 26.4243649,37.4415415 26.4243649,36.2046033 C26.4243649,35.2905653 26.9781854,34.5081143 27.7686599,34.1618879 L23.2505971,34.1617711 C24.0412137,34.5079384 24.5951587,35.2904626 24.5951587,36.2046033 C24.5951587,37.4415415 23.5809285,38.4375 22.3384969,38.4375 C21.0960653,38.4375 20.0818351,37.4415415 20.0818351,36.2046033 C20.0818351,35.2904626 20.6357801,34.5079384 21.4263968,34.1617711 L20.8926956,34.1626908 C20.5615168,34.1626908 20.2587625,33.9884415 20.0907401,33.710819 L20.0272893,33.5857157 L15.5175,22.7625 L13.7692221,22.7631997 C13.2946024,22.7631997 12.9023584,22.4105074 12.8402803,21.9529129 L12.8317221,21.8256997 C12.8317221,21.35108 13.1844144,20.958836 13.6420089,20.896758 L13.7692221,20.8881997 L16.1437133,20.8881997 Z M28.6810267,35.8467066 C28.466576,35.8467066 28.2993649,36.0109053 28.2993649,36.2046033 C28.2993649,36.3983012 28.466576,36.5625 28.6810267,36.5625 C28.8954773,36.5625 29.0626885,36.3983012 29.0626885,36.2046033 C29.0626885,36.0109053 28.8954773,35.8467066 28.6810267,35.8467066 Z M22.3384969,35.8467066 C22.1240463,35.8467066 21.9568351,36.0109053 21.9568351,36.2046033 C21.9568351,36.3983012 22.1240463,36.5625 22.3384969,36.5625 C22.5529476,36.5625 22.7201587,36.3983012 22.7201587,36.2046033 C22.7201587,36.0109053 22.5529476,35.8467066 22.3384969,35.8467066 Z M24.2190939,15.5770732 C27.3951663,15.5770732 29.9929425,18.0414149 30.1348127,21.1418348 L30.1409147,21.4091002 L30.1409147,22.8832776 C30.1409147,23.4010446 29.7211817,23.8207776 29.2034147,23.8207776 C28.728795,23.8207776 28.336551,23.4680853 28.274473,23.0104908 L28.2659147,22.8832776 L28.2659147,21.4091002 C28.2659147,19.3027145 26.580469,17.5749985 24.4491043,17.4583503 L24.2190939,17.4520732 L11.2343208,17.4520732 C9.07268578,17.4520732 7.3127009,19.1071552 7.19389294,21.1849211 L7.1875,21.4091002 L7.1875,32.41625 L18.4759733,32.4172305 C18.950593,32.4172305 19.342837,32.7699229 19.404915,33.2275173 L19.4134733,33.3547305 C19.4134733,33.8293502 19.0607809,34.2215942 18.6031865,34.2836722 L18.4759733,34.2922305 L6.25,34.2922305 C5.77538029,34.2922305 5.3831363,33.9395382 5.32105827,33.4819437 L5.3125,33.3547305 L5.3125,21.4091002 C5.3125,18.2738255 7.82205198,15.7223928 10.9635461,15.5830657 L11.2343208,15.5770732 L24.2190939,15.5770732 Z M17.5947912,1.5625 C21.3143448,1.5625 24.336603,4.53031141 24.336603,8.19974555 C24.336603,11.8691797 21.3143448,14.8369911 17.5947912,14.8369911 C13.8752376,14.8369911 10.8529794,11.8691797 10.8529794,8.19974555 C10.8529794,4.53031141 13.8752376,1.5625 17.5947912,1.5625 Z M17.5947912,3.4375 C14.9032186,3.4375 12.7279794,5.57355165 12.7279794,8.19974555 C12.7279794,10.8259394 14.9032186,12.9619911 17.5947912,12.9619911 C20.2863638,12.9619911 22.461603,10.8259394 22.461603,8.19974555 C22.461603,5.57355165 20.2863638,3.4375 17.5947912,3.4375 Z" id="retail" fill="#FFFFFF"></path>
                </g>
            </g>
        </g>
    </g>
</svg>