<?xml version="1.0" encoding="UTF-8"?>
<svg width="40px" height="40px" viewBox="0 0 40 40" version="1.1" xmlns="http://www.w3.org/2000/svg" xmlns:xlink="http://www.w3.org/1999/xlink">
    <title>4382FDBD-8199-4BFB-97FC-8C2D0A9D1E23</title>
    <defs>
        <filter id="filter-1">
            <feColorMatrix in="SourceGraphic" type="matrix" values="0 0 0 0 0.447059 0 0 0 0 0.447059 0 0 0 0 0.447059 0 0 0 1.000000 0"></feColorMatrix>
        </filter>
    </defs>
    <g id="--------↳-⚠️-Template-custom-icons" stroke="none" stroke-width="1" fill="none" fill-rule="evenodd">
        <g id="Template-icons---line-style" transform="translate(-48.000000, -245.000000)">
            <g id="Foundations/system-icon/pl-icon-documentation" transform="translate(48.000000, 245.000000)" filter="url(#filter-1)">
                <g>
                    <path d="M23.605287,12.0371036 C24.4928157,12.0371036 25.2154008,12.7249648 25.2890039,13.5944334 L25.295179,13.7409395 L25.295179,14.8826379 C25.295179,15.7708989 24.6193869,16.5055906 23.751611,16.580466 L23.671,16.58275 L23.6724778,20.1259109 L30.7850326,32.5862607 C31.9316026,34.673302 30.5802936,37.2257042 28.3060667,37.4794372 L28.1337938,37.494114 L27.933567,37.5 L10.7677688,37.5 C8.27585315,37.5 6.73240063,34.8031054 7.89315654,32.6290316 L7.97854917,32.4782408 L15.3877457,20.1151235 L15.3877457,16.5828455 L15.2925232,16.5789135 C14.5370238,16.5060229 13.9303059,15.9326036 13.7944448,15.1956683 L13.7736461,15.0462009 L13.7659457,14.8826379 L13.7659457,13.7409395 C13.7659457,12.8528548 14.4418187,12.1182524 15.3095264,12.0433859 L15.4558376,12.0371036 L23.605287,12.0371036 Z M26.414,28.5561036 L12.425,28.5561036 L9.52065285,33.4025609 C8.93798865,34.3746684 9.57591106,35.6069243 10.6428067,35.696869 L10.7677688,35.7020981 L27.933567,35.7020981 C29.0070791,35.7020981 29.7087819,34.5558237 29.2741031,33.5808433 L29.216438,33.4647522 L26.414,28.5561036 Z M23.4962835,13.8344527 L15.5627415,13.8344527 L15.5627415,14.7885393 L17.1857362,14.7888471 L17.1857362,20.614542 L13.502,26.7581036 L25.388,26.7581036 L21.8753885,20.6042716 L21.8753885,14.7888471 L23.4962835,14.7885393 L23.4962835,13.8344527 Z M15.625,5.46875 C17.0920064,5.46875 18.28125,6.65799363 18.28125,8.125 C18.28125,9.59200637 17.0920064,10.78125 15.625,10.78125 C14.1579936,10.78125 12.96875,9.59200637 12.96875,8.125 C12.96875,6.65799363 14.1579936,5.46875 15.625,5.46875 Z M15.625,7.03125 C15.0209386,7.03125 14.53125,7.52093855 14.53125,8.125 C14.53125,8.72906145 15.0209386,9.21875 15.625,9.21875 C16.2290614,9.21875 16.71875,8.72906145 16.71875,8.125 C16.71875,7.52093855 16.2290614,7.03125 15.625,7.03125 Z M23.125,0.46875 C25.2823623,0.46875 27.03125,2.2176377 27.03125,4.375 C27.03125,6.5323623 25.2823623,8.28125 23.125,8.28125 C20.9676377,8.28125 19.21875,6.5323623 19.21875,4.375 C19.21875,2.2176377 20.9676377,0.46875 23.125,0.46875 Z M23.125,2.03125 C21.8305826,2.03125 20.78125,3.08058262 20.78125,4.375 C20.78125,5.66941738 21.8305826,6.71875 23.125,6.71875 C24.4194174,6.71875 25.46875,5.66941738 25.46875,4.375 C25.46875,3.08058262 24.4194174,2.03125 23.125,2.03125 Z" id="Combined-Shape" fill="#FFFFFF"></path>
                </g>
            </g>
        </g>
    </g>
</svg>