<?xml version="1.0" encoding="UTF-8"?>
<svg width="40px" height="40px" viewBox="0 0 40 40" version="1.1" xmlns="http://www.w3.org/2000/svg" xmlns:xlink="http://www.w3.org/1999/xlink">
    <title>72F2CD65-5D32-4637-B764-9B2D6A4C8F3F</title>
    <defs>
        <filter id="filter-1">
            <feColorMatrix in="SourceGraphic" type="matrix" values="0 0 0 0 0.447059 0 0 0 0 0.447059 0 0 0 0 0.447059 0 0 0 1.000000 0"></feColorMatrix>
        </filter>
    </defs>
    <g id="--------↳-⚠️-Template-custom-icons" stroke="none" stroke-width="1" fill="none" fill-rule="evenodd">
        <g id="Template-icons---line-style" transform="translate(-108.000000, -245.000000)">
            <g id="Foundations/system-icon/pl-icon-documentation" transform="translate(108.000000, 245.000000)" filter="url(#filter-1)">
                <g>
                    <path d="M11.893584,2.8125 C13.753455,2.8125 15.2598722,4.32495605 15.2598722,6.18852459 C15.2598722,7.67335577 14.3035402,8.93528714 12.974067,9.38688908 L12.9740682,18.3812623 C12.9740682,18.5510641 12.9279721,18.7168457 12.8418118,18.861358 L12.7697737,18.9654847 L10.6875,21.5775 L10.6875,27.6675 L18.7655,27.6675 L18.7655,25.8965 L13.964626,25.8965164 C13.2229828,25.8965164 12.6139769,25.3344882 12.5360723,24.6141705 L12.5276528,24.457541 L12.5276528,22.7663934 C12.5276528,22.6029756 12.5703525,22.4431351 12.650556,22.3023453 L12.7176594,22.2005667 L17.95625,15.27875 L17.956641,14.2445207 C16.4806036,13.8862451 15.3850507,12.5523545 15.3850507,10.9631148 C15.3850507,9.09954621 16.8914679,7.58709016 18.7513389,7.58709016 C20.6112099,7.58709016 22.1176271,9.09954621 22.1176271,10.9631148 C22.1176271,12.4479459 21.1612951,13.7098773 19.8318219,14.1614792 L19.8317088,15.5942623 C19.8317088,15.7576802 19.7890091,15.9175207 19.7088056,16.0583104 L19.6417022,16.160089 L14.4025,23.08 L14.4025,24.02125 L18.7655,24.0215 L18.7663525,21.0083197 C18.7663525,19.8730516 19.644562,18.941818 20.7588891,18.8629872 L20.912246,18.857582 L22.3908443,18.8574286 C22.5219438,15.217242 25.0904864,12.2593361 28.3235361,12.2593361 C30.5661583,12.2593361 32.5597408,13.7013243 33.5734128,15.9229624 C33.7883402,16.3940132 33.5807113,16.9501084 33.1096605,17.1650358 C32.6386097,17.3799632 32.0825145,17.1723343 31.8675871,16.7012835 C31.1436277,15.1146008 29.7883888,14.1343361 28.3235361,14.1343361 C26.1963372,14.1343361 24.3908785,16.1952054 24.2673305,18.8582151 L35.3541064,18.857582 C36.5401388,18.857582 37.5,19.8214485 37.5,21.0083197 L37.5,21.0083197 L37.5,33.7867623 C37.5,34.9736335 36.5401388,35.9375 35.3541064,35.9375 L35.3541064,35.9375 L20.912246,35.9375 C19.7262137,35.9375 18.7663525,34.9736335 18.7663525,33.7867623 L18.7663525,33.7867623 L18.7655,33.3555 L6.82113125,33.3555328 C6.13079594,33.3555328 5.47732326,32.9190777 5.39326173,32.2143577 L5.3841581,32.0593014 L5.38367149,19.039501 C3.90784573,18.6810748 2.8125,17.3472862 2.8125,15.7581967 C2.8125,13.8946282 4.31891721,12.3821721 6.1787882,12.3821721 C8.03865919,12.3821721 9.5450764,13.8946282 9.5450764,15.7581967 C9.5450764,17.2430279 8.58874441,18.5049593 7.25927122,18.9565612 L7.25875,31.48 L18.7655,31.4805 L18.7655,29.5425 L10.250123,29.5429426 C9.50846548,29.5429426 8.89947206,28.9811499 8.82156919,28.2606438 L8.81314985,28.1039672 L8.81314985,21.2501148 C8.81314985,21.0803129 8.85924589,20.9145314 8.94540623,20.770019 L9.0174443,20.6658923 L11.09875,18.0525 L11.0988861,9.46993055 C9.62284872,9.11165498 8.52729577,7.77776435 8.52729577,6.18852459 C8.52729577,4.32495605 10.033713,2.8125 11.893584,2.8125 Z M35.3541064,20.732582 L20.912246,20.732582 C20.7634994,20.732582 20.6413525,20.8552386 20.6413525,21.0083197 L20.6413525,21.0083197 L20.6413525,33.7867623 C20.6413525,33.9398434 20.7634994,34.0625 20.912246,34.0625 L20.912246,34.0625 L35.3541064,34.0625 C35.502853,34.0625 35.625,33.9398434 35.625,33.7867623 L35.625,33.7867623 L35.625,21.0083197 C35.625,20.8552386 35.502853,20.732582 35.3541064,20.732582 L35.3541064,20.732582 Z M28.2399286,24.6721311 C29.1277221,24.6721311 29.8475007,25.3947951 29.8475007,26.2861475 L29.8475007,26.2861475 L29.8475007,26.787623 C29.8475007,27.4629508 29.4340352,28.0407377 28.8474114,28.2814344 L28.8474114,28.2814344 L28.8474114,30.4098361 L27.4187125,30.4098361 L27.4187125,28.2814344 C26.8323744,28.0407377 26.4186232,27.4629508 26.4186232,26.787623 L26.4186232,26.787623 L26.4186232,26.2861475 C26.4186232,25.3947951 27.1386875,24.6721311 28.026481,24.6721311 L28.026481,24.6721311 Z M6.1787882,14.2571721 C5.35613406,14.2571721 4.6875,14.9284866 4.6875,15.7581967 C4.6875,16.5879069 5.35613406,17.2592213 6.1787882,17.2592213 C7.00144234,17.2592213 7.6700764,16.5879069 7.6700764,15.7581967 C7.6700764,14.9284866 7.00144234,14.2571721 6.1787882,14.2571721 Z M18.7513389,9.46209016 C17.9286848,9.46209016 17.2600507,10.1334046 17.2600507,10.9631148 C17.2600507,11.7928249 17.9286848,12.4641393 18.7513389,12.4641393 C19.573993,12.4641393 20.2426271,11.7928249 20.2426271,10.9631148 C20.2426271,10.1334046 19.573993,9.46209016 18.7513389,9.46209016 Z M11.893584,4.6875 C11.0709298,4.6875 10.4022958,5.35881444 10.4022958,6.18852459 C10.4022958,7.01823474 11.0709298,7.68954918 11.893584,7.68954918 C12.7162381,7.68954918 13.3848722,7.01823474 13.3848722,6.18852459 C13.3848722,5.35881444 12.7162381,4.6875 11.893584,4.6875 Z" id="security" fill="#FFFFFF"></path>
                </g>
            </g>
        </g>
    </g>
</svg>