<?xml version="1.0" encoding="UTF-8"?>
<svg width="40px" height="40px" viewBox="0 0 40 40" version="1.1" xmlns="http://www.w3.org/2000/svg" xmlns:xlink="http://www.w3.org/1999/xlink">
    <title>D0236BD5-B719-4108-A7C4-41CCADA8E3AA</title>
    <defs>
        <filter id="filter-1">
            <feColorMatrix in="SourceGraphic" type="matrix" values="0 0 0 0 0.447059 0 0 0 0 0.447059 0 0 0 0 0.447059 0 0 0 1.000000 0"></feColorMatrix>
        </filter>
    </defs>
    <g id="--------↳-⚠️-Template-custom-icons" stroke="none" stroke-width="1" fill="none" fill-rule="evenodd">
        <g id="Template-icons---line-style" transform="translate(-168.000000, -245.000000)">
            <g id="Foundations/system-icon/pl-icon-documentation" transform="translate(168.000000, 245.000000)" filter="url(#filter-1)">
                <g>
                    <path d="M19.3768155,4.01630392 C19.676913,3.70474777 20.1491897,3.66511545 20.4929445,3.90504892 L20.4929445,3.90504892 L20.5919146,3.98542358 C21.4075235,4.7515319 22.2925847,5.35018022 23.2382074,5.79642091 C25.5824933,6.90269271 28.0992431,7.01987494 30.4109629,6.55003594 L30.4109629,6.55003594 L30.7676106,6.47209757 L31.0549317,6.39985801 L31.460063,6.2813082 C31.9882487,6.17430142 32.5,6.58443308 32.5,7.15132128 L32.5,7.15132128 L32.5,26.516655 C32.5,27.0781425 32.2924319,27.5512426 31.9237601,28.0842783 C31.5049894,28.6904507 31.0358182,29.1827169 30.335025,29.7789732 L30.335025,29.7789732 L29.8315264,30.1942745 L29.5503125,30.417963 C28.5979496,31.1683383 27.5668774,31.8830978 26.2817835,32.7034395 C25.2675672,33.3506007 24.1995995,33.9925129 23.0448289,34.6527189 L23.0448289,34.6527189 L22.4815225,34.9713583 L21.0946488,35.7372416 L20.6456503,35.9917195 L20.9748187,35.7949494 L21.0483097,35.7455259 C21.0674962,35.7292329 21.0628531,35.7235157 21.045672,35.7191387 L21.045672,35.7191387 L20.9979378,35.7094349 L20.9368422,35.686886 C20.8859379,35.6581822 20.8420254,35.598995 20.8573796,35.4665666 C20.7859199,36.0828997 20.1294342,36.435699 19.5880165,36.1487299 L19.5880165,36.1487299 L18.8761127,35.7691215 L18.1171676,35.3549955 C17.1082854,34.7971924 16.1310564,34.2332687 15.1817839,33.6600436 C13.9058835,32.8891616 12.8073613,32.1806352 11.7834173,31.4576534 L11.7834173,31.4576534 L11.0770384,30.9488745 C10.1927179,30.2969166 9.52452297,29.7372845 8.90508582,29.1100165 C7.9264651,28.1199075 7.5,27.510237 7.5,26.5654456 L7.5,26.5654456 L7.5,7.20011186 C7.5,6.59549946 8.08250938,6.16834844 8.64705922,6.35897945 C8.66580038,6.36530775 8.68747887,6.37224846 8.71203211,6.37972102 L8.71203211,6.37972102 L9.00893914,6.45915914 L9.28811169,6.52162937 L9.78377494,6.61388851 C12.5701075,7.07475039 15.6681507,6.62771467 18.6039344,4.6344615 C18.8155596,4.49077834 19.0250292,4.33949702 19.2322639,4.18047488 L19.2322639,4.18047488 L19.1848837,4.21562622 Z M19.9988372,5.80513155 L19.9300848,5.85820831 L19.5728098,6.10848986 C16.0913265,8.47224631 12.4089356,8.9291295 9.12573518,8.29586504 L9.244,8.317 L9.24418605,26.5654456 C9.24418605,26.7964839 9.42553639,27.094247 9.85089203,27.556273 L9.98588154,27.6999062 L10.1358873,27.8539805 C10.6849752,28.4100098 11.2940325,28.9194448 12.1179433,29.5262337 L12.1179433,29.5262337 L12.7785816,30.0018284 C13.7652335,30.6984792 14.8300987,31.3852974 16.0728815,32.1361703 C17.0026407,32.6976122 17.9607485,33.2505016 18.9511812,33.7981044 C19.0708959,33.8644007 19.1923039,33.9311253 19.3158165,33.9985154 L19.3158165,33.9985154 L19.9627907,34.3476838 L21.6389082,33.4192704 L22.8591875,32.7212355 C23.7365544,32.2096832 24.5630112,31.7070737 25.3542235,31.2022091 C26.5945591,30.4104389 27.5809547,29.7266501 28.4816146,29.0170121 L28.4816146,29.0170121 L28.9609096,28.6320353 C29.6976959,28.0262195 30.1385037,27.5835462 30.4965712,27.0652422 C30.6766327,26.8049043 30.755814,26.6244302 30.755814,26.516655 L30.755814,26.516655 L30.755814,8.28688709 C28.2412526,8.79879249 25.5190351,8.70341542 22.913976,7.58876906 L22.913976,7.58876906 L22.5036723,7.40424162 C21.6723118,7.01192143 20.8812115,6.51932889 20.1367561,5.9210164 L20.1367561,5.9210164 L19.9988372,5.80513155 Z M27.8398723,14.3773335 C28.2323861,14.7665173 28.2403308,15.4055881 27.8576174,15.804738 L18.4620613,25.6038044 C18.0789668,26.0033517 17.4497531,26.0109901 17.0573882,25.6208566 L12.1591277,20.7504526 C11.7671531,20.3607072 11.7600931,19.7216257 12.1433589,19.3230241 C12.5266246,18.9244226 13.155081,18.9172433 13.5470556,19.3069887 L17.7345835,23.470702 L26.4361991,14.3953785 C26.8189126,13.9962286 27.4473585,13.9881496 27.8398723,14.3773335 Z" id="Combined-Shape" fill="#FFFFFF"></path>
                </g>
            </g>
        </g>
    </g>
</svg>