<?xml version="1.0" encoding="UTF-8"?>
<svg width="40px" height="40px" viewBox="0 0 40 40" version="1.1" xmlns="http://www.w3.org/2000/svg" xmlns:xlink="http://www.w3.org/1999/xlink">
    <title>44EB7C1D-5C43-4960-AA50-32E33FE9E785</title>
    <defs>
        <filter id="filter-1">
            <feColorMatrix in="SourceGraphic" type="matrix" values="0 0 0 0 0.447059 0 0 0 0 0.447059 0 0 0 0 0.447059 0 0 0 1.000000 0"></feColorMatrix>
        </filter>
    </defs>
    <g id="--------↳-⚠️-Template-custom-icons" stroke="none" stroke-width="1" fill="none" fill-rule="evenodd">
        <g id="Template-icons---line-style" transform="translate(-228.000000, -245.000000)">
            <g id="Foundations/system-icon/pl-icon-documentation" transform="translate(228.000000, 245.000000)" filter="url(#filter-1)">
                <g>
                    <path d="M20.289778,9.91767846 C22.3542163,9.91767846 24.0336102,11.5712342 24.0336102,13.6183341 C24.0336102,14.7380452 23.5311676,15.7400154 22.7380952,16.418051 L30.4122946,35.9065183 C30.6019943,36.3882823 30.3652294,36.9326113 29.8834653,37.122311 C29.4418482,37.2962025 28.9476593,37.1117451 28.7222441,36.7087136 L28.6676725,36.5934817 L27.6325,33.9645 L12.8425,33.9645 L11.8076215,36.5934817 C11.6179218,37.0752458 11.0735928,37.3120108 10.5918287,37.122311 C10.1502116,36.9484196 9.91446189,36.4765411 10.0243541,36.0280213 L10.0629994,35.9065183 L17.763172,16.3492133 C17.015468,15.673123 16.5459457,14.7007418 16.5459457,13.6183341 C16.5459457,11.5712342 18.2253396,9.91767846 20.289778,9.91767846 Z M25.3945,28.2805 L16.8025,32.08875 L26.8945,32.0895 L25.3945,28.2805 Z M21.37125,28.0125 L15.1855,28.0135 L13.8775,31.3335 L21.37125,28.0125 Z M22.8865,21.9125 L17.35,26.1375 L24.5505,26.1385 L22.8865,21.9125 Z M16.6385,24.3215 L20.43375,21.425 L17.7795,21.4245 L16.6385,24.3215 Z M20.15625,2.8125 C26.2798038,2.8125 31.25,7.70614147 31.25,13.75 C31.25,16.297337 30.3627649,18.7127059 28.7660096,20.6477663 C28.436471,21.0471244 27.8455834,21.1037243 27.4462253,20.7741857 C27.0468672,20.444647 26.9902673,19.8537595 27.319806,19.4544013 C28.6422985,17.8517118 29.375,15.8570382 29.375,13.75 C29.375,8.74824608 25.2507288,4.6875 20.15625,4.6875 C15.0616,4.6875 10.9375,8.74815132 10.9375,13.75 C10.9375,15.8682306 11.6779112,17.8727035 13.0130927,19.4792597 C13.3440299,19.8774596 13.2895027,20.4685421 12.8913027,20.7994793 C12.4931028,21.1304165 11.9020204,21.0758892 11.5710832,20.6776893 C9.95905439,18.7380169 9.0625,16.3108263 9.0625,13.75 C9.0625,7.70605446 14.0325175,2.8125 20.15625,2.8125 Z M19.4345047,17.22192 L18.5175,19.5495 L21.9565,19.5495 L21.0480771,17.2429849 C20.8659318,17.2800407 20.6789918,17.3040129 20.4883169,17.3138701 L20.289778,17.3189898 C19.9956213,17.3189898 19.7092821,17.2854181 19.4345047,17.22192 Z M20.2896978,6.49670754 C24.2731328,6.49670754 27.5080366,9.68184096 27.5080366,13.6184131 C27.5080366,14.4658599 27.3575237,15.2943175 27.0669637,16.0745243 C26.886264,16.5597358 26.3464363,16.8065915 25.8612248,16.6258918 C25.3760132,16.4451922 25.1291575,15.9053645 25.3098572,15.4201529 C25.5227717,14.8484386 25.6330366,14.2415152 25.6330366,13.6184131 C25.6330366,10.7239381 23.2440505,8.37170754 20.2896978,8.37170754 C17.3355139,8.37170754 14.946359,10.7240352 14.946359,13.6184131 C14.946359,14.2638293 15.0646582,14.8918124 15.2926785,15.4811194 C15.4795191,15.9639995 15.2395317,16.5069154 14.7566516,16.6937561 C14.2737715,16.8805967 13.7308555,16.6406092 13.5440149,16.1577291 C13.2328565,15.353556 13.071359,14.4962575 13.071359,13.6184131 C13.071359,9.68192558 16.3064437,6.49670754 20.2896978,6.49670754 Z M20.289778,11.7926785 C19.2544219,11.7926785 18.4209457,12.6133313 18.4209457,13.6183341 C18.4209457,14.623337 19.2544219,15.4439898 20.289778,15.4439898 C21.325134,15.4439898 22.1586102,14.623337 22.1586102,13.6183341 C22.1586102,12.6133313 21.325134,11.7926785 20.289778,11.7926785 Z" id="telecommunications" fill="#FFFFFF"></path>
                </g>
            </g>
        </g>
    </g>
</svg>