<?xml version="1.0" encoding="UTF-8"?>
<svg width="40px" height="40px" viewBox="0 0 40 40" version="1.1" xmlns="http://www.w3.org/2000/svg" xmlns:xlink="http://www.w3.org/1999/xlink">
    <title>A5FFA10E-D48E-4A8D-9984-B3A2686A110C</title>
    <defs>
        <filter id="filter-1">
            <feColorMatrix in="SourceGraphic" type="matrix" values="0 0 0 0 0.447059 0 0 0 0 0.447059 0 0 0 0 0.447059 0 0 0 1.000000 0"></feColorMatrix>
        </filter>
    </defs>
    <g id="--------↳-⚠️-Template-custom-icons" stroke="none" stroke-width="1" fill="none" fill-rule="evenodd">
        <g id="Template-icons---line-style" transform="translate(-288.000000, -245.000000)">
            <g id="Foundations/system-icon/pl-icon-documentation" transform="translate(288.000000, 245.000000)" filter="url(#filter-1)">
                <g>
                    <path d="M22.2467373,33.6614355 C21.9770737,35.8211598 20.2150833,37.4957964 18.0609661,37.49815 C15.9150753,37.4957949 14.1527683,35.822091 13.879314,33.662814 L10.9042688,33.6625084 C10.6346341,35.8221071 8.87284223,37.4969081 6.71920223,37.4992625 C4.3841515,37.4967037 2.50481341,35.518402 2.5,33.0878916 C2.5,32.7397457 2.54032133,32.3969993 2.61314016,32.0971947 C2.71878911,31.6179387 2.89401545,31.17787 3.19828246,30.668764 L3.08428314,30.8676446 C2.95161109,30.729654 2.86114028,30.5481462 2.8345977,30.3456125 L2.82651724,30.2212774 L2.82651724,17.991535 C2.82651724,16.869785 3.66105722,15.9498073 4.7224956,15.8606139 L4.89188812,15.8535265 L23.6131352,15.8535265 C24.6967744,15.8535265 25.5854963,16.7174166 25.6716594,17.8161851 L25.6785061,17.991535 L25.678,19.062 L32.4210636,19.0620076 C32.6743034,19.0620076 32.9132331,19.1741145 33.0797859,19.3662219 L33.1414765,19.4460086 C33.1806447,19.4869863 33.2163433,19.5320783 33.2479179,19.5809227 L33.2479179,19.5809227 L36.0555863,23.9242507 C36.0873746,23.9734257 36.1138452,24.0239592 36.1352768,24.075311 L37.1032271,25.575174 C37.1763098,25.6882551 37.22384,25.8162697 37.2430374,25.9497398 L37.2526876,26.0846774 L37.2526876,31.5237902 C37.2526876,32.5824819 36.5244118,33.3537689 35.4591221,33.5876627 C35.2210675,35.7813325 33.4448002,37.494647 31.2635883,37.5 C29.1174404,37.4947058 27.3567527,35.8211768 27.0835403,33.6617446 Z M31.2685124,30.5172527 L31.1123153,30.5211511 L30.8467358,30.5545895 L30.7028171,30.5913772 C30.6809511,30.5954541 30.6640225,30.5989544 30.651091,30.6018096 L30.651091,30.6018096 L30.5434067,30.6318575 L30.4298445,30.6710611 L30.3691839,30.7036759 L30.3201616,30.7177596 L30.2739608,30.7366614 L30.1611039,30.8007791 L30.1279522,30.8141215 L30.0969166,30.8300583 L29.8535558,30.9937637 L29.7601092,31.0717043 L29.7361271,31.0850467 L29.6356139,31.1751081 L29.57319,31.235149 L29.4359983,31.3941461 L29.4222438,31.4045236 L29.3376012,31.513116 L29.2011148,31.7147348 C29.0547535,31.9619402 28.9510662,32.2169286 28.8858208,32.5037906 C28.8403254,32.695032 28.8170487,32.888497 28.8170487,33.0867802 C28.8205754,34.5103422 29.9156402,35.6640908 31.267807,35.6674264 C32.6220899,35.6640908 33.7150386,34.5103422 33.7171547,33.0867802 C33.7171547,32.9403842 33.7041056,32.7939882 33.6794181,32.6457391 L33.6794181,32.6457391 L33.6462664,32.49749 C33.5856058,32.2176699 33.4808605,31.9611989 33.3327358,31.7139935 L33.3327358,31.7139935 L33.2611422,31.5935412 C33.2364548,31.5657444 33.213178,31.5364653 33.1916647,31.5001442 L33.1916647,31.5001442 L33.1063166,31.3896986 L33.0756337,31.3604194 L32.9641875,31.232184 C32.9440848,31.2169884 32.9116385,31.1891917 32.9021162,31.1758493 L32.9021162,31.1758493 L32.8210003,31.0980185 L32.7899646,31.0824524 L32.7363576,31.0339008 L32.6294831,30.9512657 L32.5621347,30.9045535 L32.404971,30.8084524 L32.3734521,30.7963316 L32.2877122,30.7473271 L32.2400076,30.7260523 L32.1801846,30.7066409 L32.1111773,30.6739712 L32.0373501,30.6451175 L31.9435378,30.6210271 L31.8987477,30.6036078 L31.6464655,30.547932 L31.4220187,30.5211511 L31.2685124,30.5172527 Z M6.72072357,30.5176229 L6.56342925,30.5215213 L6.29003229,30.5559418 L5.99435089,30.6322277 L5.88170298,30.6714313 L5.81963168,30.7058992 L5.76496661,30.7192416 L5.72440866,30.7377728 L5.60943568,30.800408 L5.57981074,30.8137505 C5.57064112,30.8174567 5.55159651,30.8296872 5.54806974,30.8296872 L5.54806974,30.8296872 L5.37077728,30.9454313 C5.32302208,30.978101 5.28132772,31.0090686 5.24653018,31.0402009 L5.24653018,31.0402009 L5.20985168,31.0713333 L5.18904369,31.0831932 C5.14778038,31.1224792 5.11321795,31.1517584 5.08500372,31.174737 C5.06243234,31.2010512 5.04444577,31.2162468 5.0328074,31.2262536 L5.0328074,31.2262536 L4.88715145,31.3941457 L4.87410237,31.4045231 L4.78381684,31.5183043 L4.65191533,31.7147344 C4.5059067,31.9619397 4.40257209,32.2169282 4.33909008,32.5049021 C4.29288928,32.6961434 4.2703179,32.8896085 4.2703179,33.0878916 C4.27313932,34.5114536 5.36820403,35.6652022 6.72107625,35.6666847 C8.0750065,35.6652022 9.16830783,34.5129361 9.16971854,33.0878916 C9.16971854,32.9392719 9.15666946,32.7876872 9.1305713,32.6338788 L9.1305713,32.6338788 L9.09953565,32.4982308 C9.03675899,32.2165576 8.93342438,31.9619397 8.78600504,31.7147344 L8.78600504,31.7147344 L8.73980424,31.6391273 L8.73980424,31.6339386 L8.71229537,31.5909464 C8.68866595,31.5646321 8.66750528,31.5368354 8.648108,31.5060737 L8.648108,31.5060737 L8.55711712,31.3885863 L8.52749218,31.3611603 L8.51303239,31.3418879 L8.41463527,31.2329248 L8.27356413,31.0987593 L8.24252848,31.0831932 L8.13980779,30.9950948 L8.0161093,30.9052943 L7.86888589,30.8164134 L7.82389988,30.7952193 L7.80238653,30.7811356 L7.72515008,30.7399965 L7.67154305,30.7177592 L7.63027974,30.7055286 L7.48885592,30.6451171 L7.3936329,30.6210266 L7.35095888,30.6036074 L7.17391461,30.5606151 L6.87336777,30.5215213 L6.72072357,30.5176229 Z M18.0180481,30.5153351 L17.8477096,30.525776 L17.6167056,30.5591321 L17.3148134,30.6384453 L17.2294654,30.6710601 L17.165278,30.7036749 L17.1141397,30.7177586 L17.0255653,30.759035 L16.955082,30.8007781 L16.9226356,30.8141205 L16.8908946,30.8300573 L16.7889707,30.8934338 C16.7092655,30.9471741 16.6429621,30.9935019 16.5893551,31.0402004 L16.5893551,31.0402004 L16.5516185,31.0728152 L16.5301052,31.0846751 L16.429592,31.1747364 C16.4049045,31.2010507 16.3855073,31.2180993 16.3724582,31.2281061 L16.3724582,31.2281061 L16.2722977,31.3455935 L16.2165746,31.4026694 L16.1227623,31.5231218 L15.9866286,31.7284468 C15.8452048,31.9704635 15.745397,32.2221163 15.6815623,32.5023071 C15.6353615,32.6950309 15.6127901,32.888496 15.6127901,33.0867792 C15.6159642,34.5103412 16.712087,35.6640898 18.0628431,35.6655723 C19.4174787,35.6640898 20.51078,34.5118237 20.5121907,33.0867792 C20.5121907,32.9363064 20.4991417,32.7865748 20.4730435,32.6312838 L20.4730435,32.6312838 L20.4434186,32.4971184 C20.3792312,32.2172982 20.2758966,31.9623098 20.1284772,31.7136219 L20.1284772,31.7136219 L20.0822765,31.6361618 L20.0822765,31.630973 L19.9017054,31.389327 L19.8703171,31.3600478 L19.8558573,31.3407754 L19.7606343,31.2336655 C19.7405316,31.2184699 19.7073799,31.1906732 19.6978576,31.1754777 L19.6978576,31.1754777 L19.6146256,31.0976469 L19.5850007,31.0835632 L19.5079863,31.0141864 L19.3564654,30.9026993 L19.2110446,30.8159599 L19.1663721,30.7941069 L19.1096301,30.7627275 L19.0118992,30.7170173 L18.9727519,30.7062693 L18.9045806,30.6735996 L18.8313281,30.6447459 L18.7375158,30.6206554 L18.6911828,30.6036647 L18.5298147,30.5634285 L18.4628239,30.5504687 L18.3517303,30.5362461 L18.3255881,30.5309647 L18.2169372,30.5200245 L18.0180481,30.5153351 Z M23.6131352,17.6861052 L4.89188812,17.6861052 C4.7522139,17.6861052 4.63520758,17.7865714 4.6046277,17.9215028 L4.59683514,17.991535 L4.596,29.284 L4.60371321,29.2796214 L4.80344873,29.1648951 L4.83877859,29.1483322 L5.00955849,29.0612411 L5.31755859,28.9343917 L5.4302065,28.8951881 L5.56622292,28.8540454 L5.86190432,28.7777595 L6.07629759,28.7367681 L6.34969455,28.7023476 L6.52105627,28.6894675 L6.67835059,28.6855691 L6.91703082,28.6895 L7.09408393,28.7032412 L7.39463076,28.742335 L7.57822581,28.776469 L7.75527009,28.8194613 L7.85894092,28.8526762 L7.97404396,28.8827073 L8.03822432,28.9030099 L8.1641478,28.9511023 L8.25195149,28.988287 L8.38366143,29.0389174 L8.53512126,29.1104769 L8.61235771,29.151616 L8.65676419,29.1776535 L8.76074918,29.2333808 L8.90797259,29.3222616 L9.03258293,29.4049032 L9.15628142,29.4947038 L9.26925405,29.5839283 L9.33891926,29.6351588 L9.4712772,29.7492586 L9.61234834,29.8834241 L9.70789497,29.9814805 L9.84219039,30.1281376 L9.93834944,30.2422922 L10.0293403,30.3597796 L10.0659372,30.4128116 L10.1032446,30.4573127 L10.188216,30.5789743 L10.2924105,30.7521003 C10.541632,31.1700162 10.7185015,31.6104722 10.8221971,32.0758829 L10.759,31.83 L14.0230914,31.8305081 C14.1084981,31.53381 14.2255359,31.2442545 14.3905887,30.9340854 L14.5270179,30.6914355 L14.6631515,30.4861105 L14.7445705,30.3729127 L14.8383828,30.2524603 L15.0451062,30.0155158 C15.0998583,29.951292 15.1588591,29.8911606 15.2216602,29.8355477 L15.2216602,29.8355477 L15.4223303,29.655219 L15.6704198,29.4642174 L15.8773947,29.3224796 L15.9793186,29.2591031 L16.0578384,29.2131087 L16.2988533,29.0879769 L16.3874277,29.0467005 L16.7017306,28.9192678 L16.8793226,28.86218 L17.1812149,28.7828668 L17.3721316,28.7441259 L17.6031356,28.7107699 L17.7223451,28.6977979 L17.9239718,28.6845037 L18.0624904,28.6824491 L18.3883283,28.6960542 L18.4969792,28.7069944 L18.7880368,28.7490772 L18.944379,28.7818056 L19.1187867,28.8227854 L19.2042553,28.8470964 L19.2456256,28.8624499 L19.4609152,28.9319721 L19.740821,29.046991 L19.9438117,29.1463489 L20.0948882,29.2281147 L20.240309,29.3148542 L20.3702917,29.4003902 L20.5458318,29.528658 L20.6382757,29.6040335 L20.6622184,29.6203711 L20.8013258,29.7377605 L20.8837598,29.8153909 L20.9609601,29.8835071 L21.1995824,30.1430155 L21.3019841,30.2680685 L21.4825552,30.5097145 C21.5225363,30.5632185 21.5594692,30.6187601 21.5932594,30.6760528 L21.5932594,30.6760528 L21.7763038,31.0064351 C21.9069228,31.2607042 22.0127026,31.52459 22.0948762,31.8039854 L22.0948762,31.8039854 L22.101,31.829 L23.9074628,31.8287841 L23.9081882,17.991535 C23.9081882,17.8469486 23.8111353,17.7258272 23.6807881,17.6941719 L23.6131352,17.6861052 Z M28.083,20.894 L25.678,20.894 L25.678,31.829 L27.2281952,31.8292419 C27.3190555,31.5150869 27.4458709,31.2092207 27.6281791,30.877257 L27.751332,30.6630541 L27.8878184,30.4614353 L27.9598413,30.3623526 L28.0943767,30.1925377 L28.1692081,30.1098252 L28.2528696,30.0143601 L28.3681747,29.8926322 L28.4770146,29.7894988 L28.6274751,29.6563195 L28.8889284,29.4571318 L29.1322892,29.2934264 L29.2717303,29.2081689 C29.3181179,29.1816534 29.3658888,29.1571683 29.4149516,29.1348452 L29.4149516,29.1348452 L29.623268,29.0323613 L29.6694688,29.0134595 L29.7093846,28.9992825 L29.7682436,28.9712667 L29.9572037,28.9026625 L30.0826514,28.8624354 L30.4223378,28.7754493 L30.6329878,28.7354175 L30.8985673,28.7019791 L31.0696448,28.6891047 L31.2258419,28.6852063 L31.3119304,28.6852063 L31.4654367,28.6891235 L31.6247337,28.7006263 L31.8491805,28.7274073 L32.0155856,28.7556309 L32.2678679,28.8113067 C32.3540943,28.8303359 32.4388272,28.8560063 32.521359,28.8881037 L32.521359,28.8881037 L32.6626495,28.9306614 L32.846388,29.0066128 L32.9404541,29.0430184 L33.143396,29.1430381 L33.305344,29.2305901 L33.547548,29.3821202 L33.6888844,29.4830414 L33.8365858,29.5991466 L33.8905051,29.6376647 L34.0244508,29.7539987 L34.1326723,29.8549662 L34.2802903,30.0065248 L34.3523384,30.089056 L34.4011832,30.1400361 L34.4887441,30.2449494 L34.6731402,30.4881436 L34.7689211,30.633214 L34.8371516,30.7480311 C35.029232,31.0685941 35.1791046,31.4034969 35.2844515,31.7508827 C35.3992214,31.7038779 35.4588583,31.6385609 35.4765885,31.569703 L35.4823697,31.5237902 L35.4818012,26.3615907 L34.828,25.35 L28.9682115,25.3501235 C28.5169564,25.3501235 28.1445694,25.0005726 28.0899492,24.5487715 L28.0830526,24.4338341 L28.083,20.894 Z M32.02,21.006 L29.8533705,21.0067955 L29.8533705,23.5174284 L33.643,23.517 L32.02,21.006 Z M24.8800916,4.16685788 C25.3971676,3.68962817 26.1504399,3.61436126 26.7450914,3.98140871 L26.7450914,3.98140871 L26.8973128,4.08999518 L29.5660567,6.1041493 L31.0571867,7.23679839 L31.19065,7.19327126 C31.9185237,6.9622778 32.7320132,6.74221993 33.4185972,6.6329917 L33.4185972,6.6329917 L33.7503298,6.58807586 C34.1223125,6.55742888 34.4961913,6.56266758 34.8090598,6.59968687 C35.2021925,6.61083489 35.5929798,6.66692657 35.9922904,6.77187197 L35.9922904,6.77187197 L36.3326892,6.87627076 C36.4762342,6.9244268 36.5889543,6.97040976 36.7120563,7.03173334 C37.1091671,7.2295552 37.3933792,7.50503998 37.4774496,7.9517323 C37.5699207,8.46871002 37.3675384,8.81852325 37.061519,9.13166649 L37.061519,9.13166649 L36.9733022,9.22103374 C36.7255658,9.4564481 36.3767757,9.66948878 35.900059,9.87966419 L35.900059,9.87966419 L35.5181155,10.0370633 C35.3825256,10.0895538 35.2385205,10.1421701 35.0856801,10.1952169 L35.0856801,10.1952169 L34.6002337,10.3559538 C34.5147684,10.3830602 34.4269893,10.4103504 34.336844,10.4378625 L34.336844,10.4378625 L33.7671572,10.6059037 L33.138161,10.7811005 L32.4262325,10.9691505 L30.4845354,15.3543853 L30.2214415,15.9242712 C29.8783595,16.5492846 29.1860872,16.8720379 28.4816708,16.7117793 C27.7953806,16.5272933 27.3391018,15.8548305 27.3937976,15.170836 L27.3937976,15.170836 L27.4386569,12.3533584 L23.6720756,13.4054147 L23.3450429,13.4879112 C23.0209739,13.5481994 22.6831594,13.5185188 22.3497401,13.3939895 C21.994589,13.2459178 21.7659248,13.0200786 21.5303753,12.6656985 L21.5303753,12.6656985 L20.4928089,11.0378545 L20.1607461,10.5038136 L19.9689028,10.1779473 C19.7371644,9.86747683 19.6449174,9.46847456 19.7358742,8.99575321 C19.7917833,8.81064545 19.8909221,8.64260812 20.0522834,8.48018681 C20.5211225,8.05062941 21.2137203,8.01842417 21.7215248,8.40639603 L21.7215248,8.40639603 L23.1119999,9.48231827 L26.06371,8.65521437 L25.5412739,7.7206801 L24.6584261,6.12375326 C24.2676794,5.51443285 24.3503911,4.70028059 24.8800916,4.16685788 Z M25.9093091,5.27565595 L25.8878584,5.28204767 L26.5137214,6.40860293 L27.7587492,8.63784036 C27.8052431,8.73216564 27.8395147,8.8392648 27.8632388,8.97441793 C27.9033459,9.2947411 27.7681023,9.59632335 27.5179436,9.77382843 C27.4036362,9.85493754 27.316516,9.88734909 27.1875167,9.92236694 L27.1875167,9.92236694 L23.2127902,11.0356885 C22.9180743,11.1003523 22.6113834,11.02408 22.4037248,10.8415782 L22.4037248,10.8415782 L21.8692368,10.4254855 L22.7224104,11.7644955 L22.8256331,11.9136 L22.8659122,11.9604264 L22.8747986,11.9671295 C22.9552722,11.9970687 23.0422402,11.999819 23.1491625,11.9679889 L23.1491625,11.9679889 L23.9972725,11.7380913 L28.8482655,10.3696949 L28.9310198,11.2749317 L28.9360536,11.3702231 L28.9263367,11.7703458 L28.8655331,15.2268419 C28.8806189,15.2261551 28.8925838,15.2226001 28.9015553,15.2191344 L28.9015553,15.2191344 L28.9178574,15.2107774 L29.01101,15.0113057 L31.1610453,10.1640376 L31.1618358,9.72388686 L31.7209861,9.5795439 L32.430867,9.39258181 L33.0820632,9.21312598 L33.6732638,9.04117571 L34.2031578,8.87673032 C34.3694256,8.82316592 34.5252572,8.77085222 34.6704341,8.71978911 L34.6704341,8.71978911 L35.0737817,8.5703514 C35.3210793,8.47322727 35.5248837,8.38110501 35.6834471,8.29398371 L35.6834471,8.29398371 L35.7119425,8.27648142 L35.6122528,8.24735634 C35.4050864,8.1930371 35.1941891,8.15662004 34.9571062,8.136699 L34.9571062,8.136699 L34.710463,8.12222456 C34.4303614,8.09123187 34.1481579,8.0872777 33.8862234,8.10860578 C33.1922411,8.18437652 32.1119267,8.48703396 31.2987669,8.75884157 C31.1315056,8.81764419 30.9524182,8.83047598 30.7625604,8.79259154 C30.6359877,8.76437995 30.5162607,8.71010509 30.4586688,8.6653758 L30.4586688,8.6653758 L30.3787736,8.61214122 L27.0257422,6.07491421 L25.9810951,5.28937798 L25.9473142,5.27700474 L25.9093091,5.27565595 Z M19.2799292,12.3127836 C19.5972688,12.2365582 19.9120338,12.4442577 19.9836773,12.7736469 C20.0439118,13.0505813 19.913505,13.333128 19.6395664,13.4716899 L19.6395664,13.4716899 L19.5432521,13.5052381 L13.4202798,14.9759857 C13.1029402,15.0522111 12.7881752,14.8445115 12.7165316,14.5151224 C12.6562972,14.238188 12.786704,13.9556413 13.0606426,13.8170794 L13.0606426,13.8170794 L13.1569568,13.7835312 Z M18.4113106,10.8406081 C18.7293864,10.7679152 19.0419826,10.9790582 19.1102977,11.3091715 C19.1677447,11.586768 19.0344794,11.8679 18.7591039,12.0034393 L18.7591039,12.0034393 L18.6624491,12.0359182 L14.0107346,13.099019 C13.6926588,13.1717119 13.3800627,12.9605689 13.3117476,12.6304556 C13.2543005,12.3528591 13.3875658,12.0717272 13.6629414,11.9361878 L13.6629414,11.9361878 L13.7595961,11.9037089 Z" id="Combined-Shape" fill="#FFFFFF"></path>
                </g>
            </g>
        </g>
    </g>
</svg>