<?xml version="1.0" encoding="UTF-8"?>
<svg width="40px" height="40px" viewBox="0 0 40 40" version="1.1" xmlns="http://www.w3.org/2000/svg" xmlns:xlink="http://www.w3.org/1999/xlink">
    <title>01F839D4-637C-4B4F-8210-7AE596BCE930</title>
    <defs>
        <filter id="filter-1">
            <feColorMatrix in="SourceGraphic" type="matrix" values="0 0 0 0 0.447059 0 0 0 0 0.447059 0 0 0 0 0.447059 0 0 0 1.000000 0"></feColorMatrix>
        </filter>
    </defs>
    <g id="--------↳-⚠️-Template-custom-icons" stroke="none" stroke-width="1" fill="none" fill-rule="evenodd">
        <g id="Template-icons---line-style" transform="translate(-348.000000, -245.000000)">
            <g id="Foundations/system-icon/pl-icon-documentation" transform="translate(348.000000, 245.000000)" filter="url(#filter-1)">
                <g>
                    <path d="M19.9636129,2.56384569 C20.1685607,2.47726876 20.3957839,2.47879284 20.5997499,2.5681125 L20.5997499,2.5681125 L35.7022666,9.18172199 C36.0330511,9.32657727 36.25,9.67767997 36.25,10.0681549 L36.25,10.0681549 L36.25,36.5454545 C36.25,37.0726354 35.8601468,37.5 35.3792385,37.5 L35.3792385,37.5 L4.62076154,37.5 C4.13985322,37.5 3.75,37.0726354 3.75,36.5454545 L3.75,36.5454545 L3.75,10.0681549 C3.75,9.67341582 3.97164624,9.31939569 4.30765263,9.17745517 L4.30765263,9.17745517 Z M20.270088,4.47909091 L5.49152309,10.7230909 L5.49152309,35.5909091 L7.594,35.59 L7.59480961,14.0667675 C7.59480961,13.5772424 7.93095857,13.1737834 8.36402197,13.118644 L8.46557116,13.1122221 L31.5344288,13.1122221 C32.0153372,13.1122221 32.4051904,13.5395866 32.4051904,14.0667675 L32.4051904,14.0667675 L32.405,35.59 L34.5076198,35.5909091 L34.5076198,10.7129091 L20.270088,4.47909091 Z M30.663,17.968 L9.335,17.968 L9.33564505,35.5896364 L30.6634978,35.5896364 L30.663,17.968 Z M23.4698096,29.5208649 C23.6769164,29.5208649 23.8448096,29.6887581 23.8448096,29.8958649 L23.8448096,33.3606187 C23.8448096,33.5677255 23.6769164,33.7356187 23.4698096,33.7356187 L20.375,33.7356187 C20.1678932,33.7356187 20,33.5677255 20,33.3606187 L20,29.8958649 C20,29.6887581 20.1678932,29.5208649 20.375,29.5208649 L23.4698096,29.5208649 Z M28.5962224,29.5208649 C28.8033292,29.5208649 28.9712224,29.6887581 28.9712224,29.8958649 L28.9712224,33.3606187 C28.9712224,33.5677255 28.8033292,33.7356187 28.5962224,33.7356187 L25.5014128,33.7356187 C25.294306,33.7356187 25.1264128,33.5677255 25.1264128,33.3606187 L25.1264128,29.8958649 C25.1264128,29.6887581 25.294306,29.5208649 25.5014128,29.5208649 L28.5962224,29.5208649 Z M18.3433968,29.5208649 C18.5505036,29.5208649 18.7183968,29.6887581 18.7183968,29.8958649 L18.7183968,33.3606187 C18.7183968,33.5677255 18.5505036,33.7356187 18.3433968,33.7356187 L15.2485872,33.7356187 C15.0414804,33.7356187 14.8735872,33.5677255 14.8735872,33.3606187 L14.8735872,29.8958649 C14.8735872,29.6887581 15.0414804,29.5208649 15.2485872,29.5208649 L18.3433968,29.5208649 Z M28.5962224,23.9011931 C28.8033292,23.9011931 28.9712224,24.0690863 28.9712224,24.2761931 L28.9712224,27.7409469 C28.9712224,27.9480537 28.8033292,28.1159469 28.5962224,28.1159469 L25.5014128,28.1159469 C25.294306,28.1159469 25.1264128,27.9480537 25.1264128,27.7409469 L25.1264128,24.2761931 C25.1264128,24.0690863 25.294306,23.9011931 25.5014128,23.9011931 L28.5962224,23.9011931 Z M23.4698096,23.9011931 C23.6769164,23.9011931 23.8448096,24.0690863 23.8448096,24.2761931 L23.8448096,27.7409469 C23.8448096,27.9480537 23.6769164,28.1159469 23.4698096,28.1159469 L20.375,28.1159469 C20.1678932,28.1159469 20,27.9480537 20,27.7409469 L20,24.2761931 C20,24.0690863 20.1678932,23.9011931 20.375,23.9011931 L23.4698096,23.9011931 Z M30.6634978,15.0210909 L9.33564505,15.0210909 L9.335,16.059 L30.663,16.059 L30.6634978,15.0210909 Z" id="Combined-Shape" fill="#FFFFFF"></path>
                </g>
            </g>
        </g>
    </g>
</svg>