<?xml version="1.0" encoding="UTF-8"?>
<svg width="40px" height="40px" viewBox="0 0 40 40" version="1.1" xmlns="http://www.w3.org/2000/svg" xmlns:xlink="http://www.w3.org/1999/xlink">
    <title>5AF208A0-06B8-4A86-BE39-605B727CD241</title>
    <defs>
        <filter id="filter-1">
            <feColorMatrix in="SourceGraphic" type="matrix" values="0 0 0 0 0.447059 0 0 0 0 0.447059 0 0 0 0 0.447059 0 0 0 1.000000 0"></feColorMatrix>
        </filter>
    </defs>
    <g id="--------↳-⚠️-Template-custom-icons" stroke="none" stroke-width="1" fill="none" fill-rule="evenodd">
        <g id="Template-icons---line-style" transform="translate(-468.000000, -245.000000)">
            <g id="Foundations/system-icon/pl-icon-documentation" transform="translate(468.000000, 245.000000)" filter="url(#filter-1)">
                <g>
                    <path d="M35.0980114,4.0625 C36.2538461,4.0625 37.1875,5.00455904 37.1875,6.16255734 L37.1875,6.16255734 L37.1875,35.0874427 C37.1875,36.245441 36.2538461,37.1875 35.0980114,37.1875 L35.0980114,37.1875 L6.15170455,37.1875 C4.99585179,37.1875 4.0625,36.2454249 4.0625,35.0874427 L4.0625,35.0874427 L4.0625,6.16255734 C4.0625,5.00457514 4.99585179,4.0625 6.15170455,4.0625 L6.15170455,4.0625 Z M35.3125,10.7025 L5.9375,10.7025 L5.9375,35.0874427 C5.9375,35.19272 6.00542387,35.2788249 6.0954229,35.3046022 L6.15170455,35.3125 L35.0980114,35.3125 C35.214532,35.3125 35.3125,35.21365 35.3125,35.0874427 L35.3125,35.0874427 L35.3125,10.7025 Z M16.6015625,13.8607368 C16.862358,13.8607368 17.0737216,14.0740396 17.0737216,14.3375143 L17.0737216,16.9676749 C17.0737216,17.2311497 16.862358,17.4444524 16.6015625,17.4444524 L13.2205,17.4435 L13.2205,19.5435 L19.7895,19.5435 L19.7903409,19.0948968 C19.7903409,18.831422 20.0017045,18.6181193 20.2625,18.6181193 L28.9772727,18.6181193 C29.2380682,18.6181193 29.4494318,18.831422 29.4494318,19.0948968 L29.4494318,21.7250573 C29.4494318,21.9885321 29.2380682,22.2018349 28.9772727,22.2018349 L20.2625,22.2018349 C20.0017045,22.2018349 19.7903409,21.9885321 19.7903409,21.7250573 L19.7895,21.4185 L13.2195,21.4185 L13.2195,24.9905 L19.7895,24.9905 L19.7903409,24.5421445 C19.7903409,24.2786697 20.0017045,24.065367 20.2625,24.065367 L28.9772727,24.065367 C29.2380682,24.065367 29.4494318,24.2786697 29.4494318,24.5421445 L29.4494318,27.172305 C29.4494318,27.4357798 29.2380682,27.6490826 28.9772727,27.6490826 L20.2625,27.6490826 C20.0017045,27.6490826 19.7903409,27.4357798 19.7903409,27.172305 L19.7895,26.8655 L13.2195,26.8655 L13.22,30.58125 L19.7895,30.5815 L19.7903409,29.9893922 C19.7903409,29.7259174 20.0017045,29.5126147 20.2625,29.5126147 L28.9772727,29.5126147 C29.2380682,29.5126147 29.4494318,29.7259174 29.4494318,29.9893922 L29.4494318,32.6195528 C29.4494318,32.8830275 29.2380682,33.0963303 28.9772727,33.0963303 L20.2625,33.0963303 C20.0017045,33.0963303 19.7903409,32.8830275 19.7903409,32.6195528 L19.7895,32.4565 L11.3458239,32.4569954 L11.3455,17.4435 L7.88678977,17.4444524 C7.62599432,17.4444524 7.41463068,17.2311497 7.41463068,16.9676749 L7.41463068,14.3375143 C7.41463068,14.0740396 7.62599432,13.8607368 7.88678977,13.8607368 L16.6015625,13.8607368 Z M35.0980114,5.9375 L6.15170455,5.9375 C6.03531037,5.9375 5.9375,6.03622453 5.9375,6.16255734 L5.9375,6.16255734 L5.9375,8.8275 L35.3125,8.8275 L35.3125,6.16255734 C35.3125,6.05738455 35.2444666,5.97120992 35.154358,5.94540651 L35.0980114,5.9375 Z M8.26693182,6.86353211 C8.58056818,6.86353211 8.83511364,7.12041284 8.83511364,7.43692661 C8.83511364,7.75344037 8.58056818,8.0103211 8.26693182,8.0103211 L7.41465909,8.0103211 C7.10102273,8.0103211 6.84647727,7.75344037 6.84647727,7.43692661 C6.84647727,7.12041284 7.10102273,6.86353211 7.41465909,6.86353211 L8.26693182,6.86353211 Z M11.3919318,6.86353211 C11.7055682,6.86353211 11.9601136,7.12041284 11.9601136,7.43692661 C11.9601136,7.75344037 11.7055682,8.0103211 11.3919318,8.0103211 L10.5396591,8.0103211 C10.2260227,8.0103211 9.97147727,7.75344037 9.97147727,7.43692661 C9.97147727,7.12041284 10.2260227,6.86353211 10.5396591,6.86353211 L11.3919318,6.86353211 Z M14.5169318,6.86353211 C14.8305682,6.86353211 15.0851136,7.12041284 15.0851136,7.43692661 C15.0851136,7.75344037 14.8305682,8.0103211 14.5169318,8.0103211 L13.6646591,8.0103211 C13.3510227,8.0103211 13.0964773,7.75344037 13.0964773,7.43692661 C13.0964773,7.12041284 13.3510227,6.86353211 13.6646591,6.86353211 L14.5169318,6.86353211 Z" id="web-doc" fill="#FFFFFF"></path>
                </g>
            </g>
        </g>
    </g>
</svg>