<?xml version="1.0" encoding="UTF-8"?>
<svg width="24px" height="24px" viewBox="0 0 24 24" version="1.1" xmlns="http://www.w3.org/2000/svg" xmlns:xlink="http://www.w3.org/1999/xlink">
    <title>Foundations/system icon/ic_critical_error</title>
    <g id="Foundations/system-icon/ic_critical_error" stroke="none" stroke-width="1" fill="none" fill-rule="evenodd">
        <path d="M15.9128593,2 C16.0602081,2 16.2015213,2.05853656 16.3057092,2.16273129 L16.3057092,2.16273129 L21.8372944,7.69467788 C21.9414734,7.79886371 22,7.94016594 22,8.08750214 L22,8.08750214 L22,15.9119567 C22,16.0592929 21.9414734,16.2005951 21.8372944,16.3047809 L21.8372944,16.3047809 L16.305168,21.8372687 C16.2009801,21.9414634 16.0596669,22 15.9123181,22 L15.9123181,22 L8.08768191,22 C7.94033313,22 7.7990199,21.9414634 7.69483198,21.8372687 L7.69483198,21.8372687 L2.16270562,16.3047809 C2.0585266,16.2005951 2,16.0592929 2,15.9119567 L2,15.9119567 L2,8.08750214 C2,7.94016594 2.0585266,7.79886371 2.16270562,7.69467788 L2.16270562,7.69467788 L7.69429076,2.16273129 C7.79847868,2.05853656 7.93979191,2 8.0871407,2 L8.0871407,2 Z M15.6600816,7.55555556 C15.4439475,7.55555556 15.2475228,7.64341221 15.1055491,7.7853859 L15.1055491,7.7853859 L12.000167,10.890768 L8.89445092,7.7853859 C8.75247723,7.64341221 8.55638652,7.55555556 8.33991841,7.55555556 C7.90698218,7.55555556 7.55555556,7.90664813 7.55555556,8.33991841 C7.55555556,8.55638652 7.64341221,8.75214318 7.7853859,8.89411686 L7.7853859,8.89411686 L10.891102,11.999833 L7.7853859,15.1055491 C7.64341221,15.2475228 7.55555556,15.4436135 7.55555556,15.6600816 C7.55555556,16.0930178 7.90698218,16.4444444 8.33991841,16.4444444 C8.55638652,16.4444444 8.75247723,16.3565878 8.89445092,16.21428 L8.89445092,16.21428 L12.000167,13.108898 L15.1055491,16.21428 C15.2475228,16.3565878 15.4439475,16.4444444 15.6600816,16.4444444 C16.0930178,16.4444444 16.4444444,16.0930178 16.4444444,15.6600816 C16.4444444,15.4436135 16.3565878,15.2475228 16.2146141,15.1055491 L16.2146141,15.1055491 L13.108898,11.999833 L16.2146141,8.89411686 C16.3565878,8.75214318 16.4444444,8.55638652 16.4444444,8.33991841 C16.4444444,7.90664813 16.0930178,7.55555556 15.6600816,7.55555556 Z" id="🎨-Color" fill="#DB0000"></path>
    </g>
</svg>
