<?xml version="1.0" encoding="UTF-8"?>
<svg width="24px" height="24px" viewBox="0 0 24 24" version="1.1" xmlns="http://www.w3.org/2000/svg" xmlns:xlink="http://www.w3.org/1999/xlink">
    <title>Foundations/system icon/ic_success_circle</title>
    <g id="Foundations/system-icon/ic_success_circle" stroke="none" stroke-width="1" fill="none" fill-rule="evenodd">
        <path d="M12,2 C17.5228475,2 22,6.4771525 22,12 C22,17.5228475 17.5228475,22 12,22 C6.4771525,22 2,17.5228475 2,12 C2,6.4771525 6.4771525,2 12,2 Z M15.75,8.66666667 C15.4911111,8.66666667 15.2561111,8.77222222 15.0866667,8.94166667 L15.0866667,8.94166667 L10.75,13.2788889 L8.60055556,11.1294444 C8.43055556,10.9594444 8.19611111,10.8544444 7.93722222,10.8544444 C7.42,10.8544444 7,11.2738889 7,11.7916667 C7,12.0505556 7.10444444,12.285 7.27444444,12.4544444 L7.27444444,12.4544444 L10.0866667,15.2672222 C10.2566667,15.4372222 10.4911111,15.5416667 10.75,15.5416667 C11.0088889,15.5416667 11.2433333,15.4372222 11.4127778,15.2672222 L11.4127778,15.2672222 L16.4122222,10.2672222 C16.5822222,10.0972222 16.6872222,9.86333333 16.6872222,9.60388889 C16.6872222,9.08666667 16.2672222,8.66666667 15.75,8.66666667 Z" id="🎨-Color" fill="#039145"></path>
    </g>
</svg>
