<svg xmlns="http://www.w3.org/2000/svg" width="44" height="44" viewBox="0 0 44 44">
  <path fill="#0081CB" fill-rule="evenodd" d="M11 25a1 1 0 1 1 0-2 1 1 0 0 1 0 2zm2 3V14h-2.556l-5.657 5.464c-.785.785-.785 1.948 0 2.733l11.314 11.265c.777.778 2.043.761 2.828-.024L22.343 30H15a2 2 0 0 1-2-2zm10-12v-5.5l5.5 5.5H23zm-4 5h9v-2h-9v2zm0 4h6v-2h-6v2zm-2-4a1 1 0 1 1 0-2 1 1 0 0 1 0 2zm0 4a1 1 0 1 1 0-2 1 1 0 0 1 0 2zm13-10l-6-6h-8c-1.11 0-2 .89-2 2v16a2 2 0 0 0 2 2h6.661L30 21.653V15zm4.831 11.494L26.333 35H23v-3.331l8.498-8.507 3.333 3.332zm4.694-.878c-.018.435-.471.889-.925 1.333l-3.671 3.68-1.262-1.262 3.778-3.769-.854-.853-1.262 1.253-3.333-3.334 3.413-3.404c.347-.347.925-.347 1.253 0l2.08 2.08c.347.329.347.907 0 1.253-.302.303-.595.596-.604.889-.027.285.276.578.56.854.427.444.844.844.827 1.28zM22 1.5c11.304 0 20.5 9.196 20.5 20.5S33.304 42.5 22 42.5 1.5 33.304 1.5 22 10.696 1.5 22 1.5zM22 0C9.869 0 0 9.869 0 22s9.869 22 22 22 22-9.869 22-22S34.131 0 22 0z"></path>
</svg>